<?xml version="1.0" encoding="UTF-8"?>
<svg xmlns="http://www.w3.org/2000/svg" xmlns:xlink="http://www.w3.org/1999/xlink" version="1.2" >
<font id="Proxima Nova Soft Regular">
<font-face  font-family="Proxima Nova Soft" units-per-em="1000" ascent="775" descent="-225" font-style="normal" font-weight="400" font-stretch="normal" cap-height="673" x-height="489" underline-position="-123" underline-thickness="20" />
<missing-glyph  horiz-adv-x="507" d="M429 -60 L429 722 C429 738 415 752 399 752 L108 752 C91 752 78 738 78 722 L78 -60 C78 -77 91 -90 108 -90 L399 -90 C415 -90 429 -77 429 -60 L429 -60 Z M397 -60 L109 -60 L109 722 L397 722 L397 -60 Z " />
<glyph glyph-name="NULL" d="" />
<glyph glyph-name="&amp;#x0;" d="" />
<glyph glyph-name="&amp;#xd;" unicode="&#xd;" d="" />
<glyph glyph-name="space" unicode="&#x20;" horiz-adv-x="258" d="" />
<glyph glyph-name="exclam" unicode="&#x21;" horiz-adv-x="230" d="M161 627 C162 652 141 673 116 673 C89 673 68 652 69 627 C69 627 83 211 83 211 C84 194 97 181 114 181 C133 181 146 194 147 211 C147 211 161 627 161 627 L161 627 Z M170 45 C170 75 145 100 115 100 C85 100 60 75 60 45 C60 16 85 -10 115 -10 C145 -10 170 16 170 45 L170 45 Z " />
<glyph glyph-name="quotedbl" unicode="&#x22;" horiz-adv-x="343" d="M145 631 C145 656 125 677 99 677 C74 677 54 656 54 631 C54 620 72 474 79 423 C80 414 89 406 98 406 C110 406 119 414 120 423 C127 474 145 620 145 631 L145 631 Z M290 631 C290 656 270 677 245 677 C219 677 199 656 199 631 C199 620 217 474 224 423 C225 414 234 406 243 406 C255 406 264 414 265 423 C272 474 290 620 290 631 L290 631 Z " />
<glyph glyph-name="numbersign" unicode="&#x23;" horiz-adv-x="590" d="M564 458 C564 474 553 485 539 485 L462 485 L513 637 C514 640 514 642 514 645 C514 660 503 673 485 673 C473 673 462 666 458 654 L402 485 L292 485 L342 636 C343 639 343 642 343 645 C343 660 331 673 314 673 C301 673 290 666 286 654 L230 485 L134 485 C120 485 109 474 109 460 C109 444 120 433 134 433 L212 433 L146 234 L54 234 C40 234 28 222 28 209 C28 193 40 181 54 181 L128 181 L77 31 C76 28 75 25 75 22 C75 7 87 -7 105 -7 C118 -7 129 1 133 13 L189 181 L300 181 L249 30 C248 27 247 24 247 21 C247 7 259 -7 276 -7 C289 -7 300 1 304 13 L360 181 L459 181 C472 181 484 193 484 207 C484 222 472 234 459 234 L378 234 L445 433 L539 433 C553 433 564 444 564 458 L564 458 Z M383 433 L317 234 L207 234 L273 433 L383 433 Z " />
<glyph glyph-name="dollar" unicode="&#x24;" horiz-adv-x="593" d="M544 184 C544 314 435 353 332 382 L332 599 C377 593 417 577 456 544 C463 538 472 535 480 535 C502 535 519 554 519 576 C519 587 515 598 506 605 C457 647 402 668 332 675 L332 745 C332 761 319 774 303 774 C284 774 271 761 271 745 L271 676 C150 669 63 596 63 492 C63 369 169 335 271 307 L271 63 C207 70 153 99 113 134 C106 140 98 143 89 143 C67 143 51 121 51 101 C51 90 55 79 64 71 C115 25 185 -6 271 -11 L271 -77 C271 -93 284 -106 303 -106 C319 -106 332 -93 332 -77 L332 -11 C486 1 544 93 544 184 L544 184 Z M271 398 C203 418 149 441 149 497 C149 556 199 597 271 602 L271 398 Z M458 177 C458 130 427 73 332 63 L332 290 C402 269 458 242 458 177 L458 177 Z " />
<glyph glyph-name="percent" unicode="&#x25;" horiz-adv-x="731" d="M353 511 C353 605 287 677 191 677 C96 677 31 605 31 511 C31 418 96 348 191 348 C287 348 353 418 353 511 L353 511 Z M591 638 C593 641 594 645 594 649 C594 661 584 673 571 673 C564 673 556 669 552 663 L147 28 C144 24 143 20 143 16 C143 3 155 -7 167 -7 C174 -7 181 -3 185 3 L591 638 Z M700 151 C700 245 634 317 539 317 C444 317 379 245 379 151 C379 58 444 -12 539 -12 C634 -12 700 58 700 151 L700 151 Z M91 511 C91 577 132 626 191 626 C251 626 293 577 293 511 C293 448 251 398 191 398 C132 398 91 448 91 511 L91 511 Z M438 151 C438 217 479 266 539 266 C599 266 641 217 641 151 C641 88 599 38 539 38 C479 38 438 88 438 151 L438 151 Z " />
<glyph glyph-name="ampersand" unicode="&#x26;" horiz-adv-x="641" d="M483 126 C515 171 542 225 563 273 C565 277 566 282 566 287 C566 304 552 321 532 321 C518 321 505 313 500 300 C486 263 465 215 437 174 C388 226 343 273 281 358 C366 402 451 446 451 546 C451 630 387 677 300 677 C206 677 132 611 132 522 C132 475 153 423 183 372 C106 331 36 278 36 174 C36 50 129 -12 244 -12 C325 -12 387 21 436 70 C459 47 503 -6 529 -6 C551 -6 566 12 566 30 C566 55 518 87 483 126 L483 126 Z M117 179 C117 248 160 289 215 323 C267 249 295 217 391 116 C353 78 306 50 251 50 C181 50 117 96 117 179 L117 179 Z M303 618 C348 618 382 592 382 543 C382 477 321 441 250 406 C227 445 210 486 210 521 C210 578 252 618 303 618 L303 618 Z " />
<glyph glyph-name="quotesingle" unicode="&#x27;" horiz-adv-x="199" d="M145 631 C145 656 125 677 99 677 C74 677 54 656 54 631 C54 620 72 474 79 423 C80 414 89 406 98 406 C110 406 119 414 120 423 C127 474 145 620 145 631 L145 631 Z " />
<glyph glyph-name="parenleft" unicode="&#x28;" horiz-adv-x="248" d="M226 -161 C226 -157 225 -153 223 -149 C164 -31 126 88 126 243 C126 400 165 519 224 638 C226 642 226 646 226 650 C226 666 213 679 196 679 C186 679 177 674 172 666 C89 546 44 395 44 243 C44 91 90 -60 171 -180 C177 -188 186 -192 195 -192 C213 -192 226 -175 226 -161 L226 -161 Z " />
<glyph glyph-name="parenright" unicode="&#x29;" horiz-adv-x="248" d="M204 243 C204 395 159 546 76 666 C70 675 61 679 51 679 C33 679 21 663 21 649 C21 645 22 641 24 638 C83 519 122 400 122 243 C122 88 84 -31 25 -149 C23 -153 22 -158 22 -162 C22 -177 35 -192 53 -192 C62 -192 71 -188 77 -180 C158 -60 204 91 204 243 L204 243 Z " />
<glyph glyph-name="asterisk" unicode="&#x2a;" horiz-adv-x="340" d="M171 683 C156 683 148 673 148 661 L152 562 L68 616 C65 618 61 619 58 619 C46 619 36 610 36 597 C36 589 40 582 47 578 L136 533 L47 488 C40 484 36 477 36 469 C36 456 48 447 58 447 C61 447 65 448 68 450 L152 504 L148 405 C148 393 156 383 169 383 C183 383 193 393 192 405 L187 504 L270 450 C273 448 277 447 281 447 C294 447 303 457 303 469 C303 477 299 485 292 488 L204 533 L293 578 C300 581 304 589 304 596 C304 610 291 618 282 618 C278 618 274 617 271 615 L187 562 L192 661 C193 673 183 683 171 683 L171 683 Z " />
<glyph glyph-name="plus" unicode="&#x2b;" horiz-adv-x="499" d="M476 338 C476 352 465 363 451 363 L278 363 L278 549 C278 564 266 576 251 576 C233 576 221 564 221 549 L221 363 L48 363 C34 363 23 352 23 338 C23 322 34 311 48 311 L221 311 L221 120 C221 104 233 92 249 92 C266 92 278 104 278 120 L278 311 L451 311 C465 311 476 322 476 338 L476 338 Z " />
<glyph glyph-name="comma" unicode="&#x2c;" horiz-adv-x="230" d="M176 24 C176 72 146 100 113 100 C83 100 60 75 60 46 C60 16 80 -5 108 -5 C113 -5 120 -4 122 -3 C119 -30 99 -60 75 -82 C70 -87 67 -94 67 -101 C67 -115 81 -124 92 -124 C96 -124 101 -122 105 -119 C146 -85 176 -29 176 24 L176 24 Z " />
<glyph glyph-name="hyphen" unicode="&#x2d;" horiz-adv-x="300" d="M276 243 C276 261 262 275 244 275 L56 275 C38 275 24 261 24 243 C24 223 38 209 56 209 L244 209 C262 209 276 223 276 243 L276 243 Z " />
<glyph glyph-name="period" unicode="&#x2e;" horiz-adv-x="230" d="M170 45 C170 75 145 100 115 100 C85 100 60 75 60 45 C60 15 85 -10 115 -10 C145 -10 170 15 170 45 L170 45 Z " />
<glyph glyph-name="slash" unicode="&#x2f;" horiz-adv-x="296" d="M288 670 C288 684 276 698 260 698 C248 698 238 691 234 680 L9 6 C8 3 7 0 7 -3 C7 -18 20 -31 36 -31 C48 -31 58 -24 62 -13 L287 661 C288 664 288 667 288 670 L288 670 Z " />
<glyph glyph-name="zero" unicode="0" horiz-adv-x="612" d="M561 333 C561 496 488 677 306 677 C123 677 51 496 51 333 C51 171 123 -12 306 -12 C488 -12 561 171 561 333 L561 333 Z M476 333 C476 200 433 62 306 62 C179 62 136 200 136 333 C136 466 179 603 306 603 C433 603 476 466 476 333 L476 333 Z " />
<glyph glyph-name="one" unicode="1" horiz-adv-x="339" d="M261 35 L261 627 C261 653 239 672 214 672 C201 672 189 668 181 659 L40 515 C33 508 30 499 30 490 C30 469 48 454 66 454 C75 454 83 457 90 464 L178 557 L178 35 C178 12 196 -6 219 -6 C243 -6 261 12 261 35 L261 35 Z " />
<glyph glyph-name="two" unicode="2" horiz-adv-x="588" d="M518 38 C518 58 502 74 482 74 L185 74 C371 221 509 345 509 481 C509 614 396 677 285 677 C203 677 127 649 72 594 C65 587 62 577 62 568 C62 547 81 531 100 531 C108 531 117 534 124 541 C164 580 219 603 285 603 C354 603 424 566 424 481 C424 369 294 252 60 71 C50 63 45 52 45 40 C45 17 64 0 83 0 L482 0 C502 0 518 16 518 38 L518 38 Z " />
<glyph glyph-name="three" unicode="3" horiz-adv-x="557" d="M502 180 C502 287 409 339 348 344 C411 355 492 403 492 499 C492 612 394 677 266 677 C177 677 108 644 56 594 C49 588 45 578 45 569 C45 548 64 533 81 533 C89 533 97 536 103 542 C148 582 198 603 260 603 C341 603 409 563 409 489 C409 394 315 379 215 379 C195 379 179 363 179 343 C179 299 224 305 254 305 C352 305 420 270 420 187 C420 110 361 62 264 62 C198 62 139 87 97 129 C90 135 81 139 72 139 C52 139 37 119 37 100 C37 91 40 83 47 76 C94 25 170 -12 266 -12 C413 -12 502 69 502 180 L502 180 Z " />
<glyph glyph-name="four" unicode="4" horiz-adv-x="558" d="M532 205 C532 226 516 242 497 242 L432 242 L432 603 C432 640 399 673 361 673 C337 673 314 661 301 642 L34 241 C29 233 26 223 26 214 C26 187 46 169 67 169 L349 169 L349 35 C349 12 367 -6 390 -6 C414 -6 432 12 432 35 L432 169 L497 169 C516 169 532 185 532 205 L532 205 Z M349 242 L115 242 L349 590 L349 242 Z " />
<glyph glyph-name="five" unicode="5" horiz-adv-x="590" d="M538 208 C538 345 437 421 326 421 C259 421 202 393 170 361 L170 593 L465 593 C485 593 501 609 501 629 C501 651 485 667 465 667 L147 667 C114 667 87 640 87 607 L87 329 C87 305 107 288 130 288 C142 288 154 293 164 301 C203 333 252 349 302 349 C392 349 455 293 455 205 C455 124 392 62 301 62 C232 62 180 84 137 127 C130 134 120 137 111 137 C89 137 75 115 75 98 C75 88 78 79 85 72 C136 18 204 -12 301 -12 C435 -12 538 72 538 208 L538 208 Z " />
<glyph glyph-name="six" unicode="6" horiz-adv-x="591" d="M542 206 C542 348 444 419 324 419 C238 419 164 361 135 315 C134 324 134 332 134 341 C134 472 193 603 322 603 C376 603 411 586 440 560 C447 554 456 551 465 551 C485 551 502 568 502 588 C502 597 499 606 492 613 C447 656 395 677 322 677 C135 677 51 513 51 332 C51 151 122 -12 308 -12 C454 -12 542 90 542 206 L542 206 Z M458 203 C458 139 408 62 305 62 C189 62 145 164 137 247 C174 306 238 347 304 347 C390 347 458 301 458 203 L458 203 Z " />
<glyph glyph-name="seven" unicode="7" horiz-adv-x="515" d="M491 628 C491 652 469 667 452 667 L61 667 C41 667 25 651 25 631 C25 609 41 593 61 593 L390 593 L144 51 C142 46 140 40 140 35 C140 14 158 -6 183 -6 C199 -6 214 3 221 18 L488 614 C490 618 491 623 491 628 L491 628 Z " />
<glyph glyph-name="eight" unicode="8" horiz-adv-x="581" d="M530 169 C530 258 454 319 371 344 C448 366 520 416 520 504 C520 624 401 677 291 677 C180 677 63 624 63 504 C63 416 134 366 211 344 C128 319 52 258 52 169 C52 55 159 -12 291 -12 C422 -12 530 56 530 169 L530 169 Z M436 493 C436 412 332 385 291 378 C251 385 146 412 146 493 C146 562 210 603 291 603 C371 603 436 562 436 493 L436 493 Z M446 178 C446 106 373 62 291 62 C208 62 135 106 135 178 C135 265 250 302 291 307 C332 302 446 265 446 178 L446 178 Z " />
<glyph glyph-name="nine" unicode="9" horiz-adv-x="591" d="M540 334 C540 515 469 678 283 678 C137 678 49 576 49 460 C49 318 147 247 267 247 C353 247 427 305 456 351 C457 342 457 334 457 325 C457 194 398 63 269 63 C215 63 180 80 151 106 C144 112 135 115 126 115 C106 115 88 98 88 78 C88 68 92 59 99 53 C144 10 196 -11 269 -11 C456 -11 540 153 540 334 L540 334 Z M454 419 C417 360 353 319 287 319 C201 319 133 365 133 463 C133 527 183 604 286 604 C402 604 446 502 454 419 L454 419 Z " />
<glyph glyph-name="colon" unicode="&#x3a;" horiz-adv-x="230" d="M170 435 C170 465 145 490 115 490 C85 490 60 465 60 435 C60 405 85 380 115 380 C145 380 170 405 170 435 L170 435 Z M170 45 C170 75 145 100 115 100 C85 100 60 75 60 45 C60 15 85 -10 115 -10 C145 -10 170 15 170 45 L170 45 Z " />
<glyph glyph-name="semicolon" unicode="&#x3b;" horiz-adv-x="230" d="M170 435 C170 465 145 490 115 490 C85 490 60 465 60 435 C60 406 85 380 115 380 C145 380 170 406 170 435 L170 435 Z M176 26 C176 74 146 102 113 102 C83 102 60 77 60 48 C60 18 80 -3 108 -3 C113 -3 120 -2 122 -1 C119 -28 99 -58 75 -80 C70 -85 67 -92 67 -99 C67 -113 81 -122 92 -122 C96 -122 101 -120 105 -117 C146 -83 176 -27 176 26 L176 26 Z " />
<glyph glyph-name="less" unicode="&#x3c;" horiz-adv-x="499" d="M476 133 C476 142 470 153 461 157 L93 334 L460 512 C470 517 476 526 476 537 C476 554 460 565 447 565 C443 565 439 565 435 563 L43 368 C31 362 23 349 23 336 C23 320 31 307 43 301 L436 107 C440 105 443 104 447 104 C459 104 476 115 476 133 L476 133 Z " />
<glyph glyph-name="equal" unicode="&#x3d;" horiz-adv-x="499" d="M476 238 C476 252 465 263 451 263 L48 263 C34 263 23 252 23 238 C23 222 34 211 48 211 L451 211 C465 211 476 222 476 238 L476 238 Z M476 432 C476 445 464 457 451 457 L49 457 C35 457 23 445 23 432 C23 416 35 404 49 404 L451 404 C464 404 476 416 476 432 L476 432 Z " />
<glyph glyph-name="greater" unicode="&#x3e;" horiz-adv-x="499" d="M475 336 C475 349 467 362 455 368 L63 563 C59 565 55 565 51 565 C36 565 22 553 22 536 C22 526 28 517 38 512 L405 334 L37 157 C28 153 22 142 22 133 C22 116 38 104 50 104 C54 104 58 105 62 107 L455 301 C467 307 475 320 475 336 L475 336 Z " />
<glyph glyph-name="question" unicode="&#x3f;" horiz-adv-x="462" d="M431 522 C431 608 357 677 235 677 C154 677 87 648 37 597 C30 590 27 580 27 571 C27 551 45 534 63 534 C72 534 81 537 87 544 C122 580 166 603 227 603 C306 603 345 560 345 510 C345 404 164 393 164 266 C164 247 178 182 218 182 C237 182 250 198 250 215 C250 230 237 246 237 260 C237 358 431 371 431 522 L431 522 Z M279 45 C279 75 254 100 224 100 C194 100 169 75 169 45 C169 15 194 -10 224 -10 C254 -10 279 15 279 45 L279 45 Z " />
<glyph glyph-name="at" unicode="&#x40;" horiz-adv-x="783" d="M747 321 C747 496 621 638 432 638 C224 638 35 460 35 244 C35 67 170 -70 352 -70 C421 -70 494 -48 553 -11 C557 -9 559 -4 559 1 C559 11 549 17 542 17 C540 17 537 16 535 15 C482 -18 422 -37 356 -37 C190 -37 69 85 69 246 C69 433 235 604 428 604 C598 604 711 485 711 321 C711 183 642 139 603 139 C577 139 556 157 556 191 C556 197 557 206 558 212 L608 452 C608 454 609 457 609 459 C609 476 595 490 575 490 C560 490 546 480 543 465 L534 421 C515 464 471 499 406 499 C288 499 171 387 171 248 C171 151 231 85 324 85 C388 85 447 123 483 169 C486 124 518 85 574 85 C658 85 747 164 747 321 L747 321 Z M522 369 L493 231 C464 189 413 141 344 141 C280 141 242 188 242 252 C242 348 319 443 419 443 C478 443 511 400 522 369 L522 369 Z " />
<glyph glyph-name="A" unicode="A" horiz-adv-x="658" d="M630 38 C630 43 629 49 627 54 L395 628 C384 655 358 673 329 673 C298 673 272 655 261 628 L31 54 C29 49 28 43 28 38 C28 15 47 -6 73 -6 C90 -6 106 4 113 21 L163 148 L495 148 L545 21 C552 4 568 -6 585 -6 C612 -6 630 18 630 38 L630 38 Z M470 222 L187 222 L329 581 L470 222 Z " />
<glyph glyph-name="B" unicode="B" horiz-adv-x="629" d="M575 180 C575 260 516 333 445 344 C506 357 562 413 562 497 C562 597 491 667 375 667 L138 667 C105 667 78 640 78 607 L78 60 C78 27 105 0 138 0 L382 0 C504 0 575 73 575 180 L575 180 Z M476 485 C476 424 436 378 361 378 L161 378 L161 593 L361 593 C436 593 476 545 476 485 L476 485 Z M489 189 C489 118 443 74 365 74 L161 74 L161 304 L365 304 C447 304 489 250 489 189 L489 189 Z " />
<glyph glyph-name="C" unicode="C" horiz-adv-x="676" d="M394 678 C202 678 51 538 51 333 C51 128 202 -12 394 -12 C494 -12 565 28 617 82 C624 90 628 100 628 110 C628 131 612 151 589 151 C579 151 568 146 561 138 C519 89 457 62 394 62 C248 62 137 175 137 333 C137 492 248 604 394 604 C456 604 522 574 561 527 C568 518 579 514 589 514 C611 514 628 533 628 554 C628 565 624 575 617 583 C566 638 494 678 394 678 L394 678 Z " />
<glyph glyph-name="D" unicode="D" horiz-adv-x="700" d="M648 333 C648 522 513 667 306 667 L138 667 C105 667 78 640 78 607 L78 60 C78 27 105 0 138 0 L306 0 C513 0 648 143 648 333 L648 333 Z M562 333 C562 190 468 74 306 74 L161 74 L161 593 L306 593 C471 593 562 477 562 333 L562 333 Z " />
<glyph glyph-name="E" unicode="E" horiz-adv-x="569" d="M521 38 C521 58 505 74 485 74 L161 74 L161 304 L478 304 C498 304 514 320 514 340 C514 362 498 378 478 378 L161 378 L161 593 L485 593 C505 593 521 609 521 629 C521 651 505 667 485 667 L138 667 C105 667 78 640 78 607 L78 60 C78 27 105 0 138 0 L485 0 C505 0 521 16 521 38 L521 38 Z " />
<glyph glyph-name="F" unicode="F" horiz-adv-x="550" d="M521 629 C521 651 505 667 485 667 L138 667 C105 667 78 640 78 607 L78 35 C78 12 96 -6 119 -6 C143 -6 161 12 161 35 L161 304 L478 304 C498 304 514 320 514 340 C514 362 498 378 478 378 L161 378 L161 593 L485 593 C505 593 521 609 521 629 L521 629 Z " />
<glyph glyph-name="G" unicode="G" horiz-adv-x="713" d="M656 151 L656 283 C656 316 629 343 596 343 L374 343 C354 343 338 327 338 307 C338 285 354 269 374 269 L573 269 L573 133 C540 100 474 61 394 61 C248 61 137 175 137 333 C137 492 248 604 394 604 C460 604 527 577 569 532 C577 524 586 520 596 520 C618 520 634 537 634 559 C634 569 631 580 623 587 C570 640 494 678 394 678 C204 678 51 540 51 333 C51 126 204 -13 394 -13 C512 -13 656 48 656 151 L656 151 Z " />
<glyph glyph-name="H" unicode="H" horiz-adv-x="712" d="M634 35 L634 633 C634 655 616 673 594 673 C569 673 551 655 551 633 L551 380 L161 380 L161 633 C161 655 143 673 121 673 C96 673 78 655 78 633 L78 35 C78 12 96 -6 119 -6 C143 -6 161 12 161 35 L161 306 L551 306 L551 35 C551 12 569 -6 592 -6 C616 -6 634 12 634 35 L634 35 Z " />
<glyph glyph-name="I" unicode="I" horiz-adv-x="239" d="M161 35 L161 633 C161 655 143 673 121 673 C96 673 78 655 78 633 L78 35 C78 12 96 -6 119 -6 C143 -6 161 12 161 35 L161 35 Z " />
<glyph glyph-name="J" unicode="J" horiz-adv-x="475" d="M397 201 L397 633 C397 655 379 673 357 673 C332 673 314 655 314 633 L314 202 C314 119 262 62 180 62 C137 62 105 79 79 102 C72 108 64 110 56 110 C36 110 19 91 19 71 C19 61 23 52 31 45 C75 4 126 -12 185 -12 C304 -12 397 56 397 201 L397 201 Z " />
<glyph glyph-name="K" unicode="K" horiz-adv-x="601" d="M544 33 C544 42 541 50 535 57 L282 350 L510 610 C516 616 519 625 519 633 C519 655 500 672 478 672 C467 672 457 668 449 659 L161 322 L161 633 C161 655 143 673 121 673 C96 673 78 655 78 633 L78 35 C78 12 96 -6 119 -6 C143 -6 161 12 161 35 L161 224 L228 300 L474 7 C482 -2 493 -7 504 -7 C528 -7 544 14 544 33 L544 33 Z " />
<glyph glyph-name="L" unicode="L" horiz-adv-x="510" d="M477 38 C477 58 461 74 441 74 L161 74 L161 633 C161 655 143 673 121 673 C96 673 78 655 78 633 L78 60 C78 27 105 0 138 0 L441 0 C461 0 477 16 477 38 L477 38 Z " />
<glyph glyph-name="M" unicode="M" horiz-adv-x="809" d="M731 35 L731 605 C731 641 700 672 662 672 C634 672 607 656 596 630 L404 165 L213 630 C202 656 174 672 147 672 C109 672 78 641 78 605 L78 35 C78 12 96 -6 119 -6 C143 -6 161 12 161 35 L161 549 L384 7 C387 -1 395 -6 403 -6 C413 -6 421 -1 424 7 L648 549 L648 35 C648 12 666 -6 689 -6 C713 -6 731 12 731 35 L731 35 Z " />
<glyph glyph-name="N" unicode="N" horiz-adv-x="708" d="M630 41 L630 633 C630 655 612 673 590 673 C565 673 547 655 547 633 L547 146 L175 651 C165 665 148 673 131 673 C100 673 78 649 78 623 L78 35 C78 12 96 -6 119 -6 C143 -6 161 12 161 35 L161 532 L539 15 C548 2 564 -6 580 -6 C610 -6 630 17 630 41 L630 41 Z " />
<glyph glyph-name="O" unicode="O" horiz-adv-x="765" d="M713 333 C713 530 579 678 382 678 C184 678 51 530 51 333 C51 136 184 -12 382 -12 C579 -12 713 136 713 333 L713 333 Z M627 333 C627 178 531 62 382 62 C232 62 137 178 137 333 C137 489 232 604 382 604 C531 604 627 489 627 333 L627 333 Z " />
<glyph glyph-name="P" unicode="P" horiz-adv-x="587" d="M555 466 C555 575 480 667 346 667 L138 667 C105 667 78 640 78 607 L78 35 C78 12 96 -6 119 -6 C143 -6 161 12 161 35 L161 265 L346 265 C478 265 555 357 555 466 L555 466 Z M469 466 C469 391 415 339 336 339 L161 339 L161 593 L336 593 C415 593 469 541 469 466 L469 466 Z " />
<glyph glyph-name="Q" unicode="Q" horiz-adv-x="765" d="M713 333 C713 530 579 678 382 678 C184 678 51 530 51 333 C51 136 184 -12 382 -12 C451 -12 512 6 562 38 L606 -9 C613 -17 623 -21 633 -21 C655 -21 672 -2 672 18 C672 27 669 35 663 42 L621 87 C679 148 713 234 713 333 L713 333 Z M627 333 C627 259 605 194 566 146 L491 227 C484 235 474 239 464 239 C442 239 425 219 425 200 C425 191 428 183 435 176 L509 96 C473 74 430 62 382 62 C232 62 137 178 137 333 C137 489 232 604 382 604 C531 604 627 489 627 333 L627 333 Z " />
<glyph glyph-name="R" unicode="R" horiz-adv-x="608" d="M555 466 C555 589 468 667 346 667 L138 667 C105 667 78 640 78 607 L78 35 C78 12 96 -6 119 -6 C143 -6 161 12 161 35 L161 265 L294 265 L457 12 C465 0 477 -6 490 -6 C514 -6 531 14 531 34 C531 41 529 48 525 55 L382 272 C473 280 555 346 555 466 L555 466 Z M336 593 C415 593 469 541 469 466 C469 391 415 338 336 338 L161 338 L161 593 L336 593 Z " />
<glyph glyph-name="S" unicode="S" horiz-adv-x="586" d="M540 184 C540 433 145 347 145 497 C145 560 202 603 282 603 C343 603 404 585 453 545 C460 539 469 536 477 536 C499 536 516 556 516 576 C516 587 511 598 502 606 C448 651 374 677 288 677 C157 677 59 602 59 492 C59 254 454 349 454 177 C454 126 416 62 297 62 C220 62 156 94 110 135 C103 141 94 143 86 143 C62 143 47 121 47 101 C47 90 51 79 60 71 C117 21 195 -12 294 -12 C474 -12 540 87 540 184 L540 184 Z " />
<glyph glyph-name="T" unicode="T" horiz-adv-x="570" d="M544 629 C544 651 528 667 508 667 L62 667 C42 667 26 651 26 631 C26 609 42 593 62 593 L243 593 L243 35 C243 12 261 -6 284 -6 C308 -6 326 12 326 35 L326 593 L508 593 C528 593 544 609 544 629 L544 629 Z " />
<glyph glyph-name="U" unicode="U" horiz-adv-x="700" d="M622 260 L622 633 C622 655 604 673 582 673 C557 673 539 655 539 633 L539 261 C539 139 473 62 350 62 C227 62 161 139 161 261 L161 633 C161 655 143 673 121 673 C96 673 78 655 78 633 L78 259 C78 95 169 -12 350 -12 C531 -12 622 94 622 260 L622 260 Z " />
<glyph glyph-name="V" unicode="V" horiz-adv-x="658" d="M630 629 C630 652 611 673 585 673 C567 673 551 662 545 646 L329 91 L113 646 C106 663 90 673 73 673 C46 673 28 649 28 629 C28 623 29 618 31 613 L261 39 C272 12 299 -6 328 -6 L330 -6 C358 -6 385 12 396 39 L627 613 C629 618 630 624 630 629 L630 629 Z " />
<glyph glyph-name="W" unicode="W" horiz-adv-x="883" d="M856 631 C856 654 837 672 812 672 C792 672 774 659 769 640 L629 111 L483 642 C478 660 461 673 442 673 C421 673 405 660 400 642 L254 111 L113 640 C108 660 89 673 69 673 C43 673 26 652 26 631 C26 627 27 623 28 619 L194 34 C200 11 220 -6 247 -6 L248 -6 C275 -6 296 11 303 35 L441 538 L578 35 C584 12 605 -6 631 -6 L632 -6 C658 -6 681 11 688 35 L854 619 C855 623 856 627 856 631 L856 631 Z " />
<glyph glyph-name="X" unicode="X" horiz-adv-x="652" d="M603 34 C603 42 601 50 596 57 L380 343 L581 610 C586 617 588 625 588 633 C588 656 568 673 547 673 C535 673 524 668 517 658 L326 400 L135 657 C127 667 115 673 103 673 C79 673 63 652 63 633 C63 625 66 617 71 610 L272 342 L56 57 C50 50 48 41 48 33 C48 10 66 -7 88 -7 C100 -7 111 -2 118 8 L326 284 L533 8 C540 -2 551 -7 563 -7 C585 -7 603 12 603 34 L603 34 Z " />
<glyph glyph-name="Y" unicode="Y" horiz-adv-x="626" d="M585 633 C585 654 566 672 544 672 C532 672 519 666 512 656 L313 357 L114 656 C106 667 92 673 80 673 C55 673 40 652 40 633 C40 625 43 618 47 612 L272 282 L272 35 C272 12 290 -6 313 -6 C337 -6 355 12 355 35 L355 282 L579 612 C583 618 585 626 585 633 L585 633 Z " />
<glyph glyph-name="Z" unicode="Z" horiz-adv-x="585" d="M542 38 C542 58 526 74 506 74 L154 74 L525 593 C531 601 534 611 534 621 C534 648 513 667 492 667 L78 667 C58 667 42 651 42 631 C42 609 58 593 78 593 L423 593 L52 74 C46 66 43 56 43 46 C43 19 64 0 85 0 L506 0 C526 0 542 16 542 38 L542 38 Z " />
<glyph glyph-name="bracketleft" unicode="&#x5b;" horiz-adv-x="243" d="M232 -162 C232 -147 220 -135 206 -135 L98 -135 L98 623 L206 623 C220 623 232 635 232 650 C232 666 220 678 206 678 L100 678 C67 678 40 651 40 618 L40 -130 C40 -163 67 -190 100 -190 L206 -190 C220 -190 232 -178 232 -162 L232 -162 Z " />
<glyph glyph-name="backslash" unicode="&#x5c;" horiz-adv-x="296" d="M288 -3 C288 0 288 3 287 6 L62 680 C58 691 47 698 36 698 C19 698 7 683 7 669 C7 666 8 664 9 661 L234 -13 C238 -24 249 -32 260 -32 C277 -32 288 -16 288 -3 L288 -3 Z " />
<glyph glyph-name="bracketright" unicode="&#x5d;" horiz-adv-x="243" d="M203 -130 L203 618 C203 651 176 678 143 678 L38 678 C23 678 11 666 11 652 C11 635 23 623 38 623 L145 623 L145 -135 L38 -135 C23 -135 11 -147 11 -162 C11 -178 23 -190 38 -190 L143 -190 C176 -190 203 -163 203 -130 L203 -130 Z " />
<glyph glyph-name="asciicircum" unicode="&#x5e;" horiz-adv-x="432" d="M399 354 C399 359 398 363 396 367 L253 651 C246 664 232 673 218 673 C201 673 187 664 180 651 L36 367 C34 363 33 359 33 355 C33 340 46 326 62 326 C71 326 81 331 85 340 L216 612 L348 340 C352 331 362 326 371 326 C388 326 399 342 399 354 L399 354 Z " />
<glyph glyph-name="underscore" unicode="&#x5f;" horiz-adv-x="564" d="M573 -67 C573 -52 561 -40 547 -40 L18 -40 C3 -40 -9 -52 -9 -67 C-9 -83 3 -95 18 -95 L547 -95 C561 -95 573 -83 573 -67 L573 -67 Z " />
<glyph glyph-name="grave" unicode="&#x60;" horiz-adv-x="226" d="M203 571 C203 576 201 580 198 584 L80 698 C75 703 68 705 62 705 C48 705 36 693 36 680 C36 673 39 667 44 663 L170 555 C174 552 178 550 183 550 C195 550 203 561 203 571 L203 571 Z " />
<glyph glyph-name="a" unicode="a" horiz-adv-x="527" d="M452 31 L452 332 C452 449 367 495 265 495 C196 495 136 474 85 428 C78 422 75 414 75 406 C75 388 92 376 108 376 C115 376 123 379 129 384 C166 415 207 430 255 430 C325 430 377 393 377 328 L377 241 C338 286 283 307 217 307 C135 307 48 256 48 148 C48 43 135 -12 217 -12 C282 -12 337 11 377 55 C377 55 377 33 377 33 C377 12 393 -6 414 -6 L414 -6 C435 -6 452 11 452 31 L452 31 Z M377 102 C348 62 297 42 244 42 C174 42 125 86 125 147 C125 209 174 253 244 253 C297 253 348 233 377 193 L377 102 Z " />
<glyph glyph-name="b" unicode="b" horiz-adv-x="575" d="M528 241 C528 395 439 495 313 495 C247 495 189 463 150 410 L150 637 C150 656 133 673 114 673 C92 673 75 656 75 637 L75 31 C75 11 92 -6 112 -6 C133 -6 150 11 150 31 L150 72 C186 23 245 -12 313 -12 C439 -12 528 84 528 241 L528 241 Z M450 241 C450 134 392 55 294 55 C235 55 176 89 150 131 L150 350 C176 392 235 428 294 428 C392 428 450 348 450 241 L450 241 Z " />
<glyph glyph-name="c" unicode="c" horiz-adv-x="495" d="M455 72 C455 91 438 105 420 105 C411 105 402 102 395 96 C366 68 332 55 292 55 C189 55 125 135 125 242 C125 349 189 428 292 428 C332 428 366 416 395 388 C402 381 411 377 421 377 C440 377 455 394 455 411 C455 419 452 426 447 432 C410 470 361 495 288 495 C144 495 47 385 47 242 C47 98 144 -12 288 -12 C361 -12 410 13 447 51 C453 57 455 65 455 72 L455 72 Z " />
<glyph glyph-name="d" unicode="d" horiz-adv-x="575" d="M500 31 L500 637 C500 656 483 673 464 673 C442 673 425 656 425 637 L425 410 C386 463 327 495 262 495 C135 495 47 395 47 241 C47 84 136 -12 262 -12 C330 -12 389 23 425 72 L425 31 C425 11 442 -6 462 -6 C483 -6 500 11 500 31 L500 31 Z M425 131 C398 89 340 55 280 55 C183 55 125 134 125 241 C125 348 183 428 280 428 C340 428 398 392 425 350 L425 131 Z " />
<glyph glyph-name="e" unicode="e" horiz-adv-x="563" d="M516 258 C516 275 512 293 509 308 C484 419 405 495 285 495 C147 495 47 382 47 242 C47 91 150 -12 293 -12 C352 -12 477 17 477 69 C477 88 460 100 447 100 C441 100 435 98 430 95 C392 65 346 50 300 50 C196 50 132 126 126 217 L475 217 C498 217 516 236 516 258 L516 258 Z M443 272 L126 272 C130 346 181 433 284 433 C394 433 442 344 443 272 L443 272 Z " />
<glyph glyph-name="f" unicode="f" horiz-adv-x="283" d="M332 631 C332 666 269 677 236 677 C150 677 96 619 96 520 L96 483 L42 483 C24 483 10 469 10 451 C10 431 24 417 42 417 L96 417 L96 31 C96 11 113 -6 133 -6 C154 -6 171 11 171 31 L171 417 L243 417 C261 417 275 431 275 449 C275 469 261 483 243 483 L171 483 L171 520 C171 581 198 615 247 615 C268 615 286 601 302 601 C317 601 332 614 332 631 L332 631 Z " />
<glyph glyph-name="g" unicode="g" horiz-adv-x="574" d="M499 14 L499 453 C499 472 482 489 463 489 C441 489 424 472 424 453 L424 410 C385 463 327 495 262 495 C135 495 47 399 47 244 C47 88 136 -6 262 -6 C330 -6 389 31 424 80 L424 11 C424 -95 349 -134 269 -134 C212 -134 169 -122 131 -88 C125 -83 118 -81 110 -81 C92 -81 77 -96 77 -113 C77 -123 81 -132 88 -138 C141 -183 198 -196 269 -196 C387 -196 499 -146 499 14 L499 14 Z M424 139 C398 97 340 60 280 60 C183 60 125 138 125 244 C125 351 183 428 280 428 C340 428 398 392 424 350 L424 139 Z " />
<glyph glyph-name="h" unicode="h" horiz-adv-x="552" d="M477 31 L477 341 C477 446 424 495 323 495 C250 495 184 453 150 413 L150 637 C150 656 133 673 114 673 C92 673 75 656 75 637 L75 31 C75 11 92 -6 112 -6 C133 -6 150 11 150 31 L150 353 C179 392 235 428 293 428 C358 428 402 403 402 318 L402 31 C402 11 419 -6 439 -6 C460 -6 477 11 477 31 L477 31 Z " />
<glyph glyph-name="i" unicode="i" horiz-adv-x="225" d="M112 653 C85 653 62 630 62 602 C62 574 85 552 112 552 C140 552 163 574 163 602 C163 630 140 653 112 653 L112 653 Z M150 31 L150 453 C150 472 133 489 114 489 C92 489 75 472 75 453 L75 31 C75 11 92 -6 112 -6 C133 -6 150 11 150 31 L150 31 Z " />
<glyph glyph-name="j" unicode="j" horiz-adv-x="225" d="M112 653 C85 653 62 630 62 602 C62 574 85 552 112 552 C139 552 163 574 163 602 C163 630 140 653 112 653 L112 653 Z M150 -47 L150 453 C150 472 133 489 114 489 C92 489 75 472 75 453 L75 -47 C75 -108 42 -134 -3 -134 C-29 -134 -48 -118 -64 -118 C-80 -118 -96 -131 -96 -148 C-96 -181 -38 -196 7 -196 C99 -196 150 -142 150 -47 L150 -47 Z " />
<glyph glyph-name="k" unicode="k" horiz-adv-x="514" d="M464 31 C464 39 461 47 456 53 L285 264 L449 432 C455 438 458 446 458 454 C458 473 441 490 423 490 C415 490 406 486 400 480 L150 226 L150 637 C150 656 133 673 114 673 C92 673 75 656 75 637 L75 31 C75 11 92 -6 112 -6 C133 -6 150 11 150 31 L150 138 L230 217 L398 7 C405 -2 416 -7 427 -7 C450 -7 464 14 464 31 L464 31 Z " />
<glyph glyph-name="l" unicode="l" horiz-adv-x="225" d="M150 31 L150 637 C150 656 133 673 114 673 C92 673 75 656 75 637 L75 31 C75 11 92 -6 112 -6 C133 -6 150 11 150 31 L150 31 Z " />
<glyph glyph-name="m" unicode="m" horiz-adv-x="808" d="M733 31 L733 349 C733 446 686 495 598 495 C528 495 463 449 436 405 C422 455 380 495 306 495 C235 495 170 444 150 413 L150 453 C150 472 133 489 114 489 C92 489 75 472 75 453 L75 31 C75 11 92 -6 112 -6 C133 -6 150 11 150 31 L150 353 C176 392 228 428 277 428 C340 428 366 389 366 328 L366 31 C366 11 383 -6 403 -6 C424 -6 441 11 441 31 L441 354 C466 392 519 428 569 428 C631 428 658 389 658 328 L658 31 C658 11 675 -6 695 -6 C716 -6 733 11 733 31 L733 31 Z " />
<glyph glyph-name="n" unicode="n" horiz-adv-x="551" d="M476 31 L476 339 C476 444 423 495 322 495 C250 495 184 453 150 413 L150 453 C150 472 133 489 114 489 C92 489 75 472 75 453 L75 31 C75 11 92 -6 112 -6 C133 -6 150 11 150 31 L150 353 C178 392 234 428 293 428 C358 428 401 401 401 316 L401 31 C401 11 418 -6 438 -6 C459 -6 476 11 476 31 L476 31 Z " />
<glyph glyph-name="o" unicode="o" horiz-adv-x="572" d="M525 242 C525 382 433 495 286 495 C139 495 47 382 47 242 C47 102 139 -12 286 -12 C433 -12 525 102 525 242 L525 242 Z M446 242 C446 143 389 55 286 55 C183 55 125 143 125 242 C125 340 183 428 286 428 C389 428 446 340 446 242 L446 242 Z " />
<glyph glyph-name="p" unicode="p" horiz-adv-x="572" d="M528 242 C528 399 440 495 313 495 C245 495 185 460 150 411 L150 453 C150 472 133 489 114 489 C92 489 75 472 75 453 L75 -154 C75 -173 92 -190 112 -190 C133 -190 150 -173 150 -154 L150 73 C189 19 247 -12 313 -12 C440 -12 528 86 528 242 L528 242 Z M449 242 C449 135 391 55 294 55 C235 55 176 91 150 133 L150 351 C176 393 235 428 294 428 C391 428 449 349 449 242 L449 242 Z " />
<glyph glyph-name="q" unicode="q" horiz-adv-x="572" d="M496 -154 L496 453 C496 472 479 489 460 489 C438 489 421 472 421 453 L421 411 C387 460 327 495 259 495 C132 495 44 399 44 242 C44 86 132 -12 259 -12 C324 -12 382 19 421 73 L421 -154 C421 -173 438 -190 458 -190 C479 -190 496 -173 496 -154 L496 -154 Z M421 133 C396 91 337 55 277 55 C180 55 123 135 123 242 C123 349 180 428 277 428 C337 428 396 393 421 351 L421 133 Z " />
<glyph glyph-name="r" unicode="r" horiz-adv-x="330" d="M317 456 C317 476 301 491 283 491 C227 491 179 443 150 405 L150 453 C150 472 133 489 114 489 C92 489 75 472 75 453 L75 31 C75 11 91 -5 111 -6 L112 -6 C133 -6 150 11 150 31 L150 342 C182 390 229 412 278 415 C300 416 317 434 317 456 L317 456 Z " />
<glyph glyph-name="s" unicode="s" horiz-adv-x="465" d="M418 134 C418 322 119 252 119 358 C119 401 160 434 226 434 C275 434 319 417 350 393 C356 388 363 386 370 386 C386 386 400 399 400 416 C400 424 397 432 390 438 C348 474 296 495 226 495 C111 495 46 431 46 356 C46 177 345 249 345 132 C345 84 305 49 231 49 C178 49 128 70 93 98 C86 103 79 105 71 105 C52 105 37 91 37 73 C37 64 41 56 48 50 C98 6 160 -12 228 -12 C353 -12 418 53 418 134 L418 134 Z " />
<glyph glyph-name="t" unicode="t" horiz-adv-x="294" d="M286 31 C286 48 271 62 254 62 C242 62 227 55 214 55 C181 55 165 81 165 117 L165 417 L237 417 C255 417 269 431 269 449 C269 469 255 483 237 483 L165 483 L165 585 C165 604 148 621 129 621 C107 621 90 604 90 585 L90 483 L36 483 C18 483 4 469 4 451 C4 431 18 417 36 417 L90 417 L90 101 C90 29 126 -12 197 -12 C240 -12 286 -1 286 31 L286 31 Z " />
<glyph glyph-name="u" unicode="u" horiz-adv-x="551" d="M476 31 L476 453 C476 472 459 489 440 489 C418 489 401 472 401 453 L401 128 C373 89 317 55 258 55 C193 55 150 80 150 165 L150 453 C150 472 133 489 114 489 C92 489 75 472 75 453 L75 142 C75 37 128 -12 229 -12 C301 -12 364 26 401 68 L401 31 C401 11 418 -6 438 -6 C459 -6 476 11 476 31 L476 31 Z " />
<glyph glyph-name="v" unicode="v" horiz-adv-x="490" d="M472 452 C472 472 455 489 433 489 C418 489 404 480 398 466 L245 87 L91 466 C85 481 71 489 56 489 C34 489 18 471 18 452 C18 448 19 443 21 439 L191 29 C200 8 220 -6 243 -6 L244 -6 C269 -6 290 8 299 29 L469 439 C471 443 472 448 472 452 L472 452 Z " />
<glyph glyph-name="w" unicode="w" horiz-adv-x="734" d="M711 453 C711 472 695 489 674 489 C658 489 643 479 638 464 L526 98 L406 461 C400 478 385 489 368 489 C348 489 334 478 328 461 L208 98 L96 464 C91 479 75 489 59 489 C38 489 23 470 23 453 C23 450 24 446 25 443 L158 27 C164 8 181 -6 202 -6 L203 -6 C225 -6 244 8 250 27 L367 388 L484 27 C490 8 508 -6 529 -6 L530 -6 C552 -6 570 8 576 27 L709 443 C710 446 711 450 711 453 L711 453 Z " />
<glyph glyph-name="x" unicode="x" horiz-adv-x="486" d="M445 28 C445 35 443 42 439 48 L289 248 L427 433 C432 439 434 447 434 454 C434 472 417 489 398 489 C388 489 377 484 371 475 L243 299 L114 476 C107 485 97 489 87 489 C65 489 51 469 51 453 C51 446 54 440 58 434 L197 248 L48 48 C43 42 41 35 41 28 C41 9 58 -7 76 -7 C87 -7 96 -2 103 7 L243 198 L383 7 C389 -2 400 -7 410 -7 C431 -7 445 12 445 28 L445 28 Z " />
<glyph glyph-name="y" unicode="y" horiz-adv-x="490" d="M472 452 C472 472 455 489 433 489 C418 489 404 480 398 466 L245 87 L91 466 C85 481 71 489 56 489 C34 489 18 471 18 452 C18 448 19 443 21 439 L205 -5 L173 -78 C155 -118 132 -130 102 -129 C94 -129 86 -128 77 -128 C60 -128 44 -142 44 -162 C44 -194 77 -196 103 -196 C165 -196 216 -167 245 -98 L469 439 C471 443 472 448 472 452 L472 452 Z " />
<glyph glyph-name="z" unicode="z" horiz-adv-x="472" d="M426 34 C426 51 412 65 395 65 L148 65 L413 422 C418 429 421 437 421 446 C421 468 405 483 388 483 L78 483 C60 483 46 469 46 451 C46 431 60 417 78 417 L318 417 L56 63 C51 56 47 47 47 38 C47 16 62 0 81 0 L395 0 C412 0 426 14 426 34 L426 34 Z " />
<glyph glyph-name="braceleft" unicode="&#x7b;" horiz-adv-x="260" d="M249 -162 C249 -147 237 -135 223 -135 L182 -135 C146 -135 116 -101 116 -55 L116 156 C116 198 103 230 70 244 C103 258 116 290 116 332 L116 543 C116 590 146 623 182 623 L223 623 C237 623 249 635 249 650 C249 666 237 678 223 678 L182 678 C119 678 57 626 57 543 L57 338 C57 301 47 278 23 271 C9 267 -1 259 -1 245 C-1 230 9 221 23 217 C47 210 57 187 57 150 L57 -56 C57 -138 119 -190 182 -190 L223 -190 C237 -190 249 -178 249 -162 L249 -162 Z " />
<glyph glyph-name="bar" unicode="&#x7c;" horiz-adv-x="211" d="M133 1 L133 667 C133 681 121 693 107 693 C90 693 78 681 78 667 L78 1 C78 -14 90 -26 105 -26 C121 -26 133 -14 133 1 L133 1 Z " />
<glyph glyph-name="braceright" unicode="&#x7d;" horiz-adv-x="260" d="M261 244 C261 259 251 267 237 271 C213 278 203 301 203 338 L203 543 C203 626 141 678 78 678 L38 678 C23 678 11 666 11 652 C11 635 23 623 38 623 L78 623 C114 623 144 590 144 543 L144 332 C144 290 157 258 190 244 C157 230 144 198 144 156 L144 -55 C144 -101 114 -135 78 -135 L38 -135 C23 -135 11 -147 11 -162 C11 -178 23 -190 38 -190 L78 -190 C141 -190 203 -138 203 -56 L203 150 C203 187 213 210 237 217 C251 221 261 230 261 244 L261 244 Z " />
<glyph glyph-name="asciitilde" unicode="&#x7e;" horiz-adv-x="503" d="M472 633 C472 649 461 663 444 663 C429 663 417 654 416 640 C405 541 381 475 337 475 C260 475 291 666 165 666 C74 666 43 567 30 456 C30 439 39 426 58 426 C72 426 84 435 86 449 C98 546 120 613 165 613 C242 613 212 423 337 423 C429 423 460 523 472 633 L472 633 Z " />
<glyph glyph-name="uni00A0" unicode="&#xa0;" horiz-adv-x="258" d="" />
<glyph glyph-name="exclamdown" unicode="&#xa1;" horiz-adv-x="230" d="M170 438 C170 467 145 493 115 493 C85 493 60 467 60 438 C60 408 85 383 115 383 C145 383 169 408 170 438 L170 438 Z M161 -145 C161 -145 147 272 147 272 C146 289 133 302 116 302 C97 302 84 289 83 272 C83 272 70 -145 70 -145 C69 -169 90 -190 117 -190 C140 -190 162 -169 161 -145 L161 -145 Z " />
<glyph glyph-name="cent" unicode="&#xa2;" horiz-adv-x="495" d="M455 73 C455 92 437 105 420 105 C410 105 402 102 395 96 C369 71 343 59 311 56 L311 427 C343 423 369 413 395 388 C402 381 411 377 420 377 C439 377 455 393 455 411 C455 418 452 426 447 432 C413 467 372 489 311 494 L311 543 C311 558 298 571 283 571 C265 571 252 558 252 543 L252 492 C128 475 47 372 47 242 C47 110 128 7 252 -9 L252 -78 C252 -93 265 -106 283 -106 C298 -106 311 -93 311 -78 L311 -11 C372 -6 412 16 447 51 C453 57 455 65 455 73 L455 73 Z M252 59 C173 77 125 149 125 242 C125 334 173 405 252 423 L252 59 Z " />
<glyph glyph-name="sterling" unicode="&#xa3;" horiz-adv-x="518" d="M505 48 C505 69 483 84 464 84 C443 84 414 61 377 61 C320 61 293 102 229 102 C211 102 191 98 177 93 C218 122 253 164 253 225 C253 241 250 255 246 268 L348 268 C362 268 374 280 374 294 C374 310 362 322 348 322 L218 322 C184 368 137 406 137 479 C137 559 204 607 280 607 C326 607 365 583 391 552 C400 541 413 535 426 535 C448 535 465 551 465 571 C465 578 463 585 459 591 C418 646 349 677 272 677 C150 677 48 590 48 480 C48 410 89 364 125 322 L39 322 C25 322 13 310 13 296 C13 280 25 268 39 268 L164 268 C173 250 179 230 179 208 C179 155 140 104 70 67 C58 61 52 48 52 35 C52 15 67 2 85 2 C90 2 95 3 100 5 C133 21 167 33 194 33 C269 33 283 -13 373 -13 C429 -13 505 9 505 48 L505 48 Z " />
<glyph glyph-name="currency" unicode="&#xa4;" horiz-adv-x="598" d="M556 110 C556 117 553 125 547 131 L492 185 C521 226 538 277 538 333 C538 388 521 440 491 480 L547 536 C553 542 556 550 556 558 C556 577 538 591 522 591 C514 591 507 588 501 582 L445 526 C407 555 357 572 299 572 C240 572 191 555 152 526 L96 582 C89 589 82 592 73 592 C54 592 40 575 40 559 C40 550 43 543 50 536 L106 480 C76 440 60 388 60 333 C60 278 76 227 105 186 L50 131 C44 125 41 117 41 109 C41 91 59 77 75 77 C83 77 91 80 97 86 L150 140 C189 111 239 93 299 93 C358 93 407 110 446 139 L501 86 C507 80 515 77 523 77 C541 77 556 94 556 110 L556 110 Z M461 333 C461 243 404 161 299 161 C195 161 137 243 137 333 C137 422 195 503 299 503 C404 503 461 422 461 333 L461 333 Z " />
<glyph glyph-name="yen" unicode="&#xa5;" horiz-adv-x="626" d="M611 148 C611 163 599 175 586 175 L355 175 L355 282 L586 282 C600 282 611 293 611 307 C611 323 600 334 586 334 L390 334 L579 612 C583 618 585 626 585 633 C585 654 566 672 544 672 C532 672 519 666 512 656 L313 357 L114 656 C106 667 92 673 80 673 C55 673 40 652 40 633 C40 625 42 618 47 612 L236 334 L41 334 C27 334 16 323 16 309 C16 293 27 282 41 282 L272 282 L272 175 L42 175 C28 175 16 163 16 150 C16 134 28 122 42 122 L272 122 L272 35 C272 10 291 -6 315 -6 C337 -6 355 12 355 35 L355 122 L586 122 C599 122 611 134 611 148 L611 148 Z " />
<glyph glyph-name="brokenbar" unicode="&#xa6;" horiz-adv-x="211" d="M133 7 L133 270 C133 284 121 296 107 296 C90 296 78 284 78 270 L78 7 C78 -8 90 -20 105 -20 C121 -20 133 -8 133 7 L133 7 Z M133 398 L133 661 C133 675 121 687 107 687 C90 687 78 675 78 661 L78 398 C78 383 90 371 105 371 C121 371 133 383 133 398 L133 398 Z " />
<glyph glyph-name="section" unicode="&#xa7;" horiz-adv-x="468" d="M418 66 C418 131 381 166 326 187 C387 214 418 259 418 315 C418 503 119 428 119 541 C119 590 164 621 228 621 C271 621 321 606 356 576 C361 572 366 570 372 570 C388 570 399 584 399 600 C399 640 306 677 226 677 C112 677 46 615 46 541 C46 475 91 440 161 418 C101 402 46 361 46 290 C46 113 345 184 345 61 C345 6 297 -26 228 -26 C171 -26 121 0 88 29 C83 33 76 35 70 35 C53 35 40 21 40 4 C40 -5 44 -14 51 -19 C92 -53 146 -81 228 -81 C340 -81 418 -27 418 66 L418 66 Z M344 305 C344 258 314 230 261 207 C189 225 119 241 119 298 C119 341 144 375 231 397 C286 383 344 363 344 305 L344 305 Z " />
<glyph glyph-name="dieresis" unicode="&#xa8;" horiz-adv-x="272" d="M79 604 C79 629 58 650 33 650 C7 650 -14 629 -14 604 C-14 578 7 557 33 557 C58 557 79 578 79 604 L79 604 Z M286 604 C286 629 264 650 239 650 C214 650 192 629 192 604 C192 578 214 557 239 557 C264 557 286 578 286 604 L286 604 Z " />
<glyph glyph-name="copyright" unicode="&#xa9;" horiz-adv-x="778" d="M734 334 C734 525 580 679 389 679 C199 679 44 525 44 334 C44 144 199 -11 389 -11 C580 -11 734 144 734 334 L734 334 Z M703 334 C703 161 562 20 389 20 C216 20 75 161 75 334 C75 507 216 648 389 648 C562 648 703 507 703 334 L703 334 Z M535 191 C535 201 525 209 517 209 C512 209 508 207 505 204 C478 173 433 154 391 154 C301 154 220 230 220 335 C220 443 301 515 391 515 C433 515 477 498 506 466 C509 462 513 460 517 460 C527 460 534 469 534 478 C534 482 533 486 530 489 C496 527 447 548 391 548 C276 548 183 457 183 335 C183 213 276 121 391 121 C447 121 494 141 531 179 C534 182 535 186 535 191 L535 191 Z " />
<glyph glyph-name="ordfeminine" unicode="&#xaa;" horiz-adv-x="378" d="M317 348 L317 537 C317 618 257 648 188 648 C143 648 101 634 66 603 C61 599 59 593 59 588 C59 576 71 566 82 566 C88 566 93 568 97 572 C122 593 152 603 181 603 C224 603 260 579 260 538 L260 483 C236 508 201 525 153 525 C98 525 41 491 41 422 C41 355 98 318 153 318 C201 318 236 335 260 361 L260 348 C260 332 272 320 288 320 C305 320 317 332 317 348 L317 348 Z M260 394 C242 370 209 356 175 356 C131 356 99 382 99 422 C99 461 131 488 175 488 C209 488 242 474 260 450 L260 394 Z " />
<glyph glyph-name="guillemotleft" unicode="&#xab;" horiz-adv-x="439" d="M237 85 C237 91 234 97 230 102 L105 243 L230 381 C235 386 237 392 237 399 C237 415 221 426 208 426 C200 426 193 423 188 417 L70 287 C59 275 53 258 53 242 C53 226 59 210 70 198 L188 65 C193 59 200 56 208 56 C224 56 237 71 237 85 L237 85 Z M381 85 C381 91 378 97 374 102 L249 243 L374 381 C378 386 380 392 380 398 C380 414 365 426 351 426 C343 426 336 423 331 417 L214 288 C202 275 197 259 197 243 C197 227 202 211 214 198 L332 65 C337 59 344 56 352 56 C368 56 381 71 381 85 L381 85 Z " />
<glyph glyph-name="logicalnot" unicode="&#xac;" horiz-adv-x="504" d="M470 232 L470 397 C470 430 443 457 410 457 L49 457 C35 457 23 445 23 432 C23 416 35 404 49 404 L415 404 L415 232 C415 217 427 205 442 205 C458 205 470 217 470 232 L470 232 Z " />
<glyph glyph-name="uni00AD" unicode="&#xad;" horiz-adv-x="300" d="M238 275 L62 275 C42 275 30 260 30 241 C30 223 44 209 62 209 L238 209 C257 209 270 224 270 243 C270 261 256 275 238 275 L238 275 Z " />
<glyph glyph-name="registered" unicode="&#xae;" horiz-adv-x="494" d="M459 465 C459 583 365 677 247 677 C130 677 35 583 35 465 C35 348 130 253 247 253 C365 253 459 348 459 465 L459 465 Z M430 465 C430 364 348 281 247 281 C145 281 63 364 63 465 C63 567 145 648 247 648 C348 648 430 567 430 465 L430 465 Z M342 512 C342 557 306 586 265 586 L193 586 C178 586 166 574 166 559 L166 352 C166 344 173 337 181 337 C191 337 198 344 198 352 L198 439 L242 439 L303 345 C306 341 311 338 316 338 C326 338 334 348 334 356 C334 359 333 361 331 364 L280 440 C294 440 342 458 342 512 L342 512 Z M309 512 C309 487 286 468 265 468 L198 468 L198 558 L265 558 C286 558 309 539 309 512 L309 512 Z " />
<glyph glyph-name="macron" unicode="&#xaf;" horiz-adv-x="363" d="M363 597 C363 610 353 620 340 620 L23 620 C10 620 0 610 0 597 C0 582 10 572 23 572 L340 572 C353 572 363 582 363 597 L363 597 Z " />
<glyph glyph-name="degree" unicode="&#xb0;" horiz-adv-x="290" d="M267 555 C267 622 212 677 144 677 C77 677 23 622 23 555 C23 487 77 433 144 433 C212 433 267 487 267 555 L267 555 Z M219 555 C219 514 185 481 144 481 C104 481 72 514 72 555 C72 595 104 629 144 629 C185 629 219 595 219 555 L219 555 Z " />
<glyph glyph-name="plusminus" unicode="&#xb1;" horiz-adv-x="499" d="M476 351 C476 365 465 376 451 376 L278 376 L278 562 C278 577 266 589 251 589 C233 589 221 577 221 562 L221 376 L48 376 C34 376 23 365 23 351 C23 335 34 324 48 324 L221 324 L221 132 C221 116 233 104 249 104 C266 104 278 116 278 132 L278 324 L451 324 C465 324 476 335 476 351 L476 351 Z M476 27 C476 41 465 52 451 52 L48 52 C34 52 23 41 23 27 C23 11 34 0 48 0 L451 0 C465 0 476 11 476 27 L476 27 Z " />
<glyph glyph-name="twosuperior" unicode="&#xb2;" horiz-adv-x="388" d="M347 447 C347 459 336 470 324 470 L138 470 C256 555 339 628 339 709 C339 790 269 827 196 827 C148 827 98 812 61 779 C55 774 53 767 53 760 C53 744 66 735 78 735 C84 735 89 737 94 741 C119 762 155 778 194 778 C237 778 279 756 279 705 C279 643 203 575 61 473 C51 466 44 458 44 444 C44 431 54 421 66 421 L324 421 C336 421 347 432 347 447 L347 447 Z " />
<glyph glyph-name="threesuperior" unicode="&#xb3;" horiz-adv-x="388" d="M343 530 C343 594 285 624 247 627 C286 634 336 662 336 720 C336 786 277 827 192 827 C137 827 93 809 59 777 C54 773 51 766 51 760 C51 746 64 736 76 736 C81 736 86 737 90 741 C118 767 151 778 187 778 C236 778 276 755 276 714 C276 667 234 650 178 650 L164 650 C153 650 139 642 139 626 C139 609 154 602 164 602 L179 602 C237 602 283 584 283 533 C283 490 248 463 190 463 C153 463 114 478 86 503 C82 507 76 509 71 509 C56 509 45 495 45 482 C45 446 131 414 192 414 C285 414 343 462 343 530 L343 530 Z " />
<glyph glyph-name="acute" unicode="&#xb4;" horiz-adv-x="226" d="M190 680 C190 694 176 705 164 705 C157 705 151 703 146 698 L28 584 C24 580 23 576 23 571 C23 559 34 550 44 550 C48 550 52 552 56 555 L182 663 C187 667 190 674 190 680 L190 680 Z " />
<glyph glyph-name="mu" unicode="&#xb5;" horiz-adv-x="565" d="M550 21 C550 76 476 31 476 113 L476 453 C476 472 459 489 440 489 C418 489 401 472 401 453 L401 128 C373 89 317 53 260 53 C193 53 150 85 150 165 L150 453 C150 472 133 489 114 489 C92 489 75 472 75 453 L75 -154 C75 -173 92 -190 112 -190 C133 -190 150 -173 150 -154 L150 36 C164 10 194 -12 251 -12 C313 -12 370 27 404 74 C419 3 465 -11 517 -11 C541 -11 550 6 550 21 L550 21 Z " />
<glyph glyph-name="paragraph" unicode="&#xb6;" horiz-adv-x="449" d="M378 -85 L378 625 C378 648 359 667 336 667 L199 667 C104 667 27 590 27 495 C27 400 104 323 199 323 L199 -85 C199 -96 209 -106 221 -106 C234 -106 244 -96 244 -85 L244 622 L333 622 L333 -85 C333 -96 343 -106 355 -106 C368 -106 378 -96 378 -85 L378 -85 Z " />
<glyph glyph-name="periodcentered" unicode="&#xb7;" horiz-adv-x="230" d="M170 244 C170 274 145 299 115 299 C85 299 60 274 60 244 C60 215 85 190 115 190 C145 190 170 215 170 244 L170 244 Z " />
<glyph glyph-name="cedilla" unicode="&#xb8;" horiz-adv-x="205" d="M205 -111 C205 -70 177 -44 139 -44 C126 -44 112 -48 102 -55 L120 -9 C121 -7 121 -5 121 -3 C121 5 114 12 105 11 C92 11 80 3 76 -9 L56 -62 C55 -64 55 -67 55 -69 C55 -80 64 -91 76 -91 C91 -91 106 -75 123 -75 C148 -75 160 -89 160 -110 C160 -137 131 -152 99 -152 C77 -152 53 -147 30 -132 C27 -130 25 -130 22 -130 C11 -130 1 -139 1 -150 C1 -178 62 -191 101 -191 C158 -191 205 -160 205 -111 L205 -111 Z " />
<glyph glyph-name="onesuperior" unicode="&#xb9;" horiz-adv-x="235" d="M175 444 L175 802 C175 815 163 827 147 827 C132 827 122 820 111 809 L27 724 C22 719 20 713 20 707 C20 692 32 680 45 680 C51 680 57 683 62 688 L115 743 L115 444 C115 428 128 415 144 415 C162 415 175 428 175 444 L175 444 Z " />
<glyph glyph-name="ordmasculine" unicode="&#xba;" horiz-adv-x="405" d="M365 483 C365 574 303 648 202 648 C103 648 40 574 40 483 C40 392 103 318 202 318 C303 318 365 392 365 483 L365 483 Z M306 483 C306 417 268 366 202 366 C137 366 100 417 100 483 C100 548 137 598 202 598 C268 598 306 548 306 483 L306 483 Z " />
<glyph glyph-name="guillemotright" unicode="&#xbb;" horiz-adv-x="439" d="M242 243 C242 259 237 275 225 288 L108 417 C102 423 95 426 87 426 C70 426 58 412 58 398 C58 392 61 386 65 381 L190 243 L65 102 C60 97 58 90 58 84 C58 68 73 56 87 56 C95 56 102 59 107 65 L225 198 C236 211 242 227 242 243 L242 243 Z M386 242 C386 258 380 274 369 287 L251 417 C245 423 238 426 230 426 C213 426 202 411 202 398 C202 392 204 386 209 381 L334 243 L209 102 C204 97 202 90 202 84 C202 68 217 56 231 56 C239 56 246 59 251 65 L369 198 C380 211 386 226 386 242 L386 242 Z " />
<glyph glyph-name="onequarter" unicode="&#xbc;" horiz-adv-x="770" d="M739 126 C739 138 728 149 716 149 L675 149 L675 366 C675 388 657 406 632 406 C608 406 591 398 577 377 L429 156 C422 145 414 135 414 123 C414 110 424 100 435 100 L616 100 L616 23 C616 7 629 -6 645 -6 C662 -6 675 7 675 23 L675 100 L716 100 C728 100 739 111 739 126 L739 126 Z M577 653 C577 664 568 677 553 677 C546 677 538 673 534 667 L125 26 C122 22 121 19 121 15 C121 2 132 -9 145 -9 C152 -9 159 -5 164 1 L573 641 C575 644 577 649 577 653 L577 653 Z M175 290 L175 648 C175 661 163 673 147 673 C132 673 122 666 111 655 L27 570 C22 565 20 559 20 553 C20 538 32 526 45 526 C51 526 57 529 62 534 L115 589 L115 290 C115 274 128 261 144 261 C162 261 175 274 175 290 L175 290 Z M616 149 L480 149 L616 347 L616 149 Z " />
<glyph glyph-name="onehalf" unicode="&#xbd;" horiz-adv-x="807" d="M765 26 C765 38 754 49 742 49 L556 49 C674 134 757 207 757 288 C757 369 687 406 614 406 C574 406 471 384 471 339 C471 323 484 314 496 314 C502 314 507 316 512 320 C537 341 573 357 612 357 C655 357 697 335 697 284 C697 222 621 154 479 52 C469 45 462 37 462 23 C462 10 472 0 484 0 L742 0 C754 0 765 11 765 26 L765 26 Z M577 653 C577 664 568 677 553 677 C546 677 538 673 534 667 L125 26 C122 22 121 19 121 15 C121 2 132 -9 145 -9 C152 -9 159 -5 164 1 L573 641 C575 644 577 649 577 653 L577 653 Z M175 290 L175 648 C175 661 163 673 147 673 C132 673 122 666 111 655 L27 570 C22 565 20 559 20 553 C20 538 32 526 45 526 C51 526 57 529 62 534 L115 589 L115 290 C115 274 128 261 144 261 C162 261 175 274 175 290 L175 290 Z " />
<glyph glyph-name="threequarters" unicode="&#xbe;" horiz-adv-x="878" d="M848 126 C848 138 837 149 825 149 L784 149 L784 366 C784 388 766 406 741 406 C717 406 700 398 686 377 L538 156 C531 145 523 135 523 123 C523 110 533 100 544 100 L725 100 L725 23 C725 7 738 -6 754 -6 C771 -6 784 7 784 23 L784 100 L825 100 C837 100 848 111 848 126 L848 126 Z M685 653 C685 664 676 677 661 677 C654 677 646 673 642 667 L233 26 C230 22 229 19 229 15 C229 2 240 -9 253 -9 C260 -9 267 -5 272 1 L681 641 C683 644 685 649 685 653 L685 653 Z M343 376 C343 440 285 470 247 473 C286 480 336 508 336 566 C336 632 277 673 192 673 C144 673 51 646 51 606 C51 592 64 582 76 582 C81 582 86 583 90 587 C118 613 151 624 187 624 C236 624 276 601 276 560 C276 513 234 496 178 496 L164 496 C153 496 139 488 139 472 C139 455 154 448 164 448 L179 448 C237 448 283 430 283 379 C283 336 248 309 190 309 C153 309 114 324 86 349 C82 353 76 355 71 355 C56 355 45 341 45 328 C45 292 131 260 192 260 C285 260 343 308 343 376 L343 376 Z M725 149 L589 149 L725 347 L725 149 Z " />
<glyph glyph-name="questiondown" unicode="&#xbf;" horiz-adv-x="394" d="M293 437 C293 467 268 493 238 493 C208 493 183 467 183 437 C183 408 208 383 238 383 C268 383 293 408 293 437 L293 437 Z M435 -90 C435 -70 417 -53 399 -53 C364 -53 312 -122 235 -122 C156 -122 117 -79 117 -29 C117 77 298 88 298 215 C298 233 283 299 244 299 C223 299 211 282 211 266 C211 251 225 235 225 221 C225 123 31 110 31 -41 C31 -127 105 -196 227 -196 C297 -196 435 -155 435 -90 L435 -90 Z " />
<glyph glyph-name="Agrave" unicode="&#xc0;" horiz-adv-x="658" d="M630 38 C630 43 629 49 627 54 L395 628 C384 655 358 673 329 673 C298 673 272 655 261 628 L31 54 C29 49 28 43 28 38 C28 15 47 -6 73 -6 C90 -6 106 4 113 21 L163 148 L495 148 L545 21 C552 4 568 -6 585 -6 C612 -6 630 18 630 38 L630 38 Z M470 222 L187 222 L329 581 L470 222 Z M363 738 C363 743 361 747 358 751 L240 865 C235 870 228 872 222 872 C208 872 196 860 196 847 C196 840 199 834 204 830 L330 722 C334 719 338 717 343 717 C355 717 363 728 363 738 L363 738 Z " />
<glyph glyph-name="Aacute" unicode="&#xc1;" horiz-adv-x="658" d="M630 38 C630 43 629 49 627 54 L395 628 C384 655 358 673 329 673 C298 673 272 655 261 628 L31 54 C29 49 28 43 28 38 C28 15 47 -6 73 -6 C90 -6 106 4 113 21 L163 148 L495 148 L545 21 C552 4 568 -6 585 -6 C612 -6 630 18 630 38 L630 38 Z M470 222 L187 222 L329 581 L470 222 Z M462 847 C462 861 448 872 436 872 C429 872 423 870 418 865 L300 751 C296 747 295 743 295 738 C295 726 306 717 316 717 C320 717 324 719 328 722 L454 830 C459 834 462 841 462 847 L462 847 Z " />
<glyph glyph-name="Acircumflex" unicode="&#xc2;" horiz-adv-x="658" d="M630 38 C630 43 629 49 627 54 L395 628 C384 655 358 673 329 673 C298 673 272 655 261 628 L31 54 C29 49 28 43 28 38 C28 15 47 -6 73 -6 C90 -6 106 4 113 21 L163 148 L495 148 L545 21 C552 4 568 -6 585 -6 C612 -6 630 18 630 38 L630 38 Z M470 222 L187 222 L329 581 L470 222 Z M449 737 C449 741 448 745 446 748 L378 847 C367 863 349 873 330 873 C309 873 290 863 280 847 L215 748 C213 744 211 740 211 737 C211 725 222 717 233 717 C240 717 246 720 250 725 L329 829 L411 724 C415 719 421 716 427 716 C441 716 449 728 449 737 L449 737 Z " />
<glyph glyph-name="Atilde" unicode="&#xc3;" horiz-adv-x="658" d="M630 38 C630 43 629 49 627 54 L395 628 C384 655 358 673 329 673 C298 673 272 655 261 628 L31 54 C29 49 28 43 28 38 C28 15 47 -6 73 -6 C90 -6 106 4 113 21 L163 148 L495 148 L545 21 C552 4 568 -6 585 -6 C612 -6 630 18 630 38 L630 38 Z M470 222 L187 222 L329 581 L470 222 Z M485 834 C485 845 478 855 465 855 C452 855 441 846 440 833 C435 789 417 769 393 769 C345 769 342 861 270 861 C217 861 174 814 174 746 C174 736 182 727 194 727 C207 727 218 736 219 749 C224 793 242 813 266 813 C314 813 316 721 389 721 C446 721 479 767 485 834 L485 834 Z " />
<glyph glyph-name="Adieresis" unicode="&#xc4;" horiz-adv-x="658" d="M630 38 C630 43 629 49 627 54 L395 628 C384 655 358 673 329 673 C298 673 272 655 261 628 L31 54 C29 49 28 43 28 38 C28 15 47 -6 73 -6 C90 -6 106 4 113 21 L163 148 L495 148 L545 21 C552 4 568 -6 585 -6 C612 -6 630 18 630 38 L630 38 Z M470 222 L187 222 L329 581 L470 222 Z M273 771 C273 796 252 817 227 817 C201 817 180 796 180 771 C180 745 201 724 227 724 C252 724 273 745 273 771 L273 771 Z M480 771 C480 796 458 817 433 817 C408 817 386 796 386 771 C386 745 408 724 433 724 C458 724 480 745 480 771 L480 771 Z " />
<glyph glyph-name="Aring" unicode="&#xc5;" horiz-adv-x="658" d="M630 38 C630 43 629 49 627 54 L395 628 C384 655 358 673 329 673 C298 673 272 655 261 628 L31 54 C29 49 28 43 28 38 C28 15 47 -6 73 -6 C90 -6 106 4 113 21 L163 148 L495 148 L545 21 C552 4 568 -6 585 -6 C612 -6 630 18 630 38 L630 38 Z M470 222 L187 222 L329 581 L470 222 Z M427 788 C427 842 383 887 329 887 C275 887 231 842 231 788 C231 734 275 690 329 690 C383 690 427 734 427 788 L427 788 Z M387 788 C387 756 362 729 329 729 C297 729 271 756 271 788 C271 821 297 847 329 847 C362 847 387 821 387 788 L387 788 Z " />
<glyph glyph-name="AE" unicode="&#xc6;" horiz-adv-x="947" d="M899 38 C899 58 883 74 863 74 L539 74 L539 304 L856 304 C876 304 892 320 892 340 C892 362 876 378 856 378 L539 378 L539 593 L863 593 C883 593 899 609 899 629 C899 651 883 667 863 667 L483 667 C447 667 410 647 391 616 L43 59 C39 52 37 45 37 38 C37 15 57 -3 79 -3 C92 -3 105 3 112 15 L193 148 L456 148 L456 60 C456 27 483 0 516 0 L863 0 C883 0 899 16 899 38 L899 38 Z M456 222 L234 222 L456 581 L456 222 Z " />
<glyph glyph-name="Ccedilla" unicode="&#xc7;" horiz-adv-x="676" d="M394 678 C202 678 51 538 51 333 C51 140 184 5 360 -10 L343 -58 C342 -60 342 -63 342 -65 C342 -77 352 -87 364 -87 C378 -87 393 -71 410 -71 C435 -71 447 -85 447 -106 C447 -133 418 -148 386 -148 C364 -148 340 -143 317 -128 C314 -126 312 -126 309 -126 C298 -126 288 -135 288 -146 C288 -174 349 -187 388 -187 C445 -187 492 -156 492 -107 C492 -66 464 -40 426 -40 C413 -40 399 -44 389 -51 L404 -12 C500 -9 566 28 617 82 C624 90 628 100 628 110 C628 132 611 151 589 151 C579 151 568 146 561 138 C519 89 457 62 394 62 C248 62 137 175 137 333 C137 492 248 604 394 604 C456 604 522 574 561 527 C568 518 579 514 589 514 C611 514 628 533 628 554 C628 565 624 575 617 583 C566 638 494 678 394 678 L394 678 Z " />
<glyph glyph-name="Egrave" unicode="&#xc8;" horiz-adv-x="569" d="M521 38 C521 58 505 74 485 74 L161 74 L161 304 L478 304 C498 304 514 320 514 340 C514 362 498 378 478 378 L161 378 L161 593 L485 593 C505 593 521 609 521 629 C521 651 505 667 485 667 L138 667 C105 667 78 640 78 607 L78 60 C78 27 105 0 138 0 L485 0 C505 0 521 16 521 38 L521 38 Z M330 738 C330 743 328 747 325 751 L207 865 C202 870 195 872 189 872 C175 872 163 860 163 847 C163 840 166 834 171 830 L297 722 C301 719 305 717 310 717 C322 717 330 728 330 738 L330 738 Z " />
<glyph glyph-name="Eacute" unicode="&#xc9;" horiz-adv-x="569" d="M521 38 C521 58 505 74 485 74 L161 74 L161 304 L478 304 C498 304 514 320 514 340 C514 362 498 378 478 378 L161 378 L161 593 L485 593 C505 593 521 609 521 629 C521 651 505 667 485 667 L138 667 C105 667 78 640 78 607 L78 60 C78 27 105 0 138 0 L485 0 C505 0 521 16 521 38 L521 38 Z M429 847 C429 861 415 872 403 872 C396 872 390 870 385 865 L267 751 C263 747 262 743 262 738 C262 726 273 717 283 717 C287 717 291 719 295 722 L421 830 C426 834 429 841 429 847 L429 847 Z " />
<glyph glyph-name="Ecircumflex" unicode="&#xca;" horiz-adv-x="569" d="M521 38 C521 58 505 74 485 74 L161 74 L161 304 L478 304 C498 304 514 320 514 340 C514 362 498 378 478 378 L161 378 L161 593 L485 593 C505 593 521 609 521 629 C521 651 505 667 485 667 L138 667 C105 667 78 640 78 607 L78 60 C78 27 105 0 138 0 L485 0 C505 0 521 16 521 38 L521 38 Z M414 737 C414 741 413 745 411 748 L343 847 C332 863 314 873 295 873 C274 873 255 863 245 847 L180 748 C178 744 176 740 176 737 C176 725 187 717 198 717 C205 717 211 720 215 725 L294 829 L376 724 C380 719 386 716 392 716 C406 716 414 728 414 737 L414 737 Z " />
<glyph glyph-name="Edieresis" unicode="&#xcb;" horiz-adv-x="569" d="M521 38 C521 58 505 74 485 74 L161 74 L161 304 L478 304 C498 304 514 320 514 340 C514 362 498 378 478 378 L161 378 L161 593 L485 593 C505 593 521 609 521 629 C521 651 505 667 485 667 L138 667 C105 667 78 640 78 607 L78 60 C78 27 105 0 138 0 L485 0 C505 0 521 16 521 38 L521 38 Z M239 771 C239 796 218 817 193 817 C167 817 146 796 146 771 C146 745 167 724 193 724 C218 724 239 745 239 771 L239 771 Z M446 771 C446 796 424 817 399 817 C374 817 352 796 352 771 C352 745 374 724 399 724 C424 724 446 745 446 771 L446 771 Z " />
<glyph glyph-name="Igrave" unicode="&#xcc;" horiz-adv-x="239" d="M161 35 L161 633 C161 655 143 673 121 673 C96 673 78 655 78 633 L78 35 C78 12 96 -6 119 -6 C143 -6 161 12 161 35 L161 35 Z M154 738 C154 743 152 747 149 751 L31 865 C26 870 19 872 13 872 C-1 872 -13 860 -13 847 C-13 840 -10 834 -5 830 L121 722 C125 719 129 717 134 717 C146 717 154 728 154 738 L154 738 Z " />
<glyph glyph-name="Iacute" unicode="&#xcd;" horiz-adv-x="239" d="M161 35 L161 633 C161 655 143 673 121 673 C96 673 78 655 78 633 L78 35 C78 12 96 -6 119 -6 C143 -6 161 12 161 35 L161 35 Z M253 847 C253 861 239 872 227 872 C220 872 214 870 209 865 L91 751 C87 747 86 743 86 738 C86 726 97 717 107 717 C111 717 115 719 119 722 L245 830 C250 834 253 841 253 847 L253 847 Z " />
<glyph glyph-name="Icircumflex" unicode="&#xce;" horiz-adv-x="239" d="M161 35 L161 633 C161 655 143 673 121 673 C96 673 78 655 78 633 L78 35 C78 12 96 -6 119 -6 C143 -6 161 12 161 35 L161 35 Z M240 737 C240 741 239 745 237 748 L169 847 C158 863 140 873 121 873 C100 873 81 863 71 847 L6 748 C4 744 2 740 2 737 C2 725 13 717 24 717 C31 717 37 720 41 725 L120 829 L202 724 C206 719 212 716 218 716 C232 716 240 728 240 737 L240 737 Z " />
<glyph glyph-name="Idieresis" unicode="&#xcf;" horiz-adv-x="239" d="M161 35 L161 633 C161 655 143 673 121 673 C96 673 78 655 78 633 L78 35 C78 12 96 -6 119 -6 C143 -6 161 12 161 35 L161 35 Z M64 771 C64 796 43 817 18 817 C-8 817 -29 796 -29 771 C-29 745 -8 724 18 724 C43 724 64 745 64 771 L64 771 Z M271 771 C271 796 249 817 224 817 C199 817 177 796 177 771 C177 745 199 724 224 724 C249 724 271 745 271 771 L271 771 Z " />
<glyph glyph-name="Eth" unicode="&#xd0;" horiz-adv-x="728" d="M676 333 C676 522 541 667 334 667 L166 667 C133 667 106 640 106 607 L106 360 L34 360 C17 360 4 347 4 331 C4 312 17 299 34 299 L106 299 L106 60 C106 27 133 0 166 0 L334 0 C541 0 676 143 676 333 L676 333 Z M590 333 C590 190 496 74 334 74 L189 74 L189 299 L335 299 C351 299 364 312 364 329 C364 347 351 360 335 360 L189 360 L189 593 L334 593 C499 593 590 477 590 333 L590 333 Z " />
<glyph glyph-name="Ntilde" unicode="&#xd1;" horiz-adv-x="708" d="M630 41 L630 633 C630 655 612 673 590 673 C565 673 547 655 547 633 L547 146 L175 651 C165 665 148 673 131 673 C100 673 78 649 78 623 L78 35 C78 12 96 -6 119 -6 C143 -6 161 12 161 35 L161 532 L539 15 C548 2 564 -6 580 -6 C610 -6 630 17 630 41 L630 41 Z M508 834 C508 845 501 855 488 855 C475 855 464 846 463 833 C458 789 440 769 416 769 C368 769 365 861 293 861 C240 861 197 814 197 746 C197 736 205 727 217 727 C230 727 241 736 242 749 C247 793 265 813 289 813 C337 813 339 721 412 721 C469 721 502 767 508 834 L508 834 Z " />
<glyph glyph-name="Ograve" unicode="&#xd2;" horiz-adv-x="765" d="M713 333 C713 530 579 678 382 678 C184 678 51 530 51 333 C51 136 184 -12 382 -12 C579 -12 713 136 713 333 L713 333 Z M627 333 C627 178 531 62 382 62 C232 62 137 178 137 333 C137 489 232 604 382 604 C531 604 627 489 627 333 L627 333 Z M417 738 C417 743 415 747 412 751 L294 865 C289 870 282 872 276 872 C262 872 250 860 250 847 C250 840 253 834 258 830 L384 722 C388 719 392 717 397 717 C409 717 417 728 417 738 L417 738 Z " />
<glyph glyph-name="Oacute" unicode="&#xd3;" horiz-adv-x="765" d="M713 333 C713 530 579 678 382 678 C184 678 51 530 51 333 C51 136 184 -12 382 -12 C579 -12 713 136 713 333 L713 333 Z M627 333 C627 178 531 62 382 62 C232 62 137 178 137 333 C137 489 232 604 382 604 C531 604 627 489 627 333 L627 333 Z M516 847 C516 861 502 872 490 872 C483 872 477 870 472 865 L354 751 C350 747 349 743 349 738 C349 726 360 717 370 717 C374 717 378 719 382 722 L508 830 C513 834 516 841 516 847 L516 847 Z " />
<glyph glyph-name="Ocircumflex" unicode="&#xd4;" horiz-adv-x="765" d="M713 333 C713 530 579 678 382 678 C184 678 51 530 51 333 C51 136 184 -12 382 -12 C579 -12 713 136 713 333 L713 333 Z M627 333 C627 178 531 62 382 62 C232 62 137 178 137 333 C137 489 232 604 382 604 C531 604 627 489 627 333 L627 333 Z M503 737 C503 741 502 745 500 748 L432 847 C421 863 403 873 384 873 C363 873 344 863 334 847 L269 748 C267 744 265 740 265 737 C265 725 276 717 287 717 C294 717 300 720 304 725 L383 829 L465 724 C469 719 475 716 481 716 C495 716 503 728 503 737 L503 737 Z " />
<glyph glyph-name="Otilde" unicode="&#xd5;" horiz-adv-x="765" d="M713 333 C713 530 579 678 382 678 C184 678 51 530 51 333 C51 136 184 -12 382 -12 C579 -12 713 136 713 333 L713 333 Z M627 333 C627 178 531 62 382 62 C232 62 137 178 137 333 C137 489 232 604 382 604 C531 604 627 489 627 333 L627 333 Z M538 834 C538 845 531 855 518 855 C505 855 494 846 493 833 C488 789 470 769 446 769 C398 769 395 861 323 861 C270 861 227 814 227 746 C227 736 235 727 247 727 C260 727 271 736 272 749 C277 793 295 813 319 813 C367 813 369 721 442 721 C499 721 532 767 538 834 L538 834 Z " />
<glyph glyph-name="Odieresis" unicode="&#xd6;" horiz-adv-x="765" d="M713 333 C713 530 579 678 382 678 C184 678 51 530 51 333 C51 136 184 -12 382 -12 C579 -12 713 136 713 333 L713 333 Z M627 333 C627 178 531 62 382 62 C232 62 137 178 137 333 C137 489 232 604 382 604 C531 604 627 489 627 333 L627 333 Z M325 771 C325 796 304 817 279 817 C253 817 232 796 232 771 C232 745 253 724 279 724 C304 724 325 745 325 771 L325 771 Z M532 771 C532 796 510 817 485 817 C460 817 438 796 438 771 C438 745 460 724 485 724 C510 724 532 745 532 771 L532 771 Z " />
<glyph glyph-name="multiply" unicode="&#xd7;" horiz-adv-x="499" d="M424 185 C424 191 422 198 417 203 L287 334 L417 464 C422 469 424 475 424 482 C424 497 410 509 397 509 C391 509 385 507 380 502 L249 371 L119 502 C114 507 107 509 101 509 C85 509 74 495 74 482 C74 475 77 469 82 464 L212 334 L82 203 C77 198 74 191 74 185 C74 170 88 158 101 158 C108 158 114 161 119 166 L249 297 L380 166 C385 161 391 158 398 158 C409 158 424 169 424 185 L424 185 Z " />
<glyph glyph-name="Oslash" unicode="&#xd8;" horiz-adv-x="765" d="M713 333 C713 446 669 543 594 605 L614 634 C617 638 618 644 618 649 C618 664 604 675 590 675 C581 675 573 671 568 664 L549 636 C501 663 445 678 382 678 C184 678 51 530 51 333 C51 222 93 127 165 65 L143 32 C140 28 138 23 138 18 C138 3 152 -8 167 -8 C175 -8 183 -5 188 2 L209 33 C258 4 316 -12 382 -12 C579 -12 713 136 713 333 L713 333 Z M627 333 C627 178 531 62 382 62 C332 62 288 74 252 97 L549 538 C599 490 627 417 627 333 L627 333 Z M506 572 L210 132 C163 180 137 251 137 333 C137 489 232 604 382 604 C429 604 471 592 506 572 L506 572 Z " />
<glyph glyph-name="Ugrave" unicode="&#xd9;" horiz-adv-x="700" d="M622 260 L622 633 C622 655 604 673 582 673 C557 673 539 655 539 633 L539 261 C539 139 473 62 350 62 C227 62 161 139 161 261 L161 633 C161 655 143 673 121 673 C96 673 78 655 78 633 L78 259 C78 95 169 -12 350 -12 C531 -12 622 94 622 260 L622 260 Z M384 738 C384 743 382 747 379 751 L261 865 C256 870 249 872 243 872 C229 872 217 860 217 847 C217 840 220 834 225 830 L351 722 C355 719 359 717 364 717 C376 717 384 728 384 738 L384 738 Z " />
<glyph glyph-name="Uacute" unicode="&#xda;" horiz-adv-x="700" d="M622 260 L622 633 C622 655 604 673 582 673 C557 673 539 655 539 633 L539 261 C539 139 473 62 350 62 C227 62 161 139 161 261 L161 633 C161 655 143 673 121 673 C96 673 78 655 78 633 L78 259 C78 95 169 -12 350 -12 C531 -12 622 94 622 260 L622 260 Z M483 847 C483 861 469 872 457 872 C450 872 444 870 439 865 L321 751 C317 747 316 743 316 738 C316 726 327 717 337 717 C341 717 345 719 349 722 L475 830 C480 834 483 841 483 847 L483 847 Z " />
<glyph glyph-name="Ucircumflex" unicode="&#xdb;" horiz-adv-x="700" d="M622 260 L622 633 C622 655 604 673 582 673 C557 673 539 655 539 633 L539 261 C539 139 473 62 350 62 C227 62 161 139 161 261 L161 633 C161 655 143 673 121 673 C96 673 78 655 78 633 L78 259 C78 95 169 -12 350 -12 C531 -12 622 94 622 260 L622 260 Z M471 737 C471 741 470 745 468 748 L400 847 C389 863 371 873 352 873 C331 873 312 863 302 847 L237 748 C235 744 233 740 233 737 C233 725 244 717 255 717 C262 717 268 720 272 725 L351 829 L433 724 C437 719 443 716 449 716 C463 716 471 728 471 737 L471 737 Z " />
<glyph glyph-name="Udieresis" unicode="&#xdc;" horiz-adv-x="700" d="M622 260 L622 633 C622 655 604 673 582 673 C557 673 539 655 539 633 L539 261 C539 139 473 62 350 62 C227 62 161 139 161 261 L161 633 C161 655 143 673 121 673 C96 673 78 655 78 633 L78 259 C78 95 169 -12 350 -12 C531 -12 622 94 622 260 L622 260 Z M294 771 C294 796 273 817 248 817 C222 817 201 796 201 771 C201 745 222 724 248 724 C273 724 294 745 294 771 L294 771 Z M501 771 C501 796 479 817 454 817 C429 817 407 796 407 771 C407 745 429 724 454 724 C479 724 501 745 501 771 L501 771 Z " />
<glyph glyph-name="Yacute" unicode="&#xdd;" horiz-adv-x="626" d="M585 633 C585 654 566 672 544 672 C532 672 519 666 512 656 L313 357 L114 656 C106 667 92 673 80 673 C55 673 40 652 40 633 C40 625 43 618 47 612 L272 282 L272 35 C272 12 290 -6 313 -6 C337 -6 355 12 355 35 L355 282 L579 612 C583 618 585 626 585 633 L585 633 Z M446 847 C446 861 432 872 420 872 C413 872 407 870 402 865 L284 751 C280 747 279 743 279 738 C279 726 290 717 300 717 C304 717 308 719 312 722 L438 830 C443 834 446 841 446 847 L446 847 Z " />
<glyph glyph-name="Thorn" unicode="&#xde;" horiz-adv-x="587" d="M555 346 C555 455 480 548 346 548 L161 548 L161 627 C161 649 143 667 121 667 C96 667 78 649 78 627 L78 41 C78 18 96 0 119 0 C143 0 161 18 161 41 L161 146 L346 146 C478 146 555 237 555 346 L555 346 Z M469 346 C469 271 415 220 336 220 L161 220 L161 474 L336 474 C415 474 469 421 469 346 L469 346 Z " />
<glyph glyph-name="germandbls" unicode="&#xdf;" horiz-adv-x="597" d="M578 135 C578 323 291 252 291 357 C291 439 441 441 441 551 C441 629 358 677 266 677 C149 677 75 597 75 499 L75 31 C75 11 92 -6 112 -6 C133 -6 150 11 150 31 L150 499 C150 568 202 610 265 610 C312 610 364 587 364 542 C364 478 218 465 218 356 C218 181 505 249 505 133 C505 90 468 49 392 49 C338 49 292 70 261 99 C255 104 249 107 242 107 C225 107 213 91 213 74 C213 65 217 56 224 49 C263 13 311 -12 392 -12 C516 -12 578 57 578 135 L578 135 Z " />
<glyph glyph-name="agrave" unicode="&#xe0;" horiz-adv-x="527" d="M452 31 L452 332 C452 449 367 495 265 495 C196 495 136 474 85 428 C78 422 75 414 75 406 C75 388 92 376 108 376 C115 376 123 379 129 384 C166 415 207 430 255 430 C325 430 377 393 377 328 L377 241 C338 286 283 307 217 307 C135 307 48 256 48 148 C48 43 135 -12 217 -12 C282 -12 337 11 377 55 C377 55 377 33 377 33 C377 12 393 -6 414 -6 L414 -6 C435 -6 452 11 452 31 L452 31 Z M377 102 C348 62 297 42 244 42 C174 42 125 86 125 147 C125 209 174 253 244 253 C297 253 348 233 377 193 L377 102 Z M299 571 C299 576 297 580 294 584 L176 698 C171 703 164 705 158 705 C144 705 132 693 132 680 C132 673 135 667 140 663 L266 555 C270 552 274 550 279 550 C291 550 299 561 299 571 L299 571 Z " />
<glyph glyph-name="aacute" unicode="&#xe1;" horiz-adv-x="527" d="M452 31 L452 332 C452 449 367 495 265 495 C196 495 136 474 85 428 C78 422 75 414 75 406 C75 388 92 376 108 376 C115 376 123 379 129 384 C166 415 207 430 255 430 C325 430 377 393 377 328 L377 241 C338 286 283 307 217 307 C135 307 48 256 48 148 C48 43 135 -12 217 -12 C282 -12 337 11 377 55 C377 55 377 33 377 33 C377 12 393 -6 414 -6 L414 -6 C435 -6 452 11 452 31 L452 31 Z M377 102 C348 62 297 42 244 42 C174 42 125 86 125 147 C125 209 174 253 244 253 C297 253 348 233 377 193 L377 102 Z M398 680 C398 694 384 705 372 705 C365 705 359 703 354 698 L236 584 C232 580 231 576 231 571 C231 559 242 550 252 550 C256 550 260 552 264 555 L390 663 C395 667 398 674 398 680 L398 680 Z " />
<glyph glyph-name="acircumflex" unicode="&#xe2;" horiz-adv-x="527" d="M452 31 L452 332 C452 449 367 495 265 495 C196 495 136 474 85 428 C78 422 75 414 75 406 C75 388 92 376 108 376 C115 376 123 379 129 384 C166 415 207 430 255 430 C325 430 377 393 377 328 L377 241 C338 286 283 307 217 307 C135 307 48 256 48 148 C48 43 135 -12 217 -12 C282 -12 337 11 377 55 C377 55 377 33 377 33 C377 12 393 -6 414 -6 L414 -6 C435 -6 452 11 452 31 L452 31 Z M377 102 C348 62 297 42 244 42 C174 42 125 86 125 147 C125 209 174 253 244 253 C297 253 348 233 377 193 L377 102 Z M384 570 C384 574 383 578 381 581 L313 680 C302 696 284 706 265 706 C244 706 225 696 215 680 L150 581 C148 577 146 573 146 570 C146 558 157 550 168 550 C175 550 181 553 185 558 L264 662 L346 557 C350 552 356 549 362 549 C376 549 384 561 384 570 L384 570 Z " />
<glyph glyph-name="atilde" unicode="&#xe3;" horiz-adv-x="527" d="M452 31 L452 332 C452 449 367 495 265 495 C196 495 136 474 85 428 C78 422 75 414 75 406 C75 388 92 376 108 376 C115 376 123 379 129 384 C166 415 207 430 255 430 C325 430 377 393 377 328 L377 241 C338 286 283 307 217 307 C135 307 48 256 48 148 C48 43 135 -12 217 -12 C282 -12 337 11 377 55 C377 55 377 33 377 33 C377 12 393 -6 414 -6 L414 -6 C435 -6 452 11 452 31 L452 31 Z M377 102 C348 62 297 42 244 42 C174 42 125 86 125 147 C125 209 174 253 244 253 C297 253 348 233 377 193 L377 102 Z M421 667 C421 678 414 688 401 688 C388 688 377 679 376 666 C371 622 353 602 329 602 C281 602 278 694 206 694 C153 694 110 647 110 579 C110 569 118 560 130 560 C143 560 154 569 155 582 C160 626 178 646 202 646 C250 646 252 554 325 554 C382 554 415 600 421 667 L421 667 Z " />
<glyph glyph-name="adieresis" unicode="&#xe4;" horiz-adv-x="527" d="M452 31 L452 332 C452 449 367 495 265 495 C196 495 136 474 85 428 C78 422 75 414 75 406 C75 388 92 376 108 376 C115 376 123 379 129 384 C166 415 207 430 255 430 C325 430 377 393 377 328 L377 241 C338 286 283 307 217 307 C135 307 48 256 48 148 C48 43 135 -12 217 -12 C282 -12 337 11 377 55 C377 55 377 33 377 33 C377 12 393 -6 414 -6 L414 -6 C435 -6 452 11 452 31 L452 31 Z M377 102 C348 62 297 42 244 42 C174 42 125 86 125 147 C125 209 174 253 244 253 C297 253 348 233 377 193 L377 102 Z M208 604 C208 629 187 650 162 650 C136 650 115 629 115 604 C115 578 136 557 162 557 C187 557 208 578 208 604 L208 604 Z M415 604 C415 629 393 650 368 650 C343 650 321 629 321 604 C321 578 343 557 368 557 C393 557 415 578 415 604 L415 604 Z " />
<glyph glyph-name="aring" unicode="&#xe5;" horiz-adv-x="527" d="M452 31 L452 332 C452 449 367 495 265 495 C196 495 136 474 85 428 C78 422 75 414 75 406 C75 388 92 376 108 376 C115 376 123 379 129 384 C166 415 207 430 255 430 C325 430 377 393 377 328 L377 241 C338 286 283 307 217 307 C135 307 48 256 48 148 C48 43 135 -12 217 -12 C282 -12 337 11 377 55 C377 55 377 33 377 33 C377 12 393 -6 414 -6 L414 -6 C435 -6 452 11 452 31 L452 31 Z M377 102 C348 62 297 42 244 42 C174 42 125 86 125 147 C125 209 174 253 244 253 C297 253 348 233 377 193 L377 102 Z M363 641 C363 695 319 740 265 740 C211 740 167 695 167 641 C167 587 211 543 265 543 C319 543 363 587 363 641 L363 641 Z M323 641 C323 609 298 582 265 582 C233 582 207 609 207 641 C207 674 233 700 265 700 C298 700 323 674 323 641 L323 641 Z " />
<glyph glyph-name="ae" unicode="&#xe6;" horiz-adv-x="889" d="M842 258 C842 275 839 292 836 308 C813 423 738 495 627 495 C539 495 481 448 448 390 C430 464 356 495 277 495 C204 495 139 474 86 429 C79 423 76 415 76 407 C76 388 94 376 109 376 C116 376 123 378 129 383 C170 416 215 430 268 430 C347 430 401 393 401 329 L401 243 C358 287 297 307 226 307 C132 307 48 252 48 148 C48 43 138 -12 242 -12 C331 -12 407 35 441 104 C480 24 549 -12 634 -12 C693 -12 749 7 797 47 C803 53 807 61 807 69 C807 87 791 99 775 99 C767 99 760 97 754 92 C721 66 679 52 637 52 C541 52 483 126 476 217 L801 217 C824 217 842 236 842 258 L842 258 Z M769 272 L476 272 C479 346 527 433 622 433 C726 433 768 344 769 272 L769 272 Z M401 180 C401 116 341 52 256 52 C178 52 125 91 125 152 C125 213 178 253 256 253 C313 253 368 231 401 192 L401 180 Z " />
<glyph glyph-name="ccedilla" unicode="&#xe7;" horiz-adv-x="495" d="M455 73 C455 92 438 105 420 105 C411 105 402 102 395 96 C366 68 332 55 292 55 C189 55 125 135 125 242 C125 349 189 428 292 428 C332 428 366 416 395 388 C402 381 411 377 421 377 C440 377 455 394 455 411 C455 419 452 426 447 432 C410 470 361 495 288 495 C144 495 47 385 47 242 C47 106 133 2 262 -10 L244 -60 C243 -62 243 -65 243 -67 C243 -79 253 -89 265 -89 C279 -89 294 -73 311 -73 C336 -73 348 -87 348 -108 C348 -135 319 -150 287 -150 C265 -150 241 -145 218 -130 C215 -128 213 -128 210 -128 C199 -128 189 -137 189 -148 C189 -176 250 -189 289 -189 C346 -189 393 -158 393 -109 C393 -68 365 -42 327 -42 C314 -42 300 -46 290 -53 L306 -11 C370 -7 412 14 447 51 C453 57 455 65 455 73 L455 73 Z " />
<glyph glyph-name="egrave" unicode="&#xe8;" horiz-adv-x="563" d="M516 258 C516 275 512 293 509 308 C484 419 405 495 285 495 C147 495 47 382 47 242 C47 91 150 -12 293 -12 C352 -12 477 17 477 69 C477 88 460 100 447 100 C441 100 435 98 430 95 C392 65 346 50 300 50 C196 50 132 126 126 217 L475 217 C498 217 516 236 516 258 L516 258 Z M443 272 L126 272 C130 346 181 433 284 433 C394 433 442 344 443 272 L443 272 Z M319 571 C319 576 317 580 314 584 L196 698 C191 703 184 705 178 705 C164 705 152 693 152 680 C152 673 155 667 160 663 L286 555 C290 552 294 550 299 550 C311 550 319 561 319 571 L319 571 Z " />
<glyph glyph-name="eacute" unicode="&#xe9;" horiz-adv-x="563" d="M516 258 C516 275 512 293 509 308 C484 419 405 495 285 495 C147 495 47 382 47 242 C47 91 150 -12 293 -12 C352 -12 477 17 477 69 C477 88 460 100 447 100 C441 100 435 98 430 95 C392 65 346 50 300 50 C196 50 132 126 126 217 L475 217 C498 217 516 236 516 258 L516 258 Z M443 272 L126 272 C130 346 181 433 284 433 C394 433 442 344 443 272 L443 272 Z M418 680 C418 694 404 705 392 705 C385 705 379 703 374 698 L256 584 C252 580 251 576 251 571 C251 559 262 550 272 550 C276 550 280 552 284 555 L410 663 C415 667 418 674 418 680 L418 680 Z " />
<glyph glyph-name="ecircumflex" unicode="&#xea;" horiz-adv-x="563" d="M516 258 C516 275 512 293 509 308 C484 419 405 495 285 495 C147 495 47 382 47 242 C47 91 150 -12 293 -12 C352 -12 477 17 477 69 C477 88 460 100 447 100 C441 100 435 98 430 95 C392 65 346 50 300 50 C196 50 132 126 126 217 L475 217 C498 217 516 236 516 258 L516 258 Z M443 272 L126 272 C130 346 181 433 284 433 C394 433 442 344 443 272 L443 272 Z M405 570 C405 574 404 578 402 581 L334 680 C323 696 305 706 286 706 C265 706 246 696 236 680 L171 581 C169 577 167 573 167 570 C167 558 178 550 189 550 C196 550 202 553 206 558 L285 662 L367 557 C371 552 377 549 383 549 C397 549 405 561 405 570 L405 570 Z " />
<glyph glyph-name="edieresis" unicode="&#xeb;" horiz-adv-x="563" d="M516 258 C516 275 512 293 509 308 C484 419 405 495 285 495 C147 495 47 382 47 242 C47 91 150 -12 293 -12 C352 -12 477 17 477 69 C477 88 460 100 447 100 C441 100 435 98 430 95 C392 65 346 50 300 50 C196 50 132 126 126 217 L475 217 C498 217 516 236 516 258 L516 258 Z M443 272 L126 272 C130 346 181 433 284 433 C394 433 442 344 443 272 L443 272 Z M229 604 C229 629 208 650 183 650 C157 650 136 629 136 604 C136 578 157 557 183 557 C208 557 229 578 229 604 L229 604 Z M436 604 C436 629 414 650 389 650 C364 650 342 629 342 604 C342 578 364 557 389 557 C414 557 436 578 436 604 L436 604 Z " />
<glyph glyph-name="igrave" unicode="&#xec;" horiz-adv-x="225" d="M147 571 C147 576 145 580 142 584 L24 698 C19 703 12 705 6 705 C-8 705 -20 693 -20 680 C-20 673 -17 667 -12 663 L114 555 C118 552 122 550 127 550 C139 550 147 561 147 571 L147 571 Z M150 31 L150 453 C150 472 133 489 114 489 C92 489 75 472 75 453 L75 31 C75 11 92 -6 112 -6 C133 -6 150 11 150 31 L150 31 Z " />
<glyph glyph-name="iacute" unicode="&#xed;" horiz-adv-x="225" d="M246 680 C246 694 232 705 220 705 C213 705 207 703 202 698 L84 584 C80 580 79 576 79 571 C79 559 90 550 100 550 C104 550 108 552 112 555 L238 663 C243 667 246 674 246 680 L246 680 Z M150 31 L150 453 C150 472 133 489 114 489 C92 489 75 472 75 453 L75 31 C75 11 92 -6 112 -6 C133 -6 150 11 150 31 L150 31 Z " />
<glyph glyph-name="icircumflex" unicode="&#xee;" horiz-adv-x="225" d="M150 31 L150 453 C150 472 133 489 114 489 C92 489 75 472 75 453 L75 31 C75 11 92 -6 112 -6 C133 -6 150 11 150 31 L150 31 Z M232 570 C232 574 231 578 229 581 L161 680 C150 696 132 706 113 706 C92 706 73 696 63 680 L-2 581 C-4 577 -6 573 -6 570 C-6 558 5 550 16 550 C23 550 29 553 33 558 L112 662 L194 557 C198 552 204 549 210 549 C224 549 232 561 232 570 L232 570 Z " />
<glyph glyph-name="idieresis" unicode="&#xef;" horiz-adv-x="225" d="M57 604 C57 629 36 650 11 650 C-15 650 -36 629 -36 604 C-36 578 -15 557 11 557 C36 557 57 578 57 604 L57 604 Z M264 604 C264 629 242 650 217 650 C192 650 170 629 170 604 C170 578 192 557 217 557 C242 557 264 578 264 604 L264 604 Z M150 31 L150 453 C150 472 133 489 114 489 C92 489 75 472 75 453 L75 31 C75 11 92 -6 112 -6 C133 -6 150 11 150 31 L150 31 Z " />
<glyph glyph-name="eth" unicode="&#xf0;" horiz-adv-x="572" d="M525 247 C525 388 447 502 339 594 L406 623 C414 627 418 635 418 644 C418 658 407 666 397 666 C394 666 391 665 389 664 L300 625 C273 646 223 688 199 688 C179 688 161 671 161 650 C161 623 200 604 222 591 L124 548 C116 544 111 536 111 528 C111 513 123 504 133 504 C136 504 139 505 142 506 L265 560 C331 511 388 456 425 390 C381 453 329 479 267 479 C138 479 47 374 47 234 C47 94 142 -12 286 -12 C433 -12 525 98 525 247 L525 247 Z M446 234 C446 139 389 55 286 55 C183 55 125 139 125 234 C125 328 183 412 286 412 C389 412 446 328 446 234 L446 234 Z " />
<glyph glyph-name="ntilde" unicode="&#xf1;" horiz-adv-x="551" d="M476 31 L476 339 C476 444 423 495 322 495 C250 495 184 453 150 413 L150 453 C150 472 133 489 114 489 C92 489 75 472 75 453 L75 31 C75 11 92 -6 112 -6 C133 -6 150 11 150 31 L150 353 C178 392 234 428 293 428 C358 428 401 401 401 316 L401 31 C401 11 418 -6 438 -6 C459 -6 476 11 476 31 L476 31 Z M432 667 C432 678 425 688 412 688 C399 688 388 679 387 666 C382 622 364 602 340 602 C292 602 289 694 217 694 C164 694 121 647 121 579 C121 569 129 560 141 560 C154 560 165 569 166 582 C171 626 189 646 213 646 C261 646 263 554 336 554 C393 554 426 600 432 667 L432 667 Z " />
<glyph glyph-name="ograve" unicode="&#xf2;" horiz-adv-x="572" d="M525 242 C525 382 433 495 286 495 C139 495 47 382 47 242 C47 102 139 -12 286 -12 C433 -12 525 102 525 242 L525 242 Z M446 242 C446 143 389 55 286 55 C183 55 125 143 125 242 C125 340 183 428 286 428 C389 428 446 340 446 242 L446 242 Z M320 571 C320 576 318 580 315 584 L197 698 C192 703 185 705 179 705 C165 705 153 693 153 680 C153 673 156 667 161 663 L287 555 C291 552 295 550 300 550 C312 550 320 561 320 571 L320 571 Z " />
<glyph glyph-name="oacute" unicode="&#xf3;" horiz-adv-x="572" d="M525 242 C525 382 433 495 286 495 C139 495 47 382 47 242 C47 102 139 -12 286 -12 C433 -12 525 102 525 242 L525 242 Z M446 242 C446 143 389 55 286 55 C183 55 125 143 125 242 C125 340 183 428 286 428 C389 428 446 340 446 242 L446 242 Z M419 680 C419 694 405 705 393 705 C386 705 380 703 375 698 L257 584 C253 580 252 576 252 571 C252 559 263 550 273 550 C277 550 281 552 285 555 L411 663 C416 667 419 674 419 680 L419 680 Z " />
<glyph glyph-name="ocircumflex" unicode="&#xf4;" horiz-adv-x="572" d="M525 242 C525 382 433 495 286 495 C139 495 47 382 47 242 C47 102 139 -12 286 -12 C433 -12 525 102 525 242 L525 242 Z M446 242 C446 143 389 55 286 55 C183 55 125 143 125 242 C125 340 183 428 286 428 C389 428 446 340 446 242 L446 242 Z M405 570 C405 574 404 578 402 581 L334 680 C323 696 305 706 286 706 C265 706 246 696 236 680 L171 581 C169 577 167 573 167 570 C167 558 178 550 189 550 C196 550 202 553 206 558 L285 662 L367 557 C371 552 377 549 383 549 C397 549 405 561 405 570 L405 570 Z " />
<glyph glyph-name="otilde" unicode="&#xf5;" horiz-adv-x="572" d="M525 242 C525 382 433 495 286 495 C139 495 47 382 47 242 C47 102 139 -12 286 -12 C433 -12 525 102 525 242 L525 242 Z M446 242 C446 143 389 55 286 55 C183 55 125 143 125 242 C125 340 183 428 286 428 C389 428 446 340 446 242 L446 242 Z M442 667 C442 678 435 688 422 688 C409 688 398 679 397 666 C392 622 374 602 350 602 C302 602 299 694 227 694 C174 694 131 647 131 579 C131 569 139 560 151 560 C164 560 175 569 176 582 C181 626 199 646 223 646 C271 646 273 554 346 554 C403 554 436 600 442 667 L442 667 Z " />
<glyph glyph-name="odieresis" unicode="&#xf6;" horiz-adv-x="572" d="M525 242 C525 382 433 495 286 495 C139 495 47 382 47 242 C47 102 139 -12 286 -12 C433 -12 525 102 525 242 L525 242 Z M446 242 C446 143 389 55 286 55 C183 55 125 143 125 242 C125 340 183 428 286 428 C389 428 446 340 446 242 L446 242 Z M229 604 C229 629 208 650 183 650 C157 650 136 629 136 604 C136 578 157 557 183 557 C208 557 229 578 229 604 L229 604 Z M436 604 C436 629 414 650 389 650 C364 650 342 629 342 604 C342 578 364 557 389 557 C414 557 436 578 436 604 L436 604 Z " />
<glyph glyph-name="divide" unicode="&#xf7;" horiz-adv-x="511" d="M255 572 C230 572 210 552 210 526 C210 501 230 480 255 480 C281 480 302 501 302 526 C302 552 281 572 255 572 L255 572 Z M482 338 C482 352 471 363 457 363 L54 363 C40 363 29 352 29 338 C29 322 40 311 54 311 L457 311 C471 311 482 322 482 338 L482 338 Z M302 144 C302 169 281 190 255 190 C230 190 210 169 210 144 C210 119 230 98 255 98 C281 98 302 119 302 144 L302 144 Z " />
<glyph glyph-name="oslash" unicode="&#xf8;" horiz-adv-x="572" d="M144 33 C182 4 230 -12 286 -12 C433 -12 525 102 525 242 C525 315 500 380 455 426 L482 461 C485 465 486 469 486 474 C486 486 475 495 464 495 C459 495 453 493 450 488 L423 454 C386 480 339 495 286 495 C139 495 47 382 47 242 C47 171 70 107 112 61 L81 21 C78 18 77 13 77 9 C77 -3 88 -12 99 -12 C105 -12 110 -9 113 -5 L144 33 Z M188 89 L408 367 C433 333 446 289 446 242 C446 143 389 55 286 55 C246 55 214 68 188 89 L188 89 Z M286 428 C323 428 354 417 378 398 L159 121 C137 154 125 197 125 242 C125 340 183 428 286 428 L286 428 Z " />
<glyph glyph-name="ugrave" unicode="&#xf9;" horiz-adv-x="551" d="M476 31 L476 453 C476 472 459 489 440 489 C418 489 401 472 401 453 L401 128 C373 89 317 55 258 55 C193 55 150 80 150 165 L150 453 C150 472 133 489 114 489 C92 489 75 472 75 453 L75 142 C75 37 128 -12 229 -12 C301 -12 364 26 401 68 L401 31 C401 11 418 -6 438 -6 C459 -6 476 11 476 31 L476 31 Z M309 571 C309 576 307 580 304 584 L186 698 C181 703 174 705 168 705 C154 705 142 693 142 680 C142 673 145 667 150 663 L276 555 C280 552 284 550 289 550 C301 550 309 561 309 571 L309 571 Z " />
<glyph glyph-name="uacute" unicode="&#xfa;" horiz-adv-x="551" d="M476 31 L476 453 C476 472 459 489 440 489 C418 489 401 472 401 453 L401 128 C373 89 317 55 258 55 C193 55 150 80 150 165 L150 453 C150 472 133 489 114 489 C92 489 75 472 75 453 L75 142 C75 37 128 -12 229 -12 C301 -12 364 26 401 68 L401 31 C401 11 418 -6 438 -6 C459 -6 476 11 476 31 L476 31 Z M408 680 C408 694 394 705 382 705 C375 705 369 703 364 698 L246 584 C242 580 241 576 241 571 C241 559 252 550 262 550 C266 550 270 552 274 555 L400 663 C405 667 408 674 408 680 L408 680 Z " />
<glyph glyph-name="ucircumflex" unicode="&#xfb;" horiz-adv-x="551" d="M476 31 L476 453 C476 472 459 489 440 489 C418 489 401 472 401 453 L401 128 C373 89 317 55 258 55 C193 55 150 80 150 165 L150 453 C150 472 133 489 114 489 C92 489 75 472 75 453 L75 142 C75 37 128 -12 229 -12 C301 -12 364 26 401 68 L401 31 C401 11 418 -6 438 -6 C459 -6 476 11 476 31 L476 31 Z M394 570 C394 574 393 578 391 581 L323 680 C312 696 294 706 275 706 C254 706 235 696 225 680 L160 581 C158 577 156 573 156 570 C156 558 167 550 178 550 C185 550 191 553 195 558 L274 662 L356 557 C360 552 366 549 372 549 C386 549 394 561 394 570 L394 570 Z " />
<glyph glyph-name="udieresis" unicode="&#xfc;" horiz-adv-x="551" d="M476 31 L476 453 C476 472 459 489 440 489 C418 489 401 472 401 453 L401 128 C373 89 317 55 258 55 C193 55 150 80 150 165 L150 453 C150 472 133 489 114 489 C92 489 75 472 75 453 L75 142 C75 37 128 -12 229 -12 C301 -12 364 26 401 68 L401 31 C401 11 418 -6 438 -6 C459 -6 476 11 476 31 L476 31 Z M220 604 C220 629 199 650 174 650 C148 650 127 629 127 604 C127 578 148 557 174 557 C199 557 220 578 220 604 L220 604 Z M427 604 C427 629 405 650 380 650 C355 650 333 629 333 604 C333 578 355 557 380 557 C405 557 427 578 427 604 L427 604 Z " />
<glyph glyph-name="yacute" unicode="&#xfd;" horiz-adv-x="490" d="M472 452 C472 472 455 489 433 489 C418 489 404 480 398 466 L245 87 L91 466 C85 481 71 489 56 489 C34 489 18 471 18 452 C18 448 19 443 21 439 L205 -5 L173 -78 C155 -118 132 -130 102 -129 C94 -129 86 -128 77 -128 C60 -128 44 -142 44 -162 C44 -194 77 -196 103 -196 C165 -196 216 -167 245 -98 L469 439 C471 443 472 448 472 452 L472 452 Z M378 680 C378 694 364 705 352 705 C345 705 339 703 334 698 L216 584 C212 580 211 576 211 571 C211 559 222 550 232 550 C236 550 240 552 244 555 L370 663 C375 667 378 674 378 680 L378 680 Z " />
<glyph glyph-name="thorn" unicode="&#xfe;" horiz-adv-x="572" d="M528 242 C528 399 440 495 313 495 C245 495 185 460 150 411 L150 631 C150 650 133 667 114 667 C92 667 75 650 75 631 L75 -148 C75 -167 92 -184 112 -184 C133 -184 150 -167 150 -148 L150 73 C189 19 247 -12 313 -12 C440 -12 528 86 528 242 L528 242 Z M449 242 C449 135 391 55 294 55 C235 55 176 91 150 133 L150 351 C176 393 235 428 294 428 C391 428 449 349 449 242 L449 242 Z " />
<glyph glyph-name="ydieresis" unicode="&#xff;" horiz-adv-x="490" d="M472 452 C472 472 455 489 433 489 C418 489 404 480 398 466 L245 87 L91 466 C85 481 71 489 56 489 C34 489 18 471 18 452 C18 448 19 443 21 439 L205 -5 L173 -78 C155 -118 132 -130 102 -129 C94 -129 86 -128 77 -128 C60 -128 44 -142 44 -162 C44 -194 77 -196 103 -196 C165 -196 216 -167 245 -98 L469 439 C471 443 472 448 472 452 L472 452 Z M188 604 C188 629 167 650 142 650 C116 650 95 629 95 604 C95 578 116 557 142 557 C167 557 188 578 188 604 L188 604 Z M395 604 C395 629 373 650 348 650 C323 650 301 629 301 604 C301 578 323 557 348 557 C373 557 395 578 395 604 L395 604 Z " />
<glyph glyph-name="Amacron" unicode="&#x100;" horiz-adv-x="658" d="M630 38 C630 43 629 49 627 54 L395 628 C384 655 358 673 329 673 C298 673 272 655 261 628 L31 54 C29 49 28 43 28 38 C28 15 47 -6 73 -6 C90 -6 106 4 113 21 L163 148 L495 148 L545 21 C552 4 568 -6 585 -6 C612 -6 630 18 630 38 L630 38 Z M470 222 L187 222 L329 581 L470 222 Z M510 764 C510 777 500 787 487 787 L170 787 C157 787 147 777 147 764 C147 749 157 739 170 739 L487 739 C500 739 510 749 510 764 L510 764 Z " />
<glyph glyph-name="amacron" unicode="&#x101;" horiz-adv-x="527" d="M452 31 L452 332 C452 449 367 495 265 495 C196 495 136 474 85 428 C78 422 75 414 75 406 C75 388 92 376 108 376 C115 376 123 379 129 384 C166 415 207 430 255 430 C325 430 377 393 377 328 L377 241 C338 286 283 307 217 307 C135 307 48 256 48 148 C48 43 135 -12 217 -12 C282 -12 337 11 377 55 C377 55 377 33 377 33 C377 12 393 -6 414 -6 L414 -6 C435 -6 452 11 452 31 L452 31 Z M377 102 C348 62 297 42 244 42 C174 42 125 86 125 147 C125 209 174 253 244 253 C297 253 348 233 377 193 L377 102 Z M445 597 C445 610 435 620 422 620 L105 620 C92 620 82 610 82 597 C82 582 92 572 105 572 L422 572 C435 572 445 582 445 597 L445 597 Z " />
<glyph glyph-name="Abreve" unicode="&#x102;" horiz-adv-x="658" d="M630 38 C630 43 629 49 627 54 L395 628 C384 655 358 673 329 673 C298 673 272 655 261 628 L31 54 C29 49 28 43 28 38 C28 15 47 -6 73 -6 C90 -6 106 4 113 21 L163 148 L495 148 L545 21 C552 4 568 -6 585 -6 C612 -6 630 18 630 38 L630 38 Z M470 222 L187 222 L329 581 L470 222 Z M495 790 C495 800 486 814 470 814 C463 814 457 812 452 807 C422 773 379 753 329 753 C279 753 236 773 205 807 C200 812 193 814 187 814 C172 814 162 801 162 790 C162 784 164 779 168 775 C209 732 266 705 329 705 C393 705 449 732 489 775 C493 779 495 784 495 790 L495 790 Z " />
<glyph glyph-name="abreve" unicode="&#x103;" horiz-adv-x="527" d="M452 31 L452 332 C452 449 367 495 265 495 C196 495 136 474 85 428 C78 422 75 414 75 406 C75 388 92 376 108 376 C115 376 123 379 129 384 C166 415 207 430 255 430 C325 430 377 393 377 328 L377 241 C338 286 283 307 217 307 C135 307 48 256 48 148 C48 43 135 -12 217 -12 C282 -12 337 11 377 55 C377 55 377 33 377 33 C377 12 393 -6 414 -6 L414 -6 C435 -6 452 11 452 31 L452 31 Z M377 102 C348 62 297 42 244 42 C174 42 125 86 125 147 C125 209 174 253 244 253 C297 253 348 233 377 193 L377 102 Z M430 623 C430 633 421 647 405 647 C398 647 392 645 387 640 C357 606 314 586 264 586 C214 586 171 606 140 640 C135 645 128 647 122 647 C107 647 97 634 97 623 C97 617 99 612 103 608 C144 565 201 538 264 538 C328 538 384 565 424 608 C428 612 430 617 430 623 L430 623 Z " />
<glyph glyph-name="Aogonek" unicode="&#x104;" horiz-adv-x="658" d="M699 -134 C699 -122 689 -114 678 -114 C671 -114 664 -117 661 -123 C651 -139 638 -147 617 -147 C591 -147 573 -131 573 -97 C573 -73 582 -52 600 -34 C622 -11 633 5 633 25 C633 37 629 50 622 68 L395 628 C384 655 358 673 329 673 C298 673 272 655 261 628 L31 54 C29 49 28 43 28 38 C28 15 47 -6 73 -6 C90 -6 106 4 113 21 L163 148 L495 148 L544 24 C549 12 560 3 573 1 C575 0 578 0 580 0 C548 -26 528 -61 528 -99 C528 -160 570 -186 617 -186 C654 -186 699 -162 699 -134 L699 -134 Z M470 222 L187 222 L329 581 L470 222 Z " />
<glyph glyph-name="aogonek" unicode="&#x105;" horiz-adv-x="527" d="M502 -134 C502 -122 492 -114 481 -114 C474 -114 467 -117 464 -123 C454 -139 441 -147 420 -147 C394 -147 376 -131 376 -97 C376 -60 402 -26 440 4 C447 11 452 20 452 31 L452 332 C452 449 367 495 265 495 C196 495 136 474 85 428 C78 422 75 414 75 406 C75 388 92 376 108 376 C115 376 123 379 129 384 C166 415 207 430 255 430 C325 430 377 393 377 328 L377 241 C338 286 283 307 217 307 C135 307 48 256 48 148 C48 43 135 -12 217 -12 C282 -12 337 11 377 55 C376 29 375 16 389 4 C354 -22 331 -59 331 -99 C331 -160 373 -186 420 -186 C457 -186 502 -162 502 -134 L502 -134 Z M377 102 C348 62 297 42 244 42 C174 42 125 86 125 147 C125 209 174 253 244 253 C297 253 348 233 377 193 L377 102 Z " />
<glyph glyph-name="Cacute" unicode="&#x106;" horiz-adv-x="676" d="M394 678 C202 678 51 538 51 333 C51 128 202 -12 394 -12 C494 -12 565 28 617 82 C624 90 628 100 628 110 C628 131 612 151 589 151 C579 151 568 146 561 138 C519 89 457 62 394 62 C248 62 137 175 137 333 C137 492 248 604 394 604 C456 604 522 574 561 527 C568 518 579 514 589 514 C611 514 628 533 628 554 C628 565 624 575 617 583 C566 638 494 678 394 678 L394 678 Z M527 847 C527 861 513 872 501 872 C494 872 488 870 483 865 L365 751 C361 747 360 743 360 738 C360 726 371 717 381 717 C385 717 389 719 393 722 L519 830 C524 834 527 841 527 847 L527 847 Z " />
<glyph glyph-name="cacute" unicode="&#x107;" horiz-adv-x="495" d="M455 72 C455 91 438 105 420 105 C411 105 402 102 395 96 C366 68 332 55 292 55 C189 55 125 135 125 242 C125 349 189 428 292 428 C332 428 366 416 395 388 C402 381 411 377 421 377 C440 377 455 394 455 411 C455 419 452 426 447 432 C410 470 361 495 288 495 C144 495 47 385 47 242 C47 98 144 -12 288 -12 C361 -12 410 13 447 51 C453 57 455 65 455 72 L455 72 Z M420 680 C420 694 406 705 394 705 C387 705 381 703 376 698 L258 584 C254 580 253 576 253 571 C253 559 264 550 274 550 C278 550 282 552 286 555 L412 663 C417 667 420 674 420 680 L420 680 Z " />
<glyph glyph-name="Ccircumflex" unicode="&#x108;" horiz-adv-x="676" d="M394 678 C202 678 51 538 51 333 C51 128 202 -12 394 -12 C494 -12 565 28 617 82 C624 90 628 100 628 110 C628 131 612 151 589 151 C579 151 568 146 561 138 C519 89 457 62 394 62 C248 62 137 175 137 333 C137 492 248 604 394 604 C456 604 522 574 561 527 C568 518 579 514 589 514 C611 514 628 533 628 554 C628 565 624 575 617 583 C566 638 494 678 394 678 L394 678 Z M512 754 C512 758 511 762 509 765 L441 864 C430 880 412 890 393 890 C372 890 353 880 343 864 L278 765 C276 761 274 757 274 754 C274 742 285 734 296 734 C303 734 309 737 313 742 L392 846 L474 741 C478 736 484 733 490 733 C504 733 512 745 512 754 L512 754 Z " />
<glyph glyph-name="ccircumflex" unicode="&#x109;" horiz-adv-x="495" d="M455 72 C455 91 438 105 420 105 C411 105 402 102 395 96 C366 68 332 55 292 55 C189 55 125 135 125 242 C125 349 189 428 292 428 C332 428 366 416 395 388 C402 381 411 377 421 377 C440 377 455 394 455 411 C455 419 452 426 447 432 C410 470 361 495 288 495 C144 495 47 385 47 242 C47 98 144 -12 288 -12 C361 -12 410 13 447 51 C453 57 455 65 455 72 L455 72 Z M411 570 C411 574 410 578 408 581 L340 680 C329 696 311 706 292 706 C271 706 252 696 242 680 L177 581 C175 577 173 573 173 570 C173 558 184 550 195 550 C202 550 208 553 212 558 L291 662 L373 557 C377 552 383 549 389 549 C403 549 411 561 411 570 L411 570 Z " />
<glyph glyph-name="Cdotaccent" unicode="&#x10a;" horiz-adv-x="676" d="M394 678 C202 678 51 538 51 333 C51 128 202 -12 394 -12 C494 -12 565 28 617 82 C624 90 628 100 628 110 C628 131 612 151 589 151 C579 151 568 146 561 138 C519 89 457 62 394 62 C248 62 137 175 137 333 C137 492 248 604 394 604 C456 604 522 574 561 527 C568 518 579 514 589 514 C611 514 628 533 628 554 C628 565 624 575 617 583 C566 638 494 678 394 678 L394 678 Z M444 786 C444 812 424 833 398 833 C373 833 351 812 351 786 C351 760 373 739 398 739 C424 739 444 760 444 786 L444 786 Z " />
<glyph glyph-name="cdotaccent" unicode="&#x10b;" horiz-adv-x="495" d="M455 72 C455 91 438 105 420 105 C411 105 402 102 395 96 C366 68 332 55 292 55 C189 55 125 135 125 242 C125 349 189 428 292 428 C332 428 366 416 395 388 C402 381 411 377 421 377 C440 377 455 394 455 411 C455 419 452 426 447 432 C410 470 361 495 288 495 C144 495 47 385 47 242 C47 98 144 -12 288 -12 C361 -12 410 13 447 51 C453 57 455 65 455 72 L455 72 Z M339 602 C339 628 319 649 293 649 C268 649 246 628 246 602 C246 576 268 555 293 555 C319 555 339 576 339 602 L339 602 Z " />
<glyph glyph-name="Ccaron" unicode="&#x10c;" horiz-adv-x="676" d="M394 678 C202 678 51 538 51 333 C51 128 202 -12 394 -12 C494 -12 565 28 617 82 C624 90 628 100 628 110 C628 131 612 151 589 151 C579 151 568 146 561 138 C519 89 457 62 394 62 C248 62 137 175 137 333 C137 492 248 604 394 604 C456 604 522 574 561 527 C568 518 579 514 589 514 C611 514 628 533 628 554 C628 565 624 575 617 583 C566 638 494 678 394 678 L394 678 Z M515 853 C515 865 504 873 493 873 C487 873 481 871 477 866 L395 761 L316 865 C312 870 305 873 299 873 C286 873 278 861 278 853 C278 849 279 845 281 842 L346 743 C356 727 375 717 394 717 C415 717 433 727 444 743 L512 842 C514 845 515 849 515 853 L515 853 Z " />
<glyph glyph-name="ccaron" unicode="&#x10d;" horiz-adv-x="495" d="M455 72 C455 91 438 105 420 105 C411 105 402 102 395 96 C366 68 332 55 292 55 C189 55 125 135 125 242 C125 349 189 428 292 428 C332 428 366 416 395 388 C402 381 411 377 421 377 C440 377 455 394 455 411 C455 419 452 426 447 432 C410 470 361 495 288 495 C144 495 47 385 47 242 C47 98 144 -12 288 -12 C361 -12 410 13 447 51 C453 57 455 65 455 72 L455 72 Z M410 686 C410 698 399 706 388 706 C382 706 376 704 372 699 L290 594 L211 698 C207 703 200 706 194 706 C181 706 173 694 173 686 C173 682 174 678 176 675 L241 576 C251 560 270 550 289 550 C310 550 328 560 339 576 L407 675 C409 678 410 682 410 686 L410 686 Z " />
<glyph glyph-name="Dcaron" unicode="&#x10e;" horiz-adv-x="700" d="M648 333 C648 522 513 667 306 667 L138 667 C105 667 78 640 78 607 L78 60 C78 27 105 0 138 0 L306 0 C513 0 648 143 648 333 L648 333 Z M562 333 C562 190 468 74 306 74 L161 74 L161 593 L306 593 C471 593 562 477 562 333 L562 333 Z M473 853 C473 865 462 873 451 873 C445 873 439 871 435 866 L353 761 L274 865 C270 870 263 873 257 873 C244 873 236 861 236 853 C236 849 237 845 239 842 L304 743 C314 727 333 717 352 717 C373 717 391 727 402 743 L470 842 C472 845 473 849 473 853 L473 853 Z " />
<glyph glyph-name="dcaron" unicode="&#x10f;" horiz-adv-x="644" d="M500 31 L500 637 C500 656 483 673 464 673 C442 673 425 656 425 637 L425 410 C386 463 327 495 262 495 C135 495 47 395 47 241 C47 84 136 -12 262 -12 C330 -12 389 23 425 72 L425 31 C425 11 442 -6 462 -6 C483 -6 500 11 500 31 L500 31 Z M425 131 C398 89 340 55 280 55 C183 55 125 134 125 241 C125 348 183 428 280 428 C340 428 398 392 425 350 L425 131 Z M648 613 C648 656 623 680 595 680 C569 680 549 659 549 633 C549 608 567 589 591 589 C594 589 601 590 602 591 C600 567 582 538 560 517 C556 514 554 510 554 505 C554 500 557 495 561 492 L562 491 C566 487 571 486 577 486 C582 486 588 488 592 492 C624 522 648 566 648 613 L648 613 Z " />
<glyph glyph-name="Dcroat" unicode="&#x110;" horiz-adv-x="728" d="M676 333 C676 522 541 667 334 667 L166 667 C133 667 106 640 106 607 L106 360 L34 360 C17 360 4 347 4 331 C4 312 17 299 34 299 L106 299 L106 60 C106 27 133 0 166 0 L334 0 C541 0 676 143 676 333 L676 333 Z M590 333 C590 190 496 74 334 74 L189 74 L189 299 L335 299 C351 299 364 312 364 329 C364 347 351 360 335 360 L189 360 L189 593 L334 593 C499 593 590 477 590 333 L590 333 Z " />
<glyph glyph-name="dcroat" unicode="&#x111;" horiz-adv-x="577" d="M574 558 C574 573 564 583 551 583 L500 583 L500 637 C500 656 483 673 464 673 C442 673 425 656 425 637 L425 583 L285 583 C272 583 262 573 262 560 C262 545 272 535 285 535 L425 535 L425 410 C386 463 327 495 262 495 C135 495 47 395 47 241 C47 84 136 -12 262 -12 C330 -12 389 23 425 72 L425 31 C425 11 442 -6 462 -6 C483 -6 500 11 500 31 L500 535 L551 535 C564 535 574 545 574 558 L574 558 Z M425 131 C398 89 340 55 280 55 C183 55 125 134 125 241 C125 348 183 428 280 428 C340 428 398 392 425 350 L425 131 Z " />
<glyph glyph-name="Emacron" unicode="&#x112;" horiz-adv-x="569" d="M521 38 C521 58 505 74 485 74 L161 74 L161 304 L478 304 C498 304 514 320 514 340 C514 362 498 378 478 378 L161 378 L161 593 L485 593 C505 593 521 609 521 629 C521 651 505 667 485 667 L138 667 C105 667 78 640 78 607 L78 60 C78 27 105 0 138 0 L485 0 C505 0 521 16 521 38 L521 38 Z M477 764 C477 777 467 787 454 787 L137 787 C124 787 114 777 114 764 C114 749 124 739 137 739 L454 739 C467 739 477 749 477 764 L477 764 Z " />
<glyph glyph-name="emacron" unicode="&#x113;" horiz-adv-x="563" d="M516 258 C516 275 512 293 509 308 C484 419 405 495 285 495 C147 495 47 382 47 242 C47 91 150 -12 293 -12 C352 -12 477 17 477 69 C477 88 460 100 447 100 C441 100 435 98 430 95 C392 65 346 50 300 50 C196 50 132 126 126 217 L475 217 C498 217 516 236 516 258 L516 258 Z M443 272 L126 272 C130 346 181 433 284 433 C394 433 442 344 443 272 L443 272 Z M466 597 C466 610 456 620 443 620 L126 620 C113 620 103 610 103 597 C103 582 113 572 126 572 L443 572 C456 572 466 582 466 597 L466 597 Z " />
<glyph glyph-name="Ebreve" unicode="&#x114;" horiz-adv-x="569" d="M521 38 C521 58 505 74 485 74 L161 74 L161 304 L478 304 C498 304 514 320 514 340 C514 362 498 378 478 378 L161 378 L161 593 L485 593 C505 593 521 609 521 629 C521 651 505 667 485 667 L138 667 C105 667 78 640 78 607 L78 60 C78 27 105 0 138 0 L485 0 C505 0 521 16 521 38 L521 38 Z M466 807 C466 817 457 831 441 831 C434 831 428 829 423 824 C393 790 350 770 300 770 C250 770 207 790 176 824 C171 829 164 831 158 831 C143 831 133 818 133 807 C133 801 135 796 139 792 C180 749 237 722 300 722 C364 722 420 749 460 792 C464 796 466 801 466 807 L466 807 Z " />
<glyph glyph-name="ebreve" unicode="&#x115;" horiz-adv-x="563" d="M516 258 C516 275 512 293 509 308 C484 419 405 495 285 495 C147 495 47 382 47 242 C47 91 150 -12 293 -12 C352 -12 477 17 477 69 C477 88 460 100 447 100 C441 100 435 98 430 95 C392 65 346 50 300 50 C196 50 132 126 126 217 L475 217 C498 217 516 236 516 258 L516 258 Z M443 272 L126 272 C130 346 181 433 284 433 C394 433 442 344 443 272 L443 272 Z M453 623 C453 633 444 647 428 647 C421 647 415 645 410 640 C380 606 337 586 287 586 C237 586 194 606 163 640 C158 645 151 647 145 647 C130 647 120 634 120 623 C120 617 122 612 126 608 C167 565 224 538 287 538 C351 538 407 565 447 608 C451 612 453 617 453 623 L453 623 Z " />
<glyph glyph-name="Edotaccent" unicode="&#x116;" horiz-adv-x="569" d="M521 38 C521 58 505 74 485 74 L161 74 L161 304 L478 304 C498 304 514 320 514 340 C514 362 498 378 478 378 L161 378 L161 593 L485 593 C505 593 521 609 521 629 C521 651 505 667 485 667 L138 667 C105 667 78 640 78 607 L78 60 C78 27 105 0 138 0 L485 0 C505 0 521 16 521 38 L521 38 Z M346 769 C346 795 326 816 300 816 C275 816 253 795 253 769 C253 743 275 722 300 722 C326 722 346 743 346 769 L346 769 Z " />
<glyph glyph-name="edotaccent" unicode="&#x117;" horiz-adv-x="563" d="M516 258 C516 275 512 293 509 308 C484 419 405 495 285 495 C147 495 47 382 47 242 C47 91 150 -12 293 -12 C352 -12 477 17 477 69 C477 88 460 100 447 100 C441 100 435 98 430 95 C392 65 346 50 300 50 C196 50 132 126 126 217 L475 217 C498 217 516 236 516 258 L516 258 Z M443 272 L126 272 C130 346 181 433 284 433 C394 433 442 344 443 272 L443 272 Z M332 602 C332 628 312 649 286 649 C261 649 239 628 239 602 C239 576 261 555 286 555 C312 555 332 576 332 602 L332 602 Z " />
<glyph glyph-name="Eogonek" unicode="&#x118;" horiz-adv-x="569" d="M549 -134 C549 -122 539 -114 528 -114 C521 -114 514 -117 511 -123 C501 -139 488 -147 467 -147 C441 -147 423 -131 423 -97 C423 -64 440 -38 473 -17 C494 -4 521 14 521 38 C521 58 505 74 485 74 L161 74 L161 304 L478 304 C498 304 514 320 514 340 C514 362 498 378 478 378 L161 378 L161 593 L485 593 C505 593 521 609 521 629 C521 651 505 667 485 667 L138 667 C105 667 78 640 78 607 L78 60 C78 27 105 0 138 0 L431 0 C398 -26 378 -61 378 -99 C378 -160 420 -186 467 -186 C504 -186 549 -162 549 -134 L549 -134 Z " />
<glyph glyph-name="eogonek" unicode="&#x119;" horiz-adv-x="563" d="M516 262 C500 395 426 495 285 495 C147 495 47 382 47 242 C47 91 150 -12 293 -12 C274 -36 259 -66 259 -99 C259 -160 301 -186 348 -186 C385 -186 430 -162 430 -134 C430 -122 420 -114 409 -114 C402 -114 395 -117 392 -123 C382 -139 369 -147 348 -147 C322 -147 304 -131 304 -97 C304 -55 331 -24 379 0 C413 10 477 36 477 69 C477 88 460 100 447 100 C441 100 435 98 430 95 C392 65 346 50 300 50 C196 50 132 126 126 217 L474 217 C499 217 516 238 516 262 L516 262 Z M443 272 L126 272 C130 346 181 433 284 433 C394 433 442 344 443 272 L443 272 Z " />
<glyph glyph-name="Ecaron" unicode="&#x11a;" horiz-adv-x="569" d="M521 38 C521 58 505 74 485 74 L161 74 L161 304 L478 304 C498 304 514 320 514 340 C514 362 498 378 478 378 L161 378 L161 593 L485 593 C505 593 521 609 521 629 C521 651 505 667 485 667 L138 667 C105 667 78 640 78 607 L78 60 C78 27 105 0 138 0 L485 0 C505 0 521 16 521 38 L521 38 Z M419 853 C419 865 408 873 397 873 C391 873 385 871 381 866 L299 761 L220 865 C216 870 209 873 203 873 C190 873 182 861 182 853 C182 849 183 845 185 842 L250 743 C260 727 279 717 298 717 C319 717 337 727 348 743 L416 842 C418 845 419 849 419 853 L419 853 Z " />
<glyph glyph-name="ecaron" unicode="&#x11b;" horiz-adv-x="563" d="M516 258 C516 275 512 293 509 308 C484 419 405 495 285 495 C147 495 47 382 47 242 C47 91 150 -12 293 -12 C352 -12 477 17 477 69 C477 88 460 100 447 100 C441 100 435 98 430 95 C392 65 346 50 300 50 C196 50 132 126 126 217 L475 217 C498 217 516 236 516 258 L516 258 Z M443 272 L126 272 C130 346 181 433 284 433 C394 433 442 344 443 272 L443 272 Z M407 686 C407 698 396 706 385 706 C379 706 373 704 369 699 L287 594 L208 698 C204 703 197 706 191 706 C178 706 170 694 170 686 C170 682 171 678 173 675 L238 576 C248 560 267 550 286 550 C307 550 325 560 336 576 L404 675 C406 678 407 682 407 686 L407 686 Z " />
<glyph glyph-name="Gcircumflex" unicode="&#x11c;" horiz-adv-x="713" d="M656 151 L656 283 C656 316 629 343 596 343 L374 343 C354 343 338 327 338 307 C338 285 354 269 374 269 L573 269 L573 133 C540 100 474 61 394 61 C248 61 137 175 137 333 C137 492 248 604 394 604 C460 604 527 577 569 532 C577 524 586 520 596 520 C618 520 634 537 634 559 C634 569 631 580 623 587 C570 640 494 678 394 678 C204 678 51 540 51 333 C51 126 204 -13 394 -13 C512 -13 656 48 656 151 L656 151 Z M515 754 C515 758 514 762 512 765 L444 864 C433 880 415 890 396 890 C375 890 356 880 346 864 L281 765 C279 761 277 757 277 754 C277 742 288 734 299 734 C306 734 312 737 316 742 L395 846 L477 741 C481 736 487 733 493 733 C507 733 515 745 515 754 L515 754 Z " />
<glyph glyph-name="gcircumflex" unicode="&#x11d;" horiz-adv-x="574" d="M499 14 L499 453 C499 472 482 489 463 489 C441 489 424 472 424 453 L424 410 C385 463 327 495 262 495 C135 495 47 399 47 244 C47 88 136 -6 262 -6 C330 -6 389 31 424 80 L424 11 C424 -95 349 -134 269 -134 C212 -134 169 -122 131 -88 C125 -83 118 -81 110 -81 C92 -81 77 -96 77 -113 C77 -123 81 -132 88 -138 C141 -183 198 -196 269 -196 C387 -196 499 -146 499 14 L499 14 Z M424 139 C398 97 340 60 280 60 C183 60 125 138 125 244 C125 351 183 428 280 428 C340 428 398 392 424 350 L424 139 Z M406 570 C406 574 405 578 403 581 L335 680 C324 696 306 706 287 706 C266 706 247 696 237 680 L172 581 C170 577 168 573 168 570 C168 558 179 550 190 550 C197 550 203 553 207 558 L286 662 L368 557 C372 552 378 549 384 549 C398 549 406 561 406 570 L406 570 Z " />
<glyph glyph-name="Gbreve" unicode="&#x11e;" horiz-adv-x="713" d="M656 151 L656 283 C656 316 629 343 596 343 L374 343 C354 343 338 327 338 307 C338 285 354 269 374 269 L573 269 L573 133 C540 100 474 61 394 61 C248 61 137 175 137 333 C137 492 248 604 394 604 C460 604 527 577 569 532 C577 524 586 520 596 520 C618 520 634 537 634 559 C634 569 631 580 623 587 C570 640 494 678 394 678 C204 678 51 540 51 333 C51 126 204 -13 394 -13 C512 -13 656 48 656 151 L656 151 Z M563 807 C563 817 554 831 538 831 C531 831 525 829 520 824 C490 790 447 770 397 770 C347 770 304 790 273 824 C268 829 261 831 255 831 C240 831 230 818 230 807 C230 801 232 796 236 792 C277 749 334 722 397 722 C461 722 517 749 557 792 C561 796 563 801 563 807 L563 807 Z " />
<glyph glyph-name="gbreve" unicode="&#x11f;" horiz-adv-x="574" d="M499 14 L499 453 C499 472 482 489 463 489 C441 489 424 472 424 453 L424 410 C385 463 327 495 262 495 C135 495 47 399 47 244 C47 88 136 -6 262 -6 C330 -6 389 31 424 80 L424 11 C424 -95 349 -134 269 -134 C212 -134 169 -122 131 -88 C125 -83 118 -81 110 -81 C92 -81 77 -96 77 -113 C77 -123 81 -132 88 -138 C141 -183 198 -196 269 -196 C387 -196 499 -146 499 14 L499 14 Z M424 139 C398 97 340 60 280 60 C183 60 125 138 125 244 C125 351 183 428 280 428 C340 428 398 392 424 350 L424 139 Z M453 623 C453 633 444 647 428 647 C421 647 415 645 410 640 C380 606 337 586 287 586 C237 586 194 606 163 640 C158 645 151 647 145 647 C130 647 120 634 120 623 C120 617 122 612 126 608 C167 565 224 538 287 538 C351 538 407 565 447 608 C451 612 453 617 453 623 L453 623 Z " />
<glyph glyph-name="Gdotaccent" unicode="&#x120;" horiz-adv-x="713" d="M656 151 L656 283 C656 316 629 343 596 343 L374 343 C354 343 338 327 338 307 C338 285 354 269 374 269 L573 269 L573 133 C540 100 474 61 394 61 C248 61 137 175 137 333 C137 492 248 604 394 604 C460 604 527 577 569 532 C577 524 586 520 596 520 C618 520 634 537 634 559 C634 569 631 580 623 587 C570 640 494 678 394 678 C204 678 51 540 51 333 C51 126 204 -13 394 -13 C512 -13 656 48 656 151 L656 151 Z M443 786 C443 812 423 833 397 833 C372 833 350 812 350 786 C350 760 372 739 397 739 C423 739 443 760 443 786 L443 786 Z " />
<glyph glyph-name="gdotaccent" unicode="&#x121;" horiz-adv-x="574" d="M499 14 L499 453 C499 472 482 489 463 489 C441 489 424 472 424 453 L424 410 C385 463 327 495 262 495 C135 495 47 399 47 244 C47 88 136 -6 262 -6 C330 -6 389 31 424 80 L424 11 C424 -95 349 -134 269 -134 C212 -134 169 -122 131 -88 C125 -83 118 -81 110 -81 C92 -81 77 -96 77 -113 C77 -123 81 -132 88 -138 C141 -183 198 -196 269 -196 C387 -196 499 -146 499 14 L499 14 Z M424 139 C398 97 340 60 280 60 C183 60 125 138 125 244 C125 351 183 428 280 428 C340 428 398 392 424 350 L424 139 Z M333 602 C333 628 313 649 287 649 C262 649 240 628 240 602 C240 576 262 555 287 555 C313 555 333 576 333 602 L333 602 Z " />
<glyph glyph-name="Gcommaaccent" unicode="&#x122;" horiz-adv-x="713" d="M656 151 L656 283 C656 316 629 343 596 343 L374 343 C354 343 338 327 338 307 C338 285 354 269 374 269 L573 269 L573 133 C540 100 474 61 394 61 C248 61 137 175 137 333 C137 492 248 604 394 604 C460 604 527 577 569 532 C577 524 586 520 596 520 C618 520 634 537 634 559 C634 569 631 580 623 587 C570 640 494 678 394 678 C204 678 51 540 51 333 C51 126 204 -13 394 -13 C512 -13 656 48 656 151 L656 151 Z M448 -138 C448 -95 423 -71 395 -71 C369 -71 349 -92 349 -118 C349 -143 367 -162 391 -162 C394 -162 401 -161 402 -160 C400 -184 382 -213 360 -234 C356 -237 354 -241 354 -246 C354 -251 357 -256 361 -259 L362 -260 C366 -264 371 -265 377 -265 C382 -265 388 -263 392 -259 C424 -229 448 -185 448 -138 L448 -138 Z " />
<glyph glyph-name="gcommaaccent" unicode="&#x123;" horiz-adv-x="574" d="M286 551 C313 551 334 573 334 597 C334 622 310 642 285 642 C285 671 329 707 329 724 C329 737 317 745 306 745 C274 745 238 665 238 611 C238 570 263 551 286 551 L286 551 Z M499 14 L499 453 C499 472 482 489 463 489 C441 489 424 472 424 453 L424 410 C385 463 327 495 262 495 C135 495 47 399 47 244 C47 88 136 -6 262 -6 C330 -6 389 31 424 80 L424 11 C424 -95 349 -134 269 -134 C212 -134 169 -122 131 -88 C125 -83 118 -81 110 -81 C92 -81 77 -96 77 -113 C77 -176 214 -196 269 -196 C387 -196 499 -146 499 14 L499 14 Z M424 139 C398 97 340 60 280 60 C183 60 125 138 125 244 C125 351 183 428 280 428 C340 428 398 392 424 350 L424 139 Z " />
<glyph glyph-name="Hcircumflex" unicode="&#x124;" horiz-adv-x="712" d="M634 35 L634 633 C634 655 616 673 594 673 C569 673 551 655 551 633 L551 380 L161 380 L161 633 C161 655 143 673 121 673 C96 673 78 655 78 633 L78 35 C78 12 96 -6 119 -6 C143 -6 161 12 161 35 L161 306 L551 306 L551 35 C551 12 569 -6 592 -6 C616 -6 634 12 634 35 L634 35 Z M475 754 C475 758 474 762 472 765 L404 864 C393 880 375 890 356 890 C335 890 316 880 306 864 L241 765 C239 761 237 757 237 754 C237 742 248 734 259 734 C266 734 272 737 276 742 L355 846 L437 741 C441 736 447 733 453 733 C467 733 475 745 475 754 L475 754 Z " />
<glyph glyph-name="hcircumflex" unicode="&#x125;" horiz-adv-x="552" d="M477 31 L477 341 C477 446 424 495 323 495 C250 495 184 453 150 413 L150 637 C150 656 133 673 114 673 C92 673 75 656 75 637 L75 31 C75 11 92 -6 112 -6 C133 -6 150 11 150 31 L150 353 C179 392 235 428 293 428 C358 428 402 403 402 318 L402 31 C402 11 419 -6 439 -6 C460 -6 477 11 477 31 L477 31 Z M395 737 C395 741 394 745 392 748 L324 847 C313 863 295 873 276 873 C255 873 236 863 226 847 L161 748 C159 744 157 740 157 737 C157 725 168 717 179 717 C186 717 192 720 196 725 L275 829 L357 724 C361 719 367 716 373 716 C387 716 395 728 395 737 L395 737 Z " />
<glyph glyph-name="Hbar" unicode="&#x126;" horiz-adv-x="712" d="M634 35 L634 482 L675 482 C688 482 698 492 698 507 C698 520 688 530 675 530 L634 530 L634 633 C634 655 616 673 594 673 C569 673 551 655 551 633 L551 530 L161 530 L161 633 C161 655 143 673 121 673 C96 673 78 655 78 633 L78 530 L34 530 C21 530 11 520 11 507 C11 492 21 482 34 482 L78 482 L78 35 C78 12 96 -6 119 -6 C143 -6 161 12 161 35 L161 306 L551 306 L551 35 C551 12 569 -6 592 -6 C616 -6 634 12 634 35 L634 35 Z M161 380 L161 482 L551 482 L551 380 L161 380 Z " />
<glyph glyph-name="hbar" unicode="&#x127;" horiz-adv-x="552" d="M367 560 C367 573 357 583 344 583 L150 583 L150 637 C150 656 133 673 114 673 C92 673 75 656 75 637 L75 583 L27 583 C14 583 4 573 4 560 C4 545 14 535 27 535 L75 535 L75 31 C75 11 92 -6 112 -6 C133 -6 150 11 150 31 L150 353 C179 392 235 428 293 428 C358 428 402 403 402 318 L402 31 C402 11 419 -6 439 -6 C460 -6 477 11 477 31 L477 341 C477 446 424 495 323 495 C250 495 184 453 150 413 L150 535 L344 535 C357 535 367 545 367 560 L367 560 Z " />
<glyph glyph-name="Itilde" unicode="&#x128;" horiz-adv-x="239" d="M161 35 L161 633 C161 655 143 673 121 673 C96 673 78 655 78 633 L78 35 C78 12 96 -6 119 -6 C143 -6 161 12 161 35 L161 35 Z M275 851 C275 862 268 872 255 872 C242 872 231 863 230 850 C225 806 207 786 183 786 C135 786 132 878 60 878 C7 878 -36 831 -36 763 C-36 753 -28 744 -16 744 C-3 744 8 753 9 766 C14 810 32 830 56 830 C104 830 106 738 179 738 C236 738 269 784 275 851 L275 851 Z " />
<glyph glyph-name="itilde" unicode="&#x129;" horiz-adv-x="225" d="M150 31 L150 453 C150 472 133 489 114 489 C92 489 75 472 75 453 L75 31 C75 11 92 -6 112 -6 C133 -6 150 11 150 31 L150 31 Z M268 667 C268 678 261 688 248 688 C235 688 224 679 223 666 C218 622 200 602 176 602 C128 602 125 694 53 694 C0 694 -43 647 -43 579 C-43 569 -35 560 -23 560 C-10 560 1 569 2 582 C7 626 25 646 49 646 C97 646 99 554 172 554 C229 554 262 600 268 667 L268 667 Z " />
<glyph glyph-name="Imacron" unicode="&#x12a;" horiz-adv-x="239" d="M161 35 L161 633 C161 655 143 673 121 673 C96 673 78 655 78 633 L78 35 C78 12 96 -6 119 -6 C143 -6 161 12 161 35 L161 35 Z M303 764 C303 777 293 787 280 787 L-37 787 C-50 787 -60 777 -60 764 C-60 749 -50 739 -37 739 L280 739 C293 739 303 749 303 764 L303 764 Z " />
<glyph glyph-name="imacron" unicode="&#x12b;" horiz-adv-x="225" d="M295 597 C295 610 285 620 272 620 L-45 620 C-58 620 -68 610 -68 597 C-68 582 -58 572 -45 572 L272 572 C285 572 295 582 295 597 L295 597 Z M150 31 L150 453 C150 472 133 489 114 489 C92 489 75 472 75 453 L75 31 C75 11 92 -6 112 -6 C133 -6 150 11 150 31 L150 31 Z " />
<glyph glyph-name="Ibreve" unicode="&#x12c;" horiz-adv-x="239" d="M161 35 L161 633 C161 655 143 673 121 673 C96 673 78 655 78 633 L78 35 C78 12 96 -6 119 -6 C143 -6 161 12 161 35 L161 35 Z M286 807 C286 817 277 831 261 831 C254 831 248 829 243 824 C213 790 170 770 120 770 C70 770 27 790 -4 824 C-9 829 -16 831 -22 831 C-37 831 -47 818 -47 807 C-47 801 -45 796 -41 792 C0 749 57 722 120 722 C184 722 240 749 280 792 C284 796 286 801 286 807 L286 807 Z " />
<glyph glyph-name="ibreve" unicode="&#x12d;" horiz-adv-x="225" d="M150 31 L150 453 C150 472 133 489 114 489 C92 489 75 472 75 453 L75 31 C75 11 92 -6 112 -6 C133 -6 150 11 150 31 L150 31 Z M279 623 C279 633 270 647 254 647 C247 647 241 645 236 640 C206 606 163 586 113 586 C63 586 20 606 -11 640 C-16 645 -23 647 -29 647 C-44 647 -54 634 -54 623 C-54 617 -52 612 -48 608 C-7 565 50 538 113 538 C177 538 233 565 273 608 C277 612 279 617 279 623 L279 623 Z " />
<glyph glyph-name="Iogonek" unicode="&#x12e;" horiz-adv-x="239" d="M211 -134 C211 -122 201 -114 190 -114 C183 -114 176 -117 173 -123 C163 -139 150 -147 129 -147 C103 -147 85 -131 85 -97 C85 -60 106 -37 145 -1 C155 8 161 22 161 35 L161 633 C161 655 143 673 121 673 C96 673 78 655 78 633 L78 35 C78 21 84 9 95 1 C62 -25 40 -60 40 -99 C40 -160 82 -186 129 -186 C166 -186 211 -162 211 -134 L211 -134 Z " />
<glyph glyph-name="iogonek" unicode="&#x12f;" horiz-adv-x="225" d="M112 653 C85 653 62 630 62 602 C62 574 85 552 112 552 C140 552 163 574 163 602 C163 630 140 653 112 653 L112 653 Z M200 -134 C200 -122 190 -114 179 -114 C158 -114 151 -147 118 -147 C92 -147 74 -131 74 -97 C74 -50 150 -8 150 31 L150 453 C150 472 133 489 114 489 C92 489 75 472 75 453 L75 31 C75 20 79 11 87 4 C52 -22 29 -59 29 -99 C29 -160 71 -186 118 -186 C155 -186 200 -162 200 -134 L200 -134 Z " />
<glyph glyph-name="Idotaccent" unicode="&#x130;" horiz-adv-x="239" d="M161 35 L161 633 C161 655 143 673 121 673 C96 673 78 655 78 633 L78 35 C78 12 96 -6 119 -6 C143 -6 161 12 161 35 L161 35 Z M166 786 C166 812 146 833 120 833 C95 833 73 812 73 786 C73 760 95 739 120 739 C146 739 166 760 166 786 L166 786 Z " />
<glyph glyph-name="dotlessi" unicode="&#x131;" horiz-adv-x="225" d="M150 31 L150 453 C150 472 133 489 114 489 C92 489 75 472 75 453 L75 31 C75 11 92 -6 112 -6 C133 -6 150 11 150 31 L150 31 Z " />
<glyph glyph-name="IJ" unicode="&#x132;" horiz-adv-x="714" d="M161 35 L161 633 C161 655 143 673 121 673 C96 673 78 655 78 633 L78 35 C78 12 96 -6 119 -6 C143 -6 161 12 161 35 L161 35 Z M636 201 L636 633 C636 655 618 673 596 673 C571 673 553 655 553 633 L553 202 C553 119 501 62 419 62 C376 62 344 79 318 102 C311 108 303 110 295 110 C275 110 258 91 258 71 C258 61 262 52 270 45 C314 4 365 -12 424 -12 C543 -12 636 56 636 201 L636 201 Z " />
<glyph glyph-name="ij" unicode="&#x133;" horiz-adv-x="450" d="M112 653 C85 653 62 630 62 602 C62 574 85 552 112 552 C140 552 163 574 163 602 C163 630 140 653 112 653 L112 653 Z M150 31 L150 453 C150 472 133 489 114 489 C92 489 75 472 75 453 L75 31 C75 11 92 -6 112 -6 C133 -6 150 11 150 31 L150 31 Z M337 653 C310 653 287 630 287 602 C287 574 310 552 337 552 C364 552 388 574 388 602 C388 630 365 653 337 653 L337 653 Z M375 -47 L375 453 C375 472 358 489 339 489 C317 489 300 472 300 453 L300 -47 C300 -108 267 -134 222 -134 C196 -134 177 -118 161 -118 C145 -118 129 -131 129 -148 C129 -181 187 -196 232 -196 C324 -196 375 -142 375 -47 L375 -47 Z " />
<glyph glyph-name="Jcircumflex" unicode="&#x134;" horiz-adv-x="475" d="M397 201 L397 633 C397 655 379 673 357 673 C332 673 314 655 314 633 L314 202 C314 119 262 62 180 62 C137 62 105 79 79 102 C72 108 64 110 56 110 C36 110 19 91 19 71 C19 61 23 52 31 45 C75 4 126 -12 185 -12 C304 -12 397 56 397 201 L397 201 Z M476 754 C476 758 475 762 473 765 L405 864 C394 880 376 890 357 890 C336 890 317 880 307 864 L242 765 C240 761 238 757 238 754 C238 742 249 734 260 734 C267 734 273 737 277 742 L356 846 L438 741 C442 736 448 733 454 733 C468 733 476 745 476 754 L476 754 Z " />
<glyph glyph-name="jcircumflex" unicode="&#x135;" horiz-adv-x="225" d="M150 -47 L150 453 C150 472 133 489 114 489 C92 489 75 472 75 453 L75 -47 C75 -108 42 -134 -3 -134 C-29 -134 -48 -118 -64 -118 C-80 -118 -96 -131 -96 -148 C-96 -181 -38 -196 7 -196 C99 -196 150 -142 150 -47 L150 -47 Z M232 570 C232 574 231 578 229 581 L161 680 C150 696 132 706 113 706 C92 706 73 696 63 680 L-2 581 C-4 577 -6 573 -6 570 C-6 558 5 550 16 550 C23 550 29 553 33 558 L112 662 L194 557 C198 552 204 549 210 549 C224 549 232 561 232 570 L232 570 Z " />
<glyph glyph-name="Kcommaaccent" unicode="&#x136;" horiz-adv-x="606" d="M544 33 C544 42 541 50 535 57 L282 350 L510 610 C516 616 519 625 519 633 C519 655 500 672 478 672 C467 672 457 668 449 659 L161 322 L161 633 C161 655 143 673 121 673 C96 673 78 655 78 633 L78 35 C78 12 96 -6 119 -6 C143 -6 161 12 161 35 L161 224 L228 300 L474 7 C482 -2 493 -7 504 -7 C528 -7 544 14 544 33 L544 33 Z M360 -138 C360 -95 335 -71 307 -71 C281 -71 261 -92 261 -118 C261 -143 279 -162 303 -162 C306 -162 313 -161 314 -160 C312 -184 294 -213 272 -234 C268 -237 266 -241 266 -246 C266 -251 269 -256 273 -259 L274 -260 C278 -264 283 -265 289 -265 C294 -265 300 -263 304 -259 C336 -229 360 -185 360 -138 L360 -138 Z " />
<glyph glyph-name="kcommaaccent" unicode="&#x137;" horiz-adv-x="514" d="M464 31 C464 39 461 47 456 53 L285 264 L449 432 C455 438 458 446 458 454 C458 473 441 490 423 490 C415 490 406 486 400 480 L150 226 L150 637 C150 656 133 673 114 673 C92 673 75 656 75 637 L75 31 C75 11 92 -6 112 -6 C133 -6 150 11 150 31 L150 138 L230 217 L398 7 C405 -2 416 -7 427 -7 C450 -7 464 14 464 31 L464 31 Z M314 -138 C314 -95 289 -71 261 -71 C235 -71 215 -92 215 -118 C215 -143 233 -162 257 -162 C260 -162 267 -161 268 -160 C266 -184 248 -213 226 -234 C222 -237 220 -241 220 -246 C220 -251 223 -256 227 -259 L228 -260 C232 -264 237 -265 243 -265 C248 -265 254 -263 258 -259 C290 -229 314 -185 314 -138 L314 -138 Z " />
<glyph glyph-name="Lacute" unicode="&#x139;" horiz-adv-x="510" d="M477 38 C477 58 461 74 441 74 L161 74 L161 633 C161 655 143 673 121 673 C96 673 78 655 78 633 L78 60 C78 27 105 0 138 0 L441 0 C461 0 477 16 477 38 L477 38 Z M407 847 C407 861 393 872 381 872 C374 872 368 870 363 865 L245 751 C241 747 240 743 240 738 C240 726 251 717 261 717 C265 717 269 719 273 722 L399 830 C404 834 407 841 407 847 L407 847 Z " />
<glyph glyph-name="lacute" unicode="&#x13a;" horiz-adv-x="225" d="M150 31 L150 637 C150 656 133 673 114 673 C92 673 75 656 75 637 L75 31 C75 11 92 -6 112 -6 C133 -6 150 11 150 31 L150 31 Z M246 847 C246 861 232 872 220 872 C213 872 207 870 202 865 L84 751 C80 747 79 743 79 738 C79 726 90 717 100 717 C104 717 108 719 112 722 L238 830 C243 834 246 841 246 847 L246 847 Z " />
<glyph glyph-name="Lcommaaccent" unicode="&#x13b;" horiz-adv-x="510" d="M477 38 C477 58 461 74 441 74 L161 74 L161 633 C161 655 143 673 121 673 C96 673 78 655 78 633 L78 60 C78 27 105 0 138 0 L441 0 C461 0 477 16 477 38 L477 38 Z M319 -138 C319 -95 294 -71 266 -71 C240 -71 220 -92 220 -118 C220 -143 238 -162 262 -162 C265 -162 272 -161 273 -160 C271 -184 253 -213 231 -234 C227 -237 225 -241 225 -246 C225 -251 228 -256 232 -259 L233 -260 C237 -264 242 -265 248 -265 C253 -265 259 -263 263 -259 C295 -229 319 -185 319 -138 L319 -138 Z " />
<glyph glyph-name="lcommaaccent" unicode="&#x13c;" horiz-adv-x="225" d="M150 31 L150 637 C150 656 133 673 114 673 C92 673 75 656 75 637 L75 31 C75 11 92 -6 112 -6 C133 -6 150 11 150 31 L150 31 Z M170 -138 C170 -95 145 -71 117 -71 C91 -71 71 -92 71 -118 C71 -143 89 -162 113 -162 C116 -162 123 -161 124 -160 C122 -184 104 -213 82 -234 C78 -237 76 -241 76 -246 C76 -251 79 -256 83 -259 L84 -260 C88 -264 93 -265 99 -265 C104 -265 110 -263 114 -259 C146 -229 170 -185 170 -138 L170 -138 Z " />
<glyph glyph-name="Lcaron" unicode="&#x13d;" horiz-adv-x="510" d="M477 38 C477 58 461 74 441 74 L161 74 L161 633 C161 655 143 673 121 673 C96 673 78 655 78 633 L78 60 C78 27 105 0 138 0 L441 0 C461 0 477 16 477 38 L477 38 Z M354 613 C354 656 329 680 301 680 C275 680 255 659 255 633 C255 608 273 589 297 589 C300 589 307 590 308 591 C306 567 288 538 266 517 C262 514 260 510 260 505 C260 500 263 495 267 492 L268 491 C272 487 277 486 283 486 C288 486 294 488 298 492 C330 522 354 566 354 613 L354 613 Z " />
<glyph glyph-name="lcaron" unicode="&#x13e;" horiz-adv-x="291" d="M150 31 L150 637 C150 656 133 673 114 673 C92 673 75 656 75 637 L75 31 C75 11 92 -6 112 -6 C133 -6 150 11 150 31 L150 31 Z M311 613 C311 656 286 680 258 680 C232 680 212 659 212 633 C212 608 230 589 254 589 C257 589 264 590 265 591 C263 567 245 538 223 517 C219 514 217 510 217 505 C217 500 220 495 224 492 L225 491 C229 487 234 486 240 486 C245 486 251 488 255 492 C287 522 311 566 311 613 L311 613 Z " />
<glyph glyph-name="Ldot" unicode="&#x13f;" horiz-adv-x="510" d="M477 38 C477 58 461 74 441 74 L161 74 L161 633 C161 655 143 673 121 673 C96 673 78 655 78 633 L78 60 C78 27 105 0 138 0 L441 0 C461 0 477 16 477 38 L477 38 Z M424 349 C424 379 399 404 369 404 C339 404 314 379 314 349 C314 320 339 295 369 295 C399 295 424 320 424 349 L424 349 Z " />
<glyph glyph-name="ldot" unicode="&#x140;" horiz-adv-x="335" d="M150 31 L150 637 C150 656 133 673 114 673 C92 673 75 656 75 637 L75 31 C75 11 92 -6 112 -6 C133 -6 150 11 150 31 L150 31 Z M335 244 C335 274 310 299 280 299 C250 299 225 274 225 244 C225 215 250 190 280 190 C310 190 335 215 335 244 L335 244 Z " />
<glyph glyph-name="Lslash" unicode="&#x141;" horiz-adv-x="529" d="M496 36 C496 58 480 74 460 74 L180 74 L180 319 L273 373 C282 378 288 389 288 399 C288 419 270 430 255 430 C250 430 245 428 241 426 L180 391 L180 633 C180 655 162 673 140 673 C115 673 97 655 97 633 L97 343 L14 295 C4 289 -1 279 -1 269 C-1 249 16 237 31 237 C36 237 40 238 45 241 L97 271 L97 60 C97 27 124 0 157 0 L460 0 C480 0 496 16 496 36 L496 36 Z " />
<glyph glyph-name="lslash" unicode="&#x142;" horiz-adv-x="287" d="M287 401 C287 417 273 427 261 427 C256 427 252 426 248 424 L181 386 L181 637 C181 656 164 673 145 673 C123 673 106 656 106 637 L106 343 L12 288 C4 283 0 275 0 266 C0 250 15 240 26 240 C30 240 34 241 37 243 L106 283 L106 31 C106 11 123 -6 143 -6 C164 -6 181 11 181 31 L181 326 L275 380 C283 384 287 392 287 401 L287 401 Z " />
<glyph glyph-name="Nacute" unicode="&#x143;" horiz-adv-x="708" d="M630 41 L630 633 C630 655 612 673 590 673 C565 673 547 655 547 633 L547 146 L175 651 C165 665 148 673 131 673 C100 673 78 649 78 623 L78 35 C78 12 96 -6 119 -6 C143 -6 161 12 161 35 L161 532 L539 15 C548 2 564 -6 580 -6 C610 -6 630 17 630 41 L630 41 Z M495 847 C495 861 481 872 469 872 C462 872 456 870 451 865 L333 751 C329 747 328 743 328 738 C328 726 339 717 349 717 C353 717 357 719 361 722 L487 830 C492 834 495 841 495 847 L495 847 Z " />
<glyph glyph-name="nacute" unicode="&#x144;" horiz-adv-x="551" d="M476 31 L476 339 C476 444 423 495 322 495 C250 495 184 453 150 413 L150 453 C150 472 133 489 114 489 C92 489 75 472 75 453 L75 31 C75 11 92 -6 112 -6 C133 -6 150 11 150 31 L150 353 C178 392 234 428 293 428 C358 428 401 401 401 316 L401 31 C401 11 418 -6 438 -6 C459 -6 476 11 476 31 L476 31 Z M408 680 C408 694 394 705 382 705 C375 705 369 703 364 698 L246 584 C242 580 241 576 241 571 C241 559 252 550 262 550 C266 550 270 552 274 555 L400 663 C405 667 408 674 408 680 L408 680 Z " />
<glyph glyph-name="Ncommaaccent" unicode="&#x145;" horiz-adv-x="708" d="M630 41 L630 633 C630 655 612 673 590 673 C565 673 547 655 547 633 L547 146 L175 651 C165 665 148 673 131 673 C100 673 78 649 78 623 L78 35 C78 12 96 -6 119 -6 C143 -6 161 12 161 35 L161 532 L539 15 C548 2 564 -6 580 -6 C610 -6 630 17 630 41 L630 41 Z M411 -138 C411 -95 386 -71 358 -71 C332 -71 312 -92 312 -118 C312 -143 330 -162 354 -162 C357 -162 364 -161 365 -160 C363 -184 345 -213 323 -234 C319 -237 317 -241 317 -246 C317 -251 320 -256 324 -259 L325 -260 C329 -264 334 -265 340 -265 C345 -265 351 -263 355 -259 C387 -229 411 -185 411 -138 L411 -138 Z " />
<glyph glyph-name="ncommaaccent" unicode="&#x146;" horiz-adv-x="551" d="M476 31 L476 339 C476 444 423 495 322 495 C250 495 184 453 150 413 L150 453 C150 472 133 489 114 489 C92 489 75 472 75 453 L75 31 C75 11 92 -6 112 -6 C133 -6 150 11 150 31 L150 353 C178 392 234 428 293 428 C358 428 401 401 401 316 L401 31 C401 11 418 -6 438 -6 C459 -6 476 11 476 31 L476 31 Z M330 -138 C330 -95 305 -71 277 -71 C251 -71 231 -92 231 -118 C231 -143 249 -162 273 -162 C276 -162 283 -161 284 -160 C282 -184 264 -213 242 -234 C238 -237 236 -241 236 -246 C236 -251 239 -256 243 -259 L244 -260 C248 -264 253 -265 259 -265 C264 -265 270 -263 274 -259 C306 -229 330 -185 330 -138 L330 -138 Z " />
<glyph glyph-name="Ncaron" unicode="&#x147;" horiz-adv-x="708" d="M630 41 L630 633 C630 655 612 673 590 673 C565 673 547 655 547 633 L547 146 L175 651 C165 665 148 673 131 673 C100 673 78 649 78 623 L78 35 C78 12 96 -6 119 -6 C143 -6 161 12 161 35 L161 532 L539 15 C548 2 564 -6 580 -6 C610 -6 630 17 630 41 L630 41 Z M474 853 C474 865 463 873 452 873 C446 873 440 871 436 866 L354 761 L275 865 C271 870 264 873 258 873 C245 873 237 861 237 853 C237 849 238 845 240 842 L305 743 C315 727 334 717 353 717 C374 717 392 727 403 743 L471 842 C473 845 474 849 474 853 L474 853 Z " />
<glyph glyph-name="ncaron" unicode="&#x148;" horiz-adv-x="551" d="M476 31 L476 339 C476 444 423 495 322 495 C250 495 184 453 150 413 L150 453 C150 472 133 489 114 489 C92 489 75 472 75 453 L75 31 C75 11 92 -6 112 -6 C133 -6 150 11 150 31 L150 353 C178 392 234 428 293 428 C358 428 401 401 401 316 L401 31 C401 11 418 -6 438 -6 C459 -6 476 11 476 31 L476 31 Z M398 686 C398 698 387 706 376 706 C370 706 364 704 360 699 L278 594 L199 698 C195 703 188 706 182 706 C169 706 161 694 161 686 C161 682 162 678 164 675 L229 576 C239 560 258 550 277 550 C298 550 316 560 327 576 L395 675 C397 678 398 682 398 686 L398 686 Z " />
<glyph glyph-name="Eng" unicode="&#x14a;" horiz-adv-x="708" d="M630 17 L630 633 C630 655 612 673 590 673 C565 673 547 655 547 633 L547 146 L175 651 C165 665 148 673 131 673 C100 673 78 649 78 623 L78 35 C78 12 96 -6 119 -6 C143 -6 161 12 161 35 L161 532 L539 15 C541 12 543 9 546 6 C542 -70 491 -122 413 -122 C370 -122 338 -105 312 -82 C305 -76 297 -74 289 -74 C269 -74 252 -93 252 -113 C252 -123 256 -132 264 -139 C308 -180 359 -196 418 -196 C537 -196 630 -128 630 17 L630 17 Z " />
<glyph glyph-name="eng" unicode="&#x14b;" horiz-adv-x="551" d="M476 -47 L476 339 C476 444 423 495 322 495 C250 495 184 453 150 413 L150 453 C150 472 133 489 114 489 C92 489 75 472 75 453 L75 31 C75 11 92 -6 112 -6 C133 -6 150 11 150 31 L150 353 C178 392 234 428 293 428 C358 428 401 401 401 316 L401 -47 C401 -108 368 -134 323 -134 C297 -134 278 -118 262 -118 C246 -118 230 -131 230 -148 C230 -181 288 -196 333 -196 C425 -196 476 -142 476 -47 L476 -47 Z " />
<glyph glyph-name="Omacron" unicode="&#x14c;" horiz-adv-x="765" d="M713 333 C713 530 579 678 382 678 C184 678 51 530 51 333 C51 136 184 -12 382 -12 C579 -12 713 136 713 333 L713 333 Z M627 333 C627 178 531 62 382 62 C232 62 137 178 137 333 C137 489 232 604 382 604 C531 604 627 489 627 333 L627 333 Z M563 764 C563 777 553 787 540 787 L223 787 C210 787 200 777 200 764 C200 749 210 739 223 739 L540 739 C553 739 563 749 563 764 L563 764 Z " />
<glyph glyph-name="omacron" unicode="&#x14d;" horiz-adv-x="572" d="M525 242 C525 382 433 495 286 495 C139 495 47 382 47 242 C47 102 139 -12 286 -12 C433 -12 525 102 525 242 L525 242 Z M446 242 C446 143 389 55 286 55 C183 55 125 143 125 242 C125 340 183 428 286 428 C389 428 446 340 446 242 L446 242 Z M467 597 C467 610 457 620 444 620 L127 620 C114 620 104 610 104 597 C104 582 114 572 127 572 L444 572 C457 572 467 582 467 597 L467 597 Z " />
<glyph glyph-name="Obreve" unicode="&#x14e;" horiz-adv-x="765" d="M713 333 C713 530 579 678 382 678 C184 678 51 530 51 333 C51 136 184 -12 382 -12 C579 -12 713 136 713 333 L713 333 Z M627 333 C627 178 531 62 382 62 C232 62 137 178 137 333 C137 489 232 604 382 604 C531 604 627 489 627 333 L627 333 Z M549 807 C549 817 540 831 524 831 C517 831 511 829 506 824 C476 790 433 770 383 770 C333 770 290 790 259 824 C254 829 247 831 241 831 C226 831 216 818 216 807 C216 801 218 796 222 792 C263 749 320 722 383 722 C447 722 503 749 543 792 C547 796 549 801 549 807 L549 807 Z " />
<glyph glyph-name="obreve" unicode="&#x14f;" horiz-adv-x="572" d="M525 242 C525 382 433 495 286 495 C139 495 47 382 47 242 C47 102 139 -12 286 -12 C433 -12 525 102 525 242 L525 242 Z M446 242 C446 143 389 55 286 55 C183 55 125 143 125 242 C125 340 183 428 286 428 C389 428 446 340 446 242 L446 242 Z M452 623 C452 633 443 647 427 647 C420 647 414 645 409 640 C379 606 336 586 286 586 C236 586 193 606 162 640 C157 645 150 647 144 647 C129 647 119 634 119 623 C119 617 121 612 125 608 C166 565 223 538 286 538 C350 538 406 565 446 608 C450 612 452 617 452 623 L452 623 Z " />
<glyph glyph-name="Ohungarumlaut" unicode="&#x150;" horiz-adv-x="765" d="M713 333 C713 530 579 678 382 678 C184 678 51 530 51 333 C51 136 184 -12 382 -12 C579 -12 713 136 713 333 L713 333 Z M627 333 C627 178 531 62 382 62 C232 62 137 178 137 333 C137 489 232 604 382 604 C531 604 627 489 627 333 L627 333 Z M412 847 C412 859 402 873 384 873 C375 873 367 869 362 861 L287 746 C285 743 284 740 284 736 C284 724 296 716 306 716 C311 716 317 718 320 723 L407 832 C410 836 412 841 412 847 L412 847 Z M554 847 C554 859 544 873 526 873 C517 873 509 869 504 861 L429 746 C427 743 426 740 426 736 C426 725 436 716 447 716 C453 716 458 718 462 723 L549 832 C552 836 554 841 554 847 L554 847 Z " />
<glyph glyph-name="ohungarumlaut" unicode="&#x151;" horiz-adv-x="572" d="M525 242 C525 382 433 495 286 495 C139 495 47 382 47 242 C47 102 139 -12 286 -12 C433 -12 525 102 525 242 L525 242 Z M446 242 C446 143 389 55 286 55 C183 55 125 143 125 242 C125 340 183 428 286 428 C389 428 446 340 446 242 L446 242 Z M316 680 C316 692 306 706 288 706 C279 706 271 702 266 694 L191 579 C189 576 188 573 188 569 C188 557 200 549 210 549 C215 549 221 551 224 556 L311 665 C314 669 316 674 316 680 L316 680 Z M458 680 C458 692 448 706 430 706 C421 706 413 702 408 694 L333 579 C331 576 330 573 330 569 C330 558 340 549 351 549 C357 549 362 551 366 556 L453 665 C456 669 458 674 458 680 L458 680 Z " />
<glyph glyph-name="OE" unicode="&#x152;" horiz-adv-x="1105" d="M1057 38 C1057 58 1041 74 1021 74 L696 74 L696 304 L1014 304 C1034 304 1050 320 1050 340 C1050 362 1034 378 1014 378 L696 378 L696 593 L1021 593 C1041 593 1057 609 1057 629 C1057 651 1041 667 1021 667 L673 667 C614 667 607 610 613 546 C564 633 469 677 375 677 C181 677 51 530 51 333 C51 136 181 -12 375 -12 C469 -12 564 33 613 120 C607 56 615 0 673 0 L1021 0 C1041 0 1057 16 1057 38 L1057 38 Z M613 223 C574 117 487 62 384 62 C232 62 137 177 137 333 C137 489 232 603 384 603 C487 603 574 550 613 443 L613 223 Z " />
<glyph glyph-name="oe" unicode="&#x153;" horiz-adv-x="962" d="M914 258 C914 275 911 292 908 308 C882 422 801 495 684 495 C569 495 508 409 486 357 C464 408 406 495 286 495 C139 495 47 382 47 242 C47 102 139 -12 286 -12 C406 -12 461 73 485 126 C510 70 569 -12 693 -12 C760 -12 818 7 866 45 C874 51 877 60 877 69 C877 88 860 100 847 100 C841 100 835 98 830 95 C792 65 746 50 699 50 C595 50 532 126 526 217 L873 217 C896 217 914 236 914 258 L914 258 Z M843 272 L525 272 C529 346 580 433 683 433 C793 433 841 344 843 272 L843 272 Z M446 242 C446 140 387 54 286 54 C185 54 125 140 125 242 C125 343 185 428 286 428 C387 428 446 343 446 242 L446 242 Z " />
<glyph glyph-name="Racute" unicode="&#x154;" horiz-adv-x="608" d="M555 466 C555 589 468 667 346 667 L138 667 C105 667 78 640 78 607 L78 35 C78 12 96 -6 119 -6 C143 -6 161 12 161 35 L161 265 L294 265 L457 12 C465 0 477 -6 490 -6 C514 -6 531 14 531 34 C531 41 529 48 525 55 L382 272 C473 280 555 346 555 466 L555 466 Z M336 593 C415 593 469 541 469 466 C469 391 415 338 336 338 L161 338 L161 593 L336 593 Z M444 847 C444 861 430 872 418 872 C411 872 405 870 400 865 L282 751 C278 747 277 743 277 738 C277 726 288 717 298 717 C302 717 306 719 310 722 L436 830 C441 834 444 841 444 847 L444 847 Z " />
<glyph glyph-name="racute" unicode="&#x155;" horiz-adv-x="330" d="M317 456 C317 476 301 491 283 491 C227 491 179 443 150 405 L150 453 C150 472 133 489 114 489 C92 489 75 472 75 453 L75 31 C75 11 91 -5 111 -6 L112 -6 C133 -6 150 11 150 31 L150 342 C182 390 229 412 278 415 C300 416 317 434 317 456 L317 456 Z M326 680 C326 694 312 705 300 705 C293 705 287 703 282 698 L164 584 C160 580 159 576 159 571 C159 559 170 550 180 550 C184 550 188 552 192 555 L318 663 C323 667 326 674 326 680 L326 680 Z " />
<glyph glyph-name="Rcommaaccent" unicode="&#x156;" horiz-adv-x="608" d="M555 466 C555 589 468 667 346 667 L138 667 C105 667 78 640 78 607 L78 35 C78 12 96 -6 119 -6 C143 -6 161 12 161 35 L161 265 L294 265 L457 12 C465 0 477 -6 490 -6 C514 -6 531 14 531 34 C531 41 529 48 525 55 L382 272 C473 280 555 346 555 466 L555 466 Z M336 593 C415 593 469 541 469 466 C469 391 415 338 336 338 L161 338 L161 593 L336 593 Z M362 -138 C362 -95 337 -71 309 -71 C283 -71 263 -92 263 -118 C263 -143 281 -162 305 -162 C308 -162 315 -161 316 -160 C314 -184 296 -213 274 -234 C270 -237 268 -241 268 -246 C268 -251 271 -256 275 -259 L276 -260 C280 -264 285 -265 291 -265 C296 -265 302 -263 306 -259 C338 -229 362 -185 362 -138 L362 -138 Z " />
<glyph glyph-name="rcommaaccent" unicode="&#x157;" horiz-adv-x="330" d="M317 456 C317 476 301 491 283 491 C227 491 179 443 150 405 L150 453 C150 472 133 489 114 489 C92 489 75 472 75 453 L75 31 C75 11 91 -5 111 -6 L112 -6 C133 -6 150 11 150 31 L150 342 C182 390 229 412 278 415 C300 416 317 434 317 456 L317 456 Z M221 -138 C221 -95 196 -71 168 -71 C142 -71 122 -92 122 -118 C122 -143 140 -162 164 -162 C167 -162 174 -161 175 -160 C173 -184 155 -213 133 -234 C129 -237 127 -241 127 -246 C127 -251 130 -256 134 -259 L135 -260 C139 -264 144 -265 150 -265 C155 -265 161 -263 165 -259 C197 -229 221 -185 221 -138 L221 -138 Z " />
<glyph glyph-name="Rcaron" unicode="&#x158;" horiz-adv-x="608" d="M555 466 C555 589 468 667 346 667 L138 667 C105 667 78 640 78 607 L78 35 C78 12 96 -6 119 -6 C143 -6 161 12 161 35 L161 265 L294 265 L457 12 C465 0 477 -6 490 -6 C514 -6 531 14 531 34 C531 41 529 48 525 55 L382 272 C473 280 555 346 555 466 L555 466 Z M336 593 C415 593 469 541 469 466 C469 391 415 338 336 338 L161 338 L161 593 L336 593 Z M427 853 C427 865 416 873 405 873 C399 873 393 871 389 866 L307 761 L228 865 C224 870 217 873 211 873 C198 873 190 861 190 853 C190 849 191 845 193 842 L258 743 C268 727 287 717 306 717 C327 717 345 727 356 743 L424 842 C426 845 427 849 427 853 L427 853 Z " />
<glyph glyph-name="rcaron" unicode="&#x159;" horiz-adv-x="330" d="M317 456 C317 476 301 491 283 491 C227 491 179 443 150 405 L150 453 C150 472 133 489 114 489 C92 489 75 472 75 453 L75 31 C75 11 91 -5 111 -6 L112 -6 C133 -6 150 11 150 31 L150 342 C182 390 229 412 278 415 C300 416 317 434 317 456 L317 456 Z M313 686 C313 698 302 706 291 706 C285 706 279 704 275 699 L193 594 L114 698 C110 703 103 706 97 706 C84 706 76 694 76 686 C76 682 77 678 79 675 L144 576 C154 560 173 550 192 550 C213 550 231 560 242 576 L310 675 C312 678 313 682 313 686 L313 686 Z " />
<glyph glyph-name="Sacute" unicode="&#x15a;" horiz-adv-x="586" d="M540 184 C540 433 145 347 145 497 C145 560 202 603 282 603 C343 603 404 585 453 545 C460 539 469 536 477 536 C499 536 516 556 516 576 C516 587 511 598 502 606 C448 651 374 677 288 677 C157 677 59 602 59 492 C59 254 454 349 454 177 C454 126 416 62 297 62 C220 62 156 94 110 135 C103 141 94 143 86 143 C62 143 47 121 47 101 C47 90 51 79 60 71 C117 21 195 -12 294 -12 C474 -12 540 87 540 184 L540 184 Z M424 847 C424 861 410 872 398 872 C391 872 385 870 380 865 L262 751 C258 747 257 743 257 738 C257 726 268 717 278 717 C282 717 286 719 290 722 L416 830 C421 834 424 841 424 847 L424 847 Z " />
<glyph glyph-name="sacute" unicode="&#x15b;" horiz-adv-x="465" d="M418 134 C418 322 119 252 119 358 C119 401 160 434 226 434 C275 434 319 417 350 393 C356 388 363 386 370 386 C386 386 400 399 400 416 C400 424 397 432 390 438 C348 474 296 495 226 495 C111 495 46 431 46 356 C46 177 345 249 345 132 C345 84 305 49 231 49 C178 49 128 70 93 98 C86 103 79 105 71 105 C52 105 37 91 37 73 C37 64 41 56 48 50 C98 6 160 -12 228 -12 C353 -12 418 53 418 134 L418 134 Z M361 680 C361 694 347 705 335 705 C328 705 322 703 317 698 L199 584 C195 580 194 576 194 571 C194 559 205 550 215 550 C219 550 223 552 227 555 L353 663 C358 667 361 674 361 680 L361 680 Z " />
<glyph glyph-name="Scircumflex" unicode="&#x15c;" horiz-adv-x="586" d="M540 184 C540 433 145 347 145 497 C145 560 202 603 282 603 C343 603 404 585 453 545 C460 539 469 536 477 536 C499 536 516 556 516 576 C516 587 511 598 502 606 C448 651 374 677 288 677 C157 677 59 602 59 492 C59 254 454 349 454 177 C454 126 416 62 297 62 C220 62 156 94 110 135 C103 141 94 143 86 143 C62 143 47 121 47 101 C47 90 51 79 60 71 C117 21 195 -12 294 -12 C474 -12 540 87 540 184 L540 184 Z M412 754 C412 758 411 762 409 765 L341 864 C330 880 312 890 293 890 C272 890 253 880 243 864 L178 765 C176 761 174 757 174 754 C174 742 185 734 196 734 C203 734 209 737 213 742 L292 846 L374 741 C378 736 384 733 390 733 C404 733 412 745 412 754 L412 754 Z " />
<glyph glyph-name="scircumflex" unicode="&#x15d;" horiz-adv-x="465" d="M418 134 C418 322 119 252 119 358 C119 401 160 434 226 434 C275 434 319 417 350 393 C356 388 363 386 370 386 C386 386 400 399 400 416 C400 424 397 432 390 438 C348 474 296 495 226 495 C111 495 46 431 46 356 C46 177 345 249 345 132 C345 84 305 49 231 49 C178 49 128 70 93 98 C86 103 79 105 71 105 C52 105 37 91 37 73 C37 64 41 56 48 50 C98 6 160 -12 228 -12 C353 -12 418 53 418 134 L418 134 Z M351 570 C351 574 350 578 348 581 L280 680 C269 696 251 706 232 706 C211 706 192 696 182 680 L117 581 C115 577 113 573 113 570 C113 558 124 550 135 550 C142 550 148 553 152 558 L231 662 L313 557 C317 552 323 549 329 549 C343 549 351 561 351 570 L351 570 Z " />
<glyph glyph-name="Scedilla" unicode="&#x15e;" horiz-adv-x="586" d="M540 184 C540 433 145 347 145 497 C145 560 202 603 282 603 C343 603 404 585 453 545 C460 539 469 536 477 536 C499 536 516 556 516 576 C516 587 511 598 502 606 C448 651 374 677 288 677 C157 677 59 602 59 492 C59 254 454 349 454 177 C454 126 416 62 297 62 C220 62 156 94 110 135 C103 141 94 143 86 143 C62 143 47 121 47 101 C47 90 51 79 60 71 C111 26 178 -5 262 -11 L243 -62 C242 -64 242 -67 242 -69 C242 -80 251 -91 263 -91 C278 -91 293 -75 310 -75 C335 -75 347 -89 347 -110 C347 -137 318 -152 286 -152 C264 -152 240 -147 217 -132 C214 -130 212 -130 209 -130 C198 -130 188 -139 188 -150 C188 -178 249 -191 288 -191 C345 -191 392 -160 392 -111 C392 -70 364 -44 326 -44 C313 -44 299 -48 289 -55 L306 -12 C477 -7 540 89 540 184 L540 184 Z " />
<glyph glyph-name="scedilla" unicode="&#x15f;" horiz-adv-x="465" d="M418 134 C418 322 119 252 119 358 C119 401 160 434 226 434 C275 434 319 417 350 393 C356 388 363 386 370 386 C386 386 400 399 400 416 C400 424 397 432 390 438 C348 474 296 495 226 495 C111 495 46 431 46 356 C46 177 345 249 345 132 C345 84 305 49 231 49 C178 49 128 70 93 98 C86 103 79 105 71 105 C52 105 37 91 37 73 C37 64 41 56 48 50 C91 12 143 -6 201 -11 L182 -62 C181 -64 181 -67 181 -69 C181 -80 190 -91 202 -91 C217 -91 232 -75 249 -75 C274 -75 286 -89 286 -110 C286 -137 257 -152 225 -152 C203 -152 179 -147 156 -132 C153 -130 151 -130 148 -130 C137 -130 127 -139 127 -150 C127 -178 188 -191 227 -191 C284 -191 331 -160 331 -111 C331 -70 303 -44 265 -44 C252 -44 238 -48 228 -55 L245 -11 C359 -6 418 56 418 134 L418 134 Z " />
<glyph glyph-name="Scaron" unicode="&#x160;" horiz-adv-x="586" d="M540 184 C540 433 145 347 145 497 C145 560 202 603 282 603 C343 603 404 585 453 545 C460 539 469 536 477 536 C499 536 516 556 516 576 C516 587 511 598 502 606 C448 651 374 677 288 677 C157 677 59 602 59 492 C59 254 454 349 454 177 C454 126 416 62 297 62 C220 62 156 94 110 135 C103 141 94 143 86 143 C62 143 47 121 47 101 C47 90 51 79 60 71 C117 21 195 -12 294 -12 C474 -12 540 87 540 184 L540 184 Z M407 853 C407 865 396 873 385 873 C379 873 373 871 369 866 L287 761 L208 865 C204 870 197 873 191 873 C178 873 170 861 170 853 C170 849 171 845 173 842 L238 743 C248 727 267 717 286 717 C307 717 325 727 336 743 L404 842 C406 845 407 849 407 853 L407 853 Z " />
<glyph glyph-name="scaron" unicode="&#x161;" horiz-adv-x="465" d="M418 134 C418 322 119 252 119 358 C119 401 160 434 226 434 C275 434 319 417 350 393 C356 388 363 386 370 386 C386 386 400 399 400 416 C400 424 397 432 390 438 C348 474 296 495 226 495 C111 495 46 431 46 356 C46 177 345 249 345 132 C345 84 305 49 231 49 C178 49 128 70 93 98 C86 103 79 105 71 105 C52 105 37 91 37 73 C37 64 41 56 48 50 C98 6 160 -12 228 -12 C353 -12 418 53 418 134 L418 134 Z M350 686 C350 698 339 706 328 706 C322 706 316 704 312 699 L230 594 L151 698 C147 703 140 706 134 706 C121 706 113 694 113 686 C113 682 114 678 116 675 L181 576 C191 560 210 550 229 550 C250 550 268 560 279 576 L347 675 C349 678 350 682 350 686 L350 686 Z " />
<glyph glyph-name="Tcommaaccent" unicode="&#x162;" horiz-adv-x="570" d="M544 629 C544 651 528 667 508 667 L62 667 C42 667 26 651 26 631 C26 609 42 593 62 593 L243 593 L243 35 C243 12 261 -6 284 -6 C308 -6 326 12 326 35 L326 593 L508 593 C528 593 544 609 544 629 L544 629 Z M341 -138 C341 -95 316 -71 288 -71 C262 -71 242 -92 242 -118 C242 -143 260 -162 284 -162 C287 -162 294 -161 295 -160 C293 -184 275 -213 253 -234 C249 -237 247 -241 247 -246 C247 -251 250 -256 254 -259 L255 -260 C259 -264 264 -265 270 -265 C275 -265 281 -263 285 -259 C317 -229 341 -185 341 -138 L341 -138 Z " />
<glyph glyph-name="tcommaaccent" unicode="&#x163;" horiz-adv-x="294" d="M286 31 C286 48 271 62 254 62 C242 62 227 55 214 55 C181 55 165 81 165 117 L165 417 L237 417 C255 417 269 431 269 449 C269 469 255 483 237 483 L165 483 L165 585 C165 604 148 621 129 621 C107 621 90 604 90 585 L90 483 L36 483 C18 483 4 469 4 451 C4 431 18 417 36 417 L90 417 L90 101 C90 29 126 -12 197 -12 C240 -12 286 -1 286 31 L286 31 Z M203 -138 C203 -95 178 -71 150 -71 C124 -71 104 -92 104 -118 C104 -143 122 -162 146 -162 C149 -162 156 -161 157 -160 C155 -184 137 -213 115 -234 C111 -237 109 -241 109 -246 C109 -251 112 -256 116 -259 L117 -260 C121 -264 126 -265 132 -265 C137 -265 143 -263 147 -259 C179 -229 203 -185 203 -138 L203 -138 Z " />
<glyph glyph-name="Tcaron" unicode="&#x164;" horiz-adv-x="570" d="M544 629 C544 651 528 667 508 667 L62 667 C42 667 26 651 26 631 C26 609 42 593 62 593 L243 593 L243 35 C243 12 261 -6 284 -6 C308 -6 326 12 326 35 L326 593 L508 593 C528 593 544 609 544 629 L544 629 Z M406 853 C406 865 395 873 384 873 C378 873 372 871 368 866 L286 761 L207 865 C203 870 196 873 190 873 C177 873 169 861 169 853 C169 849 170 845 172 842 L237 743 C247 727 266 717 285 717 C306 717 324 727 335 743 L403 842 C405 845 406 849 406 853 L406 853 Z " />
<glyph glyph-name="tcaron" unicode="&#x165;" horiz-adv-x="313" d="M286 31 C286 48 271 62 254 62 C242 62 227 55 214 55 C181 55 165 81 165 117 L165 417 L237 417 C255 417 269 431 269 449 C269 469 255 483 237 483 L165 483 L165 585 C165 604 148 621 129 621 C107 621 90 604 90 585 L90 483 L36 483 C18 483 4 469 4 451 C4 431 18 417 36 417 L90 417 L90 101 C90 29 126 -12 197 -12 C240 -12 286 -1 286 31 L286 31 Z M325 676 C325 719 300 743 272 743 C246 743 226 722 226 696 C226 671 244 652 268 652 C271 652 278 653 279 654 C277 630 259 601 237 580 C233 577 231 573 231 568 C231 563 234 558 238 555 L239 554 C243 550 248 549 254 549 C259 549 265 551 269 555 C301 585 325 629 325 676 L325 676 Z " />
<glyph glyph-name="Tbar" unicode="&#x166;" horiz-adv-x="570" d="M451 344 C451 362 437 376 419 376 L326 376 L326 593 L508 593 C528 593 544 609 544 629 C544 651 528 667 508 667 L62 667 C42 667 26 651 26 631 C26 609 42 593 62 593 L243 593 L243 376 L151 376 C133 376 119 362 119 344 C119 324 133 310 151 310 L243 310 L243 35 C243 12 261 -6 284 -6 C308 -6 326 12 326 35 L326 310 L419 310 C437 310 451 324 451 344 L451 344 Z " />
<glyph glyph-name="tbar" unicode="&#x167;" horiz-adv-x="294" d="M255 243 C255 261 241 275 223 275 L165 275 L165 417 L237 417 C255 417 269 431 269 449 C269 469 255 483 237 483 L165 483 L165 585 C165 604 148 621 129 621 C107 621 90 604 90 585 L90 483 L36 483 C18 483 4 469 4 451 C4 431 18 417 36 417 L90 417 L90 275 L35 275 C17 275 3 261 3 243 C3 223 17 209 35 209 L90 209 L90 101 C90 29 126 -12 197 -12 C240 -12 286 -1 286 31 C286 48 271 62 254 62 C242 62 227 55 214 55 C181 55 165 81 165 117 L165 209 L223 209 C241 209 255 223 255 243 L255 243 Z " />
<glyph glyph-name="Utilde" unicode="&#x168;" horiz-adv-x="700" d="M622 260 L622 633 C622 655 604 673 582 673 C557 673 539 655 539 633 L539 261 C539 139 473 62 350 62 C227 62 161 139 161 261 L161 633 C161 655 143 673 121 673 C96 673 78 655 78 633 L78 259 C78 95 169 -12 350 -12 C531 -12 622 94 622 260 L622 260 Z M505 851 C505 862 498 872 485 872 C472 872 461 863 460 850 C455 806 437 786 413 786 C365 786 362 878 290 878 C237 878 194 831 194 763 C194 753 202 744 214 744 C227 744 238 753 239 766 C244 810 262 830 286 830 C334 830 336 738 409 738 C466 738 499 784 505 851 L505 851 Z " />
<glyph glyph-name="utilde" unicode="&#x169;" horiz-adv-x="551" d="M476 31 L476 453 C476 472 459 489 440 489 C418 489 401 472 401 453 L401 128 C373 89 317 55 258 55 C193 55 150 80 150 165 L150 453 C150 472 133 489 114 489 C92 489 75 472 75 453 L75 142 C75 37 128 -12 229 -12 C301 -12 364 26 401 68 L401 31 C401 11 418 -6 438 -6 C459 -6 476 11 476 31 L476 31 Z M431 667 C431 678 424 688 411 688 C398 688 387 679 386 666 C381 622 363 602 339 602 C291 602 288 694 216 694 C163 694 120 647 120 579 C120 569 128 560 140 560 C153 560 164 569 165 582 C170 626 188 646 212 646 C260 646 262 554 335 554 C392 554 425 600 431 667 L431 667 Z " />
<glyph glyph-name="Umacron" unicode="&#x16a;" horiz-adv-x="700" d="M622 260 L622 633 C622 655 604 673 582 673 C557 673 539 655 539 633 L539 261 C539 139 473 62 350 62 C227 62 161 139 161 261 L161 633 C161 655 143 673 121 673 C96 673 78 655 78 633 L78 259 C78 95 169 -12 350 -12 C531 -12 622 94 622 260 L622 260 Z M532 764 C532 777 522 787 509 787 L192 787 C179 787 169 777 169 764 C169 749 179 739 192 739 L509 739 C522 739 532 749 532 764 L532 764 Z " />
<glyph glyph-name="umacron" unicode="&#x16b;" horiz-adv-x="551" d="M476 31 L476 453 C476 472 459 489 440 489 C418 489 401 472 401 453 L401 128 C373 89 317 55 258 55 C193 55 150 80 150 165 L150 453 C150 472 133 489 114 489 C92 489 75 472 75 453 L75 142 C75 37 128 -12 229 -12 C301 -12 364 26 401 68 L401 31 C401 11 418 -6 438 -6 C459 -6 476 11 476 31 L476 31 Z M456 597 C456 610 446 620 433 620 L116 620 C103 620 93 610 93 597 C93 582 103 572 116 572 L433 572 C446 572 456 582 456 597 L456 597 Z " />
<glyph glyph-name="Ubreve" unicode="&#x16c;" horiz-adv-x="700" d="M622 260 L622 633 C622 655 604 673 582 673 C557 673 539 655 539 633 L539 261 C539 139 473 62 350 62 C227 62 161 139 161 261 L161 633 C161 655 143 673 121 673 C96 673 78 655 78 633 L78 259 C78 95 169 -12 350 -12 C531 -12 622 94 622 260 L622 260 Z M516 807 C516 817 507 831 491 831 C484 831 478 829 473 824 C443 790 400 770 350 770 C300 770 257 790 226 824 C221 829 214 831 208 831 C193 831 183 818 183 807 C183 801 185 796 189 792 C230 749 287 722 350 722 C414 722 470 749 510 792 C514 796 516 801 516 807 L516 807 Z " />
<glyph glyph-name="ubreve" unicode="&#x16d;" horiz-adv-x="551" d="M476 31 L476 453 C476 472 459 489 440 489 C418 489 401 472 401 453 L401 128 C373 89 317 55 258 55 C193 55 150 80 150 165 L150 453 C150 472 133 489 114 489 C92 489 75 472 75 453 L75 142 C75 37 128 -12 229 -12 C301 -12 364 26 401 68 L401 31 C401 11 418 -6 438 -6 C459 -6 476 11 476 31 L476 31 Z M442 623 C442 633 433 647 417 647 C410 647 404 645 399 640 C369 606 326 586 276 586 C226 586 183 606 152 640 C147 645 140 647 134 647 C119 647 109 634 109 623 C109 617 111 612 115 608 C156 565 213 538 276 538 C340 538 396 565 436 608 C440 612 442 617 442 623 L442 623 Z " />
<glyph glyph-name="Uring" unicode="&#x16e;" horiz-adv-x="700" d="M622 260 L622 633 C622 655 604 673 582 673 C557 673 539 655 539 633 L539 261 C539 139 473 62 350 62 C227 62 161 139 161 261 L161 633 C161 655 143 673 121 673 C96 673 78 655 78 633 L78 259 C78 95 169 -12 350 -12 C531 -12 622 94 622 260 L622 260 Z M449 808 C449 862 405 907 351 907 C297 907 253 862 253 808 C253 754 297 710 351 710 C405 710 449 754 449 808 L449 808 Z M409 808 C409 776 384 749 351 749 C319 749 293 776 293 808 C293 841 319 867 351 867 C384 867 409 841 409 808 L409 808 Z " />
<glyph glyph-name="uring" unicode="&#x16f;" horiz-adv-x="551" d="M476 31 L476 453 C476 472 459 489 440 489 C418 489 401 472 401 453 L401 128 C373 89 317 55 258 55 C193 55 150 80 150 165 L150 453 C150 472 133 489 114 489 C92 489 75 472 75 453 L75 142 C75 37 128 -12 229 -12 C301 -12 364 26 401 68 L401 31 C401 11 418 -6 438 -6 C459 -6 476 11 476 31 L476 31 Z M374 641 C374 695 330 740 276 740 C222 740 178 695 178 641 C178 587 222 543 276 543 C330 543 374 587 374 641 L374 641 Z M334 641 C334 609 309 582 276 582 C244 582 218 609 218 641 C218 674 244 700 276 700 C309 700 334 674 334 641 L334 641 Z " />
<glyph glyph-name="Uhungarumlaut" unicode="&#x170;" horiz-adv-x="700" d="M622 260 L622 633 C622 655 604 673 582 673 C557 673 539 655 539 633 L539 261 C539 139 473 62 350 62 C227 62 161 139 161 261 L161 633 C161 655 143 673 121 673 C96 673 78 655 78 633 L78 259 C78 95 169 -12 350 -12 C531 -12 622 94 622 260 L622 260 Z M381 847 C381 859 371 873 353 873 C344 873 336 869 331 861 L256 746 C254 743 253 740 253 736 C253 724 265 716 275 716 C280 716 286 718 289 723 L376 832 C379 836 381 841 381 847 L381 847 Z M523 847 C523 859 513 873 495 873 C486 873 478 869 473 861 L398 746 C396 743 395 740 395 736 C395 725 405 716 416 716 C422 716 427 718 431 723 L518 832 C521 836 523 841 523 847 L523 847 Z " />
<glyph glyph-name="uhungarumlaut" unicode="&#x171;" horiz-adv-x="551" d="M476 31 L476 453 C476 472 459 489 440 489 C418 489 401 472 401 453 L401 128 C373 89 317 55 258 55 C193 55 150 80 150 165 L150 453 C150 472 133 489 114 489 C92 489 75 472 75 453 L75 142 C75 37 128 -12 229 -12 C301 -12 364 26 401 68 L401 31 C401 11 418 -6 438 -6 C459 -6 476 11 476 31 L476 31 Z M306 680 C306 692 296 706 278 706 C269 706 261 702 256 694 L181 579 C179 576 178 573 178 569 C178 557 190 549 200 549 C205 549 211 551 214 556 L301 665 C304 669 306 674 306 680 L306 680 Z M448 680 C448 692 438 706 420 706 C411 706 403 702 398 694 L323 579 C321 576 320 573 320 569 C320 558 330 549 341 549 C347 549 352 551 356 556 L443 665 C446 669 448 674 448 680 L448 680 Z " />
<glyph glyph-name="Uogonek" unicode="&#x172;" horiz-adv-x="700" d="M622 260 L622 633 C622 655 604 673 582 673 C557 673 539 655 539 633 L539 261 C539 139 473 62 350 62 C227 62 161 139 161 261 L161 633 C161 655 143 673 121 673 C96 673 78 655 78 633 L78 259 C78 90 174 -18 365 -12 C341 -36 326 -66 326 -99 C326 -160 368 -186 415 -186 C452 -186 497 -162 497 -134 C497 -122 487 -114 476 -114 C469 -114 462 -117 459 -123 C449 -139 436 -147 415 -147 C389 -147 371 -131 371 -97 C371 -55 399 -24 447 0 C563 32 622 127 622 260 L622 260 Z " />
<glyph glyph-name="uogonek" unicode="&#x173;" horiz-adv-x="551" d="M526 -134 C526 -122 516 -114 505 -114 C484 -114 477 -147 444 -147 C418 -147 400 -131 400 -97 C400 -37 476 -12 476 37 L476 453 C476 472 459 489 440 489 C418 489 401 472 401 453 L401 128 C373 89 317 55 258 55 C193 55 150 80 150 165 L150 453 C150 472 133 489 114 489 C92 489 75 472 75 453 L75 142 C75 37 128 -12 229 -12 C301 -12 364 26 401 68 L401 35 C401 13 406 9 409 5 C379 -21 355 -61 355 -99 C355 -160 397 -186 444 -186 C481 -186 526 -162 526 -134 L526 -134 Z " />
<glyph glyph-name="Wcircumflex" unicode="&#x174;" horiz-adv-x="883" d="M856 631 C856 654 837 672 812 672 C792 672 774 659 769 640 L629 111 L483 642 C478 660 461 673 442 673 C421 673 405 660 400 642 L254 111 L113 640 C108 660 89 673 69 673 C43 673 26 652 26 631 C26 627 27 623 28 619 L194 34 C200 11 220 -6 247 -6 L248 -6 C275 -6 296 11 303 35 L441 538 L578 35 C584 12 605 -6 631 -6 L632 -6 C658 -6 681 11 688 35 L854 619 C855 623 856 627 856 631 L856 631 Z M560 754 C560 758 559 762 557 765 L489 864 C478 880 460 890 441 890 C420 890 401 880 391 864 L326 765 C324 761 322 757 322 754 C322 742 333 734 344 734 C351 734 357 737 361 742 L440 846 L522 741 C526 736 532 733 538 733 C552 733 560 745 560 754 L560 754 Z " />
<glyph glyph-name="wcircumflex" unicode="&#x175;" horiz-adv-x="734" d="M711 453 C711 472 695 489 674 489 C658 489 643 479 638 464 L526 98 L406 461 C400 478 385 489 368 489 C348 489 334 478 328 461 L208 98 L96 464 C91 479 75 489 59 489 C38 489 23 470 23 453 C23 450 24 446 25 443 L158 27 C164 8 181 -6 202 -6 L203 -6 C225 -6 244 8 250 27 L367 388 L484 27 C490 8 508 -6 529 -6 L530 -6 C552 -6 570 8 576 27 L709 443 C710 446 711 450 711 453 L711 453 Z M486 570 C486 574 485 578 483 581 L415 680 C404 696 386 706 367 706 C346 706 327 696 317 680 L252 581 C250 577 248 573 248 570 C248 558 259 550 270 550 C277 550 283 553 287 558 L366 662 L448 557 C452 552 458 549 464 549 C478 549 486 561 486 570 L486 570 Z " />
<glyph glyph-name="Ycircumflex" unicode="&#x176;" horiz-adv-x="626" d="M585 633 C585 654 566 672 544 672 C532 672 519 666 512 656 L313 357 L114 656 C106 667 92 673 80 673 C55 673 40 652 40 633 C40 625 43 618 47 612 L272 282 L272 35 C272 12 290 -6 313 -6 C337 -6 355 12 355 35 L355 282 L579 612 C583 618 585 626 585 633 L585 633 Z M432 754 C432 758 431 762 429 765 L361 864 C350 880 332 890 313 890 C292 890 273 880 263 864 L198 765 C196 761 194 757 194 754 C194 742 205 734 216 734 C223 734 229 737 233 742 L312 846 L394 741 C398 736 404 733 410 733 C424 733 432 745 432 754 L432 754 Z " />
<glyph glyph-name="ycircumflex" unicode="&#x177;" horiz-adv-x="490" d="M472 452 C472 472 455 489 433 489 C418 489 404 480 398 466 L245 87 L91 466 C85 481 71 489 56 489 C34 489 18 471 18 452 C18 448 19 443 21 439 L205 -5 L173 -78 C155 -118 132 -130 102 -129 C94 -129 86 -128 77 -128 C60 -128 44 -142 44 -162 C44 -194 77 -196 103 -196 C165 -196 216 -167 245 -98 L469 439 C471 443 472 448 472 452 L472 452 Z M364 570 C364 574 363 578 361 581 L293 680 C282 696 264 706 245 706 C224 706 205 696 195 680 L130 581 C128 577 126 573 126 570 C126 558 137 550 148 550 C155 550 161 553 165 558 L244 662 L326 557 C330 552 336 549 342 549 C356 549 364 561 364 570 L364 570 Z " />
<glyph glyph-name="Ydieresis" unicode="&#x178;" horiz-adv-x="626" d="M585 633 C585 654 566 672 544 672 C532 672 519 666 512 656 L313 357 L114 656 C106 667 92 673 80 673 C55 673 40 652 40 633 C40 625 43 618 47 612 L272 282 L272 35 C272 12 290 -6 313 -6 C337 -6 355 12 355 35 L355 282 L579 612 C583 618 585 626 585 633 L585 633 Z M258 771 C258 796 237 817 212 817 C186 817 165 796 165 771 C165 745 186 724 212 724 C237 724 258 745 258 771 L258 771 Z M465 771 C465 796 443 817 418 817 C393 817 371 796 371 771 C371 745 393 724 418 724 C443 724 465 745 465 771 L465 771 Z " />
<glyph glyph-name="Zacute" unicode="&#x179;" horiz-adv-x="585" d="M542 38 C542 58 526 74 506 74 L154 74 L525 593 C531 601 534 611 534 621 C534 648 513 667 492 667 L78 667 C58 667 42 651 42 631 C42 609 58 593 78 593 L423 593 L52 74 C46 66 43 56 43 46 C43 19 64 0 85 0 L506 0 C526 0 542 16 542 38 L542 38 Z M425 847 C425 861 411 872 399 872 C392 872 386 870 381 865 L263 751 C259 747 258 743 258 738 C258 726 269 717 279 717 C283 717 287 719 291 722 L417 830 C422 834 425 841 425 847 L425 847 Z " />
<glyph glyph-name="zacute" unicode="&#x17a;" horiz-adv-x="472" d="M426 34 C426 51 412 65 395 65 L148 65 L413 422 C418 429 421 437 421 446 C421 468 405 483 388 483 L78 483 C60 483 46 469 46 451 C46 431 60 417 78 417 L318 417 L56 63 C51 56 47 47 47 38 C47 16 62 0 81 0 L395 0 C412 0 426 14 426 34 L426 34 Z M368 680 C368 694 354 705 342 705 C335 705 329 703 324 698 L206 584 C202 580 201 576 201 571 C201 559 212 550 222 550 C226 550 230 552 234 555 L360 663 C365 667 368 674 368 680 L368 680 Z " />
<glyph glyph-name="Zdotaccent" unicode="&#x17b;" horiz-adv-x="585" d="M542 38 C542 58 526 74 506 74 L154 74 L525 593 C531 601 534 611 534 621 C534 648 513 667 492 667 L78 667 C58 667 42 651 42 631 C42 609 58 593 78 593 L423 593 L52 74 C46 66 43 56 43 46 C43 19 64 0 85 0 L506 0 C526 0 542 16 542 38 L542 38 Z M336 769 C336 795 316 816 290 816 C265 816 243 795 243 769 C243 743 265 722 290 722 C316 722 336 743 336 769 L336 769 Z " />
<glyph glyph-name="zdotaccent" unicode="&#x17c;" horiz-adv-x="472" d="M426 34 C426 51 412 65 395 65 L148 65 L413 422 C418 429 421 437 421 446 C421 468 405 483 388 483 L78 483 C60 483 46 469 46 451 C46 431 60 417 78 417 L318 417 L56 63 C51 56 47 47 47 38 C47 16 62 0 81 0 L395 0 C412 0 426 14 426 34 L426 34 Z M281 602 C281 628 261 649 235 649 C210 649 188 628 188 602 C188 576 210 555 235 555 C261 555 281 576 281 602 L281 602 Z " />
<glyph glyph-name="Zcaron" unicode="&#x17d;" horiz-adv-x="585" d="M542 38 C542 58 526 74 506 74 L154 74 L525 593 C531 601 534 611 534 621 C534 648 513 667 492 667 L78 667 C58 667 42 651 42 631 C42 609 58 593 78 593 L423 593 L52 74 C46 66 43 56 43 46 C43 19 64 0 85 0 L506 0 C526 0 542 16 542 38 L542 38 Z M411 853 C411 865 400 873 389 873 C383 873 377 871 373 866 L291 761 L212 865 C208 870 201 873 195 873 C182 873 174 861 174 853 C174 849 175 845 177 842 L242 743 C252 727 271 717 290 717 C311 717 329 727 340 743 L408 842 C410 845 411 849 411 853 L411 853 Z " />
<glyph glyph-name="zcaron" unicode="&#x17e;" horiz-adv-x="472" d="M426 34 C426 51 412 65 395 65 L148 65 L413 422 C418 429 421 437 421 446 C421 468 405 483 388 483 L78 483 C60 483 46 469 46 451 C46 431 60 417 78 417 L318 417 L56 63 C51 56 47 47 47 38 C47 16 62 0 81 0 L395 0 C412 0 426 14 426 34 L426 34 Z M352 686 C352 698 341 706 330 706 C324 706 318 704 314 699 L232 594 L153 698 C149 703 142 706 136 706 C123 706 115 694 115 686 C115 682 116 678 118 675 L183 576 C193 560 212 550 231 550 C252 550 270 560 281 576 L349 675 C351 678 352 682 352 686 L352 686 Z " />
<glyph glyph-name="florin" unicode="&#x192;" horiz-adv-x="431" d="M440 628 C440 666 386 677 351 677 C265 677 198 619 177 526 L131 322 L76 322 C58 322 43 307 43 289 C43 269 58 254 76 254 L117 254 L34 -122 C33 -125 33 -128 33 -131 C33 -153 51 -170 74 -170 C93 -170 110 -157 114 -138 L201 254 L328 254 C346 254 361 269 361 287 C361 307 346 322 328 322 L216 322 L258 511 C271 569 310 603 358 603 C376 603 391 591 405 591 C423 591 440 607 440 628 L440 628 Z " />
<glyph glyph-name="AEacute" unicode="&#x1fc;" horiz-adv-x="947" d="M899 38 C899 58 883 74 863 74 L539 74 L539 304 L856 304 C876 304 892 320 892 340 C892 362 876 378 856 378 L539 378 L539 593 L863 593 C883 593 899 609 899 629 C899 651 883 667 863 667 L483 667 C447 667 410 647 391 616 L43 59 C39 52 37 45 37 38 C37 15 57 -3 79 -3 C92 -3 105 3 112 15 L193 148 L456 148 L456 60 C456 27 483 0 516 0 L863 0 C883 0 899 16 899 38 L899 38 Z M456 222 L234 222 L456 581 L456 222 Z M617 864 C617 878 603 889 591 889 C584 889 578 887 573 882 L455 768 C451 764 450 760 450 755 C450 743 461 734 471 734 C475 734 479 736 483 739 L609 847 C614 851 617 858 617 864 L617 864 Z " />
<glyph glyph-name="aeacute" unicode="&#x1fd;" horiz-adv-x="889" d="M842 258 C842 275 839 292 836 308 C813 423 738 495 627 495 C539 495 481 448 448 390 C430 464 356 495 277 495 C204 495 139 474 86 429 C79 423 76 415 76 407 C76 388 94 376 109 376 C116 376 123 378 129 383 C170 416 215 430 268 430 C347 430 401 393 401 329 L401 243 C358 287 297 307 226 307 C132 307 48 252 48 148 C48 43 138 -12 242 -12 C331 -12 407 35 441 104 C480 24 549 -12 634 -12 C693 -12 749 7 797 47 C803 53 807 61 807 69 C807 87 791 99 775 99 C767 99 760 97 754 92 C721 66 679 52 637 52 C541 52 483 126 476 217 L801 217 C824 217 842 236 842 258 L842 258 Z M769 272 L476 272 C479 346 527 433 622 433 C726 433 768 344 769 272 L769 272 Z M401 180 C401 116 341 52 256 52 C178 52 125 91 125 152 C125 213 178 253 256 253 C313 253 368 231 401 192 L401 180 Z M588 680 C588 694 574 705 562 705 C555 705 549 703 544 698 L426 584 C422 580 421 576 421 571 C421 559 432 550 442 550 C446 550 450 552 454 555 L580 663 C585 667 588 674 588 680 L588 680 Z " />
<glyph glyph-name="Oslashacute" unicode="&#x1fe;" horiz-adv-x="765" d="M713 333 C713 446 669 543 594 605 L614 634 C617 638 618 644 618 649 C618 664 604 675 590 675 C581 675 573 671 568 664 L549 636 C501 663 445 678 382 678 C184 678 51 530 51 333 C51 222 93 127 165 65 L143 32 C140 28 138 23 138 18 C138 3 152 -8 167 -8 C175 -8 183 -5 188 2 L209 33 C258 4 316 -12 382 -12 C579 -12 713 136 713 333 L713 333 Z M627 333 C627 178 531 62 382 62 C332 62 288 74 252 97 L549 538 C599 490 627 417 627 333 L627 333 Z M506 572 L210 132 C163 180 137 251 137 333 C137 489 232 604 382 604 C429 604 471 592 506 572 L506 572 Z M466 864 C466 878 452 889 440 889 C433 889 427 887 422 882 L304 768 C300 764 299 760 299 755 C299 743 310 734 320 734 C324 734 328 736 332 739 L458 847 C463 851 466 858 466 864 L466 864 Z " />
<glyph glyph-name="oslashacute" unicode="&#x1ff;" horiz-adv-x="572" d="M144 33 C182 4 230 -12 286 -12 C433 -12 525 102 525 242 C525 315 500 380 455 426 L482 461 C485 465 486 469 486 474 C486 486 475 495 464 495 C459 495 453 493 450 488 L423 454 C386 480 339 495 286 495 C139 495 47 382 47 242 C47 171 70 107 112 61 L81 21 C78 18 77 13 77 9 C77 -3 88 -12 99 -12 C105 -12 110 -9 113 -5 L144 33 Z M188 89 L408 367 C433 333 446 289 446 242 C446 143 389 55 286 55 C246 55 214 68 188 89 L188 89 Z M286 428 C323 428 354 417 378 398 L159 121 C137 154 125 197 125 242 C125 340 183 428 286 428 L286 428 Z M369 680 C369 694 355 705 343 705 C336 705 330 703 325 698 L207 584 C203 580 202 576 202 571 C202 559 213 550 223 550 C227 550 231 552 235 555 L361 663 C366 667 369 674 369 680 L369 680 Z " />
<glyph glyph-name="Scommaaccent" unicode="&#x218;" horiz-adv-x="586" d="M540 184 C540 433 145 347 145 497 C145 560 202 603 282 603 C343 603 404 585 453 545 C460 539 469 536 477 536 C499 536 516 556 516 576 C516 587 511 598 502 606 C448 651 374 677 288 677 C157 677 59 602 59 492 C59 254 454 349 454 177 C454 126 416 62 297 62 C220 62 156 94 110 135 C103 141 94 143 86 143 C62 143 47 121 47 101 C47 90 51 79 60 71 C117 21 195 -12 294 -12 C474 -12 540 87 540 184 L540 184 Z M342 -138 C342 -95 317 -71 289 -71 C263 -71 243 -92 243 -118 C243 -143 261 -162 285 -162 C288 -162 295 -161 296 -160 C294 -184 276 -213 254 -234 C250 -237 248 -241 248 -246 C248 -251 251 -256 255 -259 L256 -260 C260 -264 265 -265 271 -265 C276 -265 282 -263 286 -259 C318 -229 342 -185 342 -138 L342 -138 Z " />
<glyph glyph-name="scommaaccent" unicode="&#x219;" horiz-adv-x="465" d="M418 134 C418 322 119 252 119 358 C119 401 160 434 226 434 C275 434 319 417 350 393 C356 388 363 386 370 386 C386 386 400 399 400 416 C400 424 397 432 390 438 C348 474 296 495 226 495 C111 495 46 431 46 356 C46 177 345 249 345 132 C345 84 305 49 231 49 C178 49 128 70 93 98 C86 103 79 105 71 105 C52 105 37 91 37 73 C37 64 41 56 48 50 C98 6 160 -12 228 -12 C353 -12 418 53 418 134 L418 134 Z M282 -138 C282 -95 257 -71 229 -71 C203 -71 183 -92 183 -118 C183 -143 201 -162 225 -162 C228 -162 235 -161 236 -160 C234 -184 216 -213 194 -234 C190 -237 188 -241 188 -246 C188 -251 191 -256 195 -259 L196 -260 C200 -264 205 -265 211 -265 C216 -265 222 -263 226 -259 C258 -229 282 -185 282 -138 L282 -138 Z " />
<glyph glyph-name="uni021A" unicode="&#x21a;" horiz-adv-x="570" d="M544 629 C544 651 528 667 508 667 L62 667 C42 667 26 651 26 631 C26 609 42 593 62 593 L243 593 L243 35 C243 12 261 -6 284 -6 C308 -6 326 12 326 35 L326 593 L508 593 C528 593 544 609 544 629 L544 629 Z M341 -138 C341 -95 316 -71 288 -71 C262 -71 242 -92 242 -118 C242 -143 260 -162 284 -162 C287 -162 294 -161 295 -160 C293 -184 275 -213 253 -234 C249 -237 247 -241 247 -246 C247 -251 250 -256 254 -259 L255 -260 C259 -264 264 -265 270 -265 C275 -265 281 -263 285 -259 C317 -229 341 -185 341 -138 L341 -138 Z " />
<glyph glyph-name="uni021B" unicode="&#x21b;" horiz-adv-x="294" d="M286 31 C286 48 271 62 254 62 C242 62 227 55 214 55 C181 55 165 81 165 117 L165 417 L237 417 C255 417 269 431 269 449 C269 469 255 483 237 483 L165 483 L165 585 C165 604 148 621 129 621 C107 621 90 604 90 585 L90 483 L36 483 C18 483 4 469 4 451 C4 431 18 417 36 417 L90 417 L90 101 C90 29 126 -12 197 -12 C240 -12 286 -1 286 31 L286 31 Z M203 -138 C203 -95 178 -71 150 -71 C124 -71 104 -92 104 -118 C104 -143 122 -162 146 -162 C149 -162 156 -161 157 -160 C155 -184 137 -213 115 -234 C111 -237 109 -241 109 -246 C109 -251 112 -256 116 -259 L117 -260 C121 -264 126 -265 132 -265 C137 -265 143 -263 147 -259 C179 -229 203 -185 203 -138 L203 -138 Z " />
<glyph glyph-name="circumflex" unicode="&#x2c6;" horiz-adv-x="265" d="M251 570 C251 574 250 578 248 581 L180 680 C169 696 151 706 132 706 C111 706 92 696 82 680 L17 581 C15 577 13 573 13 570 C13 558 24 550 35 550 C42 550 48 553 52 558 L131 662 L213 557 C217 552 223 549 229 549 C243 549 251 561 251 570 L251 570 Z " />
<glyph glyph-name="caron" unicode="&#x2c7;" horiz-adv-x="265" d="M254 686 C254 698 243 706 232 706 C226 706 220 704 216 699 L134 594 L55 698 C51 703 44 706 38 706 C25 706 17 694 17 686 C17 682 18 678 20 675 L85 576 C95 560 114 550 133 550 C154 550 172 560 183 576 L251 675 C253 678 254 682 254 686 L254 686 Z " />
<glyph glyph-name="breve" unicode="&#x2d8;" horiz-adv-x="351" d="M342 623 C342 633 333 647 317 647 C310 647 304 645 299 640 C269 606 226 586 176 586 C126 586 83 606 52 640 C47 645 40 647 34 647 C19 647 9 634 9 623 C9 617 11 612 15 608 C56 565 113 538 176 538 C240 538 296 565 336 608 C340 612 342 617 342 623 L342 623 Z " />
<glyph glyph-name="dotaccent" unicode="&#x2d9;" horiz-adv-x="111" d="M102 602 C102 628 82 649 56 649 C31 649 9 628 9 602 C9 576 31 555 56 555 C82 555 102 576 102 602 L102 602 Z " />
<glyph glyph-name="ring" unicode="&#x2da;" horiz-adv-x="196" d="M196 641 C196 695 152 740 98 740 C44 740 0 695 0 641 C0 587 44 543 98 543 C152 543 196 587 196 641 L196 641 Z M156 641 C156 609 131 582 98 582 C66 582 40 609 40 641 C40 674 66 700 98 700 C131 700 156 674 156 641 L156 641 Z " />
<glyph glyph-name="ogonek" unicode="&#x2db;" horiz-adv-x="178" d="M171 -134 C171 -122 161 -114 150 -114 C143 -114 136 -117 133 -123 C123 -139 110 -147 89 -147 C63 -147 45 -131 45 -97 C45 -60 67 -32 104 -9 C108 -7 110 -3 110 1 C110 12 94 17 86 17 C81 17 76 16 71 13 C29 -14 0 -54 0 -99 C0 -160 42 -186 89 -186 C126 -186 171 -162 171 -134 L171 -134 Z " />
<glyph glyph-name="tilde" unicode="&#x2dc;" horiz-adv-x="313" d="M312 667 C312 678 305 688 292 688 C279 688 268 679 267 666 C262 622 244 602 220 602 C172 602 169 694 97 694 C44 694 1 647 1 579 C1 569 9 560 21 560 C34 560 45 569 46 582 C51 626 69 646 93 646 C141 646 143 554 216 554 C273 554 306 600 312 667 L312 667 Z " />
<glyph glyph-name="hungarumlaut" unicode="&#x2dd;" horiz-adv-x="305" d="M140 680 C140 692 130 706 112 706 C103 706 95 702 90 694 L15 579 C13 576 12 573 12 569 C12 557 24 549 34 549 C39 549 45 551 48 556 L135 665 C138 669 140 674 140 680 L140 680 Z M282 680 C282 692 272 706 254 706 C245 706 237 702 232 694 L157 579 C155 576 154 573 154 569 C154 558 164 549 175 549 C181 549 186 551 190 556 L277 665 C280 669 282 674 282 680 L282 680 Z " />
<glyph glyph-name="uni0312" unicode="&#x312;" horiz-adv-x="230" d="M68 618 C68 575 93 551 121 551 C147 551 167 572 167 598 C167 623 149 642 125 642 C122 642 115 641 114 640 C116 664 134 693 156 714 C160 717 162 721 162 726 C162 731 159 736 155 739 L154 740 C150 744 145 745 139 745 C134 745 128 743 124 739 C92 709 68 665 68 618 L68 618 Z " />
<glyph glyph-name="uni03A9" unicode="&#x3a9;" horiz-adv-x="765" d="M713 348 C713 540 580 678 382 678 C185 678 51 540 51 348 C51 217 116 127 204 74 L105 74 C85 74 69 58 69 36 C69 16 85 0 105 0 L273 0 C293 0 309 16 309 36 C309 55 295 77 275 86 C201 121 137 206 137 334 C137 481 223 603 382 603 C541 603 627 481 627 334 C627 206 564 121 490 86 C469 76 456 56 456 34 C456 16 472 0 492 0 L660 0 C680 0 696 16 696 36 C696 58 680 74 660 74 L562 74 C649 127 713 217 713 348 L713 348 Z " />
<glyph glyph-name="pi" unicode="&#x3c0;" horiz-adv-x="582" d="M578 449 C578 469 564 483 546 483 L36 483 C18 483 4 469 4 451 C4 431 18 417 36 417 L90 417 L90 31 C90 11 107 -6 127 -6 C148 -6 165 11 165 31 L165 417 L417 417 L417 31 C417 11 434 -6 454 -6 C475 -6 492 11 492 31 L492 417 L546 417 C564 417 578 431 578 449 L578 449 Z " />
<glyph glyph-name="Wgrave" unicode="&#x1e80;" horiz-adv-x="883" d="M856 631 C856 654 837 672 812 672 C792 672 774 659 769 640 L629 111 L483 642 C478 660 461 673 442 673 C421 673 405 660 400 642 L254 111 L113 640 C108 660 89 673 69 673 C43 673 26 652 26 631 C26 627 27 623 28 619 L194 34 C200 11 220 -6 247 -6 L248 -6 C275 -6 296 11 303 35 L441 538 L578 35 C584 12 605 -6 631 -6 L632 -6 C658 -6 681 11 688 35 L854 619 C855 623 856 627 856 631 L856 631 Z M465 755 C465 760 463 764 460 768 L342 882 C337 887 330 889 324 889 C310 889 298 877 298 864 C298 857 301 851 306 847 L432 739 C436 736 440 734 445 734 C457 734 465 745 465 755 L465 755 Z " />
<glyph glyph-name="wgrave" unicode="&#x1e81;" horiz-adv-x="734" d="M711 453 C711 472 695 489 674 489 C658 489 643 479 638 464 L526 98 L406 461 C400 478 385 489 368 489 C348 489 334 478 328 461 L208 98 L96 464 C91 479 75 489 59 489 C38 489 23 470 23 453 C23 450 24 446 25 443 L158 27 C164 8 181 -6 202 -6 L203 -6 C225 -6 244 8 250 27 L367 388 L484 27 C490 8 508 -6 529 -6 L530 -6 C552 -6 570 8 576 27 L709 443 C710 446 711 450 711 453 L711 453 Z M390 571 C390 576 388 580 385 584 L267 698 C262 703 255 705 249 705 C235 705 223 693 223 680 C223 673 226 667 231 663 L357 555 C361 552 365 550 370 550 C382 550 390 561 390 571 L390 571 Z " />
<glyph glyph-name="Wacute" unicode="&#x1e82;" horiz-adv-x="883" d="M856 631 C856 654 837 672 812 672 C792 672 774 659 769 640 L629 111 L483 642 C478 660 461 673 442 673 C421 673 405 660 400 642 L254 111 L113 640 C108 660 89 673 69 673 C43 673 26 652 26 631 C26 627 27 623 28 619 L194 34 C200 11 220 -6 247 -6 L248 -6 C275 -6 296 11 303 35 L441 538 L578 35 C584 12 605 -6 631 -6 L632 -6 C658 -6 681 11 688 35 L854 619 C855 623 856 627 856 631 L856 631 Z M585 864 C585 878 571 889 559 889 C552 889 546 887 541 882 L423 768 C419 764 418 760 418 755 C418 743 429 734 439 734 C443 734 447 736 451 739 L577 847 C582 851 585 858 585 864 L585 864 Z " />
<glyph glyph-name="wacute" unicode="&#x1e83;" horiz-adv-x="734" d="M711 453 C711 472 695 489 674 489 C658 489 643 479 638 464 L526 98 L406 461 C400 478 385 489 368 489 C348 489 334 478 328 461 L208 98 L96 464 C91 479 75 489 59 489 C38 489 23 470 23 453 C23 450 24 446 25 443 L158 27 C164 8 181 -6 202 -6 L203 -6 C225 -6 244 8 250 27 L367 388 L484 27 C490 8 508 -6 529 -6 L530 -6 C552 -6 570 8 576 27 L709 443 C710 446 711 450 711 453 L711 453 Z M510 680 C510 694 496 705 484 705 C477 705 471 703 466 698 L348 584 C344 580 343 576 343 571 C343 559 354 550 364 550 C368 550 372 552 376 555 L502 663 C507 667 510 674 510 680 L510 680 Z " />
<glyph glyph-name="Wdieresis" unicode="&#x1e84;" horiz-adv-x="883" d="M856 631 C856 654 837 672 812 672 C792 672 774 659 769 640 L629 111 L483 642 C478 660 461 673 442 673 C421 673 405 660 400 642 L254 111 L113 640 C108 660 89 673 69 673 C43 673 26 652 26 631 C26 627 27 623 28 619 L194 34 C200 11 220 -6 247 -6 L248 -6 C275 -6 296 11 303 35 L441 538 L578 35 C584 12 605 -6 631 -6 L632 -6 C658 -6 681 11 688 35 L854 619 C855 623 856 627 856 631 L856 631 Z M384 788 C384 813 363 834 338 834 C312 834 291 813 291 788 C291 762 312 741 338 741 C363 741 384 762 384 788 L384 788 Z M591 788 C591 813 569 834 544 834 C519 834 497 813 497 788 C497 762 519 741 544 741 C569 741 591 762 591 788 L591 788 Z " />
<glyph glyph-name="wdieresis" unicode="&#x1e85;" horiz-adv-x="734" d="M711 453 C711 472 695 489 674 489 C658 489 643 479 638 464 L526 98 L406 461 C400 478 385 489 368 489 C348 489 334 478 328 461 L208 98 L96 464 C91 479 75 489 59 489 C38 489 23 470 23 453 C23 450 24 446 25 443 L158 27 C164 8 181 -6 202 -6 L203 -6 C225 -6 244 8 250 27 L367 388 L484 27 C490 8 508 -6 529 -6 L530 -6 C552 -6 570 8 576 27 L709 443 C710 446 711 450 711 453 L711 453 Z M310 604 C310 629 289 650 264 650 C238 650 217 629 217 604 C217 578 238 557 264 557 C289 557 310 578 310 604 L310 604 Z M517 604 C517 629 495 650 470 650 C445 650 423 629 423 604 C423 578 445 557 470 557 C495 557 517 578 517 604 L517 604 Z " />
<glyph glyph-name="Ygrave" unicode="&#x1ef2;" horiz-adv-x="626" d="M585 633 C585 654 566 672 544 672 C532 672 519 666 512 656 L313 357 L114 656 C106 667 92 673 80 673 C55 673 40 652 40 633 C40 625 43 618 47 612 L272 282 L272 35 C272 12 290 -6 313 -6 C337 -6 355 12 355 35 L355 282 L579 612 C583 618 585 626 585 633 L585 633 Z M336 755 C336 760 334 764 331 768 L213 882 C208 887 201 889 195 889 C181 889 169 877 169 864 C169 857 172 851 177 847 L303 739 C307 736 311 734 316 734 C328 734 336 745 336 755 L336 755 Z " />
<glyph glyph-name="ygrave" unicode="&#x1ef3;" horiz-adv-x="490" d="M472 452 C472 472 455 489 433 489 C418 489 404 480 398 466 L245 87 L91 466 C85 481 71 489 56 489 C34 489 18 471 18 452 C18 448 19 443 21 439 L205 -5 L173 -78 C155 -118 132 -130 102 -129 C94 -129 86 -128 77 -128 C60 -128 44 -142 44 -162 C44 -194 77 -196 103 -196 C165 -196 216 -167 245 -98 L469 439 C471 443 472 448 472 452 L472 452 Z M268 571 C268 576 266 580 263 584 L145 698 C140 703 133 705 127 705 C113 705 101 693 101 680 C101 673 104 667 109 663 L235 555 C239 552 243 550 248 550 C260 550 268 561 268 571 L268 571 Z " />
<glyph glyph-name="endash" unicode="&#x2013;" horiz-adv-x="593" d="M569 243 C569 261 555 275 537 275 L56 275 C38 275 24 261 24 243 C24 223 38 209 56 209 L537 209 C555 209 569 223 569 243 L569 243 Z " />
<glyph glyph-name="emdash" unicode="&#x2014;" horiz-adv-x="833" d="M809 243 C809 261 795 275 777 275 L56 275 C38 275 24 261 24 243 C24 223 38 209 56 209 L777 209 C795 209 809 223 809 243 L809 243 Z " />
<glyph glyph-name="quoteleft" unicode="&#x2018;" horiz-adv-x="230" d="M163 505 C163 535 143 556 115 556 C110 556 103 555 101 554 C104 581 124 611 148 633 C153 638 156 645 156 651 C156 665 142 675 131 675 C126 675 122 673 118 670 C77 636 47 580 47 527 C47 479 77 451 110 451 C140 451 163 476 163 505 L163 505 Z " />
<glyph glyph-name="quoteright" unicode="&#x2019;" horiz-adv-x="230" d="M176 601 C176 649 146 677 113 677 C83 677 60 652 60 623 C60 593 80 572 108 572 C113 572 120 573 122 574 C119 547 99 517 75 495 C70 490 67 483 67 476 C67 462 81 453 92 453 C96 453 101 455 105 458 C146 492 176 548 176 601 L176 601 Z " />
<glyph glyph-name="quotesinglbase" unicode="&#x201a;" horiz-adv-x="230" d="M176 24 C176 72 146 100 113 100 C83 100 60 75 60 46 C60 16 80 -5 108 -5 C113 -5 120 -4 122 -3 C119 -30 99 -60 75 -82 C70 -87 67 -94 67 -101 C67 -115 81 -124 92 -124 C96 -124 101 -122 105 -119 C146 -85 176 -29 176 24 L176 24 Z " />
<glyph glyph-name="quotedblleft" unicode="&#x201c;" horiz-adv-x="390" d="M329 505 C329 535 309 556 281 556 C276 556 269 555 267 554 C270 581 290 611 314 633 C319 638 322 645 322 651 C322 665 308 675 297 675 C292 675 288 673 284 670 C243 636 213 580 213 527 C213 479 243 451 276 451 C306 451 329 476 329 505 L329 505 Z M169 505 C169 535 149 556 121 556 C116 556 109 555 107 554 C110 581 130 611 154 633 C159 638 162 645 162 651 C162 665 148 675 137 675 C132 675 128 673 124 670 C83 636 53 580 53 527 C53 479 83 451 116 451 C146 451 169 476 169 505 L169 505 Z " />
<glyph glyph-name="quotedblright" unicode="&#x201d;" horiz-adv-x="390" d="M336 601 C336 649 306 677 273 677 C243 677 220 652 220 623 C220 593 240 572 268 572 C273 572 280 573 282 574 C279 547 259 517 235 495 C230 490 227 483 227 476 C227 462 241 453 252 453 C256 453 261 455 265 458 C306 492 336 548 336 601 L336 601 Z M176 601 C176 649 146 677 113 677 C83 677 60 652 60 623 C60 593 80 572 108 572 C113 572 120 573 122 574 C119 547 99 517 75 495 C70 490 67 483 67 476 C67 462 81 453 92 453 C96 453 101 455 105 458 C146 492 176 548 176 601 L176 601 Z " />
<glyph glyph-name="quotedblbase" unicode="&#x201e;" horiz-adv-x="390" d="M176 24 C176 72 146 100 113 100 C83 100 60 75 60 46 C60 16 80 -5 108 -5 C113 -5 120 -4 122 -3 C119 -30 99 -60 75 -82 C70 -87 67 -94 67 -101 C67 -115 81 -124 92 -124 C96 -124 101 -122 105 -119 C146 -85 176 -29 176 24 L176 24 Z M336 24 C336 72 306 100 273 100 C243 100 220 75 220 46 C220 16 240 -5 268 -5 C273 -5 280 -4 282 -3 C279 -30 259 -60 235 -82 C230 -87 227 -94 227 -101 C227 -115 241 -124 252 -124 C256 -124 261 -122 265 -119 C306 -85 336 -29 336 24 L336 24 Z " />
<glyph glyph-name="dagger" unicode="&#x2020;" horiz-adv-x="263" d="M246 554 C246 566 237 573 226 573 L151 571 L154 660 C154 672 145 683 132 683 C117 683 107 672 108 660 L112 571 L37 573 C26 573 17 566 17 554 C17 539 26 532 37 532 L112 535 L108 344 C108 332 117 321 130 321 C144 321 155 332 155 344 L151 535 L226 532 C237 532 246 539 246 554 L246 554 Z " />
<glyph glyph-name="daggerdbl" unicode="&#x2021;" horiz-adv-x="263" d="M246 304 C246 318 237 325 226 325 L151 322 L151 535 L226 532 C237 532 246 539 246 552 C246 566 237 573 226 573 L151 571 L154 660 C154 672 145 683 132 683 C117 683 108 672 108 660 L111 571 L37 573 C26 573 17 566 17 554 C17 539 26 532 37 532 L111 535 L111 322 L37 325 C26 325 17 318 17 306 C17 291 26 284 37 284 L111 286 L108 197 C108 185 117 174 130 174 C145 174 154 185 154 197 L151 286 L226 284 C237 284 246 291 246 304 L246 304 Z " />
<glyph glyph-name="bullet" unicode="&#x2022;" horiz-adv-x="358" d="M288 242 C288 301 239 350 180 350 C121 350 72 301 72 242 C72 184 121 135 180 135 C239 135 288 184 288 242 L288 242 Z " />
<glyph glyph-name="ellipsis" unicode="&#x2026;" horiz-adv-x="690" d="M169 45 C169 75 144 100 114 100 C84 100 60 75 60 45 C60 16 84 -10 114 -10 C144 -10 169 16 169 45 L169 45 Z M400 45 C400 75 374 100 344 100 C314 100 290 75 290 45 C290 16 314 -10 344 -10 C374 -10 400 16 400 45 L400 45 Z M630 45 C630 75 605 100 575 100 C545 100 520 75 520 45 C520 16 545 -10 575 -10 C605 -10 630 16 630 45 L630 45 Z " />
<glyph glyph-name="perthousand" unicode="&#x2030;" horiz-adv-x="1083" d="M191 677 C96 677 31 605 31 511 C31 418 96 348 191 348 C287 348 353 418 353 511 C353 605 287 677 191 677 L191 677 Z M539 317 C444 317 379 245 379 151 C379 58 444 -12 539 -12 C634 -12 700 58 700 151 C700 245 634 317 539 317 L539 317 Z M539 35 C479 35 438 85 438 151 C438 219 479 270 539 270 C599 270 641 219 641 151 C641 85 599 35 539 35 L539 35 Z M891 35 C831 35 791 85 791 151 C791 219 831 270 891 270 C951 270 993 219 993 151 C993 85 951 35 891 35 L891 35 Z M891 317 C796 317 731 245 731 151 C731 58 796 -12 891 -12 C986 -12 1052 58 1052 151 C1052 245 986 317 891 317 L891 317 Z M191 395 C132 395 91 445 91 511 C91 579 132 630 191 630 C251 630 293 579 293 511 C293 445 251 395 191 395 L191 395 Z M591 638 C593 641 594 645 594 649 C594 661 584 673 571 673 C564 673 556 669 552 663 L147 28 C144 24 143 20 143 16 C143 3 155 -7 167 -7 C174 -7 181 -3 185 3 L591 638 Z " />
<glyph glyph-name="guilsinglleft" unicode="&#x2039;" horiz-adv-x="295" d="M237 85 C237 91 234 97 230 102 L105 243 L230 381 C235 386 237 392 237 399 C237 415 221 426 208 426 C200 426 193 423 188 417 L70 287 C59 275 53 258 53 242 C53 226 59 210 70 198 L188 65 C193 59 200 56 208 56 C224 56 237 71 237 85 L237 85 Z " />
<glyph glyph-name="guilsinglright" unicode="&#x203a;" horiz-adv-x="295" d="M242 242 C242 258 236 274 225 287 L107 417 C101 423 94 426 86 426 C69 426 58 411 58 398 C58 392 60 386 65 381 L190 243 L65 102 C60 97 58 90 58 84 C58 68 73 56 87 56 C95 56 102 59 107 65 L225 198 C236 211 242 226 242 242 L242 242 Z " />
<glyph glyph-name="fraction" unicode="&#x2044;" horiz-adv-x="138" d="M297 653 C297 664 288 677 273 677 C266 677 258 673 254 667 L-155 26 C-158 22 -159 19 -159 15 C-159 2 -148 -9 -135 -9 C-128 -9 -121 -5 -116 1 L293 641 C295 644 297 649 297 653 L297 653 Z " />
<glyph glyph-name="Euro" unicode="&#x20ac;" horiz-adv-x="695" d="M415 678 C255 678 124 581 84 431 L50 431 C36 431 25 420 25 406 C25 390 36 379 50 379 L74 379 C73 364 72 348 72 333 C72 318 73 303 74 289 L50 289 C36 289 25 278 25 264 C25 248 36 237 50 237 L84 237 C123 85 254 -12 415 -12 C515 -12 586 28 638 82 C645 90 649 100 649 110 C649 132 632 151 610 151 C600 151 589 146 582 138 C540 89 478 62 415 62 C301 62 208 131 173 237 L457 237 C471 237 482 248 482 262 C482 278 471 289 457 289 L161 289 C159 303 158 318 158 333 C158 349 159 364 161 379 L457 379 C471 379 482 390 482 404 C482 420 471 431 457 431 L173 431 C209 536 301 604 415 604 C477 604 543 574 582 527 C589 518 600 514 610 514 C632 514 649 533 649 554 C649 565 645 575 638 583 C587 638 515 678 415 678 L415 678 Z " />
<glyph glyph-name="trademark" unicode="&#x2122;" horiz-adv-x="454" d="M419 454 L419 647 C419 661 407 671 393 671 C383 671 375 665 372 657 L312 507 L252 657 C248 666 240 671 230 671 C215 671 205 658 205 647 L205 454 C205 447 211 441 218 441 C227 441 233 447 233 454 L233 629 L303 462 C305 457 309 455 312 455 C316 455 319 457 321 461 L391 629 L391 454 C391 447 397 441 404 441 C413 441 419 447 419 454 L419 454 Z M175 655 C175 661 169 667 163 667 L23 667 C17 667 11 661 11 655 C11 647 17 641 23 641 L79 641 L79 454 C79 447 85 441 92 441 C101 441 107 447 107 454 L107 641 L163 641 C169 641 175 647 175 655 L175 655 Z " />
<glyph glyph-name="partialdiff" unicode="&#x2202;" horiz-adv-x="572" d="M525 249 C525 437 388 596 235 677 C230 679 225 680 220 680 C201 680 185 666 185 646 C185 635 191 625 201 619 C309 560 386 477 422 397 C381 457 329 479 267 479 C137 479 47 370 47 234 C47 98 139 -12 286 -12 C433 -12 525 98 525 249 L525 249 Z M446 234 C446 138 389 55 286 55 C183 55 125 138 125 234 C125 328 183 412 286 412 C389 412 446 328 446 234 L446 234 Z " />
<glyph glyph-name="Delta" unicode="&#x2206;" horiz-adv-x="658" d="M630 41 C630 46 629 51 627 56 L396 628 C385 656 358 673 330 673 C299 673 272 655 261 628 L31 56 C29 51 28 46 28 41 C28 20 45 0 69 0 L589 0 C613 0 630 20 630 41 L630 41 Z M530 74 L128 74 L329 581 L530 74 Z " />
<glyph glyph-name="product" unicode="&#x220f;" horiz-adv-x="707" d="M681 629 C681 651 665 667 645 667 L62 667 C42 667 26 651 26 631 C26 609 42 593 62 593 L141 593 L141 -56 C141 -78 159 -96 182 -96 C206 -96 224 -78 224 -56 L224 593 L483 593 L483 -56 C483 -78 501 -96 524 -96 C548 -96 566 -78 566 -56 L566 593 L645 593 C665 593 681 609 681 629 L681 629 Z " />
<glyph glyph-name="summation" unicode="&#x2211;" horiz-adv-x="575" d="M527 -54 C527 -32 511 -16 491 -16 L154 -16 L350 250 C360 264 366 280 366 297 C366 314 360 331 349 345 L157 593 L491 593 C511 593 527 609 527 629 C527 651 511 667 491 667 L97 667 C70 667 48 643 48 617 C48 607 52 597 58 589 L285 297 L57 -12 C51 -21 48 -30 48 -40 C48 -70 74 -90 96 -90 L491 -90 C511 -90 527 -74 527 -54 L527 -54 Z " />
<glyph glyph-name="minus" unicode="&#x2212;" horiz-adv-x="511" d="M482 338 C482 352 471 363 457 363 L54 363 C40 363 29 352 29 338 C29 322 40 311 54 311 L457 311 C471 311 482 322 482 338 L482 338 Z " />
<glyph glyph-name="radical" unicode="&#x221a;" horiz-adv-x="725" d="M683 647 C683 661 671 674 655 674 C644 674 634 667 630 657 L399 78 L294 339 C284 363 262 378 237 378 C230 378 223 377 216 374 L84 323 C74 319 67 309 67 299 C67 282 81 271 93 271 C96 271 99 272 102 273 L239 327 L363 17 C369 3 381 -6 397 -6 C414 -6 427 3 433 17 L681 637 C682 640 683 644 683 647 L683 647 Z " />
<glyph glyph-name="infinity" unicode="&#x221e;" horiz-adv-x="656" d="M627 335 C627 415 581 500 473 500 C405 500 355 449 327 391 C301 449 251 500 183 500 C75 500 29 416 29 335 C29 256 75 170 183 170 C251 170 300 221 327 279 C355 221 405 170 473 170 C581 170 627 256 627 335 L627 335 Z M304 335 C283 280 245 222 189 222 C124 222 85 271 85 335 C85 400 124 448 189 448 C245 448 283 390 304 335 L304 335 Z M571 335 C571 270 533 223 468 223 C412 223 373 280 353 335 C373 390 412 448 468 448 C533 448 571 400 571 335 L571 335 Z " />
<glyph glyph-name="integral" unicode="&#x222b;" horiz-adv-x="348" d="M337 740 C337 756 325 768 311 768 L269 768 C206 768 144 716 144 633 L144 35 C144 -11 114 -45 78 -45 L38 -45 C23 -45 11 -57 11 -72 C11 -88 23 -100 38 -100 L78 -100 C142 -100 203 -48 203 34 L203 633 C203 680 233 713 269 713 L311 713 C325 713 337 725 337 740 L337 740 Z " />
<glyph glyph-name="approxequal" unicode="&#x2248;" horiz-adv-x="499" d="M478 249 C478 282 389 295 359 295 C248 295 235 236 139 236 C111 236 82 242 55 254 C51 256 48 256 44 256 C32 256 20 245 20 230 C20 197 110 184 139 184 C249 184 262 242 359 242 C387 242 416 237 442 225 C445 223 449 223 453 223 C467 223 478 235 478 249 L478 249 Z M478 438 C478 471 389 484 359 484 C248 484 235 425 139 425 C111 425 82 431 55 443 C51 445 48 445 44 445 C32 445 20 434 20 419 C20 386 110 373 139 373 C249 373 262 431 359 431 C387 431 416 426 442 414 C445 412 449 412 453 412 C467 412 478 424 478 438 L478 438 Z " />
<glyph glyph-name="notequal" unicode="&#x2260;" horiz-adv-x="499" d="M476 236 C476 252 465 263 451 263 L232 263 L322 404 L451 404 C464 404 476 416 476 430 C476 445 464 457 451 457 L355 457 L414 548 C416 552 418 556 418 560 C418 573 406 583 393 583 C385 583 379 580 375 574 L301 457 L49 457 C35 457 23 445 23 432 C23 416 35 404 49 404 L267 404 L177 263 L48 263 C34 263 23 252 23 238 C23 222 34 211 48 211 L144 211 L86 118 C83 114 82 110 82 106 C82 93 94 83 106 83 C113 83 120 87 124 93 L198 211 L451 211 C465 211 476 222 476 236 L476 236 Z " />
<glyph glyph-name="lessequal" unicode="&#x2264;" horiz-adv-x="499" d="M476 142 C476 151 470 162 461 166 L93 343 L460 521 C470 526 476 535 476 546 C476 563 460 574 447 574 C443 574 439 574 435 572 L43 377 C31 371 23 358 23 345 C23 329 31 316 43 310 L436 116 C440 114 443 113 447 113 C459 113 476 124 476 142 L476 142 Z M476 27 C476 41 465 52 451 52 L48 52 C34 52 23 41 23 27 C23 11 34 0 48 0 L451 0 C465 0 476 11 476 27 L476 27 Z " />
<glyph glyph-name="greaterequal" unicode="&#x2265;" horiz-adv-x="499" d="M475 345 C475 358 467 371 455 377 L63 572 C59 574 55 574 51 574 C36 574 22 562 22 545 C22 535 28 526 38 521 L405 343 L37 166 C28 162 22 151 22 142 C22 125 38 113 50 113 C54 113 58 114 62 116 L455 310 C467 316 475 329 475 345 L475 345 Z M475 27 C475 41 464 52 450 52 L47 52 C33 52 22 41 22 27 C22 11 33 0 47 0 L450 0 C464 0 475 11 475 27 L475 27 Z " />
<glyph glyph-name="lozenge" unicode="&#x25ca;" horiz-adv-x="375" d="M342 334 C342 353 338 371 330 388 L202 658 C200 663 194 667 189 667 C181 667 175 663 173 658 L45 388 C37 371 33 353 33 334 C33 315 37 296 45 280 L173 9 C175 4 181 0 187 0 C194 0 200 4 202 9 L330 280 C338 296 342 315 342 334 L342 334 Z M320 334 L188 41 L55 334 L187 626 L320 334 Z " />
<glyph glyph-name="commaaccent" unicode="&#xf6c3;" horiz-adv-x="230" d="M167 -138 C167 -95 142 -71 114 -71 C88 -71 68 -92 68 -118 C68 -143 86 -162 110 -162 C113 -162 120 -161 121 -160 C119 -184 101 -213 79 -234 C75 -237 73 -241 73 -246 C73 -251 76 -256 80 -259 L81 -260 C85 -264 90 -265 96 -265 C101 -265 107 -263 111 -259 C143 -229 167 -185 167 -138 L167 -138 Z " />
<glyph glyph-name="uniF8FF" unicode="&#xf8ff;" horiz-adv-x="667" d="M625 154 C625 215 575 265 514 265 L441 265 L441 402 L514 402 C575 402 625 453 625 514 C625 575 575 625 514 625 C453 625 402 575 402 514 L402 439 L265 439 L265 514 C265 575 215 625 154 625 C93 625 42 575 42 514 C42 453 93 402 154 402 L226 402 L226 265 L153 265 C92 265 42 215 42 154 C42 93 92 42 153 42 C214 42 265 93 265 154 L265 228 L402 228 L402 154 C402 93 453 42 514 42 C575 42 625 93 625 154 L625 154 Z M586 514 C586 473 555 439 514 439 L441 439 L441 514 C441 555 473 588 514 588 C555 588 586 555 586 514 L586 514 Z M402 265 L265 265 L265 402 L402 402 L402 265 Z M586 154 C586 113 555 79 514 79 C473 79 441 113 441 154 L441 228 L514 228 C556 228 586 195 586 154 L586 154 Z M226 439 L154 439 C113 439 80 473 80 514 C80 555 113 588 154 588 C195 588 226 555 226 514 L226 439 Z M226 154 C226 113 194 79 153 79 C112 79 80 113 80 154 C80 195 111 228 152 228 L226 228 L226 154 Z " />
<glyph glyph-name="fi" unicode="&#xfb01;" horiz-adv-x="509" d="M395 653 C368 653 345 630 345 602 C345 574 368 552 395 552 C423 552 446 574 446 602 C446 630 423 653 395 653 L395 653 Z M433 31 L433 453 C433 472 416 489 397 489 C375 489 358 472 358 453 L358 31 C358 11 375 -6 395 -6 C416 -6 433 11 433 31 L433 31 Z M307 643 C307 674 264 677 236 677 C152 677 96 620 96 520 L96 483 L42 483 C22 483 10 468 10 449 C10 431 24 417 42 417 L96 417 L96 31 C96 9 114 -6 135 -6 C154 -6 171 11 171 31 L171 417 L243 417 C262 417 275 432 275 451 C275 469 261 483 243 483 L171 483 L171 520 C171 581 198 615 247 615 C261 615 272 610 280 610 C298 610 307 624 307 643 L307 643 Z " />
<glyph glyph-name="fl" unicode="&#xfb02;" horiz-adv-x="509" d="M433 31 L433 637 C433 656 416 673 397 673 C375 673 358 656 358 637 L358 31 C358 11 375 -6 395 -6 C416 -6 433 11 433 31 L433 31 Z M307 643 C307 674 264 677 236 677 C152 677 96 620 96 520 L96 483 L42 483 C22 483 10 468 10 449 C10 431 24 417 42 417 L96 417 L96 31 C96 9 114 -6 135 -6 C154 -6 171 11 171 31 L171 417 L243 417 C262 417 275 432 275 451 C275 469 261 483 243 483 L171 483 L171 520 C171 581 198 615 247 615 C261 615 272 610 280 610 C298 610 307 624 307 643 L307 643 Z " />
</font>
</svg>
