<?xml version="1.0" encoding="UTF-8"?>
<svg xmlns="http://www.w3.org/2000/svg" xmlns:xlink="http://www.w3.org/1999/xlink" version="1.2" >
<font id="Proxima Nova Soft Bold">
<font-face  font-family="Proxima Nova Soft" units-per-em="1000" ascent="775" descent="-225" font-style="normal" font-weight="700" font-stretch="normal" cap-height="673" x-height="489" underline-position="-123" underline-thickness="20" />
<missing-glyph  horiz-adv-x="483" d="M417 -52 L417 714 C417 734 399 752 379 752 L104 752 C84 752 66 734 66 714 L66 -52 C66 -72 84 -90 104 -90 L379 -90 C399 -90 417 -72 417 -52 L417 -52 Z M385 -60 L97 -60 L97 722 L385 722 L385 -60 Z " />
<glyph glyph-name="NULL" d="" />
<glyph glyph-name="&amp;#x0;" d="" />
<glyph glyph-name="&amp;#xd;" unicode="&#xd;" d="" />
<glyph glyph-name="space" unicode="&#x20;" horiz-adv-x="256" d="" />
<glyph glyph-name="exclam" unicode="&#x21;" horiz-adv-x="256" d="M201 600 C201 641 170 673 129 673 C86 673 54 641 54 600 C54 580 65 377 70 266 C71 235 96 211 127 211 C160 211 185 235 186 266 C191 377 201 580 201 600 L201 600 Z M209 70 C209 114 172 151 128 151 C84 151 48 114 48 70 C48 27 84 -10 128 -10 C172 -10 209 27 209 70 L209 70 Z " />
<glyph glyph-name="quotedbl" unicode="&#x22;" horiz-adv-x="406" d="M182 608 C182 646 150 677 113 677 C75 677 44 646 44 608 C44 594 69 455 80 396 C83 380 97 369 112 369 C129 369 143 380 146 396 C157 455 182 594 182 608 L182 608 Z M362 608 C362 646 332 677 294 677 C256 677 225 646 225 608 C225 594 250 454 261 395 C264 380 277 369 292 369 C310 369 323 380 326 395 C337 454 362 594 362 608 L362 608 Z " />
<glyph glyph-name="numbersign" unicode="&#x23;" horiz-adv-x="618" d="M589 455 C589 478 571 496 550 496 L504 496 L545 615 C546 619 547 624 547 629 C547 652 529 672 502 672 C483 672 465 660 459 642 L411 496 L317 496 L356 616 C357 620 358 624 358 629 C358 651 340 672 313 672 C294 672 277 660 271 643 L223 496 L149 496 C128 496 110 478 110 457 C110 434 128 416 149 416 L195 416 L141 250 L70 250 C48 250 30 232 30 211 C30 187 48 169 70 169 L113 169 L73 50 C71 45 71 41 71 36 C71 14 89 -8 115 -7 C134 -7 152 5 158 23 L207 169 L302 169 L261 51 C259 46 259 41 259 37 C259 13 277 -6 304 -6 C323 -6 341 5 347 24 L395 169 L472 169 C493 169 511 187 511 209 C511 232 493 250 472 250 L422 250 L477 416 L550 416 C571 416 589 434 589 455 L589 455 Z M383 416 L328 250 L235 250 L289 416 L383 416 Z " />
<glyph glyph-name="dollar" unicode="&#x24;" horiz-adv-x="614" d="M579 202 C579 338 464 378 361 404 L361 545 C392 538 425 515 454 507 C461 505 467 504 473 504 C508 504 544 531 544 569 C544 580 540 591 534 600 C505 643 420 666 361 673 L361 728 C361 753 340 774 315 774 C287 774 266 753 266 728 L266 675 C131 661 51 575 51 474 C51 338 163 300 266 274 L266 116 C222 124 184 141 152 163 C140 171 127 175 113 175 C78 175 47 146 47 109 C47 97 51 87 57 77 C88 28 186 -3 266 -10 L266 -60 C266 -85 287 -106 315 -106 C340 -106 361 -85 361 -60 L361 -9 C507 6 579 91 579 202 L579 202 Z M266 429 C224 441 196 457 196 486 C196 520 221 545 266 551 L266 429 Z M435 186 C435 155 410 126 361 116 L361 250 C404 236 435 219 435 186 L435 186 Z " />
<glyph glyph-name="percent" unicode="&#x25;" horiz-adv-x="757" d="M365 509 C365 603 298 677 195 677 C93 677 26 603 26 509 C26 416 93 345 195 345 C298 345 365 416 365 509 L365 509 Z M605 625 C608 630 610 636 610 641 C610 658 594 673 577 673 C567 673 557 668 551 659 L157 42 C154 37 152 31 152 25 C152 8 167 -6 185 -6 C195 -6 205 -1 211 8 L605 625 Z M732 153 C732 247 664 321 562 321 C460 321 393 247 393 153 C393 60 460 -12 562 -12 C664 -12 732 60 732 153 L732 153 Z M116 509 C116 565 150 598 195 598 C241 598 274 565 274 509 C274 457 241 423 195 423 C150 423 116 457 116 509 L116 509 Z M483 153 C483 208 516 242 562 242 C608 242 642 208 642 153 C642 99 608 66 562 66 C516 66 483 99 483 153 L483 153 Z " />
<glyph glyph-name="ampersand" unicode="&#x26;" horiz-adv-x="646" d="M509 134 C530 162 564 209 579 244 C584 256 587 266 587 274 C587 302 563 328 532 328 C511 328 491 315 483 296 C471 268 456 239 439 213 C404 255 369 293 325 353 C407 391 489 434 489 536 C489 625 408 677 314 677 C203 677 123 607 123 517 C123 472 141 422 167 373 C91 335 24 282 24 181 C24 52 122 -12 244 -12 C315 -12 376 12 426 50 C441 33 473 -7 507 -7 C540 -7 564 23 564 52 C564 87 531 110 509 134 L509 134 Z M159 193 C159 239 182 270 217 295 C260 234 283 204 358 122 C329 101 296 88 262 88 C207 88 159 128 159 193 L159 193 Z M320 585 C353 585 379 564 379 529 C379 480 335 451 279 424 C262 456 250 487 250 514 C250 555 281 585 320 585 L320 585 Z " />
<glyph glyph-name="quotesingle" unicode="&#x27;" horiz-adv-x="225" d="M182 608 C182 646 150 677 113 677 C75 677 44 646 44 608 C44 594 69 455 80 396 C83 380 97 369 112 369 C129 369 143 380 146 396 C157 455 182 594 182 608 L182 608 Z " />
<glyph glyph-name="parenleft" unicode="&#x28;" horiz-adv-x="297" d="M266 -126 C266 -117 264 -108 260 -99 C207 6 178 111 178 243 C178 375 207 481 260 588 C264 596 266 605 266 614 C266 642 244 671 211 671 C197 671 181 665 172 653 C93 543 41 385 41 243 C41 100 92 -57 172 -166 C181 -179 196 -185 211 -185 C243 -185 266 -156 266 -126 L266 -126 Z " />
<glyph glyph-name="parenright" unicode="&#x29;" horiz-adv-x="297" d="M257 243 C257 386 204 543 125 653 C116 665 100 671 85 671 C53 671 31 642 31 614 C31 605 33 596 37 588 C90 481 119 375 119 243 C119 111 90 6 37 -99 C33 -108 31 -117 31 -126 C31 -156 54 -185 86 -185 C101 -185 116 -179 125 -166 C205 -57 257 100 257 243 L257 243 Z " />
<glyph glyph-name="asterisk" unicode="&#x2a;" horiz-adv-x="351" d="M177 683 C158 683 144 669 145 653 L149 567 L77 613 C72 616 67 617 62 617 C46 617 31 604 31 585 C31 575 37 565 47 560 L122 521 L47 482 C37 477 31 466 31 456 C31 438 48 425 61 425 C66 425 72 427 76 430 L149 476 L145 390 C144 374 158 360 175 360 C192 360 207 374 206 390 L202 476 L273 430 C278 427 283 426 288 426 C305 426 319 440 319 457 C319 467 314 477 304 482 L229 521 L304 560 C314 565 319 575 319 586 C319 606 302 617 289 617 C283 617 278 615 273 612 L202 567 L206 653 C207 669 192 683 177 683 L177 683 Z " />
<glyph glyph-name="plus" unicode="&#x2b;" horiz-adv-x="504" d="M481 339 C481 360 464 377 443 377 L296 377 L296 536 C296 559 277 578 254 578 C228 578 209 559 209 536 L209 377 L62 377 C40 377 23 360 23 339 C23 315 40 298 62 298 L209 298 L209 132 C209 108 228 89 252 89 C277 89 296 108 296 132 L296 298 L443 298 C464 298 481 315 481 339 L481 339 Z " />
<glyph glyph-name="comma" unicode="&#x2c;" horiz-adv-x="256" d="M215 49 C215 114 172 151 125 151 C83 151 47 115 47 71 C47 28 77 -1 115 -1 C122 -1 131 1 134 2 C128 -24 106 -55 80 -76 C73 -82 70 -90 70 -98 C70 -118 91 -130 108 -130 C118 -130 127 -127 134 -120 C184 -75 215 -15 215 49 L215 49 Z " />
<glyph glyph-name="hyphen" unicode="&#x2d;" horiz-adv-x="300" d="M276 243 C276 272 252 296 223 296 L77 296 C48 296 24 272 24 243 C24 212 48 188 77 188 L223 188 C252 188 276 212 276 243 L276 243 Z " />
<glyph glyph-name="period" unicode="&#x2e;" horiz-adv-x="256" d="M209 70 C209 114 172 151 128 151 C84 151 47 114 47 70 C47 26 84 -11 128 -11 C172 -11 209 26 209 70 L209 70 Z " />
<glyph glyph-name="slash" unicode="&#x2f;" horiz-adv-x="329" d="M314 650 C314 673 296 693 271 693 C251 693 234 681 228 663 L17 30 C15 25 14 21 14 16 C14 -7 33 -26 58 -26 C77 -26 95 -15 101 4 L312 637 C313 641 314 646 314 650 L314 650 Z " />
<glyph glyph-name="zero" unicode="0" horiz-adv-x="620" d="M586 333 C586 505 500 677 310 677 C119 677 34 505 34 333 C34 161 119 -12 310 -12 C500 -12 586 161 586 333 L586 333 Z M441 333 C441 210 405 114 310 114 C214 114 178 210 178 333 C178 456 214 551 310 551 C405 551 441 456 441 333 L441 333 Z " />
<glyph glyph-name="one" unicode="1" horiz-adv-x="411" d="M345 64 L345 591 C345 636 307 672 262 672 C239 672 217 663 202 648 L48 492 C36 480 30 465 30 450 C30 417 58 391 89 391 C103 391 117 396 128 407 L203 484 L203 64 C203 26 235 -6 273 -6 C313 -6 345 26 345 64 L345 64 Z " />
<glyph glyph-name="two" unicode="2" horiz-adv-x="600" d="M555 64 C555 97 527 125 494 125 L277 125 C450 251 544 350 544 464 C544 597 431 677 289 677 C205 677 93 641 61 590 C55 581 52 571 52 561 C52 525 81 497 114 497 C129 497 142 501 155 510 C193 536 239 551 292 551 C347 551 400 522 400 464 C400 386 320 313 71 129 C52 115 41 92 41 69 C41 29 73 0 108 0 L494 0 C527 0 555 28 555 64 L555 64 Z " />
<glyph glyph-name="three" unicode="3" horiz-adv-x="587" d="M546 184 C546 284 458 337 390 344 C464 357 536 412 536 496 C536 607 440 677 284 677 C192 677 120 650 65 606 C51 595 44 579 44 563 C44 528 75 503 106 503 C118 503 130 506 140 513 C179 538 223 551 269 551 C339 551 393 525 393 472 C393 417 333 397 246 401 C207 401 181 374 181 339 C181 294 218 269 270 276 C363 276 404 252 404 199 C404 149 359 114 278 114 C232 114 179 130 135 156 C124 163 112 166 100 166 C67 166 35 139 35 103 C35 93 38 84 43 76 C74 24 187 -12 283 -12 C443 -12 546 69 546 184 L546 184 Z " />
<glyph glyph-name="four" unicode="4" horiz-adv-x="597" d="M578 200 C578 235 550 263 517 263 L486 263 L486 593 C486 655 426 683 365 673 C322 673 279 650 256 614 L33 262 C24 248 20 232 20 216 C20 171 53 138 93 138 L344 138 L344 64 C344 26 376 -6 414 -6 C454 -6 486 26 486 64 L486 138 L517 138 C550 138 578 166 578 200 L578 200 Z M344 263 L164 263 L344 541 L344 263 Z " />
<glyph glyph-name="five" unicode="5" horiz-adv-x="608" d="M573 219 C573 354 472 435 359 435 C298 435 244 411 212 379 L212 542 L473 542 C506 542 534 570 534 604 C534 639 506 667 473 667 L150 667 C106 667 70 631 70 587 L70 331 C70 292 98 263 142 263 C162 263 181 269 197 280 C233 304 268 312 309 312 C385 312 429 272 429 213 C429 159 384 114 305 114 C257 114 211 127 172 151 C160 158 147 162 135 162 C100 162 67 135 67 98 C67 88 70 78 75 69 C106 17 219 -12 306 -12 C467 -12 573 77 573 219 L573 219 Z " />
<glyph glyph-name="six" unicode="6" horiz-adv-x="608" d="M577 217 C577 359 470 434 350 434 C277 434 210 393 179 348 C178 353 178 357 178 362 C178 468 247 551 345 551 C379 551 407 545 432 532 C441 527 451 525 461 525 C492 525 526 549 526 587 C526 597 523 606 519 614 C494 658 410 677 345 677 C148 677 34 534 34 332 C34 144 119 -12 322 -12 C474 -12 577 87 577 217 L577 217 Z M433 212 C433 165 391 114 314 114 C221 114 185 185 179 249 C211 289 259 312 309 312 C373 312 433 282 433 212 L433 212 Z " />
<glyph glyph-name="seven" unicode="7" horiz-adv-x="545" d="M531 595 C531 637 497 667 462 667 L80 667 C46 667 18 639 18 606 C18 570 46 542 80 542 L360 542 L161 91 C157 82 155 73 155 64 C155 28 184 -6 226 -6 C255 -6 282 11 293 37 L525 567 C529 575 531 585 531 595 L531 595 Z " />
<glyph glyph-name="eight" unicode="8" horiz-adv-x="606" d="M571 173 C571 254 507 316 427 344 C501 370 560 418 560 501 C560 626 426 677 303 677 C179 677 46 626 46 501 C46 418 104 370 178 344 C98 316 35 254 35 173 C35 48 163 -12 303 -12 C443 -12 571 49 571 173 L571 173 Z M415 479 C415 429 344 406 303 400 C262 406 190 429 190 479 C190 527 237 555 303 555 C368 555 415 527 415 479 L415 479 Z M427 191 C427 142 371 110 303 110 C233 110 179 142 179 191 C179 247 261 274 303 280 C344 274 427 247 427 191 L427 191 Z " />
<glyph glyph-name="nine" unicode="9" horiz-adv-x="608" d="M573 334 C573 522 488 678 285 678 C133 678 30 579 30 449 C30 307 137 232 257 232 C330 232 397 273 428 318 C429 313 429 309 429 304 C429 198 360 115 262 115 C228 115 200 121 175 134 C166 139 156 141 146 141 C115 141 80 117 80 79 C80 69 83 60 88 51 C113 8 197 -11 262 -11 C459 -11 573 132 573 334 L573 334 Z M428 417 C396 377 348 354 298 354 C234 354 174 384 174 454 C174 501 216 552 293 552 C386 552 422 481 428 417 L428 417 Z " />
<glyph glyph-name="colon" unicode="&#x3a;" horiz-adv-x="251" d="M209 409 C209 453 172 490 128 490 C84 490 47 453 47 409 C47 365 84 328 128 328 C172 328 209 365 209 409 L209 409 Z M209 70 C209 114 172 151 128 151 C84 151 47 114 47 70 C47 26 84 -11 128 -11 C172 -11 209 26 209 70 L209 70 Z " />
<glyph glyph-name="semicolon" unicode="&#x3b;" horiz-adv-x="256" d="M209 409 C209 453 172 490 128 490 C84 490 47 453 47 409 C47 366 84 328 128 328 C172 328 209 366 209 409 L209 409 Z M215 49 C215 114 172 151 125 151 C83 151 47 115 47 71 C47 28 77 -1 115 -1 C122 -1 131 1 134 2 C128 -24 106 -55 80 -76 C73 -82 70 -90 70 -98 C70 -118 91 -130 108 -130 C118 -130 127 -127 134 -120 C184 -75 215 -15 215 49 L215 49 Z " />
<glyph glyph-name="less" unicode="&#x3c;" horiz-adv-x="504" d="M480 153 C480 170 471 185 455 192 L120 334 L455 477 C471 484 480 500 480 516 C480 542 459 559 438 559 C432 559 427 558 422 556 L61 394 C38 384 23 360 23 336 C23 309 38 285 61 275 L422 114 C427 112 432 111 438 111 C458 111 480 127 480 153 L480 153 Z " />
<glyph glyph-name="equal" unicode="&#x3d;" horiz-adv-x="504" d="M481 241 C481 262 464 279 443 279 L61 279 C40 279 23 262 23 241 C23 218 40 201 61 201 L443 201 C464 201 481 218 481 241 L481 241 Z M481 429 C481 450 463 468 442 468 L62 468 C41 468 23 450 23 429 C23 406 41 388 62 388 L442 388 C463 388 481 406 481 429 L481 429 Z " />
<glyph glyph-name="greater" unicode="&#x3e;" horiz-adv-x="504" d="M481 336 C481 360 466 384 443 394 L82 556 C77 558 71 559 66 559 C44 559 22 542 23 516 C23 500 32 484 49 477 L384 334 L49 192 C33 185 24 170 24 153 C24 128 45 111 66 111 C71 111 77 112 82 114 L443 275 C466 285 481 309 481 336 L481 336 Z " />
<glyph glyph-name="question" unicode="&#x3f;" horiz-adv-x="456" d="M436 519 C436 612 357 677 228 677 C164 677 63 651 36 598 C32 590 30 581 30 571 C30 535 57 513 89 513 C104 513 119 517 131 525 C155 541 183 551 213 551 C268 551 291 525 291 494 C291 425 145 411 145 292 C145 231 178 199 216 199 C253 199 272 227 272 252 C272 262 269 266 269 279 C269 362 436 373 436 519 L436 519 Z M307 70 C307 114 270 151 226 151 C182 151 145 114 145 70 C145 26 182 -11 226 -11 C270 -11 307 26 307 70 L307 70 Z " />
<glyph glyph-name="at" unicode="&#x40;" horiz-adv-x="783" d="M747 332 C747 498 623 638 432 638 C224 638 35 457 35 244 C35 67 170 -70 352 -70 C420 -70 487 -50 545 -16 C550 -13 553 -8 553 -2 C553 8 542 16 533 16 C530 16 527 16 524 14 C474 -15 418 -32 356 -32 C194 -32 74 89 74 246 C74 433 239 599 428 599 C596 599 704 490 704 332 C704 218 649 171 610 171 C589 171 573 185 573 216 C573 222 575 234 576 240 L615 425 C616 428 616 432 616 436 C616 464 593 489 561 489 C534 489 511 470 506 445 L503 431 C482 469 438 498 378 498 C262 498 152 387 152 253 C152 156 210 85 307 85 C361 85 416 116 452 162 C458 121 489 85 549 85 C636 85 747 164 747 332 L747 332 Z M487 357 L462 240 C440 210 404 175 351 175 C300 175 268 211 268 263 C268 336 326 408 406 408 C450 408 476 379 487 357 L487 357 Z " />
<glyph glyph-name="A" unicode="A" horiz-adv-x="684" d="M656 70 C656 79 654 88 651 97 L457 598 C438 647 387 677 336 673 C289 673 244 643 227 598 L32 97 C28 88 27 79 27 70 C27 32 57 -6 102 -6 C133 -6 161 12 172 41 L199 113 L485 113 L511 41 C522 12 550 -6 580 -6 C626 -6 656 33 656 70 L656 70 Z M446 238 L238 238 L342 525 L446 238 Z " />
<glyph glyph-name="B" unicode="B" horiz-adv-x="663" d="M622 180 C622 264 565 333 494 344 C557 357 609 413 609 497 C609 586 544 667 417 667 L146 667 C102 667 66 631 66 587 L66 80 C66 36 102 0 146 0 L428 0 C555 0 622 80 622 180 L622 180 Z M464 472 C464 430 434 400 386 400 L208 400 L208 545 L386 545 C434 545 464 514 464 472 L464 472 Z M477 200 C477 152 445 123 391 123 L208 123 L208 278 L391 278 C447 278 477 242 477 200 L477 200 Z " />
<glyph glyph-name="C" unicode="C" horiz-adv-x="687" d="M389 678 C189 678 34 538 34 333 C34 128 189 -12 389 -12 C504 -12 581 38 631 99 C641 110 645 124 645 138 C645 172 616 200 580 200 C560 200 540 192 526 177 C489 136 439 114 389 114 C268 114 180 207 180 333 C180 459 268 552 389 552 C439 552 488 528 526 488 C540 473 559 465 578 465 C615 465 646 493 646 529 C646 542 641 557 632 568 C581 629 504 678 389 678 L389 678 Z " />
<glyph glyph-name="D" unicode="D" horiz-adv-x="718" d="M683 333 C683 534 538 667 329 667 L146 667 C102 667 66 631 66 587 L66 80 C66 36 102 0 146 0 L329 0 C538 0 683 132 683 333 L683 333 Z M538 333 C538 220 461 125 329 125 L208 125 L208 542 L329 542 C466 542 538 451 538 333 L538 333 Z " />
<glyph glyph-name="E" unicode="E" horiz-adv-x="583" d="M544 64 C544 97 516 125 483 125 L208 125 L208 276 L476 276 C509 276 537 304 537 338 C537 373 509 401 476 401 L208 401 L208 542 L483 542 C516 542 544 570 544 604 C544 639 516 667 483 667 L146 667 C102 667 66 631 66 587 L66 80 C66 36 102 0 146 0 L483 0 C516 0 544 28 544 64 L544 64 Z " />
<glyph glyph-name="F" unicode="F" horiz-adv-x="571" d="M544 604 C544 639 516 667 483 667 L146 667 C102 667 66 631 66 587 L66 64 C66 26 98 -6 136 -6 C176 -6 208 26 208 64 L208 276 L476 276 C509 276 537 304 537 338 C537 373 509 401 476 401 L208 401 L208 542 L483 542 C516 542 544 570 544 604 L544 604 Z " />
<glyph glyph-name="G" unicode="G" horiz-adv-x="720" d="M673 176 L673 289 C673 333 637 369 593 369 L410 369 C376 369 349 342 349 308 C349 272 376 245 410 245 L531 245 L531 165 C504 140 448 114 389 114 C268 114 180 207 180 333 C180 459 268 552 389 552 C440 552 490 530 528 493 C541 480 559 473 576 473 C611 473 643 502 643 537 C643 552 637 568 626 580 C574 636 497 678 389 678 C194 678 34 544 34 333 C34 123 194 -13 389 -13 C524 -13 673 55 673 176 L673 176 Z " />
<glyph glyph-name="H" unicode="H" horiz-adv-x="731" d="M666 65 L666 603 C666 641 634 673 596 673 C555 673 523 641 523 603 L523 405 L208 405 L208 603 C208 641 176 673 138 673 C98 673 66 641 66 603 L66 64 C66 26 98 -6 136 -6 C176 -6 208 26 208 64 L208 280 L523 280 L523 65 C523 26 555 -6 594 -6 C634 -6 666 26 666 65 L666 65 Z " />
<glyph glyph-name="I" unicode="I" horiz-adv-x="274" d="M208 64 L208 603 C208 641 176 673 138 673 C98 673 66 641 66 603 L66 64 C66 26 98 -6 136 -6 C176 -6 208 26 208 64 L208 64 Z " />
<glyph glyph-name="J" unicode="J" horiz-adv-x="486" d="M420 219 L420 603 C420 641 388 673 350 673 C310 673 278 641 278 603 L278 221 C278 156 237 114 174 114 C146 114 121 128 99 134 C93 136 88 137 82 137 C49 137 18 110 18 74 C18 63 21 53 26 45 C52 1 135 -12 185 -12 C322 -12 420 61 420 219 L420 219 Z " />
<glyph glyph-name="K" unicode="K" horiz-adv-x="636" d="M569 63 C569 77 564 91 555 103 L354 354 L532 564 C542 576 547 591 547 606 C547 642 515 671 479 671 C460 671 440 663 428 647 L208 369 L208 603 C208 641 176 673 138 673 C98 673 66 641 66 603 L66 64 C66 26 98 -6 136 -6 C176 -6 208 26 208 64 L208 205 L260 267 L446 21 C459 3 479 -6 500 -6 C539 -6 569 28 569 63 L569 63 Z " />
<glyph glyph-name="L" unicode="L" horiz-adv-x="523" d="M496 64 C496 97 468 125 435 125 L208 125 L208 603 C208 641 176 673 138 673 C98 673 66 641 66 603 L66 80 C66 36 102 0 146 0 L435 0 C468 0 496 28 496 64 L496 64 Z " />
<glyph glyph-name="M" unicode="M" horiz-adv-x="855" d="M789 65 L789 587 C789 653 724 677 660 667 C616 667 579 641 563 602 L427 264 L291 602 C267 660 211 674 146 667 C102 667 66 631 66 587 L66 64 C66 26 98 -6 136 -6 C176 -6 208 26 208 64 L208 467 L388 20 C394 5 409 -6 426 -6 C445 -6 460 5 466 20 L646 467 L646 65 C646 26 678 -6 717 -6 C757 -6 789 26 789 65 L789 65 Z " />
<glyph glyph-name="N" unicode="N" horiz-adv-x="729" d="M663 80 L663 603 C663 641 631 673 593 673 C553 673 521 641 521 603 L521 248 L237 634 C219 659 189 673 159 673 C106 673 66 629 66 582 L66 64 C66 26 98 -6 136 -6 C176 -6 208 26 208 64 L208 435 L504 30 C521 7 548 -6 575 -6 C626 -6 663 35 663 80 L663 80 Z " />
<glyph glyph-name="O" unicode="O" horiz-adv-x="765" d="M731 333 C731 534 584 678 382 678 C181 678 34 534 34 333 C34 132 181 -12 382 -12 C584 -12 731 132 731 333 L731 333 Z M585 333 C585 209 505 114 382 114 C259 114 180 209 180 333 C180 458 259 552 382 552 C505 552 585 458 585 333 L585 333 Z " />
<glyph glyph-name="P" unicode="P" horiz-adv-x="624" d="M602 452 C602 569 523 667 378 667 L146 667 C102 667 66 631 66 587 L66 64 C66 26 98 -6 136 -6 C176 -6 208 26 208 64 L208 237 L378 237 C522 237 602 336 602 452 L602 452 Z M457 452 C457 397 415 362 359 362 L208 362 L208 542 L359 542 C415 542 457 508 457 452 L457 452 Z " />
<glyph glyph-name="Q" unicode="Q" horiz-adv-x="765" d="M731 333 C731 534 584 678 382 678 C181 678 34 534 34 333 C34 132 181 -12 382 -12 C440 -12 493 0 540 21 L557 2 C570 -13 587 -21 606 -21 C643 -21 670 11 670 43 C670 57 666 71 656 83 L644 97 C699 157 731 239 731 333 L731 333 Z M585 333 C585 285 573 241 551 205 L513 249 C500 264 483 271 465 271 C428 271 401 239 401 207 C401 193 405 179 415 168 L452 125 C430 118 407 114 382 114 C259 114 180 209 180 333 C180 458 259 552 382 552 C505 552 585 458 585 333 L585 333 Z " />
<glyph glyph-name="R" unicode="R" horiz-adv-x="643" d="M602 452 C602 576 517 667 378 667 L146 667 C102 667 66 631 66 587 L66 64 C66 26 98 -6 136 -6 C176 -6 208 26 208 64 L208 237 L312 237 L426 30 C439 7 462 -6 487 -6 C529 -6 557 30 557 64 C557 75 554 87 548 98 L456 254 C528 271 602 334 602 452 L602 452 Z M357 542 C414 542 457 508 457 452 C457 396 414 362 357 362 L208 362 L208 542 L357 542 Z " />
<glyph glyph-name="S" unicode="S" horiz-adv-x="600" d="M570 202 C570 451 187 380 187 486 C187 526 221 553 282 553 C331 553 383 541 429 515 C441 508 453 505 465 505 C499 505 536 531 536 569 C536 581 532 593 524 603 C487 652 371 677 295 677 C138 677 42 585 42 474 C42 223 426 304 426 186 C426 148 388 112 310 112 C245 112 188 133 143 164 C132 172 118 175 105 175 C71 175 38 147 38 109 C38 97 42 85 49 75 C86 20 206 -12 303 -12 C483 -12 570 80 570 202 L570 202 Z " />
<glyph glyph-name="T" unicode="T" horiz-adv-x="582" d="M563 604 C563 639 535 667 502 667 L81 667 C47 667 19 639 19 606 C19 570 47 542 81 542 L220 542 L220 65 C220 26 252 -6 291 -6 C331 -6 363 26 363 65 L363 542 L502 542 C535 542 563 570 563 604 L563 604 Z " />
<glyph glyph-name="U" unicode="U" horiz-adv-x="733" d="M668 267 L668 602 C668 641 636 673 597 673 C555 673 523 641 523 602 L523 271 C523 178 470 114 367 114 C264 114 210 178 210 271 L210 602 C210 641 178 673 139 673 C98 673 66 641 66 602 L66 266 C66 102 164 -12 367 -12 C570 -12 668 101 668 267 L668 267 Z " />
<glyph glyph-name="V" unicode="V" horiz-adv-x="684" d="M657 599 C657 637 626 673 581 673 C550 673 521 653 511 624 L342 154 L172 624 C161 654 132 673 101 673 C56 673 26 635 26 599 C26 590 27 581 31 573 L226 69 C243 24 288 -6 335 -6 L349 -6 C396 -6 441 24 458 69 L652 573 C655 581 657 590 657 599 L657 599 Z " />
<glyph glyph-name="W" unicode="W" horiz-adv-x="918" d="M897 605 C897 644 866 679 821 679 C785 679 753 655 745 620 L641 185 L527 621 C519 651 492 673 461 673 C427 673 399 651 391 621 L277 185 L171 621 C162 656 131 679 97 679 C52 679 21 643 21 605 C21 599 22 592 24 586 L174 64 C186 23 224 -6 267 -6 L269 -6 C310 -6 349 23 359 64 L459 458 L560 64 C570 23 607 -6 651 -6 L653 -6 C695 -6 733 23 745 64 L894 585 C896 591 897 598 897 605 L897 605 Z " />
<glyph glyph-name="X" unicode="X" horiz-adv-x="668" d="M611 63 C611 77 607 90 599 102 L429 343 L586 567 C594 578 598 592 598 605 C598 641 566 672 527 672 C503 672 481 660 468 640 L334 439 L198 641 C184 661 162 672 139 672 C97 672 70 638 70 604 C70 591 73 579 81 568 L239 342 L69 101 C61 89 57 76 57 62 C57 21 90 -6 126 -6 C148 -6 169 4 182 23 L334 244 L485 24 C498 5 520 -6 542 -6 C585 -6 611 32 611 63 L611 63 Z " />
<glyph glyph-name="Y" unicode="Y" horiz-adv-x="645" d="M597 607 C597 640 570 672 529 672 C505 672 483 660 470 639 L323 399 L173 640 C160 661 137 672 115 672 C75 672 47 639 47 607 C47 595 50 583 57 573 L252 273 L252 64 C252 26 284 -6 322 -6 C362 -6 394 26 394 64 L394 273 L587 572 C594 583 597 595 597 607 L597 607 Z " />
<glyph glyph-name="Z" unicode="Z" horiz-adv-x="592" d="M556 64 C556 97 528 125 495 125 L228 125 L531 537 C542 552 548 571 548 589 C548 634 513 667 475 667 L98 667 C64 667 36 639 36 606 C36 570 64 542 98 542 L357 542 L51 127 C41 113 36 97 36 80 C36 34 74 0 114 0 L495 0 C528 0 556 28 556 64 L556 64 Z " />
<glyph glyph-name="bracketleft" unicode="&#x5b;" horiz-adv-x="280" d="M269 -147 C269 -124 250 -105 228 -105 L138 -105 L138 593 L228 593 C250 593 269 612 269 635 C269 659 250 678 228 678 L127 678 C83 678 47 642 47 598 L47 -110 C47 -154 83 -190 127 -190 L228 -190 C250 -190 269 -171 269 -147 L269 -147 Z " />
<glyph glyph-name="backslash" unicode="&#x5c;" horiz-adv-x="329" d="M314 16 C314 21 313 25 312 30 L101 663 C95 681 77 693 59 693 C33 693 15 672 15 650 C15 646 15 641 17 637 L228 4 C234 -15 251 -26 270 -26 C296 -26 314 -5 314 16 L314 16 Z " />
<glyph glyph-name="bracketright" unicode="&#x5d;" horiz-adv-x="280" d="M233 -110 L233 598 C233 642 197 678 153 678 L53 678 C30 678 11 659 11 637 C11 612 30 593 53 593 L142 593 L142 -105 L53 -105 C30 -105 11 -124 11 -147 C11 -171 30 -190 53 -190 L153 -190 C197 -190 233 -154 233 -110 L233 -110 Z " />
<glyph glyph-name="asciicircum" unicode="&#x5e;" horiz-adv-x="441" d="M401 369 C401 374 400 380 398 385 L283 634 C272 657 248 673 223 673 C195 673 171 658 160 634 L44 385 C41 379 40 374 40 368 C40 346 58 327 83 327 C99 327 115 336 122 352 L220 580 L319 352 C326 336 342 327 358 327 C384 327 401 349 401 369 L401 369 Z " />
<glyph glyph-name="underscore" unicode="&#x5f;" horiz-adv-x="564" d="M573 -82 C573 -59 554 -40 532 -40 L33 -40 C10 -40 -9 -59 -9 -82 C-9 -106 10 -125 33 -125 L532 -125 C554 -125 573 -106 573 -82 L573 -82 Z " />
<glyph glyph-name="grave" unicode="&#x60;" horiz-adv-x="251" d="M214 583 C214 591 211 599 205 605 L122 694 C114 702 104 706 94 706 C73 706 55 687 55 667 C55 657 59 647 67 640 L160 558 C166 553 173 550 181 550 C199 550 214 566 214 583 L214 583 Z " />
<glyph glyph-name="a" unicode="a" horiz-adv-x="543" d="M480 57 L480 312 C480 451 379 495 269 495 C213 495 105 475 75 427 C71 420 68 411 68 402 C68 372 93 353 116 353 C124 353 132 356 139 360 C172 382 209 391 247 391 C311 391 353 359 353 310 L353 245 C321 283 264 304 200 304 C123 304 32 261 32 148 C32 40 123 -12 200 -12 C263 -12 320 11 353 50 C353 50 353 50 353 50 C353 2 398 -6 408 -6 L418 -6 C452 -6 480 22 480 57 L480 57 Z M353 116 C332 88 292 74 251 74 C201 74 160 100 160 145 C160 192 201 218 251 218 C292 218 332 204 353 176 L353 116 Z " />
<glyph glyph-name="b" unicode="b" horiz-adv-x="586" d="M553 241 C553 399 462 495 339 495 C282 495 228 470 190 421 L190 611 C190 645 162 673 128 673 C91 673 63 645 63 611 L63 57 C63 22 91 -6 126 -6 C162 -6 190 22 190 57 L190 62 C228 14 281 -12 339 -12 C461 -12 553 80 553 241 L553 241 Z M422 241 C422 157 373 101 299 101 C258 101 211 124 190 155 L190 326 C211 358 258 382 299 382 C373 382 422 325 422 241 L422 241 Z " />
<glyph glyph-name="c" unicode="c" horiz-adv-x="499" d="M461 77 C461 110 431 132 400 132 C388 132 377 129 366 122 C344 108 320 101 294 101 C217 101 163 158 163 242 C163 326 217 382 294 382 C319 382 344 375 365 362 C376 355 388 352 400 352 C428 352 460 372 460 406 C460 414 458 422 454 429 C433 468 363 495 288 495 C139 495 32 390 32 242 C32 93 139 -12 288 -12 C356 -12 406 8 441 36 C454 46 461 62 461 77 L461 77 Z " />
<glyph glyph-name="d" unicode="d" horiz-adv-x="586" d="M523 57 L523 610 C523 645 495 673 460 673 C423 673 395 645 395 610 L395 421 C357 470 303 495 246 495 C123 495 32 399 32 241 C32 80 124 -12 246 -12 C304 -12 357 14 395 62 L395 57 C395 22 423 -6 458 -6 C495 -6 523 22 523 57 L523 57 Z M395 156 C374 124 328 101 285 101 C213 101 163 158 163 241 C163 325 213 382 285 382 C328 382 374 359 395 327 L395 156 Z " />
<glyph glyph-name="e" unicode="e" horiz-adv-x="553" d="M522 259 C522 283 515 310 508 332 C474 432 391 495 282 495 C135 495 32 382 32 242 C32 87 143 -12 290 -12 C354 -12 477 11 477 68 C477 98 450 119 423 119 C415 119 406 117 398 113 C368 97 331 89 304 89 C222 89 173 140 165 201 L463 201 C496 201 522 228 522 259 L522 259 Z M401 287 L163 287 C169 335 203 394 282 394 C366 394 398 333 401 287 L401 287 Z " />
<glyph glyph-name="f" unicode="f" horiz-adv-x="327" d="M368 618 C368 652 323 677 254 677 C157 677 91 612 91 509 L91 483 L60 483 C30 483 5 458 5 429 C5 397 30 372 60 372 L91 372 L91 57 C91 22 119 -6 154 -6 C191 -6 219 22 219 57 L219 372 L269 372 C298 372 323 397 323 427 C323 458 298 483 269 483 L219 483 L219 509 C219 554 244 577 279 577 C301 577 310 570 325 570 C345 570 368 586 368 618 L368 618 Z " />
<glyph glyph-name="g" unicode="g" horiz-adv-x="585" d="M522 33 L522 426 C522 461 494 489 459 489 C422 489 394 461 394 426 L394 421 C355 470 303 495 245 495 C123 495 32 407 32 249 C32 88 124 3 245 3 C304 3 356 31 394 79 L394 30 C394 -65 322 -92 261 -92 C218 -92 180 -83 146 -62 C137 -57 128 -55 119 -55 C91 -55 66 -77 66 -108 C66 -118 69 -128 74 -136 C103 -181 202 -196 261 -196 C380 -196 522 -151 522 33 L522 33 Z M394 171 C373 140 327 116 285 116 C213 116 163 166 163 249 C163 332 213 382 285 382 C327 382 373 359 394 327 L394 171 Z " />
<glyph glyph-name="h" unicode="h" horiz-adv-x="580" d="M517 57 L517 343 C517 437 466 495 360 495 C281 495 221 457 190 420 L190 611 C190 645 162 673 128 673 C91 673 63 645 63 611 L63 57 C63 22 91 -6 126 -6 C162 -6 190 22 190 57 L190 325 C212 354 251 382 300 382 C355 382 390 361 390 294 L390 57 C390 22 418 -6 453 -6 C489 -6 517 22 517 57 L517 57 Z " />
<glyph glyph-name="i" unicode="i" horiz-adv-x="253" d="M126 686 C85 686 50 653 50 611 C50 569 85 535 126 535 C168 535 202 569 202 611 C202 653 168 686 126 686 L126 686 Z M190 57 L190 427 C190 461 162 489 128 489 C91 489 63 461 63 427 L63 57 C63 22 91 -6 126 -6 C162 -6 190 22 190 57 L190 57 Z " />
<glyph glyph-name="j" unicode="j" horiz-adv-x="253" d="M126 686 C85 686 50 653 50 611 C50 569 85 535 126 535 C168 535 202 569 202 611 C202 653 168 686 126 686 L126 686 Z M190 -13 L190 427 C190 461 162 489 128 489 C91 489 63 461 63 427 L63 -13 C63 -67 36 -92 -3 -92 C-25 -92 -31 -86 -46 -86 C-73 -86 -96 -108 -96 -137 C-96 -180 -55 -196 18 -196 C134 -196 190 -123 190 -13 L190 -13 Z " />
<glyph glyph-name="k" unicode="k" horiz-adv-x="535" d="M477 58 C477 70 473 83 465 94 L338 264 L450 392 C459 403 464 416 464 430 C464 462 436 490 404 490 C388 490 372 483 361 470 L190 268 L190 611 C190 645 162 673 128 673 C91 673 63 645 63 611 L63 57 C63 22 91 -6 126 -6 C162 -6 190 22 190 57 L190 124 L248 186 L361 21 C373 3 394 -6 414 -6 C451 -6 477 27 477 58 L477 58 Z " />
<glyph glyph-name="l" unicode="l" horiz-adv-x="253" d="M190 57 L190 611 C190 645 162 673 128 673 C91 673 63 645 63 611 L63 57 C63 22 91 -6 126 -6 C162 -6 190 22 190 57 L190 57 Z " />
<glyph glyph-name="m" unicode="m" horiz-adv-x="852" d="M790 57 L790 349 C790 448 737 495 648 495 C574 495 510 451 482 407 C464 462 419 495 348 495 C274 495 210 449 190 420 L190 427 C190 461 162 489 128 489 C91 489 63 461 63 427 L63 57 C63 22 91 -6 126 -6 C162 -6 190 22 190 57 L190 325 C209 352 246 382 290 382 C342 382 362 350 362 305 L362 57 C362 22 390 -6 425 -6 C462 -6 490 22 490 57 L490 326 C508 352 545 382 590 382 C642 382 662 350 662 305 L662 57 C662 22 690 -6 725 -6 C762 -6 790 22 790 57 L790 57 Z " />
<glyph glyph-name="n" unicode="n" horiz-adv-x="579" d="M516 57 L516 341 C516 435 465 495 359 495 C280 495 221 457 190 420 L190 427 C190 461 162 489 128 489 C91 489 63 461 63 427 L63 57 C63 22 91 -6 126 -6 C162 -6 190 22 190 57 L190 325 C211 354 250 382 300 382 C354 382 389 359 389 292 L389 57 C389 22 417 -6 452 -6 C488 -6 516 22 516 57 L516 57 Z " />
<glyph glyph-name="o" unicode="o" horiz-adv-x="574" d="M543 242 C543 379 447 495 287 495 C128 495 32 379 32 242 C32 104 128 -12 287 -12 C447 -12 543 104 543 242 L543 242 Z M411 242 C411 166 366 101 287 101 C208 101 164 166 164 242 C164 317 208 382 287 382 C366 382 411 317 411 242 L411 242 Z " />
<glyph glyph-name="p" unicode="p" horiz-adv-x="583" d="M553 242 C553 403 463 495 339 495 C280 495 227 469 190 422 L190 427 C190 461 162 489 128 489 C91 489 63 461 63 427 L63 -128 C63 -162 91 -190 126 -190 C162 -190 190 -162 190 -128 L190 62 C229 12 282 -12 339 -12 C463 -12 553 81 553 242 L553 242 Z M421 242 C421 158 372 101 299 101 C258 101 211 126 190 156 L190 327 C211 358 258 382 299 382 C372 382 421 325 421 242 L421 242 Z " />
<glyph glyph-name="q" unicode="q" horiz-adv-x="583" d="M521 -127 L521 426 C521 461 493 489 458 489 C421 489 393 461 393 426 L393 422 C356 469 303 495 244 495 C120 495 30 403 30 242 C30 81 120 -12 244 -12 C301 -12 354 12 393 62 L393 -127 C393 -162 421 -190 456 -190 C493 -190 521 -162 521 -127 L521 -127 Z M393 156 C372 126 325 101 284 101 C212 101 162 158 162 242 C162 325 212 382 284 382 C325 382 372 358 393 327 L393 156 Z " />
<glyph glyph-name="r" unicode="r" horiz-adv-x="360" d="M350 435 C350 464 331 487 294 487 C246 487 214 449 190 417 L190 427 C190 461 162 489 128 489 C91 489 63 461 63 427 L63 57 C63 22 91 -6 126 -6 L128 -6 C162 -6 190 22 190 57 L190 319 C213 349 250 365 289 370 C324 375 350 397 350 435 L350 435 Z " />
<glyph glyph-name="s" unicode="s" horiz-adv-x="477" d="M446 143 C446 338 160 278 160 350 C160 377 190 398 236 398 C275 398 314 387 345 369 C352 365 361 363 369 363 C395 363 419 384 419 411 C419 420 416 429 411 436 C384 475 298 495 235 495 C108 495 37 424 37 343 C37 153 324 218 324 138 C324 108 298 86 243 86 C201 86 151 103 113 125 C105 130 96 132 87 132 C60 132 34 109 34 79 C34 69 37 60 43 52 C73 9 174 -12 237 -12 C371 -12 446 55 446 143 L446 143 Z " />
<glyph glyph-name="t" unicode="t" horiz-adv-x="338" d="M327 46 C327 77 307 101 271 101 C268 101 263 101 260 101 C240 101 216 116 216 154 L216 372 L266 372 C295 372 320 397 320 427 C320 458 295 483 266 483 L216 483 L216 558 C216 593 188 621 153 621 C116 621 88 593 88 558 L88 483 L57 483 C27 483 2 458 2 429 C2 397 27 372 57 372 L88 372 L88 120 C88 34 136 -12 225 -12 C308 -12 327 14 327 46 L327 46 Z " />
<glyph glyph-name="u" unicode="u" horiz-adv-x="579" d="M516 57 L516 427 C516 461 488 489 454 489 C417 489 389 461 389 427 L389 156 C367 128 328 101 279 101 C225 101 190 123 190 190 L190 427 C190 461 162 489 128 489 C91 489 63 461 63 427 L63 140 C63 46 113 -12 219 -12 C298 -12 356 24 389 61 L389 57 C389 22 417 -6 452 -6 C488 -6 516 22 516 57 L516 57 Z " />
<glyph glyph-name="v" unicode="v" horiz-adv-x="513" d="M491 425 C491 457 466 488 427 488 C402 488 378 473 369 448 L256 147 L143 449 C134 473 111 488 86 488 C47 488 21 456 21 426 C21 418 23 410 26 403 L167 54 C181 18 217 -6 256 -6 L258 -6 C296 -6 331 18 346 54 L487 403 C490 410 491 418 491 425 L491 425 Z " />
<glyph glyph-name="w" unicode="w" horiz-adv-x="769" d="M750 428 C750 460 724 489 687 489 C659 489 633 471 626 444 L547 158 L456 438 C446 468 417 489 386 489 C352 489 323 468 313 438 L222 158 L143 444 C136 471 110 489 83 489 C45 489 19 459 19 428 C19 422 20 416 22 410 L130 56 C141 20 176 -6 214 -6 L216 -6 C254 -6 289 20 300 56 L385 329 L470 56 C481 19 515 -6 554 -6 L556 -6 C593 -6 628 20 639 56 L747 410 C749 416 750 422 750 428 L750 428 Z " />
<glyph glyph-name="x" unicode="x" horiz-adv-x="504" d="M455 52 C455 63 452 74 445 84 L331 248 L435 399 C442 409 445 420 445 431 C445 460 420 488 386 488 C366 488 347 478 336 461 L252 334 L166 462 C154 479 136 488 117 488 C82 488 58 459 58 431 C58 420 61 409 68 399 L171 248 L58 84 C51 74 48 63 48 52 C48 21 75 -6 107 -6 C125 -6 142 2 153 18 L252 163 L349 19 C360 2 378 -6 397 -6 C433 -6 455 24 455 52 L455 52 Z " />
<glyph glyph-name="y" unicode="y" horiz-adv-x="513" d="M491 427 C491 458 467 489 429 489 C402 489 377 472 368 447 L256 147 L144 447 C134 473 110 489 85 489 C46 489 21 457 21 426 C21 419 22 412 25 405 L190 -7 L172 -48 C163 -68 145 -78 124 -82 C119 -83 113 -83 108 -83 C72 -83 48 -109 48 -139 C48 -174 82 -196 126 -196 C197 -196 258 -163 292 -79 L487 404 C490 411 491 419 491 427 L491 427 Z " />
<glyph glyph-name="z" unicode="z" horiz-adv-x="479" d="M442 57 C442 86 417 111 388 111 L211 111 L424 381 C433 392 437 406 437 421 C437 457 406 483 376 483 L91 483 C61 483 36 458 36 429 C36 397 61 372 91 372 L260 372 L50 105 C41 93 36 79 36 65 C36 28 66 0 99 0 L388 0 C417 0 442 25 442 57 L442 57 Z " />
<glyph glyph-name="braceleft" unicode="&#x7b;" horiz-adv-x="288" d="M277 -148 C277 -124 262 -105 228 -105 L210 -105 C176 -105 148 -75 148 -30 L148 154 C148 196 135 230 102 244 C135 258 148 292 148 334 L148 519 C148 564 176 593 210 593 L228 593 C262 593 277 612 277 636 C277 659 262 678 228 678 L210 678 C130 678 55 617 55 518 L55 347 C55 323 49 300 31 289 C8 275 -3 267 -3 244 C-3 221 8 213 31 199 C49 188 55 165 55 141 L55 -31 C55 -130 130 -190 210 -190 L228 -190 C262 -190 277 -171 277 -148 L277 -148 Z " />
<glyph glyph-name="bar" unicode="&#x7c;" horiz-adv-x="216" d="M151 16 L151 652 C151 674 132 693 110 693 C85 693 66 674 66 652 L66 16 C66 -7 85 -26 108 -26 C132 -26 151 -7 151 16 L151 16 Z " />
<glyph glyph-name="braceright" unicode="&#x7d;" horiz-adv-x="288" d="M291 244 C291 267 280 275 257 289 C239 300 233 323 233 347 L233 518 C233 617 158 678 78 678 L60 678 C26 678 11 659 11 636 C11 612 26 593 60 593 L78 593 C112 593 140 564 140 519 L140 334 C140 292 153 258 186 244 C153 230 140 196 140 154 L140 -30 C140 -75 112 -105 78 -105 L60 -105 C26 -105 11 -124 11 -148 C11 -171 26 -190 60 -190 L78 -190 C158 -190 233 -130 233 -31 L233 141 C233 165 239 188 257 199 C280 213 291 221 291 244 L291 244 Z " />
<glyph glyph-name="asciitilde" unicode="&#x7e;" horiz-adv-x="510" d="M480 615 C480 640 465 662 437 662 C415 662 396 646 394 625 C386 552 369 489 335 489 C276 489 305 666 175 666 C77 666 44 569 30 465 C30 440 43 417 74 417 C96 417 114 433 117 455 C126 525 142 588 175 588 C235 588 205 412 335 412 C435 412 467 509 480 615 L480 615 Z " />
<glyph glyph-name="uni00A0" unicode="&#xa0;" horiz-adv-x="256" d="" />
<glyph glyph-name="exclamdown" unicode="&#xa1;" horiz-adv-x="256" d="M207 414 C207 457 171 494 127 494 C83 494 46 457 46 414 C46 370 83 333 127 333 C171 333 207 370 207 414 L207 414 Z M201 -116 C201 -96 190 107 185 218 C184 249 159 273 128 273 C95 273 70 249 69 218 C64 107 54 -96 54 -116 C54 -157 85 -189 126 -189 C169 -189 201 -157 201 -116 L201 -116 Z " />
<glyph glyph-name="cent" unicode="&#xa2;" horiz-adv-x="499" d="M461 77 C461 110 431 132 400 132 C395 132 389 131 384 129 C366 124 350 112 333 107 L333 376 C351 371 366 360 384 354 C389 353 394 352 400 352 C428 352 460 372 460 406 C460 413 458 420 455 427 C439 460 387 484 333 492 L333 520 C333 545 313 565 288 565 C261 565 241 545 241 520 L241 491 C117 472 32 374 32 242 C32 109 117 11 241 -8 L241 -55 C241 -80 261 -100 288 -100 C313 -100 333 -80 333 -55 L333 -9 C385 -1 439 22 456 55 C459 62 461 69 461 77 L461 77 Z M241 111 C193 131 163 179 163 242 C163 305 193 352 241 372 L241 111 Z " />
<glyph glyph-name="sterling" unicode="&#xa3;" horiz-adv-x="550" d="M524 60 C524 98 492 123 460 123 C440 123 419 113 397 113 C347 113 324 146 266 146 C251 146 232 144 217 139 C253 161 281 203 281 250 C281 256 280 263 280 269 L360 269 C381 269 399 287 399 309 C399 332 381 350 360 350 L249 350 C226 386 200 417 200 467 C200 524 246 561 305 561 C349 561 364 531 407 514 C415 511 424 510 432 510 C465 510 494 533 494 570 C494 578 492 585 490 592 C469 644 378 677 288 677 C169 677 45 597 45 470 C45 421 66 384 91 350 L57 350 C35 350 17 332 17 311 C17 287 35 269 57 269 L143 269 C150 252 155 234 155 215 C155 176 127 139 80 108 C60 95 51 76 51 58 C51 29 74 5 104 5 C112 5 121 6 129 10 C158 23 187 31 210 31 C271 31 304 -13 391 -13 C465 -13 524 6 524 60 L524 60 Z " />
<glyph glyph-name="currency" unicode="&#xa4;" horiz-adv-x="623" d="M582 116 C582 129 576 142 566 152 L525 192 C552 232 567 281 567 333 C567 384 552 433 526 473 L567 514 C577 524 582 537 582 551 C582 581 556 604 528 604 C514 604 501 599 491 589 L447 545 C409 566 364 579 311 579 C258 579 212 566 175 545 L131 589 C121 599 107 604 93 604 C62 604 40 577 40 551 C40 537 45 525 55 515 L97 472 C71 432 57 384 57 333 C57 282 71 234 97 194 L56 153 C46 143 41 130 41 116 C41 87 67 64 94 64 C107 64 122 69 132 79 L173 121 C211 99 257 86 311 86 C364 86 410 98 448 120 L491 78 C501 68 514 63 528 63 C558 63 582 89 582 116 L582 116 Z M439 333 C439 261 394 200 311 200 C230 200 184 261 184 333 C184 404 230 465 311 465 C394 465 439 404 439 333 L439 333 Z " />
<glyph glyph-name="yen" unicode="&#xa5;" horiz-adv-x="645" d="M629 153 C629 176 612 193 591 193 L394 193 L394 273 L591 273 C612 273 629 290 629 312 C629 335 612 352 591 352 L445 352 L587 572 C594 583 597 595 597 607 C597 640 570 672 529 672 C505 672 483 660 470 639 L323 399 L173 640 C160 660 137 672 114 672 C74 672 47 638 47 607 C47 595 50 583 57 573 L200 352 L57 352 C35 352 18 335 18 314 C18 290 35 273 57 273 L252 273 L252 193 L56 193 C35 193 18 176 18 155 C18 132 35 115 56 115 L252 115 L252 64 C252 26 284 -6 322 -6 C362 -6 394 26 394 64 L394 115 L591 115 C612 115 629 132 629 153 L629 153 Z " />
<glyph glyph-name="brokenbar" unicode="&#xa6;" horiz-adv-x="216" d="M151 16 L151 261 C151 283 132 302 110 302 C85 302 66 283 66 261 L66 16 C66 -7 85 -26 108 -26 C132 -26 151 -7 151 16 L151 16 Z M151 407 L151 652 C151 674 132 693 110 693 C85 693 66 674 66 652 L66 407 C66 384 85 365 108 365 C132 365 151 384 151 407 L151 407 Z " />
<glyph glyph-name="section" unicode="&#xa7;" horiz-adv-x="484" d="M446 75 C446 141 411 177 363 198 C417 225 446 271 446 326 C446 514 160 449 160 534 C160 568 191 588 240 588 C277 588 316 578 349 558 C356 553 365 551 373 551 C398 551 419 571 419 597 C419 644 328 677 235 677 C117 677 37 614 37 532 C37 472 72 430 135 406 C90 390 37 349 37 281 C37 95 324 160 324 65 C324 27 289 7 237 7 C190 7 143 27 108 51 C100 57 91 59 81 59 C57 59 35 37 35 10 C35 1 38 -8 45 -16 C74 -55 163 -81 237 -81 C358 -81 446 -24 446 75 L446 75 Z M321 302 C321 267 302 245 263 228 C212 239 160 253 160 300 C160 334 177 360 238 374 C281 364 321 345 321 302 L321 302 Z " />
<glyph glyph-name="dieresis" unicode="&#xa8;" horiz-adv-x="295" d="M109 611 C109 648 79 678 42 678 C4 678 -26 648 -26 611 C-26 573 4 543 42 543 C79 543 109 573 109 611 L109 611 Z M321 611 C321 648 290 678 253 678 C216 678 185 648 185 611 C185 573 216 543 253 543 C290 543 321 573 321 611 L321 611 Z " />
<glyph glyph-name="copyright" unicode="&#xa9;" horiz-adv-x="778" d="M734 334 C734 525 580 679 389 679 C199 679 44 525 44 334 C44 144 199 -11 389 -11 C580 -11 734 144 734 334 L734 334 Z M698 334 C698 165 559 25 389 25 C220 25 80 165 80 334 C80 504 220 643 389 643 C559 643 698 504 698 334 L698 334 Z M535 190 C535 202 525 211 513 211 C508 211 502 209 499 205 C472 179 434 163 394 163 C306 163 232 236 232 335 C232 436 306 505 394 505 C433 505 471 489 497 464 C501 460 506 458 512 458 C525 458 534 469 534 480 C534 485 532 490 528 494 C494 526 448 545 394 545 C279 545 186 457 186 335 C186 213 279 123 394 123 C448 123 494 143 529 176 C533 180 535 185 535 190 L535 190 Z " />
<glyph glyph-name="ordfeminine" unicode="&#xaa;" horiz-adv-x="385" d="M335 365 L335 523 C335 620 264 648 190 648 C154 648 78 635 57 602 C54 597 52 591 52 585 C52 564 71 550 87 550 C92 550 98 552 103 555 C126 570 152 579 174 579 C215 579 243 558 243 525 L243 485 C225 505 192 523 141 523 C88 523 31 491 31 422 C31 352 88 318 141 318 C192 318 225 338 243 358 L243 357 C243 333 267 316 290 320 C315 320 335 340 335 365 L335 365 Z M243 404 C230 386 204 375 179 375 C149 375 122 391 122 422 C122 451 149 467 179 467 C204 467 230 457 243 440 L243 404 Z " />
<glyph glyph-name="guillemotleft" unicode="&#xab;" horiz-adv-x="527" d="M257 102 C257 113 254 123 247 131 L147 243 L247 354 C254 362 257 372 257 382 C257 407 235 425 213 425 C202 425 191 421 183 412 L84 302 C69 285 61 263 61 242 C61 221 68 200 83 183 L183 71 C191 62 203 57 214 57 C240 57 257 81 257 102 L257 102 Z M447 102 C447 113 444 123 437 131 L337 243 L437 354 C444 362 447 372 447 382 C447 407 425 425 403 425 C392 425 381 421 373 412 L274 302 C259 285 251 263 251 242 C251 221 258 200 273 183 L373 71 C381 62 393 57 404 57 C430 57 447 81 447 102 L447 102 Z " />
<glyph glyph-name="logicalnot" unicode="&#xac;" horiz-adv-x="515" d="M475 235 L475 388 C475 432 439 468 395 468 L62 468 C41 468 23 450 23 429 C23 406 41 388 62 388 L394 388 L394 235 C394 213 412 195 434 195 C457 195 475 213 475 235 L475 235 Z " />
<glyph glyph-name="uni00AD" unicode="&#xad;" horiz-adv-x="300" d="M223 296 L77 296 C48 296 24 272 24 243 C24 212 48 188 77 188 L223 188 C252 188 276 212 276 243 C276 272 252 296 223 296 L223 296 Z " />
<glyph glyph-name="registered" unicode="&#xae;" horiz-adv-x="494" d="M459 465 C459 583 365 677 247 677 C130 677 35 583 35 465 C35 348 130 253 247 253 C365 253 459 348 459 465 L459 465 Z M427 465 C427 366 346 285 247 285 C147 285 67 366 67 465 C67 565 147 645 247 645 C346 645 427 565 427 465 L427 465 Z M344 512 C344 557 306 586 265 586 L199 586 C180 586 166 572 166 554 L166 353 C166 344 173 337 182 337 C193 337 200 344 200 353 L200 439 L242 439 L302 348 C306 341 312 338 318 338 C327 338 336 345 336 355 C336 359 335 363 332 367 L282 440 C296 440 344 458 344 512 L344 512 Z M309 512 C309 487 286 470 265 470 L200 470 L200 556 L265 556 C286 556 309 539 309 512 L309 512 Z " />
<glyph glyph-name="macron" unicode="&#xaf;" horiz-adv-x="363" d="M363 599 C363 618 347 634 328 634 L35 634 C16 634 0 618 0 599 C0 578 16 562 35 562 L328 562 C347 562 363 578 363 599 L363 599 Z " />
<glyph glyph-name="degree" unicode="&#xb0;" horiz-adv-x="311" d="M290 541 C290 616 230 677 155 677 C80 677 20 616 20 541 C20 466 80 407 155 407 C230 407 290 466 290 541 L290 541 Z M221 541 C221 505 191 476 155 476 C118 476 90 505 90 541 C90 578 118 608 155 608 C191 608 221 578 221 541 L221 541 Z " />
<glyph glyph-name="plusminus" unicode="&#xb1;" horiz-adv-x="504" d="M481 366 C481 387 464 404 443 404 L296 404 L296 565 C296 588 277 607 254 607 C228 607 209 588 209 565 L209 404 L61 404 C40 404 23 387 23 366 C23 343 40 326 61 326 L209 326 L209 159 C209 135 228 116 252 116 C277 116 296 135 296 159 L296 326 L443 326 C464 326 481 343 481 366 L481 366 Z M481 40 C481 61 464 78 443 78 L61 78 C40 78 23 61 23 40 C23 17 40 0 61 0 L443 0 C464 0 481 17 481 40 L481 40 Z " />
<glyph glyph-name="twosuperior" unicode="&#xb2;" horiz-adv-x="397" d="M366 461 C366 481 349 498 329 498 L185 498 C301 580 357 637 357 702 C357 783 288 827 196 827 C153 827 75 810 53 774 C48 767 46 760 46 752 C46 729 64 714 84 714 C93 714 102 717 109 722 C133 739 163 750 194 750 C232 750 262 732 262 695 C262 653 221 611 60 500 C47 491 40 477 40 462 C40 438 57 421 78 421 L329 421 C349 421 366 438 366 461 L366 461 Z " />
<glyph glyph-name="threesuperior" unicode="&#xb3;" horiz-adv-x="397" d="M363 532 C363 592 308 624 267 627 C314 635 356 669 356 718 C356 783 299 827 197 827 C131 827 72 803 52 774 C48 767 46 761 46 754 C46 733 62 717 81 717 C89 717 97 719 104 724 C129 742 159 750 187 750 C229 750 260 736 260 706 C260 672 231 661 178 661 L164 661 C145 661 128 649 128 624 C128 598 145 587 164 587 L179 587 C230 587 267 577 267 538 C267 510 241 491 194 491 C166 491 132 500 103 520 C96 524 89 526 81 526 C60 526 40 509 40 486 C40 442 127 414 197 414 C297 414 363 462 363 532 L363 532 Z " />
<glyph glyph-name="acute" unicode="&#xb4;" horiz-adv-x="251" d="M196 667 C196 689 176 706 156 706 C146 706 136 702 129 694 L46 605 C40 599 37 591 37 583 C37 564 54 550 70 550 C78 550 85 553 91 558 L184 640 C192 647 196 657 196 667 L196 667 Z " />
<glyph glyph-name="mu" unicode="&#xb5;" horiz-adv-x="593" d="M580 47 C580 107 516 91 516 145 L516 427 C516 461 488 489 454 489 C417 489 389 461 389 427 L389 156 C367 128 328 100 280 100 C225 100 190 125 190 190 L190 427 C190 461 162 489 128 489 C91 489 63 461 63 427 L63 -128 C63 -162 91 -190 126 -190 C162 -190 190 -162 190 -128 L190 16 C201 1 224 -12 260 -12 C318 -12 367 25 395 74 C414 7 473 -13 518 -13 C560 -13 580 13 580 47 L580 47 Z " />
<glyph glyph-name="paragraph" unicode="&#xb6;" horiz-adv-x="449" d="M403 -76 L403 605 C403 639 375 667 341 667 L199 667 C104 667 27 590 27 495 C27 400 104 323 199 323 L199 -76 C199 -92 213 -106 230 -106 C248 -106 262 -92 262 -76 L262 605 L340 605 L340 -76 C340 -92 354 -106 371 -106 C389 -106 403 -92 403 -76 L403 -76 Z " />
<glyph glyph-name="periodcentered" unicode="&#xb7;" horiz-adv-x="256" d="M209 244 C209 288 172 325 128 325 C84 325 47 288 47 244 C47 201 84 164 128 164 C172 164 209 201 209 244 L209 244 Z " />
<glyph glyph-name="cedilla" unicode="&#xb8;" horiz-adv-x="221" d="M221 -111 C221 -69 191 -41 154 -41 C141 -41 128 -45 118 -51 L137 -5 C139 0 140 5 140 10 C140 23 129 32 116 32 C100 32 85 20 79 3 L58 -53 C57 -57 56 -60 56 -64 C56 -79 69 -95 89 -95 C105 -95 113 -83 129 -83 C148 -83 158 -93 158 -109 C158 -131 133 -142 106 -142 C87 -142 64 -136 43 -125 C39 -123 35 -122 31 -122 C16 -122 3 -134 3 -150 C3 -181 63 -196 110 -196 C170 -196 221 -164 221 -111 L221 -111 Z " />
<glyph glyph-name="onesuperior" unicode="&#xb9;" horiz-adv-x="286" d="M226 463 L226 774 C226 803 201 826 171 826 C156 826 142 820 132 810 L30 709 C22 701 18 691 18 681 C18 658 38 641 58 641 C67 641 77 645 84 652 L129 698 L129 463 C129 436 150 415 177 415 C205 415 226 436 226 463 L226 463 Z " />
<glyph glyph-name="ordmasculine" unicode="&#xba;" horiz-adv-x="405" d="M375 483 C375 572 310 648 202 648 C96 648 30 572 30 483 C30 394 96 318 202 318 C310 318 375 394 375 483 L375 483 Z M280 483 C280 428 251 392 202 392 C153 392 125 428 125 483 C125 538 153 572 202 572 C251 572 280 538 280 483 L280 483 Z " />
<glyph glyph-name="guillemotright" unicode="&#xbb;" horiz-adv-x="527" d="M276 242 C276 263 268 285 253 302 L154 412 C146 421 135 425 123 425 C98 425 80 403 80 381 C80 371 83 362 90 354 L190 243 L90 131 C82 122 79 112 79 102 C79 77 101 57 123 57 C135 57 146 62 154 71 L254 183 C269 200 276 221 276 242 L276 242 Z M466 242 C466 263 458 285 443 302 L344 412 C336 421 325 425 313 425 C288 425 270 403 270 381 C270 371 273 362 280 354 L380 243 L280 131 C272 122 269 112 269 102 C269 77 291 57 313 57 C325 57 336 62 344 71 L444 183 C459 200 466 221 466 242 L466 242 Z " />
<glyph glyph-name="onequarter" unicode="&#xbc;" horiz-adv-x="833" d="M814 125 C814 144 797 161 778 161 L755 161 L755 327 C755 370 718 406 672 406 C643 406 616 391 601 367 L465 154 C460 146 458 138 458 129 C458 104 476 86 497 86 L660 86 L660 41 C660 15 681 -6 707 -6 C734 -6 755 15 755 41 L755 86 L778 86 C797 86 814 103 814 125 L814 125 Z M618 641 C618 658 602 673 585 673 C575 673 565 668 559 659 L165 42 C162 37 160 31 160 25 C160 8 175 -6 193 -6 C203 -6 213 -1 219 8 L613 625 C616 630 618 636 618 641 L618 641 Z M226 309 L226 620 C226 649 201 672 171 672 C156 672 142 666 132 656 L30 555 C22 547 18 537 18 527 C18 504 38 487 58 487 C67 487 77 491 84 498 L129 544 L129 309 C129 282 150 261 177 261 C205 261 226 282 226 309 L226 309 Z M660 161 L559 161 L660 319 L660 161 Z " />
<glyph glyph-name="onehalf" unicode="&#xbd;" horiz-adv-x="867" d="M835 40 C835 60 818 77 798 77 L654 77 C770 159 826 216 826 281 C826 362 757 406 665 406 C613 406 515 382 515 331 C515 308 533 293 553 293 C562 293 571 296 578 301 C602 318 632 329 663 329 C701 329 731 311 731 274 C731 232 690 190 529 79 C516 70 509 56 509 41 C509 17 526 0 547 0 L798 0 C818 0 835 17 835 40 L835 40 Z M618 641 C618 658 602 673 585 673 C575 673 565 668 559 659 L165 42 C162 37 160 31 160 25 C160 8 175 -6 193 -6 C203 -6 213 -1 219 8 L613 625 C616 630 618 636 618 641 L618 641 Z M226 309 L226 620 C226 649 201 672 171 672 C156 672 142 666 132 656 L30 555 C22 547 18 537 18 527 C18 504 38 487 58 487 C67 487 77 491 84 498 L129 544 L129 309 C129 282 150 261 177 261 C205 261 226 282 226 309 L226 309 Z " />
<glyph glyph-name="threequarters" unicode="&#xbe;" horiz-adv-x="921" d="M902 125 C902 144 885 161 866 161 L843 161 L843 327 C843 370 806 406 760 406 C731 406 704 391 689 367 L553 154 C548 146 546 138 546 129 C546 104 564 86 585 86 L748 86 L748 41 C748 15 769 -6 795 -6 C822 -6 843 15 843 41 L843 86 L866 86 C885 86 902 103 902 125 L902 125 Z M705 641 C705 658 689 673 672 673 C662 673 652 668 646 659 L252 42 C249 37 247 31 247 25 C247 8 262 -6 280 -6 C290 -6 300 -1 306 8 L700 625 C703 630 705 636 705 641 L705 641 Z M363 378 C363 438 308 470 267 473 C314 481 356 515 356 564 C356 629 299 673 197 673 C117 673 46 638 46 600 C46 579 62 563 81 563 C89 563 97 565 104 570 C129 588 159 596 187 596 C229 596 260 582 260 552 C260 518 231 507 178 507 L164 507 C145 507 128 495 128 470 C128 444 145 433 164 433 L179 433 C230 433 267 423 267 384 C267 356 241 337 194 337 C166 337 132 346 103 366 C96 370 89 372 81 372 C60 372 40 355 40 332 C40 288 127 260 197 260 C297 260 363 308 363 378 L363 378 Z M748 161 L647 161 L748 319 L748 161 Z " />
<glyph glyph-name="questiondown" unicode="&#xbf;" horiz-adv-x="398" d="M311 413 C311 457 274 494 230 494 C186 494 149 457 149 413 C149 369 186 332 230 332 C274 332 311 369 311 413 L311 413 Z M426 -88 C426 -52 399 -30 367 -30 C325 -30 292 -68 243 -68 C188 -68 165 -42 165 -11 C165 58 311 72 311 191 C311 252 278 284 240 284 C203 284 184 257 184 230 C184 221 187 217 187 204 C187 120 20 110 20 -36 C20 -129 99 -194 228 -194 C301 -194 426 -160 426 -88 L426 -88 Z " />
<glyph glyph-name="Agrave" unicode="&#xc0;" horiz-adv-x="684" d="M656 70 C656 79 654 88 651 97 L457 598 C438 647 387 677 336 673 C289 673 244 643 227 598 L32 97 C28 88 27 79 27 70 C27 32 57 -6 102 -6 C133 -6 161 12 172 41 L199 113 L485 113 L511 41 C522 12 550 -6 580 -6 C626 -6 656 33 656 70 L656 70 Z M446 238 L238 238 L342 525 L446 238 Z M369 750 C369 758 366 766 360 772 L277 861 C269 869 259 873 249 873 C228 873 210 854 210 834 C210 824 214 814 222 807 L315 725 C321 720 328 717 336 717 C354 717 369 733 369 750 L369 750 Z " />
<glyph glyph-name="Aacute" unicode="&#xc1;" horiz-adv-x="684" d="M656 70 C656 79 654 88 651 97 L457 598 C438 647 387 677 336 673 C289 673 244 643 227 598 L32 97 C28 88 27 79 27 70 C27 32 57 -6 102 -6 C133 -6 161 12 172 41 L199 113 L485 113 L511 41 C522 12 550 -6 580 -6 C626 -6 656 33 656 70 L656 70 Z M446 238 L238 238 L342 525 L446 238 Z M475 834 C475 856 455 873 435 873 C425 873 415 869 408 861 L325 772 C319 766 316 758 316 750 C316 731 333 717 349 717 C357 717 364 720 370 725 L463 807 C471 814 475 824 475 834 L475 834 Z " />
<glyph glyph-name="Acircumflex" unicode="&#xc2;" horiz-adv-x="684" d="M656 70 C656 79 654 88 651 97 L457 598 C438 647 387 677 336 673 C289 673 244 643 227 598 L32 97 C28 88 27 79 27 70 C27 32 57 -6 102 -6 C133 -6 161 12 172 41 L199 113 L485 113 L511 41 C522 12 550 -6 580 -6 C626 -6 656 33 656 70 L656 70 Z M446 238 L238 238 L342 525 L446 238 Z M469 750 C469 756 468 762 464 767 L423 829 C405 856 375 873 343 873 C309 873 278 856 261 829 L221 767 C217 762 215 755 215 749 C215 731 232 717 250 717 C259 717 268 721 275 729 L342 812 L410 729 C416 720 425 716 435 716 C456 716 469 735 469 750 L469 750 Z " />
<glyph glyph-name="Atilde" unicode="&#xc3;" horiz-adv-x="684" d="M656 70 C656 79 654 88 651 97 L457 598 C438 647 387 677 336 673 C289 673 244 643 227 598 L32 97 C28 88 27 79 27 70 C27 32 57 -6 102 -6 C133 -6 161 12 172 41 L199 113 L485 113 L511 41 C522 12 550 -6 580 -6 C626 -6 656 33 656 70 L656 70 Z M446 238 L238 238 L342 525 L446 238 Z M504 829 C504 846 493 861 475 861 C457 861 440 847 436 829 C430 804 418 794 403 794 C365 794 353 861 287 861 C203 861 181 785 181 753 C181 736 192 721 209 721 C228 721 245 735 249 753 C255 779 267 789 282 789 C320 789 331 721 399 721 C483 721 504 797 504 829 L504 829 Z " />
<glyph glyph-name="Adieresis" unicode="&#xc4;" horiz-adv-x="684" d="M656 70 C656 79 654 88 651 97 L457 598 C438 647 387 677 336 673 C289 673 244 643 227 598 L32 97 C28 88 27 79 27 70 C27 32 57 -6 102 -6 C133 -6 161 12 172 41 L199 113 L485 113 L511 41 C522 12 550 -6 580 -6 C626 -6 656 33 656 70 L656 70 Z M446 238 L238 238 L342 525 L446 238 Z M304 778 C304 815 274 845 237 845 C199 845 169 815 169 778 C169 740 199 710 237 710 C274 710 304 740 304 778 L304 778 Z M516 778 C516 815 485 845 448 845 C411 845 380 815 380 778 C380 740 411 710 448 710 C485 710 516 740 516 778 L516 778 Z " />
<glyph glyph-name="Aring" unicode="&#xc5;" horiz-adv-x="684" d="M656 70 C656 79 654 88 651 97 L457 598 C438 647 387 677 336 673 C289 673 244 643 227 598 L32 97 C28 88 27 79 27 70 C27 32 57 -6 102 -6 C133 -6 161 12 172 41 L199 113 L485 113 L511 41 C522 12 550 -6 580 -6 C626 -6 656 33 656 70 L656 70 Z M446 238 L238 238 L342 525 L446 238 Z M447 793 C447 850 401 899 343 899 C286 899 238 850 238 793 C238 735 286 688 343 688 C401 688 447 735 447 793 L447 793 Z M389 793 C389 768 369 746 343 746 C318 746 296 768 296 793 C296 819 318 840 343 840 C369 840 389 819 389 793 L389 793 Z " />
<glyph glyph-name="AE" unicode="&#xc6;" horiz-adv-x="968" d="M932 64 C932 97 904 125 871 125 L597 125 L597 276 L864 276 C897 276 925 304 925 338 C925 373 897 401 864 401 L597 401 L597 542 L871 542 C904 542 932 570 932 604 C932 639 904 667 871 667 L477 667 C429 667 381 641 355 599 L52 100 C45 88 42 76 42 63 C42 27 71 -7 111 -7 C134 -7 156 4 168 25 L219 113 L454 113 L454 80 C454 36 490 0 534 0 L871 0 C904 0 932 28 932 64 L932 64 Z M454 238 L287 238 L454 525 L454 238 Z " />
<glyph glyph-name="Ccedilla" unicode="&#xc7;" horiz-adv-x="687" d="M389 678 C189 678 34 538 34 333 C34 143 167 9 346 -9 L330 -53 C329 -57 328 -60 328 -64 C328 -79 341 -95 361 -95 C377 -95 385 -83 401 -83 C420 -83 430 -93 430 -109 C430 -131 405 -142 378 -142 C359 -142 336 -136 315 -125 C311 -123 307 -122 303 -122 C288 -122 275 -134 275 -150 C275 -181 335 -196 382 -196 C442 -196 493 -164 493 -111 C493 -69 463 -41 426 -41 C413 -41 400 -45 390 -51 L406 -11 C512 -6 583 41 631 99 C641 110 645 124 645 138 C645 171 617 200 580 200 C560 200 540 192 526 177 C489 136 439 114 389 114 C268 114 180 207 180 333 C180 459 268 552 389 552 C439 552 488 528 526 488 C540 473 559 465 578 465 C615 465 646 493 646 529 C646 542 641 557 632 568 C581 629 504 678 389 678 L389 678 Z " />
<glyph glyph-name="Egrave" unicode="&#xc8;" horiz-adv-x="583" d="M544 64 C544 97 516 125 483 125 L208 125 L208 276 L476 276 C509 276 537 304 537 338 C537 373 509 401 476 401 L208 401 L208 542 L483 542 C516 542 544 570 544 604 C544 639 516 667 483 667 L146 667 C102 667 66 631 66 587 L66 80 C66 36 102 0 146 0 L483 0 C516 0 544 28 544 64 L544 64 Z M327 750 C327 758 324 766 318 772 L235 861 C227 869 217 873 207 873 C186 873 168 854 168 834 C168 824 172 814 180 807 L273 725 C279 720 286 717 294 717 C312 717 327 733 327 750 L327 750 Z " />
<glyph glyph-name="Eacute" unicode="&#xc9;" horiz-adv-x="583" d="M544 64 C544 97 516 125 483 125 L208 125 L208 276 L476 276 C509 276 537 304 537 338 C537 373 509 401 476 401 L208 401 L208 542 L483 542 C516 542 544 570 544 604 C544 639 516 667 483 667 L146 667 C102 667 66 631 66 587 L66 80 C66 36 102 0 146 0 L483 0 C516 0 544 28 544 64 L544 64 Z M434 834 C434 856 414 873 394 873 C384 873 374 869 367 861 L284 772 C278 766 275 758 275 750 C275 731 292 717 308 717 C316 717 323 720 329 725 L422 807 C430 814 434 824 434 834 L434 834 Z " />
<glyph glyph-name="Ecircumflex" unicode="&#xca;" horiz-adv-x="583" d="M544 64 C544 97 516 125 483 125 L208 125 L208 276 L476 276 C509 276 537 304 537 338 C537 373 509 401 476 401 L208 401 L208 542 L483 542 C516 542 544 570 544 604 C544 639 516 667 483 667 L146 667 C102 667 66 631 66 587 L66 80 C66 36 102 0 146 0 L483 0 C516 0 544 28 544 64 L544 64 Z M428 750 C428 756 427 762 423 767 L382 829 C364 856 334 873 302 873 C268 873 237 856 220 829 L180 767 C176 762 174 755 174 749 C174 731 191 717 209 717 C218 717 227 721 234 729 L301 812 L369 729 C375 720 384 716 394 716 C415 716 428 735 428 750 L428 750 Z " />
<glyph glyph-name="Edieresis" unicode="&#xcb;" horiz-adv-x="583" d="M544 64 C544 97 516 125 483 125 L208 125 L208 276 L476 276 C509 276 537 304 537 338 C537 373 509 401 476 401 L208 401 L208 542 L483 542 C516 542 544 570 544 604 C544 639 516 667 483 667 L146 667 C102 667 66 631 66 587 L66 80 C66 36 102 0 146 0 L483 0 C516 0 544 28 544 64 L544 64 Z M264 778 C264 815 234 845 197 845 C159 845 129 815 129 778 C129 740 159 710 197 710 C234 710 264 740 264 778 L264 778 Z M476 778 C476 815 445 845 408 845 C371 845 340 815 340 778 C340 740 371 710 408 710 C445 710 476 740 476 778 L476 778 Z " />
<glyph glyph-name="Igrave" unicode="&#xcc;" horiz-adv-x="274" d="M208 64 L208 603 C208 641 176 673 138 673 C98 673 66 641 66 603 L66 64 C66 26 98 -6 136 -6 C176 -6 208 26 208 64 L208 64 Z M165 750 C165 758 162 766 156 772 L73 861 C65 869 55 873 45 873 C24 873 6 854 6 834 C6 824 10 814 18 807 L111 725 C117 720 124 717 132 717 C150 717 165 733 165 750 L165 750 Z " />
<glyph glyph-name="Iacute" unicode="&#xcd;" horiz-adv-x="274" d="M208 64 L208 603 C208 641 176 673 138 673 C98 673 66 641 66 603 L66 64 C66 26 98 -6 136 -6 C176 -6 208 26 208 64 L208 64 Z M271 834 C271 856 251 873 231 873 C221 873 211 869 204 861 L121 772 C115 766 112 758 112 750 C112 731 129 717 145 717 C153 717 160 720 166 725 L259 807 C267 814 271 824 271 834 L271 834 Z " />
<glyph glyph-name="Icircumflex" unicode="&#xce;" horiz-adv-x="274" d="M208 64 L208 603 C208 641 176 673 138 673 C98 673 66 641 66 603 L66 64 C66 26 98 -6 136 -6 C176 -6 208 26 208 64 L208 64 Z M264 750 C264 756 263 762 259 767 L218 829 C200 856 170 873 138 873 C104 873 73 856 56 829 L16 767 C12 762 10 755 10 749 C10 731 27 717 45 717 C54 717 63 721 70 729 L137 812 L205 729 C211 720 220 716 230 716 C251 716 264 735 264 750 L264 750 Z " />
<glyph glyph-name="Idieresis" unicode="&#xcf;" horiz-adv-x="274" d="M208 64 L208 603 C208 641 176 673 138 673 C98 673 66 641 66 603 L66 64 C66 26 98 -6 136 -6 C176 -6 208 26 208 64 L208 64 Z M100 778 C100 815 70 845 33 845 C-5 845 -35 815 -35 778 C-35 740 -5 710 33 710 C70 710 100 740 100 778 L100 778 Z M312 778 C312 815 281 845 244 845 C207 845 176 815 176 778 C176 740 207 710 244 710 C281 710 312 740 312 778 L312 778 Z " />
<glyph glyph-name="Eth" unicode="&#xd0;" horiz-adv-x="742" d="M708 333 C708 534 563 667 354 667 L171 667 C127 667 91 631 91 587 L91 382 L54 382 C25 382 2 359 2 331 C2 300 25 277 54 277 L91 277 L91 80 C91 36 127 0 171 0 L354 0 C563 0 708 132 708 333 L708 333 Z M563 333 C563 220 486 125 354 125 L233 125 L233 277 L337 277 C365 277 388 300 388 329 C388 359 365 382 337 382 L233 382 L233 542 L354 542 C491 542 563 451 563 333 L563 333 Z " />
<glyph glyph-name="Ntilde" unicode="&#xd1;" horiz-adv-x="729" d="M663 80 L663 603 C663 641 631 673 593 673 C553 673 521 641 521 603 L521 248 L237 634 C219 659 189 673 159 673 C106 673 66 629 66 582 L66 64 C66 26 98 -6 136 -6 C176 -6 208 26 208 64 L208 435 L504 30 C521 7 548 -6 575 -6 C626 -6 663 35 663 80 L663 80 Z M525 829 C525 846 514 861 496 861 C478 861 461 847 457 829 C451 804 439 794 424 794 C386 794 374 861 308 861 C224 861 202 785 202 753 C202 736 213 721 230 721 C249 721 266 735 270 753 C276 779 288 789 303 789 C341 789 352 721 420 721 C504 721 525 797 525 829 L525 829 Z " />
<glyph glyph-name="Ograve" unicode="&#xd2;" horiz-adv-x="765" d="M731 333 C731 534 584 678 382 678 C181 678 34 534 34 333 C34 132 181 -12 382 -12 C584 -12 731 132 731 333 L731 333 Z M585 333 C585 209 505 114 382 114 C259 114 180 209 180 333 C180 458 259 552 382 552 C505 552 585 458 585 333 L585 333 Z M410 750 C410 758 407 766 401 772 L318 861 C310 869 300 873 290 873 C269 873 251 854 251 834 C251 824 255 814 263 807 L356 725 C362 720 369 717 377 717 C395 717 410 733 410 750 L410 750 Z " />
<glyph glyph-name="Oacute" unicode="&#xd3;" horiz-adv-x="765" d="M731 333 C731 534 584 678 382 678 C181 678 34 534 34 333 C34 132 181 -12 382 -12 C584 -12 731 132 731 333 L731 333 Z M585 333 C585 209 505 114 382 114 C259 114 180 209 180 333 C180 458 259 552 382 552 C505 552 585 458 585 333 L585 333 Z M515 834 C515 856 495 873 475 873 C465 873 455 869 448 861 L365 772 C359 766 356 758 356 750 C356 731 373 717 389 717 C397 717 404 720 410 725 L503 807 C511 814 515 824 515 834 L515 834 Z " />
<glyph glyph-name="Ocircumflex" unicode="&#xd4;" horiz-adv-x="765" d="M731 333 C731 534 584 678 382 678 C181 678 34 534 34 333 C34 132 181 -12 382 -12 C584 -12 731 132 731 333 L731 333 Z M585 333 C585 209 505 114 382 114 C259 114 180 209 180 333 C180 458 259 552 382 552 C505 552 585 458 585 333 L585 333 Z M511 750 C511 756 510 762 506 767 L465 829 C447 856 417 873 385 873 C351 873 320 856 303 829 L263 767 C259 762 257 755 257 749 C257 731 274 717 292 717 C301 717 310 721 317 729 L384 812 L452 729 C458 720 467 716 477 716 C498 716 511 735 511 750 L511 750 Z " />
<glyph glyph-name="Otilde" unicode="&#xd5;" horiz-adv-x="765" d="M731 333 C731 534 584 678 382 678 C181 678 34 534 34 333 C34 132 181 -12 382 -12 C584 -12 731 132 731 333 L731 333 Z M585 333 C585 209 505 114 382 114 C259 114 180 209 180 333 C180 458 259 552 382 552 C505 552 585 458 585 333 L585 333 Z M544 829 C544 846 533 861 515 861 C497 861 480 847 476 829 C470 804 458 794 443 794 C405 794 393 861 327 861 C243 861 221 785 221 753 C221 736 232 721 249 721 C268 721 285 735 289 753 C295 779 307 789 322 789 C360 789 371 721 439 721 C523 721 544 797 544 829 L544 829 Z " />
<glyph glyph-name="Odieresis" unicode="&#xd6;" horiz-adv-x="765" d="M731 333 C731 534 584 678 382 678 C181 678 34 534 34 333 C34 132 181 -12 382 -12 C584 -12 731 132 731 333 L731 333 Z M585 333 C585 209 505 114 382 114 C259 114 180 209 180 333 C180 458 259 552 382 552 C505 552 585 458 585 333 L585 333 Z M345 778 C345 815 315 845 278 845 C240 845 210 815 210 778 C210 740 240 710 278 710 C315 710 345 740 345 778 L345 778 Z M557 778 C557 815 526 845 489 845 C452 845 421 815 421 778 C421 740 452 710 489 710 C526 710 557 740 557 778 L557 778 Z " />
<glyph glyph-name="multiply" unicode="&#xd7;" horiz-adv-x="504" d="M438 187 C438 197 434 206 427 214 L308 334 L427 453 C434 460 438 470 438 480 C438 503 417 520 397 520 C387 520 378 516 371 509 L252 389 L134 508 C126 516 116 520 105 520 C83 520 66 499 66 479 C66 469 70 460 78 452 L196 334 L77 214 C70 207 66 197 66 188 C66 166 86 148 107 148 C117 148 126 151 134 159 L252 278 L371 159 C379 151 388 148 398 148 C417 148 438 164 438 187 L438 187 Z " />
<glyph glyph-name="Oslash" unicode="&#xd8;" horiz-adv-x="765" d="M731 333 C731 439 690 529 622 591 L636 610 C641 617 644 625 644 632 C644 655 623 671 602 671 C589 671 578 666 570 656 L555 637 C505 663 446 678 382 678 C181 678 34 534 34 333 C34 232 71 145 133 84 L113 58 C108 50 105 42 105 33 C105 11 125 -7 147 -7 C159 -7 170 -1 178 9 L198 35 C250 5 313 -12 382 -12 C584 -12 731 132 731 333 L731 333 Z M585 333 C585 209 505 114 382 114 C342 114 307 124 278 141 L537 480 C568 442 585 391 585 333 L585 333 Z M474 531 L219 196 C194 233 180 280 180 333 C180 458 259 552 382 552 C416 552 447 544 474 531 L474 531 Z " />
<glyph glyph-name="Ugrave" unicode="&#xd9;" horiz-adv-x="733" d="M668 267 L668 602 C668 641 636 673 597 673 C555 673 523 641 523 602 L523 271 C523 178 470 114 367 114 C264 114 210 178 210 271 L210 602 C210 641 178 673 139 673 C98 673 66 641 66 602 L66 266 C66 102 164 -12 367 -12 C570 -12 668 101 668 267 L668 267 Z M394 750 C394 758 391 766 385 772 L302 861 C294 869 284 873 274 873 C253 873 235 854 235 834 C235 824 239 814 247 807 L340 725 C346 720 353 717 361 717 C379 717 394 733 394 750 L394 750 Z " />
<glyph glyph-name="Uacute" unicode="&#xda;" horiz-adv-x="733" d="M668 267 L668 602 C668 641 636 673 597 673 C555 673 523 641 523 602 L523 271 C523 178 470 114 367 114 C264 114 210 178 210 271 L210 602 C210 641 178 673 139 673 C98 673 66 641 66 602 L66 266 C66 102 164 -12 367 -12 C570 -12 668 101 668 267 L668 267 Z M500 834 C500 856 480 873 460 873 C450 873 440 869 433 861 L350 772 C344 766 341 758 341 750 C341 731 358 717 374 717 C382 717 389 720 395 725 L488 807 C496 814 500 824 500 834 L500 834 Z " />
<glyph glyph-name="Ucircumflex" unicode="&#xdb;" horiz-adv-x="733" d="M668 267 L668 602 C668 641 636 673 597 673 C555 673 523 641 523 602 L523 271 C523 178 470 114 367 114 C264 114 210 178 210 271 L210 602 C210 641 178 673 139 673 C98 673 66 641 66 602 L66 266 C66 102 164 -12 367 -12 C570 -12 668 101 668 267 L668 267 Z M497 750 C497 756 496 762 492 767 L451 829 C433 856 403 873 371 873 C337 873 306 856 289 829 L249 767 C245 762 243 755 243 749 C243 731 260 717 278 717 C287 717 296 721 303 729 L370 812 L438 729 C444 720 453 716 463 716 C484 716 497 735 497 750 L497 750 Z " />
<glyph glyph-name="Udieresis" unicode="&#xdc;" horiz-adv-x="733" d="M668 267 L668 602 C668 641 636 673 597 673 C555 673 523 641 523 602 L523 271 C523 178 470 114 367 114 C264 114 210 178 210 271 L210 602 C210 641 178 673 139 673 C98 673 66 641 66 602 L66 266 C66 102 164 -12 367 -12 C570 -12 668 101 668 267 L668 267 Z M331 778 C331 815 301 845 264 845 C226 845 196 815 196 778 C196 740 226 710 264 710 C301 710 331 740 331 778 L331 778 Z M543 778 C543 815 512 845 475 845 C438 845 407 815 407 778 C407 740 438 710 475 710 C512 710 543 740 543 778 L543 778 Z " />
<glyph glyph-name="Yacute" unicode="&#xdd;" horiz-adv-x="645" d="M597 607 C597 640 570 672 529 672 C505 672 483 660 470 639 L323 399 L173 640 C160 661 137 672 115 672 C75 672 47 639 47 607 C47 595 50 583 57 573 L252 273 L252 64 C252 26 284 -6 322 -6 C362 -6 394 26 394 64 L394 273 L587 572 C594 583 597 595 597 607 L597 607 Z M455 834 C455 856 435 873 415 873 C405 873 395 869 388 861 L305 772 C299 766 296 758 296 750 C296 731 313 717 329 717 C337 717 344 720 350 725 L443 807 C451 814 455 824 455 834 L455 834 Z " />
<glyph glyph-name="Thorn" unicode="&#xde;" horiz-adv-x="624" d="M602 343 C602 460 523 559 378 559 L208 559 L208 603 C208 641 176 673 138 673 C98 673 66 641 66 603 L66 64 C66 26 98 -6 136 -6 C176 -6 208 26 208 64 L208 130 L378 130 C522 130 602 227 602 343 L602 343 Z M457 344 C457 289 414 255 357 255 L208 255 L208 434 L357 434 C414 434 457 399 457 344 L457 344 Z " />
<glyph glyph-name="germandbls" unicode="&#xdf;" horiz-adv-x="643" d="M627 144 C627 339 366 278 366 348 C366 408 498 420 498 532 C498 622 398 677 292 677 C147 677 63 585 63 475 L63 57 C63 22 91 -6 126 -6 C162 -6 190 22 190 57 L190 475 C190 531 234 564 290 564 C328 564 367 547 367 514 C367 470 244 448 244 344 C244 162 505 218 505 139 C505 112 479 87 426 87 C386 87 347 101 316 122 C307 127 298 130 288 130 C262 130 240 109 240 80 C240 70 243 61 249 52 C275 12 354 -12 426 -12 C549 -12 627 54 627 144 L627 144 Z " />
<glyph glyph-name="agrave" unicode="&#xe0;" horiz-adv-x="543" d="M480 57 L480 312 C480 451 379 495 269 495 C213 495 105 475 75 427 C71 420 68 411 68 402 C68 372 93 353 116 353 C124 353 132 356 139 360 C172 382 209 391 247 391 C311 391 353 359 353 310 L353 245 C321 283 264 304 200 304 C123 304 32 261 32 148 C32 40 123 -12 200 -12 C263 -12 320 11 353 50 C353 50 353 50 353 50 C353 2 398 -6 408 -6 L418 -6 C452 -6 480 22 480 57 L480 57 Z M353 116 C332 88 292 74 251 74 C201 74 160 100 160 145 C160 192 201 218 251 218 C292 218 332 204 353 176 L353 116 Z M295 583 C295 591 292 599 286 605 L203 694 C195 702 185 706 175 706 C154 706 136 687 136 667 C136 657 140 647 148 640 L241 558 C247 553 254 550 262 550 C280 550 295 566 295 583 L295 583 Z " />
<glyph glyph-name="aacute" unicode="&#xe1;" horiz-adv-x="543" d="M480 57 L480 312 C480 451 379 495 269 495 C213 495 105 475 75 427 C71 420 68 411 68 402 C68 372 93 353 116 353 C124 353 132 356 139 360 C172 382 209 391 247 391 C311 391 353 359 353 310 L353 245 C321 283 264 304 200 304 C123 304 32 261 32 148 C32 40 123 -12 200 -12 C263 -12 320 11 353 50 C353 50 353 50 353 50 C353 2 398 -6 408 -6 L418 -6 C452 -6 480 22 480 57 L480 57 Z M353 116 C332 88 292 74 251 74 C201 74 160 100 160 145 C160 192 201 218 251 218 C292 218 332 204 353 176 L353 116 Z M401 667 C401 689 381 706 361 706 C351 706 341 702 334 694 L251 605 C245 599 242 591 242 583 C242 564 259 550 275 550 C283 550 290 553 296 558 L389 640 C397 647 401 657 401 667 L401 667 Z " />
<glyph glyph-name="acircumflex" unicode="&#xe2;" horiz-adv-x="543" d="M480 57 L480 312 C480 451 379 495 269 495 C213 495 105 475 75 427 C71 420 68 411 68 402 C68 372 93 353 116 353 C124 353 132 356 139 360 C172 382 209 391 247 391 C311 391 353 359 353 310 L353 245 C321 283 264 304 200 304 C123 304 32 261 32 148 C32 40 123 -12 200 -12 C263 -12 320 11 353 50 C353 50 353 50 353 50 C353 2 398 -6 408 -6 L418 -6 C452 -6 480 22 480 57 L480 57 Z M353 116 C332 88 292 74 251 74 C201 74 160 100 160 145 C160 192 201 218 251 218 C292 218 332 204 353 176 L353 116 Z M397 583 C397 589 396 595 392 600 L351 662 C333 689 303 706 271 706 C237 706 206 689 189 662 L149 600 C145 595 143 588 143 582 C143 564 160 550 178 550 C187 550 196 554 203 562 L270 645 L338 562 C344 553 353 549 363 549 C384 549 397 568 397 583 L397 583 Z " />
<glyph glyph-name="atilde" unicode="&#xe3;" horiz-adv-x="543" d="M480 57 L480 312 C480 451 379 495 269 495 C213 495 105 475 75 427 C71 420 68 411 68 402 C68 372 93 353 116 353 C124 353 132 356 139 360 C172 382 209 391 247 391 C311 391 353 359 353 310 L353 245 C321 283 264 304 200 304 C123 304 32 261 32 148 C32 40 123 -12 200 -12 C263 -12 320 11 353 50 C353 50 353 50 353 50 C353 2 398 -6 408 -6 L418 -6 C452 -6 480 22 480 57 L480 57 Z M353 116 C332 88 292 74 251 74 C201 74 160 100 160 145 C160 192 201 218 251 218 C292 218 332 204 353 176 L353 116 Z M431 662 C431 679 420 694 402 694 C384 694 367 680 363 662 C357 637 345 627 330 627 C292 627 280 694 214 694 C130 694 108 618 108 586 C108 569 119 554 136 554 C155 554 172 568 176 586 C182 612 194 622 209 622 C247 622 258 554 326 554 C410 554 431 630 431 662 L431 662 Z " />
<glyph glyph-name="adieresis" unicode="&#xe4;" horiz-adv-x="543" d="M480 57 L480 312 C480 451 379 495 269 495 C213 495 105 475 75 427 C71 420 68 411 68 402 C68 372 93 353 116 353 C124 353 132 356 139 360 C172 382 209 391 247 391 C311 391 353 359 353 310 L353 245 C321 283 264 304 200 304 C123 304 32 261 32 148 C32 40 123 -12 200 -12 C263 -12 320 11 353 50 C353 50 353 50 353 50 C353 2 398 -6 408 -6 L418 -6 C452 -6 480 22 480 57 L480 57 Z M353 116 C332 88 292 74 251 74 C201 74 160 100 160 145 C160 192 201 218 251 218 C292 218 332 204 353 176 L353 116 Z M231 611 C231 648 201 678 164 678 C126 678 96 648 96 611 C96 573 126 543 164 543 C201 543 231 573 231 611 L231 611 Z M443 611 C443 648 412 678 375 678 C338 678 307 648 307 611 C307 573 338 543 375 543 C412 543 443 573 443 611 L443 611 Z " />
<glyph glyph-name="aring" unicode="&#xe5;" horiz-adv-x="543" d="M480 57 L480 312 C480 451 379 495 269 495 C213 495 105 475 75 427 C71 420 68 411 68 402 C68 372 93 353 116 353 C124 353 132 356 139 360 C172 382 209 391 247 391 C311 391 353 359 353 310 L353 245 C321 283 264 304 200 304 C123 304 32 261 32 148 C32 40 123 -12 200 -12 C263 -12 320 11 353 50 C353 50 353 50 353 50 C353 2 398 -6 408 -6 L418 -6 C452 -6 480 22 480 57 L480 57 Z M353 116 C332 88 292 74 251 74 C201 74 160 100 160 145 C160 192 201 218 251 218 C292 218 332 204 353 176 L353 116 Z M375 636 C375 693 329 742 271 742 C214 742 166 693 166 636 C166 578 214 531 271 531 C329 531 375 578 375 636 L375 636 Z M317 636 C317 611 297 589 271 589 C246 589 224 611 224 636 C224 662 246 683 271 683 C297 683 317 662 317 636 L317 636 Z " />
<glyph glyph-name="ae" unicode="&#xe6;" horiz-adv-x="870" d="M839 261 C839 290 832 314 826 333 C795 433 718 495 616 495 C525 495 476 458 441 412 C414 465 357 495 272 495 C217 495 105 475 76 426 C71 418 69 410 69 401 C69 372 93 352 116 352 C124 352 133 355 140 359 C177 382 217 391 257 391 C326 391 372 359 372 311 L372 246 C335 284 273 304 207 304 C113 304 32 252 32 146 C32 38 128 -12 234 -12 C320 -12 395 25 435 76 C479 13 543 -12 621 -12 C665 -12 760 4 787 46 C791 53 794 61 794 70 C794 99 767 119 741 119 C732 119 722 117 714 113 C687 99 657 92 630 92 C553 92 509 142 500 201 L779 201 C812 201 839 228 839 261 L839 261 Z M718 287 L498 287 C503 335 536 394 608 394 C686 394 716 333 718 287 L718 287 Z M372 169 C372 131 320 88 256 88 C204 88 160 109 160 153 C160 196 204 218 259 218 C304 218 348 202 372 175 L372 169 Z " />
<glyph glyph-name="ccedilla" unicode="&#xe7;" horiz-adv-x="499" d="M461 77 C461 110 431 132 400 132 C388 132 377 129 366 122 C344 108 320 101 294 101 C217 101 163 158 163 242 C163 326 217 382 294 382 C319 382 344 375 365 362 C376 355 388 352 400 352 C428 352 460 372 460 406 C460 414 458 422 454 429 C433 468 363 495 288 495 C139 495 32 390 32 242 C32 104 123 4 254 -10 L238 -53 C237 -57 236 -60 236 -64 C236 -79 249 -95 269 -95 C285 -95 293 -83 309 -83 C328 -83 338 -93 338 -109 C338 -131 313 -142 286 -142 C267 -142 244 -136 223 -125 C219 -123 215 -122 211 -122 C196 -122 183 -134 183 -150 C183 -181 243 -196 290 -196 C350 -196 401 -164 401 -111 C401 -69 371 -41 334 -41 C321 -41 308 -45 298 -51 L314 -11 C375 -5 436 19 455 54 C459 61 461 69 461 77 L461 77 Z " />
<glyph glyph-name="egrave" unicode="&#xe8;" horiz-adv-x="553" d="M522 259 C522 283 515 310 508 332 C474 432 391 495 282 495 C135 495 32 382 32 242 C32 87 143 -12 290 -12 C354 -12 477 11 477 68 C477 98 450 119 423 119 C415 119 406 117 398 113 C368 97 331 89 304 89 C222 89 173 140 165 201 L463 201 C496 201 522 228 522 259 L522 259 Z M401 287 L163 287 C169 335 203 394 282 394 C366 394 398 333 401 287 L401 287 Z M309 583 C309 591 306 599 300 605 L217 694 C209 702 199 706 189 706 C168 706 150 687 150 667 C150 657 154 647 162 640 L255 558 C261 553 268 550 276 550 C294 550 309 566 309 583 L309 583 Z " />
<glyph glyph-name="eacute" unicode="&#xe9;" horiz-adv-x="553" d="M522 259 C522 283 515 310 508 332 C474 432 391 495 282 495 C135 495 32 382 32 242 C32 87 143 -12 290 -12 C354 -12 477 11 477 68 C477 98 450 119 423 119 C415 119 406 117 398 113 C368 97 331 89 304 89 C222 89 173 140 165 201 L463 201 C496 201 522 228 522 259 L522 259 Z M401 287 L163 287 C169 335 203 394 282 394 C366 394 398 333 401 287 L401 287 Z M415 667 C415 689 395 706 375 706 C365 706 355 702 348 694 L265 605 C259 599 256 591 256 583 C256 564 273 550 289 550 C297 550 304 553 310 558 L403 640 C411 647 415 657 415 667 L415 667 Z " />
<glyph glyph-name="ecircumflex" unicode="&#xea;" horiz-adv-x="553" d="M522 259 C522 283 515 310 508 332 C474 432 391 495 282 495 C135 495 32 382 32 242 C32 87 143 -12 290 -12 C354 -12 477 11 477 68 C477 98 450 119 423 119 C415 119 406 117 398 113 C368 97 331 89 304 89 C222 89 173 140 165 201 L463 201 C496 201 522 228 522 259 L522 259 Z M401 287 L163 287 C169 335 203 394 282 394 C366 394 398 333 401 287 L401 287 Z M409 583 C409 589 408 595 404 600 L363 662 C345 689 315 706 283 706 C249 706 218 689 201 662 L161 600 C157 595 155 588 155 582 C155 564 172 550 190 550 C199 550 208 554 215 562 L282 645 L350 562 C356 553 365 549 375 549 C396 549 409 568 409 583 L409 583 Z " />
<glyph glyph-name="edieresis" unicode="&#xeb;" horiz-adv-x="553" d="M522 259 C522 283 515 310 508 332 C474 432 391 495 282 495 C135 495 32 382 32 242 C32 87 143 -12 290 -12 C354 -12 477 11 477 68 C477 98 450 119 423 119 C415 119 406 117 398 113 C368 97 331 89 304 89 C222 89 173 140 165 201 L463 201 C496 201 522 228 522 259 L522 259 Z M401 287 L163 287 C169 335 203 394 282 394 C366 394 398 333 401 287 L401 287 Z M245 611 C245 648 215 678 178 678 C140 678 110 648 110 611 C110 573 140 543 178 543 C215 543 245 573 245 611 L245 611 Z M457 611 C457 648 426 678 389 678 C352 678 321 648 321 611 C321 573 352 543 389 543 C426 543 457 573 457 611 L457 611 Z " />
<glyph glyph-name="igrave" unicode="&#xec;" horiz-adv-x="253" d="M154 583 C154 591 151 599 145 605 L62 694 C54 702 44 706 34 706 C13 706 -5 687 -5 667 C-5 657 -1 647 7 640 L100 558 C106 553 113 550 121 550 C139 550 154 566 154 583 L154 583 Z M190 57 L190 427 C190 461 162 489 128 489 C91 489 63 461 63 427 L63 57 C63 22 91 -6 126 -6 C162 -6 190 22 190 57 L190 57 Z " />
<glyph glyph-name="iacute" unicode="&#xed;" horiz-adv-x="253" d="M259 667 C259 689 239 706 219 706 C209 706 199 702 192 694 L109 605 C103 599 100 591 100 583 C100 564 117 550 133 550 C141 550 148 553 154 558 L247 640 C255 647 259 657 259 667 L259 667 Z M190 57 L190 427 C190 461 162 489 128 489 C91 489 63 461 63 427 L63 57 C63 22 91 -6 126 -6 C162 -6 190 22 190 57 L190 57 Z " />
<glyph glyph-name="icircumflex" unicode="&#xee;" horiz-adv-x="253" d="M190 57 L190 427 C190 461 162 489 128 489 C91 489 63 461 63 427 L63 57 C63 22 91 -6 126 -6 C162 -6 190 22 190 57 L190 57 Z M253 583 C253 589 252 595 248 600 L207 662 C189 689 159 706 127 706 C93 706 62 689 45 662 L5 600 C1 595 -1 588 -1 582 C-1 564 16 550 34 550 C43 550 52 554 59 562 L126 645 L194 562 C200 553 209 549 219 549 C240 549 253 568 253 583 L253 583 Z " />
<glyph glyph-name="idieresis" unicode="&#xef;" horiz-adv-x="253" d="M89 611 C89 648 59 678 22 678 C-16 678 -46 648 -46 611 C-46 573 -16 543 22 543 C59 543 89 573 89 611 L89 611 Z M301 611 C301 648 270 678 233 678 C196 678 165 648 165 611 C165 573 196 543 233 543 C270 543 301 573 301 611 L301 611 Z M190 57 L190 427 C190 461 162 489 128 489 C91 489 63 461 63 427 L63 57 C63 22 91 -6 126 -6 C162 -6 190 22 190 57 L190 57 Z " />
<glyph glyph-name="eth" unicode="&#xf0;" horiz-adv-x="574" d="M543 252 C543 385 478 493 371 588 L422 611 C433 616 440 627 440 639 C440 659 423 671 408 671 C404 671 400 670 397 669 L316 633 C286 656 237 696 205 696 C174 696 144 671 143 635 C143 607 160 589 185 576 L101 539 C89 534 81 522 81 509 C81 489 98 476 113 476 C117 476 122 477 126 479 L249 533 C319 484 379 428 406 367 C367 429 315 460 246 460 C125 460 32 362 32 224 C32 87 133 -12 287 -12 C447 -12 543 96 543 252 L543 252 Z M411 224 C411 157 366 101 287 101 C208 101 164 157 164 224 C164 291 208 347 287 347 C366 347 411 291 411 224 L411 224 Z " />
<glyph glyph-name="ntilde" unicode="&#xf1;" horiz-adv-x="579" d="M516 57 L516 341 C516 435 465 495 359 495 C280 495 221 457 190 420 L190 427 C190 461 162 489 128 489 C91 489 63 461 63 427 L63 57 C63 22 91 -6 126 -6 C162 -6 190 22 190 57 L190 325 C211 354 250 382 300 382 C354 382 389 359 389 292 L389 57 C389 22 417 -6 452 -6 C488 -6 516 22 516 57 L516 57 Z M452 662 C452 679 441 694 423 694 C405 694 388 680 384 662 C378 637 366 627 351 627 C313 627 301 694 235 694 C151 694 129 618 129 586 C129 569 140 554 157 554 C176 554 193 568 197 586 C203 612 215 622 230 622 C268 622 279 554 347 554 C431 554 452 630 452 662 L452 662 Z " />
<glyph glyph-name="ograve" unicode="&#xf2;" horiz-adv-x="574" d="M543 242 C543 379 447 495 287 495 C128 495 32 379 32 242 C32 104 128 -12 287 -12 C447 -12 543 104 543 242 L543 242 Z M411 242 C411 166 366 101 287 101 C208 101 164 166 164 242 C164 317 208 382 287 382 C366 382 411 317 411 242 L411 242 Z M314 583 C314 591 311 599 305 605 L222 694 C214 702 204 706 194 706 C173 706 155 687 155 667 C155 657 159 647 167 640 L260 558 C266 553 273 550 281 550 C299 550 314 566 314 583 L314 583 Z " />
<glyph glyph-name="oacute" unicode="&#xf3;" horiz-adv-x="574" d="M543 242 C543 379 447 495 287 495 C128 495 32 379 32 242 C32 104 128 -12 287 -12 C447 -12 543 104 543 242 L543 242 Z M411 242 C411 166 366 101 287 101 C208 101 164 166 164 242 C164 317 208 382 287 382 C366 382 411 317 411 242 L411 242 Z M420 667 C420 689 400 706 380 706 C370 706 360 702 353 694 L270 605 C264 599 261 591 261 583 C261 564 278 550 294 550 C302 550 309 553 315 558 L408 640 C416 647 420 657 420 667 L420 667 Z " />
<glyph glyph-name="ocircumflex" unicode="&#xf4;" horiz-adv-x="574" d="M543 242 C543 379 447 495 287 495 C128 495 32 379 32 242 C32 104 128 -12 287 -12 C447 -12 543 104 543 242 L543 242 Z M411 242 C411 166 366 101 287 101 C208 101 164 166 164 242 C164 317 208 382 287 382 C366 382 411 317 411 242 L411 242 Z M413 583 C413 589 412 595 408 600 L367 662 C349 689 319 706 287 706 C253 706 222 689 205 662 L165 600 C161 595 159 588 159 582 C159 564 176 550 194 550 C203 550 212 554 219 562 L286 645 L354 562 C360 553 369 549 379 549 C400 549 413 568 413 583 L413 583 Z " />
<glyph glyph-name="otilde" unicode="&#xf5;" horiz-adv-x="574" d="M543 242 C543 379 447 495 287 495 C128 495 32 379 32 242 C32 104 128 -12 287 -12 C447 -12 543 104 543 242 L543 242 Z M411 242 C411 166 366 101 287 101 C208 101 164 166 164 242 C164 317 208 382 287 382 C366 382 411 317 411 242 L411 242 Z M449 662 C449 679 438 694 420 694 C402 694 385 680 381 662 C375 637 363 627 348 627 C310 627 298 694 232 694 C148 694 126 618 126 586 C126 569 137 554 154 554 C173 554 190 568 194 586 C200 612 212 622 227 622 C265 622 276 554 344 554 C428 554 449 630 449 662 L449 662 Z " />
<glyph glyph-name="odieresis" unicode="&#xf6;" horiz-adv-x="574" d="M543 242 C543 379 447 495 287 495 C128 495 32 379 32 242 C32 104 128 -12 287 -12 C447 -12 543 104 543 242 L543 242 Z M411 242 C411 166 366 101 287 101 C208 101 164 166 164 242 C164 317 208 382 287 382 C366 382 411 317 411 242 L411 242 Z M249 611 C249 648 219 678 182 678 C144 678 114 648 114 611 C114 573 144 543 182 543 C219 543 249 573 249 611 L249 611 Z M461 611 C461 648 430 678 393 678 C356 678 325 648 325 611 C325 573 356 543 393 543 C430 543 461 573 461 611 L461 611 Z " />
<glyph glyph-name="divide" unicode="&#xf7;" horiz-adv-x="511" d="M255 576 C221 576 194 549 194 516 C194 482 221 454 255 454 C289 454 316 482 316 516 C316 549 289 576 255 576 L255 576 Z M488 339 C488 360 471 377 450 377 L62 377 C40 377 23 360 23 339 C23 315 40 298 62 298 L450 298 C471 298 488 315 488 339 L488 339 Z M316 157 C316 190 289 218 255 218 C221 218 194 190 194 157 C194 123 221 96 255 96 C289 96 316 123 316 157 L316 157 Z " />
<glyph glyph-name="oslash" unicode="&#xf8;" horiz-adv-x="574" d="M142 28 C181 2 230 -12 287 -12 C447 -12 543 104 543 242 C543 310 519 373 475 419 L493 440 C497 445 500 452 500 459 C500 475 484 488 468 488 C459 488 451 485 446 478 L428 457 C390 481 342 495 287 495 C128 495 32 379 32 242 C32 174 55 113 97 67 L76 42 C71 37 69 30 69 23 C69 7 83 -7 99 -7 C107 -7 115 -4 121 3 L142 28 Z M220 120 L391 321 C404 298 411 271 411 242 C411 166 366 101 287 101 C261 101 238 107 220 120 L220 120 Z M287 382 C311 382 332 376 350 365 L181 166 C170 188 164 214 164 242 C164 317 208 382 287 382 L287 382 Z " />
<glyph glyph-name="ugrave" unicode="&#xf9;" horiz-adv-x="579" d="M516 57 L516 427 C516 461 488 489 454 489 C417 489 389 461 389 427 L389 156 C367 128 328 101 279 101 C225 101 190 123 190 190 L190 427 C190 461 162 489 128 489 C91 489 63 461 63 427 L63 140 C63 46 113 -12 219 -12 C298 -12 356 24 389 61 L389 57 C389 22 417 -6 452 -6 C488 -6 516 22 516 57 L516 57 Z M316 583 C316 591 313 599 307 605 L224 694 C216 702 206 706 196 706 C175 706 157 687 157 667 C157 657 161 647 169 640 L262 558 C268 553 275 550 283 550 C301 550 316 566 316 583 L316 583 Z " />
<glyph glyph-name="uacute" unicode="&#xfa;" horiz-adv-x="579" d="M516 57 L516 427 C516 461 488 489 454 489 C417 489 389 461 389 427 L389 156 C367 128 328 101 279 101 C225 101 190 123 190 190 L190 427 C190 461 162 489 128 489 C91 489 63 461 63 427 L63 140 C63 46 113 -12 219 -12 C298 -12 356 24 389 61 L389 57 C389 22 417 -6 452 -6 C488 -6 516 22 516 57 L516 57 Z M421 667 C421 689 401 706 381 706 C371 706 361 702 354 694 L271 605 C265 599 262 591 262 583 C262 564 279 550 295 550 C303 550 310 553 316 558 L409 640 C417 647 421 657 421 667 L421 667 Z " />
<glyph glyph-name="ucircumflex" unicode="&#xfb;" horiz-adv-x="579" d="M516 57 L516 427 C516 461 488 489 454 489 C417 489 389 461 389 427 L389 156 C367 128 328 101 279 101 C225 101 190 123 190 190 L190 427 C190 461 162 489 128 489 C91 489 63 461 63 427 L63 140 C63 46 113 -12 219 -12 C298 -12 356 24 389 61 L389 57 C389 22 417 -6 452 -6 C488 -6 516 22 516 57 L516 57 Z M416 583 C416 589 415 595 411 600 L370 662 C352 689 322 706 290 706 C256 706 225 689 208 662 L168 600 C164 595 162 588 162 582 C162 564 179 550 197 550 C206 550 215 554 222 562 L289 645 L357 562 C363 553 372 549 382 549 C403 549 416 568 416 583 L416 583 Z " />
<glyph glyph-name="udieresis" unicode="&#xfc;" horiz-adv-x="579" d="M516 57 L516 427 C516 461 488 489 454 489 C417 489 389 461 389 427 L389 156 C367 128 328 101 279 101 C225 101 190 123 190 190 L190 427 C190 461 162 489 128 489 C91 489 63 461 63 427 L63 140 C63 46 113 -12 219 -12 C298 -12 356 24 389 61 L389 57 C389 22 417 -6 452 -6 C488 -6 516 22 516 57 L516 57 Z M251 611 C251 648 221 678 184 678 C146 678 116 648 116 611 C116 573 146 543 184 543 C221 543 251 573 251 611 L251 611 Z M463 611 C463 648 432 678 395 678 C358 678 327 648 327 611 C327 573 358 543 395 543 C432 543 463 573 463 611 L463 611 Z " />
<glyph glyph-name="yacute" unicode="&#xfd;" horiz-adv-x="513" d="M491 427 C491 458 467 489 429 489 C402 489 377 472 368 447 L256 147 L144 447 C134 473 110 489 85 489 C46 489 21 457 21 426 C21 419 22 412 25 405 L190 -7 L172 -48 C163 -68 145 -78 124 -82 C119 -83 113 -83 108 -83 C72 -83 48 -109 48 -139 C48 -174 82 -196 126 -196 C197 -196 258 -163 292 -79 L487 404 C490 411 491 419 491 427 L491 427 Z M388 667 C388 689 368 706 348 706 C338 706 328 702 321 694 L238 605 C232 599 229 591 229 583 C229 564 246 550 262 550 C270 550 277 553 283 558 L376 640 C384 647 388 657 388 667 L388 667 Z " />
<glyph glyph-name="thorn" unicode="&#xfe;" horiz-adv-x="583" d="M553 242 C553 403 463 495 339 495 C280 495 227 469 190 422 L190 611 C190 645 162 673 128 673 C91 673 63 645 63 611 L63 -128 C63 -162 91 -190 126 -190 C162 -190 190 -162 190 -128 L190 62 C229 12 282 -12 339 -12 C463 -12 553 81 553 242 L553 242 Z M421 242 C421 158 372 101 299 101 C258 101 211 126 190 156 L190 327 C211 358 258 382 299 382 C372 382 421 325 421 242 L421 242 Z " />
<glyph glyph-name="ydieresis" unicode="&#xff;" horiz-adv-x="513" d="M491 427 C491 458 467 489 429 489 C402 489 377 472 368 447 L256 147 L144 447 C134 473 110 489 85 489 C46 489 21 457 21 426 C21 419 22 412 25 405 L190 -7 L172 -48 C163 -68 145 -78 124 -82 C119 -83 113 -83 108 -83 C72 -83 48 -109 48 -139 C48 -174 82 -196 126 -196 C197 -196 258 -163 292 -79 L487 404 C490 411 491 419 491 427 L491 427 Z M218 611 C218 648 188 678 151 678 C113 678 83 648 83 611 C83 573 113 543 151 543 C188 543 218 573 218 611 L218 611 Z M430 611 C430 648 399 678 362 678 C325 678 294 648 294 611 C294 573 325 543 362 543 C399 543 430 573 430 611 L430 611 Z " />
<glyph glyph-name="Amacron" unicode="&#x100;" horiz-adv-x="684" d="M656 70 C656 79 654 88 651 97 L457 598 C438 647 387 677 336 673 C289 673 244 643 227 598 L32 97 C28 88 27 79 27 70 C27 32 57 -6 102 -6 C133 -6 161 12 172 41 L199 113 L485 113 L511 41 C522 12 550 -6 580 -6 C626 -6 656 33 656 70 L656 70 Z M446 238 L238 238 L342 525 L446 238 Z M523 766 C523 785 507 801 488 801 L195 801 C176 801 160 785 160 766 C160 745 176 729 195 729 L488 729 C507 729 523 745 523 766 L523 766 Z " />
<glyph glyph-name="amacron" unicode="&#x101;" horiz-adv-x="543" d="M480 57 L480 312 C480 451 379 495 269 495 C213 495 105 475 75 427 C71 420 68 411 68 402 C68 372 93 353 116 353 C124 353 132 356 139 360 C172 382 209 391 247 391 C311 391 353 359 353 310 L353 245 C321 283 264 304 200 304 C123 304 32 261 32 148 C32 40 123 -12 200 -12 C263 -12 320 11 353 50 C353 50 353 50 353 50 C353 2 398 -6 408 -6 L418 -6 C452 -6 480 22 480 57 L480 57 Z M353 116 C332 88 292 74 251 74 C201 74 160 100 160 145 C160 192 201 218 251 218 C292 218 332 204 353 176 L353 116 Z M451 599 C451 618 435 634 416 634 L123 634 C104 634 88 618 88 599 C88 578 104 562 123 562 L416 562 C435 562 451 578 451 599 L451 599 Z " />
<glyph glyph-name="Abreve" unicode="&#x102;" horiz-adv-x="684" d="M656 70 C656 79 654 88 651 97 L457 598 C438 647 387 677 336 673 C289 673 244 643 227 598 L32 97 C28 88 27 79 27 70 C27 32 57 -6 102 -6 C133 -6 161 12 172 41 L199 113 L485 113 L511 41 C522 12 550 -6 580 -6 C626 -6 656 33 656 70 L656 70 Z M446 238 L238 238 L342 525 L446 238 Z M503 781 C503 801 485 818 466 818 C456 818 445 814 437 807 C412 784 379 771 342 771 C303 771 271 784 246 806 C237 813 227 817 217 817 C198 817 181 800 181 781 C181 773 184 765 190 759 C230 721 283 698 342 698 C401 698 454 721 494 759 C500 765 503 773 503 781 L503 781 Z " />
<glyph glyph-name="abreve" unicode="&#x103;" horiz-adv-x="543" d="M480 57 L480 312 C480 451 379 495 269 495 C213 495 105 475 75 427 C71 420 68 411 68 402 C68 372 93 353 116 353 C124 353 132 356 139 360 C172 382 209 391 247 391 C311 391 353 359 353 310 L353 245 C321 283 264 304 200 304 C123 304 32 261 32 148 C32 40 123 -12 200 -12 C263 -12 320 11 353 50 C353 50 353 50 353 50 C353 2 398 -6 408 -6 L418 -6 C452 -6 480 22 480 57 L480 57 Z M353 116 C332 88 292 74 251 74 C201 74 160 100 160 145 C160 192 201 218 251 218 C292 218 332 204 353 176 L353 116 Z M431 614 C431 634 413 651 394 651 C384 651 373 647 365 640 C340 617 307 604 270 604 C231 604 199 617 174 639 C165 646 155 650 145 650 C126 650 109 633 109 614 C109 606 112 598 118 592 C158 554 211 531 270 531 C329 531 382 554 422 592 C428 598 431 606 431 614 L431 614 Z " />
<glyph glyph-name="Aogonek" unicode="&#x104;" horiz-adv-x="684" d="M742 -133 C742 -119 730 -107 714 -107 C707 -107 702 -109 697 -112 C683 -119 673 -133 655 -133 C636 -133 618 -121 618 -90 C618 -63 629 -41 640 -20 C652 3 664 24 664 49 C664 59 662 68 658 79 L457 598 C438 647 387 677 336 673 C289 673 244 643 227 598 L32 97 C28 88 27 79 27 70 C27 32 57 -6 102 -6 C133 -6 161 12 172 41 L199 113 L485 113 L511 41 C521 12 549 -6 579 -6 C585 -6 590 -5 596 -4 C569 -30 555 -61 555 -96 C555 -160 602 -186 655 -186 C690 -186 742 -164 742 -133 L742 -133 Z M446 238 L238 238 L342 525 L446 238 Z " />
<glyph glyph-name="aogonek" unicode="&#x105;" horiz-adv-x="543" d="M534 -133 C534 -119 522 -107 506 -107 C499 -107 494 -109 489 -112 C475 -119 465 -133 447 -133 C428 -133 410 -121 410 -90 C410 -30 453 -9 472 25 C477 35 480 45 480 57 L480 312 C480 451 379 495 269 495 C213 495 105 475 75 427 C71 420 68 411 68 402 C68 372 93 353 116 353 C124 353 132 356 139 360 C172 382 209 391 247 391 C311 391 353 359 353 310 L353 245 C321 283 264 304 200 304 C123 304 32 261 32 148 C32 40 123 -12 200 -12 C263 -12 320 11 353 50 C353 26 367 4 389 -3 C362 -29 347 -60 347 -96 C347 -160 394 -186 447 -186 C482 -186 534 -164 534 -133 L534 -133 Z M353 116 C332 88 292 74 251 74 C201 74 160 100 160 145 C160 192 201 218 251 218 C292 218 332 204 353 176 L353 116 Z " />
<glyph glyph-name="Cacute" unicode="&#x106;" horiz-adv-x="687" d="M389 678 C189 678 34 538 34 333 C34 128 189 -12 389 -12 C504 -12 581 38 631 99 C641 110 645 124 645 138 C645 172 616 200 580 200 C560 200 540 192 526 177 C489 136 439 114 389 114 C268 114 180 207 180 333 C180 459 268 552 389 552 C439 552 488 528 526 488 C540 473 559 465 578 465 C615 465 646 493 646 529 C646 542 641 557 632 568 C581 629 504 678 389 678 L389 678 Z M521 834 C521 856 501 873 481 873 C471 873 461 869 454 861 L371 772 C365 766 362 758 362 750 C362 731 379 717 395 717 C403 717 410 720 416 725 L509 807 C517 814 521 824 521 834 L521 834 Z " />
<glyph glyph-name="cacute" unicode="&#x107;" horiz-adv-x="499" d="M461 77 C461 110 431 132 400 132 C388 132 377 129 366 122 C344 108 320 101 294 101 C217 101 163 158 163 242 C163 326 217 382 294 382 C319 382 344 375 365 362 C376 355 388 352 400 352 C428 352 460 372 460 406 C460 414 458 422 454 429 C433 468 363 495 288 495 C139 495 32 390 32 242 C32 93 139 -12 288 -12 C356 -12 406 8 441 36 C454 46 461 62 461 77 L461 77 Z M420 667 C420 689 400 706 380 706 C370 706 360 702 353 694 L270 605 C264 599 261 591 261 583 C261 564 278 550 294 550 C302 550 309 553 315 558 L408 640 C416 647 420 657 420 667 L420 667 Z " />
<glyph glyph-name="Ccircumflex" unicode="&#x108;" horiz-adv-x="687" d="M389 678 C189 678 34 538 34 333 C34 128 189 -12 389 -12 C504 -12 581 38 631 99 C641 110 645 124 645 138 C645 172 616 200 580 200 C560 200 540 192 526 177 C489 136 439 114 389 114 C268 114 180 207 180 333 C180 459 268 552 389 552 C439 552 488 528 526 488 C540 473 559 465 578 465 C615 465 646 493 646 529 C646 542 641 557 632 568 C581 629 504 678 389 678 L389 678 Z M518 767 C518 773 517 779 513 784 L472 846 C454 873 424 890 392 890 C358 890 327 873 310 846 L270 784 C266 779 264 772 264 766 C264 748 281 734 299 734 C308 734 317 738 324 746 L391 829 L459 746 C465 737 474 733 484 733 C505 733 518 752 518 767 L518 767 Z " />
<glyph glyph-name="ccircumflex" unicode="&#x109;" horiz-adv-x="499" d="M461 77 C461 110 431 132 400 132 C388 132 377 129 366 122 C344 108 320 101 294 101 C217 101 163 158 163 242 C163 326 217 382 294 382 C319 382 344 375 365 362 C376 355 388 352 400 352 C428 352 460 372 460 406 C460 414 458 422 454 429 C433 468 363 495 288 495 C139 495 32 390 32 242 C32 93 139 -12 288 -12 C356 -12 406 8 441 36 C454 46 461 62 461 77 L461 77 Z M416 583 C416 589 415 595 411 600 L370 662 C352 689 322 706 290 706 C256 706 225 689 208 662 L168 600 C164 595 162 588 162 582 C162 564 179 550 197 550 C206 550 215 554 222 562 L289 645 L357 562 C363 553 372 549 382 549 C403 549 416 568 416 583 L416 583 Z " />
<glyph glyph-name="Cdotaccent" unicode="&#x10a;" horiz-adv-x="687" d="M389 678 C189 678 34 538 34 333 C34 128 189 -12 389 -12 C504 -12 581 38 631 99 C641 110 645 124 645 138 C645 172 616 200 580 200 C560 200 540 192 526 177 C489 136 439 114 389 114 C268 114 180 207 180 333 C180 459 268 552 389 552 C439 552 488 528 526 488 C540 473 559 465 578 465 C615 465 646 493 646 529 C646 542 641 557 632 568 C581 629 504 678 389 678 L389 678 Z M459 795 C459 832 428 863 392 863 C354 863 324 832 324 795 C324 757 354 727 392 727 C428 727 459 757 459 795 L459 795 Z " />
<glyph glyph-name="cdotaccent" unicode="&#x10b;" horiz-adv-x="499" d="M461 77 C461 110 431 132 400 132 C388 132 377 129 366 122 C344 108 320 101 294 101 C217 101 163 158 163 242 C163 326 217 382 294 382 C319 382 344 375 365 362 C376 355 388 352 400 352 C428 352 460 372 460 406 C460 414 458 422 454 429 C433 468 363 495 288 495 C139 495 32 390 32 242 C32 93 139 -12 288 -12 C356 -12 406 8 441 36 C454 46 461 62 461 77 L461 77 Z M357 611 C357 648 326 679 290 679 C252 679 222 648 222 611 C222 573 252 543 290 543 C326 543 357 573 357 611 L357 611 Z " />
<glyph glyph-name="Ccaron" unicode="&#x10c;" horiz-adv-x="687" d="M389 678 C189 678 34 538 34 333 C34 128 189 -12 389 -12 C504 -12 581 38 631 99 C641 110 645 124 645 138 C645 172 616 200 580 200 C560 200 540 192 526 177 C489 136 439 114 389 114 C268 114 180 207 180 333 C180 459 268 552 389 552 C439 552 488 528 526 488 C540 473 559 465 578 465 C615 465 646 493 646 529 C646 542 641 557 632 568 C581 629 504 678 389 678 L389 678 Z M517 839 C517 858 500 872 482 872 C473 872 464 868 458 860 L390 777 L323 860 C316 868 306 872 297 872 C276 872 263 854 263 839 C263 833 265 827 269 822 L309 760 C326 733 357 716 389 716 C423 716 453 733 471 760 L512 822 C516 827 517 833 517 839 L517 839 Z " />
<glyph glyph-name="ccaron" unicode="&#x10d;" horiz-adv-x="499" d="M461 77 C461 110 431 132 400 132 C388 132 377 129 366 122 C344 108 320 101 294 101 C217 101 163 158 163 242 C163 326 217 382 294 382 C319 382 344 375 365 362 C376 355 388 352 400 352 C428 352 460 372 460 406 C460 414 458 422 454 429 C433 468 363 495 288 495 C139 495 32 390 32 242 C32 93 139 -12 288 -12 C356 -12 406 8 441 36 C454 46 461 62 461 77 L461 77 Z M421 672 C421 691 404 705 386 705 C377 705 368 701 362 693 L294 610 L227 693 C220 701 210 705 201 705 C180 705 167 687 167 672 C167 666 169 660 173 655 L213 593 C230 566 261 549 293 549 C327 549 357 566 375 593 L416 655 C420 660 421 666 421 672 L421 672 Z " />
<glyph glyph-name="Dcaron" unicode="&#x10e;" horiz-adv-x="718" d="M683 333 C683 534 538 667 329 667 L146 667 C102 667 66 631 66 587 L66 80 C66 36 102 0 146 0 L329 0 C538 0 683 132 683 333 L683 333 Z M538 333 C538 220 461 125 329 125 L208 125 L208 542 L329 542 C466 542 538 451 538 333 L538 333 Z M491 839 C491 858 474 872 456 872 C447 872 438 868 432 860 L364 777 L297 860 C290 868 280 872 271 872 C250 872 237 854 237 839 C237 833 239 827 243 822 L283 760 C300 733 331 716 363 716 C397 716 427 733 445 760 L486 822 C490 827 491 833 491 839 L491 839 Z " />
<glyph glyph-name="dcaron" unicode="&#x10f;" horiz-adv-x="690" d="M523 57 L523 610 C523 645 495 673 460 673 C423 673 395 645 395 610 L395 421 C357 470 303 495 246 495 C123 495 32 399 32 241 C32 80 124 -12 246 -12 C304 -12 357 14 395 62 L395 57 C395 22 423 -6 458 -6 C495 -6 523 22 523 57 L523 57 Z M395 156 C374 124 328 101 285 101 C213 101 163 158 163 241 C163 325 213 382 285 382 C328 382 374 359 395 327 L395 156 Z M696 598 C696 650 662 679 625 679 C591 679 564 651 564 616 C564 583 587 560 617 560 C623 560 630 561 632 562 C626 534 597 509 585 492 C582 487 580 483 580 479 C580 472 583 467 587 462 L588 461 C593 457 599 454 606 454 C615 454 623 457 629 462 C671 498 696 546 696 598 L696 598 Z " />
<glyph glyph-name="Dcroat" unicode="&#x110;" horiz-adv-x="742" d="M708 333 C708 534 563 667 354 667 L171 667 C127 667 91 631 91 587 L91 382 L54 382 C25 382 2 359 2 331 C2 300 25 277 54 277 L91 277 L91 80 C91 36 127 0 171 0 L354 0 C563 0 708 132 708 333 L708 333 Z M563 333 C563 220 486 125 354 125 L233 125 L233 277 L337 277 C365 277 388 300 388 329 C388 359 365 382 337 382 L233 382 L233 542 L354 542 C491 542 563 451 563 333 L563 333 Z " />
<glyph glyph-name="dcroat" unicode="&#x111;" horiz-adv-x="590" d="M587 563 C587 584 571 600 552 600 L523 600 L523 610 C523 645 495 673 460 673 C423 673 395 645 395 610 L395 600 L279 600 C260 600 244 584 244 565 C244 544 260 528 279 528 L395 528 L395 421 C357 470 303 495 246 495 C123 495 32 399 32 241 C32 80 124 -12 246 -12 C304 -12 357 14 395 62 L395 57 C395 22 423 -6 458 -6 C495 -6 523 22 523 57 L523 528 L552 528 C571 528 587 544 587 563 L587 563 Z M395 156 C374 124 328 101 285 101 C213 101 163 158 163 241 C163 325 213 382 285 382 C328 382 374 359 395 327 L395 156 Z " />
<glyph glyph-name="Emacron" unicode="&#x112;" horiz-adv-x="583" d="M544 64 C544 97 516 125 483 125 L208 125 L208 276 L476 276 C509 276 537 304 537 338 C537 373 509 401 476 401 L208 401 L208 542 L483 542 C516 542 544 570 544 604 C544 639 516 667 483 667 L146 667 C102 667 66 631 66 587 L66 80 C66 36 102 0 146 0 L483 0 C516 0 544 28 544 64 L544 64 Z M482 766 C482 785 466 801 447 801 L154 801 C135 801 119 785 119 766 C119 745 135 729 154 729 L447 729 C466 729 482 745 482 766 L482 766 Z " />
<glyph glyph-name="emacron" unicode="&#x113;" horiz-adv-x="553" d="M522 259 C522 283 515 310 508 332 C474 432 391 495 282 495 C135 495 32 382 32 242 C32 87 143 -12 290 -12 C354 -12 477 11 477 68 C477 98 450 119 423 119 C415 119 406 117 398 113 C368 97 331 89 304 89 C222 89 173 140 165 201 L463 201 C496 201 522 228 522 259 L522 259 Z M401 287 L163 287 C169 335 203 394 282 394 C366 394 398 333 401 287 L401 287 Z M463 599 C463 618 447 634 428 634 L135 634 C116 634 100 618 100 599 C100 578 116 562 135 562 L428 562 C447 562 463 578 463 599 L463 599 Z " />
<glyph glyph-name="Ebreve" unicode="&#x114;" horiz-adv-x="583" d="M544 64 C544 97 516 125 483 125 L208 125 L208 276 L476 276 C509 276 537 304 537 338 C537 373 509 401 476 401 L208 401 L208 542 L483 542 C516 542 544 570 544 604 C544 639 516 667 483 667 L146 667 C102 667 66 631 66 587 L66 80 C66 36 102 0 146 0 L483 0 C516 0 544 28 544 64 L544 64 Z M468 798 C468 818 450 835 431 835 C421 835 410 831 402 824 C377 801 344 788 307 788 C268 788 236 801 211 823 C202 830 192 834 182 834 C163 834 146 817 146 798 C146 790 149 782 155 776 C195 738 248 715 307 715 C366 715 419 738 459 776 C465 782 468 790 468 798 L468 798 Z " />
<glyph glyph-name="ebreve" unicode="&#x115;" horiz-adv-x="553" d="M522 259 C522 283 515 310 508 332 C474 432 391 495 282 495 C135 495 32 382 32 242 C32 87 143 -12 290 -12 C354 -12 477 11 477 68 C477 98 450 119 423 119 C415 119 406 117 398 113 C368 97 331 89 304 89 C222 89 173 140 165 201 L463 201 C496 201 522 228 522 259 L522 259 Z M401 287 L163 287 C169 335 203 394 282 394 C366 394 398 333 401 287 L401 287 Z M442 614 C442 634 424 651 405 651 C395 651 384 647 376 640 C351 617 318 604 281 604 C242 604 210 617 185 639 C176 646 166 650 156 650 C137 650 120 633 120 614 C120 606 123 598 129 592 C169 554 222 531 281 531 C340 531 393 554 433 592 C439 598 442 606 442 614 L442 614 Z " />
<glyph glyph-name="Edotaccent" unicode="&#x116;" horiz-adv-x="583" d="M544 64 C544 97 516 125 483 125 L208 125 L208 276 L476 276 C509 276 537 304 537 338 C537 373 509 401 476 401 L208 401 L208 542 L483 542 C516 542 544 570 544 604 C544 639 516 667 483 667 L146 667 C102 667 66 631 66 587 L66 80 C66 36 102 0 146 0 L483 0 C516 0 544 28 544 64 L544 64 Z M370 778 C370 815 339 846 303 846 C265 846 235 815 235 778 C235 740 265 710 303 710 C339 710 370 740 370 778 L370 778 Z " />
<glyph glyph-name="edotaccent" unicode="&#x117;" horiz-adv-x="553" d="M522 259 C522 283 515 310 508 332 C474 432 391 495 282 495 C135 495 32 382 32 242 C32 87 143 -12 290 -12 C354 -12 477 11 477 68 C477 98 450 119 423 119 C415 119 406 117 398 113 C368 97 331 89 304 89 C222 89 173 140 165 201 L463 201 C496 201 522 228 522 259 L522 259 Z M401 287 L163 287 C169 335 203 394 282 394 C366 394 398 333 401 287 L401 287 Z M352 611 C352 648 321 679 285 679 C247 679 217 648 217 611 C217 573 247 543 285 543 C321 543 352 573 352 611 L352 611 Z " />
<glyph glyph-name="Eogonek" unicode="&#x118;" horiz-adv-x="583" d="M592 -133 C592 -119 580 -107 564 -107 C557 -107 552 -109 547 -112 C533 -119 523 -133 505 -133 C486 -133 468 -121 468 -90 C468 -51 491 -27 511 -3 C528 17 544 36 544 64 C544 97 516 125 483 125 L208 125 L208 276 L476 276 C509 276 537 304 537 338 C537 373 509 401 476 401 L208 401 L208 542 L483 542 C516 542 544 570 544 604 C544 639 516 667 483 667 L146 667 C102 667 66 631 66 587 L66 80 C66 36 102 0 146 0 L450 0 C421 -26 405 -59 405 -96 C405 -160 452 -186 505 -186 C540 -186 592 -164 592 -133 L592 -133 Z " />
<glyph glyph-name="eogonek" unicode="&#x119;" horiz-adv-x="553" d="M522 259 C522 397 409 495 282 495 C135 495 32 382 32 242 C32 89 139 -9 283 -12 C261 -36 250 -64 250 -96 C250 -160 297 -186 350 -186 C385 -186 437 -164 437 -133 C437 -119 425 -107 409 -107 C402 -107 397 -109 392 -112 C378 -119 368 -133 350 -133 C331 -133 313 -121 313 -90 C313 -41 359 -8 384 0 C414 10 477 25 477 68 C477 98 450 119 423 119 C415 119 406 117 398 113 C368 97 331 89 304 89 C222 89 173 140 165 201 L463 201 C496 201 522 228 522 259 L522 259 Z M401 287 L163 287 C169 335 203 394 282 394 C366 394 398 333 401 287 L401 287 Z " />
<glyph glyph-name="Ecaron" unicode="&#x11a;" horiz-adv-x="583" d="M544 64 C544 97 516 125 483 125 L208 125 L208 276 L476 276 C509 276 537 304 537 338 C537 373 509 401 476 401 L208 401 L208 542 L483 542 C516 542 544 570 544 604 C544 639 516 667 483 667 L146 667 C102 667 66 631 66 587 L66 80 C66 36 102 0 146 0 L483 0 C516 0 544 28 544 64 L544 64 Z M432 839 C432 858 415 872 397 872 C388 872 379 868 373 860 L305 777 L238 860 C231 868 221 872 212 872 C191 872 178 854 178 839 C178 833 180 827 184 822 L224 760 C241 733 272 716 304 716 C338 716 368 733 386 760 L427 822 C431 827 432 833 432 839 L432 839 Z " />
<glyph glyph-name="ecaron" unicode="&#x11b;" horiz-adv-x="553" d="M522 259 C522 283 515 310 508 332 C474 432 391 495 282 495 C135 495 32 382 32 242 C32 87 143 -12 290 -12 C354 -12 477 11 477 68 C477 98 450 119 423 119 C415 119 406 117 398 113 C368 97 331 89 304 89 C222 89 173 140 165 201 L463 201 C496 201 522 228 522 259 L522 259 Z M401 287 L163 287 C169 335 203 394 282 394 C366 394 398 333 401 287 L401 287 Z M411 672 C411 691 394 705 376 705 C367 705 358 701 352 693 L284 610 L217 693 C210 701 200 705 191 705 C170 705 157 687 157 672 C157 666 159 660 163 655 L203 593 C220 566 251 549 283 549 C317 549 347 566 365 593 L406 655 C410 660 411 666 411 672 L411 672 Z " />
<glyph glyph-name="Gcircumflex" unicode="&#x11c;" horiz-adv-x="720" d="M673 176 L673 289 C673 333 637 369 593 369 L410 369 C376 369 349 342 349 308 C349 272 376 245 410 245 L531 245 L531 165 C504 140 448 114 389 114 C268 114 180 207 180 333 C180 459 268 552 389 552 C440 552 490 530 528 493 C541 480 559 473 576 473 C611 473 643 502 643 537 C643 552 637 568 626 580 C574 636 497 678 389 678 C194 678 34 544 34 333 C34 123 194 -13 389 -13 C524 -13 673 55 673 176 L673 176 Z M517 767 C517 773 516 779 512 784 L471 846 C453 873 423 890 391 890 C357 890 326 873 309 846 L269 784 C265 779 263 772 263 766 C263 748 280 734 298 734 C307 734 316 738 323 746 L390 829 L458 746 C464 737 473 733 483 733 C504 733 517 752 517 767 L517 767 Z " />
<glyph glyph-name="gcircumflex" unicode="&#x11d;" horiz-adv-x="585" d="M522 33 L522 426 C522 461 494 489 459 489 C422 489 394 461 394 426 L394 421 C355 470 303 495 245 495 C123 495 32 407 32 249 C32 88 124 3 245 3 C304 3 356 31 394 79 L394 30 C394 -65 322 -92 261 -92 C218 -92 180 -83 146 -62 C137 -57 128 -55 119 -55 C91 -55 66 -77 66 -108 C66 -118 69 -128 74 -136 C103 -181 202 -196 261 -196 C380 -196 522 -151 522 33 L522 33 Z M394 171 C373 140 327 116 285 116 C213 116 163 166 163 249 C163 332 213 382 285 382 C327 382 373 359 394 327 L394 171 Z M419 583 C419 589 418 595 414 600 L373 662 C355 689 325 706 293 706 C259 706 228 689 211 662 L171 600 C167 595 165 588 165 582 C165 564 182 550 200 550 C209 550 218 554 225 562 L292 645 L360 562 C366 553 375 549 385 549 C406 549 419 568 419 583 L419 583 Z " />
<glyph glyph-name="Gbreve" unicode="&#x11e;" horiz-adv-x="720" d="M673 176 L673 289 C673 333 637 369 593 369 L410 369 C376 369 349 342 349 308 C349 272 376 245 410 245 L531 245 L531 165 C504 140 448 114 389 114 C268 114 180 207 180 333 C180 459 268 552 389 552 C440 552 490 530 528 493 C541 480 559 473 576 473 C611 473 643 502 643 537 C643 552 637 568 626 580 C574 636 497 678 389 678 C194 678 34 544 34 333 C34 123 194 -13 389 -13 C524 -13 673 55 673 176 L673 176 Z M551 798 C551 818 533 835 514 835 C504 835 493 831 485 824 C460 801 427 788 390 788 C351 788 319 801 294 823 C285 830 275 834 265 834 C246 834 229 817 229 798 C229 790 232 782 238 776 C278 738 331 715 390 715 C449 715 502 738 542 776 C548 782 551 790 551 798 L551 798 Z " />
<glyph glyph-name="gbreve" unicode="&#x11f;" horiz-adv-x="585" d="M522 33 L522 426 C522 461 494 489 459 489 C422 489 394 461 394 426 L394 421 C355 470 303 495 245 495 C123 495 32 407 32 249 C32 88 124 3 245 3 C304 3 356 31 394 79 L394 30 C394 -65 322 -92 261 -92 C218 -92 180 -83 146 -62 C137 -57 128 -55 119 -55 C91 -55 66 -77 66 -108 C66 -118 69 -128 74 -136 C103 -181 202 -196 261 -196 C380 -196 522 -151 522 33 L522 33 Z M394 171 C373 140 327 116 285 116 C213 116 163 166 163 249 C163 332 213 382 285 382 C327 382 373 359 394 327 L394 171 Z M453 614 C453 634 435 651 416 651 C406 651 395 647 387 640 C362 617 329 604 292 604 C253 604 221 617 196 639 C187 646 177 650 167 650 C148 650 131 633 131 614 C131 606 134 598 140 592 C180 554 233 531 292 531 C351 531 404 554 444 592 C450 598 453 606 453 614 L453 614 Z " />
<glyph glyph-name="Gdotaccent" unicode="&#x120;" horiz-adv-x="720" d="M673 176 L673 289 C673 333 637 369 593 369 L410 369 C376 369 349 342 349 308 C349 272 376 245 410 245 L531 245 L531 165 C504 140 448 114 389 114 C268 114 180 207 180 333 C180 459 268 552 389 552 C440 552 490 530 528 493 C541 480 559 473 576 473 C611 473 643 502 643 537 C643 552 637 568 626 580 C574 636 497 678 389 678 C194 678 34 544 34 333 C34 123 194 -13 389 -13 C524 -13 673 55 673 176 L673 176 Z M457 795 C457 832 426 863 390 863 C352 863 322 832 322 795 C322 757 352 727 390 727 C426 727 457 757 457 795 L457 795 Z " />
<glyph glyph-name="gdotaccent" unicode="&#x121;" horiz-adv-x="585" d="M522 33 L522 426 C522 461 494 489 459 489 C422 489 394 461 394 426 L394 421 C355 470 303 495 245 495 C123 495 32 407 32 249 C32 88 124 3 245 3 C304 3 356 31 394 79 L394 30 C394 -65 322 -92 261 -92 C218 -92 180 -83 146 -62 C137 -57 128 -55 119 -55 C91 -55 66 -77 66 -108 C66 -118 69 -128 74 -136 C103 -181 202 -196 261 -196 C380 -196 522 -151 522 33 L522 33 Z M394 171 C373 140 327 116 285 116 C213 116 163 166 163 249 C163 332 213 382 285 382 C327 382 373 359 394 327 L394 171 Z M360 611 C360 648 329 679 293 679 C255 679 225 648 225 611 C225 573 255 543 293 543 C329 543 360 573 360 611 L360 611 Z " />
<glyph glyph-name="Gcommaaccent" unicode="&#x122;" horiz-adv-x="720" d="M673 176 L673 289 C673 333 637 369 593 369 L410 369 C376 369 349 342 349 308 C349 272 376 245 410 245 L531 245 L531 165 C504 140 448 114 389 114 C268 114 180 207 180 333 C180 459 268 552 389 552 C440 552 490 530 528 493 C541 480 559 473 576 473 C611 473 643 502 643 537 C643 552 637 568 626 580 C574 636 497 678 389 678 C194 678 34 544 34 333 C34 123 194 -13 389 -13 C524 -13 673 55 673 176 L673 176 Z M461 -138 C461 -86 427 -57 390 -57 C356 -57 329 -85 329 -120 C329 -153 352 -176 382 -176 C388 -176 395 -175 397 -174 C391 -202 362 -227 350 -244 C347 -249 345 -253 345 -257 C345 -264 348 -269 352 -274 L353 -275 C358 -279 364 -282 371 -282 C380 -282 388 -279 394 -274 C436 -238 461 -190 461 -138 L461 -138 Z " />
<glyph glyph-name="gcommaaccent" unicode="&#x123;" horiz-adv-x="585" d="M293 535 C330 535 357 565 357 599 C357 633 326 658 293 658 C294 685 338 715 338 732 C338 748 321 758 308 758 C260 758 229 659 229 611 C229 553 267 535 293 535 L293 535 Z M522 33 L522 426 C522 461 494 489 459 489 C422 489 394 461 394 426 L394 421 C355 470 303 495 245 495 C123 495 32 407 32 249 C32 88 124 3 245 3 C304 3 356 31 394 79 L394 30 C394 -65 322 -92 261 -92 C218 -92 180 -83 146 -62 C137 -57 128 -55 119 -55 C91 -55 66 -77 66 -108 C66 -175 191 -196 261 -196 C380 -196 522 -151 522 33 L522 33 Z M394 171 C373 140 327 116 285 116 C213 116 163 166 163 249 C163 332 213 382 285 382 C327 382 373 359 394 327 L394 171 Z " />
<glyph glyph-name="Hcircumflex" unicode="&#x124;" horiz-adv-x="731" d="M666 65 L666 603 C666 641 634 673 596 673 C555 673 523 641 523 603 L523 405 L208 405 L208 603 C208 641 176 673 138 673 C98 673 66 641 66 603 L66 64 C66 26 98 -6 136 -6 C176 -6 208 26 208 64 L208 280 L523 280 L523 65 C523 26 555 -6 594 -6 C634 -6 666 26 666 65 L666 65 Z M492 767 C492 773 491 779 487 784 L446 846 C428 873 398 890 366 890 C332 890 301 873 284 846 L244 784 C240 779 238 772 238 766 C238 748 255 734 273 734 C282 734 291 738 298 746 L365 829 L433 746 C439 737 448 733 458 733 C479 733 492 752 492 767 L492 767 Z " />
<glyph glyph-name="hcircumflex" unicode="&#x125;" horiz-adv-x="580" d="M517 57 L517 343 C517 437 466 495 360 495 C281 495 221 457 190 420 L190 611 C190 645 162 673 128 673 C91 673 63 645 63 611 L63 57 C63 22 91 -6 126 -6 C162 -6 190 22 190 57 L190 325 C212 354 251 382 300 382 C355 382 390 361 390 294 L390 57 C390 22 418 -6 453 -6 C489 -6 517 22 517 57 L517 57 Z M417 750 C417 756 416 762 412 767 L371 829 C353 856 323 873 291 873 C257 873 226 856 209 829 L169 767 C165 762 163 755 163 749 C163 731 180 717 198 717 C207 717 216 721 223 729 L290 812 L358 729 C364 720 373 716 383 716 C404 716 417 735 417 750 L417 750 Z " />
<glyph glyph-name="Hbar" unicode="&#x126;" horiz-adv-x="731" d="M666 65 L666 483 L688 483 C707 483 723 499 723 520 C723 539 707 555 688 555 L666 555 L666 603 C666 641 634 673 596 673 C555 673 523 641 523 603 L523 555 L208 555 L208 603 C208 641 176 673 138 673 C98 673 66 641 66 603 L66 555 L43 555 C24 555 8 539 8 520 C8 499 24 483 43 483 L66 483 L66 64 C66 26 98 -6 136 -6 C176 -6 208 26 208 64 L208 280 L523 280 L523 65 C523 26 555 -6 594 -6 C634 -6 666 26 666 65 L666 65 Z M208 405 L208 483 L523 483 L523 405 L208 405 Z " />
<glyph glyph-name="hbar" unicode="&#x127;" horiz-adv-x="580" d="M351 565 C351 584 335 600 316 600 L190 600 L190 611 C190 645 162 673 128 673 C91 673 63 645 63 611 L63 600 L39 600 C20 600 4 584 4 565 C4 544 20 528 39 528 L63 528 L63 57 C63 22 91 -6 126 -6 C162 -6 190 22 190 57 L190 325 C212 354 251 382 300 382 C355 382 390 361 390 294 L390 57 C390 22 418 -6 453 -6 C489 -6 517 22 517 57 L517 343 C517 437 466 495 360 495 C281 495 221 457 190 420 L190 528 L316 528 C335 528 351 544 351 565 L351 565 Z " />
<glyph glyph-name="Itilde" unicode="&#x128;" horiz-adv-x="274" d="M208 64 L208 603 C208 641 176 673 138 673 C98 673 66 641 66 603 L66 64 C66 26 98 -6 136 -6 C176 -6 208 26 208 64 L208 64 Z M299 846 C299 863 288 878 270 878 C252 878 235 864 231 846 C225 821 213 811 198 811 C160 811 148 878 82 878 C-2 878 -24 802 -24 770 C-24 753 -13 738 4 738 C23 738 40 752 44 770 C50 796 62 806 77 806 C115 806 126 738 194 738 C278 738 299 814 299 846 L299 846 Z " />
<glyph glyph-name="itilde" unicode="&#x129;" horiz-adv-x="253" d="M190 57 L190 427 C190 461 162 489 128 489 C91 489 63 461 63 427 L63 57 C63 22 91 -6 126 -6 C162 -6 190 22 190 57 L190 57 Z M288 662 C288 679 277 694 259 694 C241 694 224 680 220 662 C214 637 202 627 187 627 C149 627 137 694 71 694 C-13 694 -35 618 -35 586 C-35 569 -24 554 -7 554 C12 554 29 568 33 586 C39 612 51 622 66 622 C104 622 115 554 183 554 C267 554 288 630 288 662 L288 662 Z " />
<glyph glyph-name="Imacron" unicode="&#x12a;" horiz-adv-x="274" d="M208 64 L208 603 C208 641 176 673 138 673 C98 673 66 641 66 603 L66 64 C66 26 98 -6 136 -6 C176 -6 208 26 208 64 L208 64 Z M320 766 C320 785 304 801 285 801 L-8 801 C-27 801 -43 785 -43 766 C-43 745 -27 729 -8 729 L285 729 C304 729 320 745 320 766 L320 766 Z " />
<glyph glyph-name="imacron" unicode="&#x12b;" horiz-adv-x="253" d="M309 599 C309 618 293 634 274 634 L-19 634 C-38 634 -54 618 -54 599 C-54 578 -38 562 -19 562 L274 562 C293 562 309 578 309 599 L309 599 Z M190 57 L190 427 C190 461 162 489 128 489 C91 489 63 461 63 427 L63 57 C63 22 91 -6 126 -6 C162 -6 190 22 190 57 L190 57 Z " />
<glyph glyph-name="Ibreve" unicode="&#x12c;" horiz-adv-x="274" d="M208 64 L208 603 C208 641 176 673 138 673 C98 673 66 641 66 603 L66 64 C66 26 98 -6 136 -6 C176 -6 208 26 208 64 L208 64 Z M298 798 C298 818 280 835 261 835 C251 835 240 831 232 824 C207 801 174 788 137 788 C98 788 66 801 41 823 C32 830 22 834 12 834 C-7 834 -24 817 -24 798 C-24 790 -21 782 -15 776 C25 738 78 715 137 715 C196 715 249 738 289 776 C295 782 298 790 298 798 L298 798 Z " />
<glyph glyph-name="ibreve" unicode="&#x12d;" horiz-adv-x="253" d="M190 57 L190 427 C190 461 162 489 128 489 C91 489 63 461 63 427 L63 57 C63 22 91 -6 126 -6 C162 -6 190 22 190 57 L190 57 Z M288 614 C288 634 270 651 251 651 C241 651 230 647 222 640 C197 617 164 604 127 604 C88 604 56 617 31 639 C22 646 12 650 2 650 C-17 650 -34 633 -34 614 C-34 606 -31 598 -25 592 C15 554 68 531 127 531 C186 531 239 554 279 592 C285 598 288 606 288 614 L288 614 Z " />
<glyph glyph-name="Iogonek" unicode="&#x12e;" horiz-adv-x="274" d="M262 -133 C262 -119 250 -107 234 -107 C227 -107 222 -109 217 -112 C203 -119 193 -133 175 -133 C156 -133 138 -121 138 -90 C138 -35 176 -12 196 22 C203 34 208 47 208 64 L208 603 C208 641 176 673 138 673 C98 673 66 641 66 603 L66 64 C66 32 88 5 117 -3 C90 -29 75 -60 75 -96 C75 -160 122 -186 175 -186 C210 -186 262 -164 262 -133 L262 -133 Z " />
<glyph glyph-name="iogonek" unicode="&#x12f;" horiz-adv-x="253" d="M126 686 C85 686 50 653 50 611 C50 569 85 535 126 535 C168 535 202 569 202 611 C202 653 168 686 126 686 L126 686 Z M244 -133 C244 -119 232 -107 216 -107 C192 -107 181 -133 157 -133 C138 -133 120 -121 120 -90 C120 -14 190 -1 190 57 L190 427 C190 461 162 489 128 489 C91 489 63 461 63 427 L63 57 C63 30 78 8 101 -1 C73 -27 57 -59 57 -96 C57 -160 104 -186 157 -186 C192 -186 244 -164 244 -133 L244 -133 Z " />
<glyph glyph-name="Idotaccent" unicode="&#x130;" horiz-adv-x="274" d="M208 64 L208 603 C208 641 176 673 138 673 C98 673 66 641 66 603 L66 64 C66 26 98 -6 136 -6 C176 -6 208 26 208 64 L208 64 Z M204 795 C204 832 173 863 137 863 C99 863 69 832 69 795 C69 757 99 727 137 727 C173 727 204 757 204 795 L204 795 Z " />
<glyph glyph-name="dotlessi" unicode="&#x131;" horiz-adv-x="253" d="M190 57 L190 427 C190 461 162 489 128 489 C91 489 63 461 63 427 L63 57 C63 22 91 -6 126 -6 C162 -6 190 22 190 57 L190 57 Z " />
<glyph glyph-name="IJ" unicode="&#x132;" horiz-adv-x="760" d="M208 64 L208 603 C208 641 176 673 138 673 C98 673 66 641 66 603 L66 64 C66 26 98 -6 136 -6 C176 -6 208 26 208 64 L208 64 Z M694 219 L694 603 C694 641 662 673 624 673 C584 673 552 641 552 603 L552 221 C552 156 511 114 448 114 C420 114 395 128 373 134 C367 136 362 137 356 137 C323 137 292 110 292 74 C292 63 295 53 300 45 C326 1 409 -12 459 -12 C596 -12 694 61 694 219 L694 219 Z " />
<glyph glyph-name="ij" unicode="&#x133;" horiz-adv-x="506" d="M126 686 C85 686 50 653 50 611 C50 569 85 535 126 535 C168 535 202 569 202 611 C202 653 168 686 126 686 L126 686 Z M190 57 L190 427 C190 461 162 489 128 489 C91 489 63 461 63 427 L63 57 C63 22 91 -6 126 -6 C162 -6 190 22 190 57 L190 57 Z M379 686 C338 686 303 653 303 611 C303 569 338 535 379 535 C421 535 455 569 455 611 C455 653 421 686 379 686 L379 686 Z M443 -13 L443 427 C443 461 415 489 381 489 C344 489 316 461 316 427 L316 -13 C316 -67 289 -92 250 -92 C228 -92 222 -86 207 -86 C180 -86 157 -108 157 -137 C157 -180 198 -196 271 -196 C387 -196 443 -123 443 -13 L443 -13 Z " />
<glyph glyph-name="Jcircumflex" unicode="&#x134;" horiz-adv-x="486" d="M420 219 L420 603 C420 641 388 673 350 673 C310 673 278 641 278 603 L278 221 C278 156 237 114 174 114 C146 114 121 128 99 134 C93 136 88 137 82 137 C49 137 18 110 18 74 C18 63 21 53 26 45 C52 1 135 -12 185 -12 C322 -12 420 61 420 219 L420 219 Z M478 767 C478 773 477 779 473 784 L432 846 C414 873 384 890 352 890 C318 890 287 873 270 846 L230 784 C226 779 224 772 224 766 C224 748 241 734 259 734 C268 734 277 738 284 746 L351 829 L419 746 C425 737 434 733 444 733 C465 733 478 752 478 767 L478 767 Z " />
<glyph glyph-name="jcircumflex" unicode="&#x135;" horiz-adv-x="253" d="M190 -13 L190 427 C190 461 162 489 128 489 C91 489 63 461 63 427 L63 -13 C63 -67 36 -92 -3 -92 C-25 -92 -31 -86 -46 -86 C-73 -86 -96 -108 -96 -137 C-96 -180 -55 -196 18 -196 C134 -196 190 -123 190 -13 L190 -13 Z M254 583 C254 589 253 595 249 600 L208 662 C190 689 160 706 128 706 C94 706 63 689 46 662 L6 599 C2 594 0 587 0 581 C0 563 17 549 35 549 C44 549 53 553 60 561 L127 645 L195 562 C201 553 210 549 220 549 C241 549 254 568 254 583 L254 583 Z " />
<glyph glyph-name="Kcommaaccent" unicode="&#x136;" horiz-adv-x="648" d="M569 63 C569 77 564 91 555 103 L354 354 L532 564 C542 576 547 591 547 606 C547 642 515 671 479 671 C460 671 440 663 428 647 L208 369 L208 603 C208 641 176 673 138 673 C98 673 66 641 66 603 L66 64 C66 26 98 -6 136 -6 C176 -6 208 26 208 64 L208 205 L260 267 L446 21 C459 3 479 -6 500 -6 C539 -6 569 28 569 63 L569 63 Z M395 -138 C395 -86 361 -57 324 -57 C290 -57 263 -85 263 -120 C263 -153 286 -176 316 -176 C322 -176 329 -175 331 -174 C325 -202 296 -227 284 -244 C281 -249 279 -253 279 -257 C279 -264 282 -269 286 -274 L287 -275 C292 -279 298 -282 305 -282 C314 -282 322 -279 328 -274 C370 -238 395 -190 395 -138 L395 -138 Z " />
<glyph glyph-name="kcommaaccent" unicode="&#x137;" horiz-adv-x="535" d="M477 58 C477 70 473 83 465 94 L338 264 L450 392 C459 403 464 416 464 430 C464 462 436 490 404 490 C388 490 372 483 361 470 L190 268 L190 611 C190 645 162 673 128 673 C91 673 63 645 63 611 L63 57 C63 22 91 -6 126 -6 C162 -6 190 22 190 57 L190 124 L248 186 L361 21 C373 3 394 -6 414 -6 C451 -6 477 27 477 58 L477 58 Z M339 -138 C339 -86 305 -57 268 -57 C234 -57 207 -85 207 -120 C207 -153 230 -176 260 -176 C266 -176 273 -175 275 -174 C269 -202 240 -227 228 -244 C225 -249 223 -253 223 -257 C223 -264 226 -269 230 -274 L231 -275 C236 -279 242 -282 249 -282 C258 -282 266 -279 272 -274 C314 -238 339 -190 339 -138 L339 -138 Z " />
<glyph glyph-name="Lacute" unicode="&#x139;" horiz-adv-x="523" d="M496 64 C496 97 468 125 435 125 L208 125 L208 603 C208 641 176 673 138 673 C98 673 66 641 66 603 L66 80 C66 36 102 0 146 0 L435 0 C468 0 496 28 496 64 L496 64 Z M410 834 C410 856 390 873 370 873 C360 873 350 869 343 861 L260 772 C254 766 251 758 251 750 C251 731 268 717 284 717 C292 717 299 720 305 725 L398 807 C406 814 410 824 410 834 L410 834 Z " />
<glyph glyph-name="lacute" unicode="&#x13a;" horiz-adv-x="253" d="M190 57 L190 611 C190 645 162 673 128 673 C91 673 63 645 63 611 L63 57 C63 22 91 -6 126 -6 C162 -6 190 22 190 57 L190 57 Z M259 834 C259 856 239 873 219 873 C209 873 199 869 192 861 L109 772 C103 766 100 758 100 750 C100 731 117 717 133 717 C141 717 148 720 154 725 L247 807 C255 814 259 824 259 834 L259 834 Z " />
<glyph glyph-name="Lcommaaccent" unicode="&#x13b;" horiz-adv-x="523" d="M496 64 C496 97 468 125 435 125 L208 125 L208 603 C208 641 176 673 138 673 C98 673 66 641 66 603 L66 80 C66 36 102 0 146 0 L435 0 C468 0 496 28 496 64 L496 64 Z M331 -138 C331 -86 297 -57 260 -57 C226 -57 199 -85 199 -120 C199 -153 222 -176 252 -176 C258 -176 265 -175 267 -174 C261 -202 232 -227 220 -244 C217 -249 215 -253 215 -257 C215 -264 218 -269 222 -274 L223 -275 C228 -279 234 -282 241 -282 C250 -282 258 -279 264 -274 C306 -238 331 -190 331 -138 L331 -138 Z " />
<glyph glyph-name="lcommaaccent" unicode="&#x13c;" horiz-adv-x="253" d="M190 57 L190 611 C190 645 162 673 128 673 C91 673 63 645 63 611 L63 57 C63 22 91 -6 126 -6 C162 -6 190 22 190 57 L190 57 Z M198 -138 C198 -86 164 -57 127 -57 C93 -57 66 -85 66 -120 C66 -153 89 -176 119 -176 C125 -176 132 -175 134 -174 C128 -202 99 -227 87 -244 C84 -249 82 -253 82 -257 C82 -264 85 -269 89 -274 L90 -275 C95 -279 101 -282 108 -282 C117 -282 125 -279 131 -274 C173 -238 198 -190 198 -138 L198 -138 Z " />
<glyph glyph-name="Lcaron" unicode="&#x13d;" horiz-adv-x="523" d="M496 64 C496 97 468 125 435 125 L208 125 L208 603 C208 641 176 673 138 673 C98 673 66 641 66 603 L66 80 C66 36 102 0 146 0 L435 0 C468 0 496 28 496 64 L496 64 Z M421 599 C421 651 387 680 350 680 C316 680 289 652 289 617 C289 584 312 561 342 561 C348 561 355 562 357 563 C351 535 322 510 310 493 C307 488 305 484 305 480 C305 473 308 468 312 463 L313 462 C318 458 324 455 331 455 C340 455 348 458 354 463 C396 499 421 547 421 599 L421 599 Z " />
<glyph glyph-name="lcaron" unicode="&#x13e;" horiz-adv-x="354" d="M190 57 L190 611 C190 645 162 673 128 673 C91 673 63 645 63 611 L63 57 C63 22 91 -6 126 -6 C162 -6 190 22 190 57 L190 57 Z M373 599 C373 651 339 680 302 680 C268 680 241 652 241 617 C241 584 264 561 294 561 C300 561 307 562 309 563 C303 535 274 510 262 493 C259 488 257 484 257 480 C257 473 260 468 264 463 L265 462 C270 458 276 455 283 455 C292 455 300 458 306 463 C348 499 373 547 373 599 L373 599 Z " />
<glyph glyph-name="Ldot" unicode="&#x13f;" horiz-adv-x="523" d="M496 64 C496 97 468 125 435 125 L208 125 L208 603 C208 641 176 673 138 673 C98 673 66 641 66 603 L66 80 C66 36 102 0 146 0 L435 0 C468 0 496 28 496 64 L496 64 Z M476 342 C476 386 439 423 395 423 C351 423 314 386 314 342 C314 299 351 262 395 262 C439 262 476 299 476 342 L476 342 Z " />
<glyph glyph-name="ldot" unicode="&#x140;" horiz-adv-x="415" d="M190 57 L190 611 C190 645 162 673 128 673 C91 673 63 645 63 611 L63 57 C63 22 91 -6 126 -6 C162 -6 190 22 190 57 L190 57 Z M415 244 C415 288 378 325 334 325 C290 325 253 288 253 244 C253 201 290 164 334 164 C378 164 415 201 415 244 L415 244 Z " />
<glyph glyph-name="Lslash" unicode="&#x141;" horiz-adv-x="537" d="M510 62 C510 97 482 125 449 125 L222 125 L222 315 L279 348 C295 357 305 374 305 392 C305 423 278 443 254 443 C247 443 239 441 232 437 L222 431 L222 603 C222 641 190 673 152 673 C112 673 80 641 80 603 L80 349 L27 319 C11 310 2 293 2 275 C2 245 27 224 52 224 C60 224 68 226 75 230 L80 233 L80 80 C80 36 116 0 160 0 L449 0 C482 0 510 28 510 62 L510 62 Z " />
<glyph glyph-name="lslash" unicode="&#x142;" horiz-adv-x="308" d="M305 398 C305 422 285 439 265 439 C259 439 253 437 247 434 L218 417 L218 611 C218 645 190 673 156 673 C119 673 91 645 91 611 L91 344 L22 304 C9 297 2 284 2 270 C2 245 23 229 42 229 C48 229 55 231 61 234 L91 251 L91 57 C91 22 119 -6 154 -6 C190 -6 218 22 218 57 L218 324 L285 363 C298 370 305 384 305 398 L305 398 Z " />
<glyph glyph-name="Nacute" unicode="&#x143;" horiz-adv-x="729" d="M663 80 L663 603 C663 641 631 673 593 673 C553 673 521 641 521 603 L521 248 L237 634 C219 659 189 673 159 673 C106 673 66 629 66 582 L66 64 C66 26 98 -6 136 -6 C176 -6 208 26 208 64 L208 435 L504 30 C521 7 548 -6 575 -6 C626 -6 663 35 663 80 L663 80 Z M497 834 C497 856 477 873 457 873 C447 873 437 869 430 861 L347 772 C341 766 338 758 338 750 C338 731 355 717 371 717 C379 717 386 720 392 725 L485 807 C493 814 497 824 497 834 L497 834 Z " />
<glyph glyph-name="nacute" unicode="&#x144;" horiz-adv-x="579" d="M516 57 L516 341 C516 435 465 495 359 495 C280 495 221 457 190 420 L190 427 C190 461 162 489 128 489 C91 489 63 461 63 427 L63 57 C63 22 91 -6 126 -6 C162 -6 190 22 190 57 L190 325 C211 354 250 382 300 382 C354 382 389 359 389 292 L389 57 C389 22 417 -6 452 -6 C488 -6 516 22 516 57 L516 57 Z M422 667 C422 689 402 706 382 706 C372 706 362 702 355 694 L272 605 C266 599 263 591 263 583 C263 564 280 550 296 550 C304 550 311 553 317 558 L410 640 C418 647 422 657 422 667 L422 667 Z " />
<glyph glyph-name="Ncommaaccent" unicode="&#x145;" horiz-adv-x="729" d="M663 80 L663 603 C663 641 631 673 593 673 C553 673 521 641 521 603 L521 248 L237 634 C219 659 189 673 159 673 C106 673 66 629 66 582 L66 64 C66 26 98 -6 136 -6 C176 -6 208 26 208 64 L208 435 L504 30 C521 7 548 -6 575 -6 C626 -6 663 35 663 80 L663 80 Z M436 -138 C436 -86 402 -57 365 -57 C331 -57 304 -85 304 -120 C304 -153 327 -176 357 -176 C363 -176 370 -175 372 -174 C366 -202 337 -227 325 -244 C322 -249 320 -253 320 -257 C320 -264 323 -269 327 -274 L328 -275 C333 -279 339 -282 346 -282 C355 -282 363 -279 369 -274 C411 -238 436 -190 436 -138 L436 -138 Z " />
<glyph glyph-name="ncommaaccent" unicode="&#x146;" horiz-adv-x="579" d="M516 57 L516 341 C516 435 465 495 359 495 C280 495 221 457 190 420 L190 427 C190 461 162 489 128 489 C91 489 63 461 63 427 L63 57 C63 22 91 -6 126 -6 C162 -6 190 22 190 57 L190 325 C211 354 250 382 300 382 C354 382 389 359 389 292 L389 57 C389 22 417 -6 452 -6 C488 -6 516 22 516 57 L516 57 Z M358 -138 C358 -86 324 -57 287 -57 C253 -57 226 -85 226 -120 C226 -153 249 -176 279 -176 C285 -176 292 -175 294 -174 C288 -202 259 -227 247 -244 C244 -249 242 -253 242 -257 C242 -264 245 -269 249 -274 L250 -275 C255 -279 261 -282 268 -282 C277 -282 285 -279 291 -274 C333 -238 358 -190 358 -138 L358 -138 Z " />
<glyph glyph-name="Ncaron" unicode="&#x147;" horiz-adv-x="729" d="M663 80 L663 603 C663 641 631 673 593 673 C553 673 521 641 521 603 L521 248 L237 634 C219 659 189 673 159 673 C106 673 66 629 66 582 L66 64 C66 26 98 -6 136 -6 C176 -6 208 26 208 64 L208 435 L504 30 C521 7 548 -6 575 -6 C626 -6 663 35 663 80 L663 80 Z M492 839 C492 858 475 872 457 872 C448 872 439 868 433 860 L365 777 L298 860 C291 868 281 872 272 872 C251 872 238 854 238 839 C238 833 240 827 244 822 L284 760 C301 733 332 716 364 716 C398 716 428 733 446 760 L487 822 C491 827 492 833 492 839 L492 839 Z " />
<glyph glyph-name="ncaron" unicode="&#x148;" horiz-adv-x="579" d="M516 57 L516 341 C516 435 465 495 359 495 C280 495 221 457 190 420 L190 427 C190 461 162 489 128 489 C91 489 63 461 63 427 L63 57 C63 22 91 -6 126 -6 C162 -6 190 22 190 57 L190 325 C211 354 250 382 300 382 C354 382 389 359 389 292 L389 57 C389 22 417 -6 452 -6 C488 -6 516 22 516 57 L516 57 Z M419 672 C419 691 402 705 384 705 C375 705 366 701 360 693 L292 610 L225 693 C218 701 208 705 199 705 C178 705 165 687 165 672 C165 666 167 660 171 655 L211 593 C228 566 259 549 291 549 C325 549 355 566 373 593 L414 655 C418 660 419 666 419 672 L419 672 Z " />
<glyph glyph-name="Eng" unicode="&#x14a;" horiz-adv-x="729" d="M663 35 L663 603 C663 641 631 673 593 673 C553 673 521 641 521 603 L521 248 L237 634 C219 659 189 673 159 673 C106 673 66 629 66 582 L66 64 C66 26 98 -6 136 -6 C176 -6 208 26 208 64 L208 435 L504 30 C508 24 514 18 519 14 C511 -38 472 -70 417 -70 C389 -70 364 -56 342 -50 C336 -48 331 -47 325 -47 C292 -47 261 -74 261 -110 C261 -121 264 -131 269 -139 C295 -183 378 -196 428 -196 C565 -196 663 -123 663 35 L663 35 Z " />
<glyph glyph-name="eng" unicode="&#x14b;" horiz-adv-x="579" d="M516 -13 L516 341 C516 435 465 495 359 495 C280 495 221 457 190 420 L190 427 C190 461 162 489 128 489 C91 489 63 461 63 427 L63 57 C63 22 91 -6 126 -6 C162 -6 190 22 190 57 L190 325 C211 354 250 382 300 382 C354 382 389 359 389 292 L389 -13 C389 -67 362 -92 323 -92 C301 -92 295 -86 280 -86 C253 -86 230 -108 230 -137 C230 -180 271 -196 344 -196 C460 -196 516 -123 516 -13 L516 -13 Z " />
<glyph glyph-name="Omacron" unicode="&#x14c;" horiz-adv-x="765" d="M731 333 C731 534 584 678 382 678 C181 678 34 534 34 333 C34 132 181 -12 382 -12 C584 -12 731 132 731 333 L731 333 Z M585 333 C585 209 505 114 382 114 C259 114 180 209 180 333 C180 458 259 552 382 552 C505 552 585 458 585 333 L585 333 Z M563 766 C563 785 547 801 528 801 L235 801 C216 801 200 785 200 766 C200 745 216 729 235 729 L528 729 C547 729 563 745 563 766 L563 766 Z " />
<glyph glyph-name="omacron" unicode="&#x14d;" horiz-adv-x="574" d="M543 242 C543 379 447 495 287 495 C128 495 32 379 32 242 C32 104 128 -12 287 -12 C447 -12 543 104 543 242 L543 242 Z M411 242 C411 166 366 101 287 101 C208 101 164 166 164 242 C164 317 208 382 287 382 C366 382 411 317 411 242 L411 242 Z M469 599 C469 618 453 634 434 634 L141 634 C122 634 106 618 106 599 C106 578 122 562 141 562 L434 562 C453 562 469 578 469 599 L469 599 Z " />
<glyph glyph-name="Obreve" unicode="&#x14e;" horiz-adv-x="765" d="M731 333 C731 534 584 678 382 678 C181 678 34 534 34 333 C34 132 181 -12 382 -12 C584 -12 731 132 731 333 L731 333 Z M585 333 C585 209 505 114 382 114 C259 114 180 209 180 333 C180 458 259 552 382 552 C505 552 585 458 585 333 L585 333 Z M543 798 C543 818 525 835 506 835 C496 835 485 831 477 824 C452 801 419 788 382 788 C343 788 311 801 286 823 C277 830 267 834 257 834 C238 834 221 817 221 798 C221 790 224 782 230 776 C270 738 323 715 382 715 C441 715 494 738 534 776 C540 782 543 790 543 798 L543 798 Z " />
<glyph glyph-name="obreve" unicode="&#x14f;" horiz-adv-x="574" d="M543 242 C543 379 447 495 287 495 C128 495 32 379 32 242 C32 104 128 -12 287 -12 C447 -12 543 104 543 242 L543 242 Z M411 242 C411 166 366 101 287 101 C208 101 164 166 164 242 C164 317 208 382 287 382 C366 382 411 317 411 242 L411 242 Z M448 614 C448 634 430 651 411 651 C401 651 390 647 382 640 C357 617 324 604 287 604 C248 604 216 617 191 639 C182 646 172 650 162 650 C143 650 126 633 126 614 C126 606 129 598 135 592 C175 554 228 531 287 531 C346 531 399 554 439 592 C445 598 448 606 448 614 L448 614 Z " />
<glyph glyph-name="Ohungarumlaut" unicode="&#x150;" horiz-adv-x="765" d="M731 333 C731 534 584 678 382 678 C181 678 34 534 34 333 C34 132 181 -12 382 -12 C584 -12 731 132 731 333 L731 333 Z M585 333 C585 209 505 114 382 114 C259 114 180 209 180 333 C180 458 259 552 382 552 C505 552 585 458 585 333 L585 333 Z M412 833 C412 852 397 872 373 872 C359 872 346 865 339 853 L285 764 C282 759 281 754 281 749 C281 732 296 717 314 717 C324 717 333 721 339 729 L405 811 C410 817 412 825 412 833 L412 833 Z M561 833 C561 852 546 872 522 872 C508 872 495 865 488 853 L434 764 C431 759 429 753 429 748 C429 728 447 717 463 717 C473 717 482 721 489 729 L554 811 C559 817 561 825 561 833 L561 833 Z " />
<glyph glyph-name="ohungarumlaut" unicode="&#x151;" horiz-adv-x="574" d="M543 242 C543 379 447 495 287 495 C128 495 32 379 32 242 C32 104 128 -12 287 -12 C447 -12 543 104 543 242 L543 242 Z M411 242 C411 166 366 101 287 101 C208 101 164 166 164 242 C164 317 208 382 287 382 C366 382 411 317 411 242 L411 242 Z M316 666 C316 685 301 705 277 705 C263 705 250 698 243 686 L189 597 C186 592 185 587 185 582 C185 565 200 550 218 550 C228 550 237 554 243 562 L309 644 C314 650 316 658 316 666 L316 666 Z M465 666 C465 685 450 705 426 705 C412 705 399 698 392 686 L338 597 C335 592 333 586 333 581 C333 561 351 550 367 550 C377 550 386 554 393 562 L458 644 C463 650 465 658 465 666 L465 666 Z " />
<glyph glyph-name="OE" unicode="&#x152;" horiz-adv-x="1084" d="M1047 64 C1047 97 1019 125 986 125 L712 125 L712 276 L979 276 C1012 276 1040 304 1040 338 C1040 373 1012 401 979 401 L712 401 L712 542 L986 542 C1019 542 1047 570 1047 604 C1047 639 1019 667 986 667 L647 667 C604 667 569 632 569 589 C524 648 441 677 368 677 C174 677 34 535 34 333 C34 131 174 -12 368 -12 C441 -12 524 18 569 78 C569 35 604 0 646 0 L986 0 C1019 0 1047 28 1047 64 L1047 64 Z M569 230 C537 156 469 114 388 114 C259 114 180 209 180 333 C180 458 259 551 388 551 C469 551 537 512 569 436 L569 230 Z " />
<glyph glyph-name="oe" unicode="&#x153;" horiz-adv-x="931" d="M900 261 C900 289 892 313 886 332 C853 432 771 495 661 495 C562 495 506 434 476 387 C443 433 388 495 287 495 C128 495 32 379 32 242 C32 104 128 -12 287 -12 C388 -12 443 49 475 95 C508 47 562 -12 669 -12 C722 -12 816 4 846 42 C852 50 855 59 855 68 C855 98 828 118 801 118 C792 118 784 116 776 112 C747 97 712 89 683 89 C600 89 553 142 544 201 L840 201 C873 201 900 228 900 261 L900 261 Z M780 287 L542 287 C547 335 582 394 660 394 C744 394 777 333 780 287 L780 287 Z M411 242 C411 159 362 100 287 100 C213 100 164 159 164 242 C164 324 213 382 287 382 C362 382 411 324 411 242 L411 242 Z " />
<glyph glyph-name="Racute" unicode="&#x154;" horiz-adv-x="643" d="M602 452 C602 576 517 667 378 667 L146 667 C102 667 66 631 66 587 L66 64 C66 26 98 -6 136 -6 C176 -6 208 26 208 64 L208 237 L312 237 L426 30 C439 7 462 -6 487 -6 C529 -6 557 30 557 64 C557 75 554 87 548 98 L456 254 C528 271 602 334 602 452 L602 452 Z M357 542 C414 542 457 508 457 452 C457 396 414 362 357 362 L208 362 L208 542 L357 542 Z M462 834 C462 856 442 873 422 873 C412 873 402 869 395 861 L312 772 C306 766 303 758 303 750 C303 731 320 717 336 717 C344 717 351 720 357 725 L450 807 C458 814 462 824 462 834 L462 834 Z " />
<glyph glyph-name="racute" unicode="&#x155;" horiz-adv-x="360" d="M350 435 C350 464 331 487 294 487 C246 487 214 449 190 417 L190 427 C190 461 162 489 128 489 C91 489 63 461 63 427 L63 57 C63 22 91 -6 126 -6 L128 -6 C162 -6 190 22 190 57 L190 319 C213 349 250 365 289 370 C324 375 350 397 350 435 L350 435 Z M336 667 C336 689 316 706 296 706 C286 706 276 702 269 694 L186 605 C180 599 177 591 177 583 C177 564 194 550 210 550 C218 550 225 553 231 558 L324 640 C332 647 336 657 336 667 L336 667 Z " />
<glyph glyph-name="Rcommaaccent" unicode="&#x156;" horiz-adv-x="643" d="M602 452 C602 576 517 667 378 667 L146 667 C102 667 66 631 66 587 L66 64 C66 26 98 -6 136 -6 C176 -6 208 26 208 64 L208 237 L312 237 L426 30 C439 7 462 -6 487 -6 C529 -6 557 30 557 64 C557 75 554 87 548 98 L456 254 C528 271 602 334 602 452 L602 452 Z M357 542 C414 542 457 508 457 452 C457 396 414 362 357 362 L208 362 L208 542 L357 542 Z M396 -138 C396 -86 362 -57 325 -57 C291 -57 264 -85 264 -120 C264 -153 287 -176 317 -176 C323 -176 330 -175 332 -174 C326 -202 297 -227 285 -244 C282 -249 280 -253 280 -257 C280 -264 283 -269 287 -274 L288 -275 C293 -279 299 -282 306 -282 C315 -282 323 -279 329 -274 C371 -238 396 -190 396 -138 L396 -138 Z " />
<glyph glyph-name="rcommaaccent" unicode="&#x157;" horiz-adv-x="360" d="M350 435 C350 464 331 487 294 487 C246 487 214 449 190 417 L190 427 C190 461 162 489 128 489 C91 489 63 461 63 427 L63 57 C63 22 91 -6 126 -6 L128 -6 C162 -6 190 22 190 57 L190 319 C213 349 250 365 289 370 C324 375 350 397 350 435 L350 435 Z M251 -138 C251 -86 217 -57 180 -57 C146 -57 119 -85 119 -120 C119 -153 142 -176 172 -176 C178 -176 185 -175 187 -174 C181 -202 152 -227 140 -244 C137 -249 135 -253 135 -257 C135 -264 138 -269 142 -274 L143 -275 C148 -279 154 -282 161 -282 C170 -282 178 -279 184 -274 C226 -238 251 -190 251 -138 L251 -138 Z " />
<glyph glyph-name="Rcaron" unicode="&#x158;" horiz-adv-x="643" d="M602 452 C602 576 517 667 378 667 L146 667 C102 667 66 631 66 587 L66 64 C66 26 98 -6 136 -6 C176 -6 208 26 208 64 L208 237 L312 237 L426 30 C439 7 462 -6 487 -6 C529 -6 557 30 557 64 C557 75 554 87 548 98 L456 254 C528 271 602 334 602 452 L602 452 Z M357 542 C414 542 457 508 457 452 C457 396 414 362 357 362 L208 362 L208 542 L357 542 Z M453 839 C453 858 436 872 418 872 C409 872 400 868 394 860 L326 777 L259 860 C252 868 242 872 233 872 C212 872 199 854 199 839 C199 833 201 827 205 822 L245 760 C262 733 293 716 325 716 C359 716 389 733 407 760 L448 822 C452 827 453 833 453 839 L453 839 Z " />
<glyph glyph-name="rcaron" unicode="&#x159;" horiz-adv-x="360" d="M350 435 C350 464 331 487 294 487 C246 487 214 449 190 417 L190 427 C190 461 162 489 128 489 C91 489 63 461 63 427 L63 57 C63 22 91 -6 126 -6 L128 -6 C162 -6 190 22 190 57 L190 319 C213 349 250 365 289 370 C324 375 350 397 350 435 L350 435 Z M331 672 C331 691 314 705 296 705 C287 705 278 701 272 693 L204 610 L137 693 C130 701 120 705 111 705 C90 705 77 687 77 672 C77 666 79 660 83 655 L123 593 C140 566 171 549 203 549 C237 549 267 566 285 593 L326 655 C330 660 331 666 331 672 L331 672 Z " />
<glyph glyph-name="Sacute" unicode="&#x15a;" horiz-adv-x="600" d="M570 202 C570 451 187 380 187 486 C187 526 221 553 282 553 C331 553 383 541 429 515 C441 508 453 505 465 505 C499 505 536 531 536 569 C536 581 532 593 524 603 C487 652 371 677 295 677 C138 677 42 585 42 474 C42 223 426 304 426 186 C426 148 388 112 310 112 C245 112 188 133 143 164 C132 172 118 175 105 175 C71 175 38 147 38 109 C38 97 42 85 49 75 C86 20 206 -12 303 -12 C483 -12 570 80 570 202 L570 202 Z M431 834 C431 856 411 873 391 873 C381 873 371 869 364 861 L281 772 C275 766 272 758 272 750 C272 731 289 717 305 717 C313 717 320 720 326 725 L419 807 C427 814 431 824 431 834 L431 834 Z " />
<glyph glyph-name="sacute" unicode="&#x15b;" horiz-adv-x="477" d="M446 143 C446 338 160 278 160 350 C160 377 190 398 236 398 C275 398 314 387 345 369 C352 365 361 363 369 363 C395 363 419 384 419 411 C419 420 416 429 411 436 C384 475 298 495 235 495 C108 495 37 424 37 343 C37 153 324 218 324 138 C324 108 298 86 243 86 C201 86 151 103 113 125 C105 130 96 132 87 132 C60 132 34 109 34 79 C34 69 37 60 43 52 C73 9 174 -12 237 -12 C371 -12 446 55 446 143 L446 143 Z M370 667 C370 689 350 706 330 706 C320 706 310 702 303 694 L220 605 C214 599 211 591 211 583 C211 564 228 550 244 550 C252 550 259 553 265 558 L358 640 C366 647 370 657 370 667 L370 667 Z " />
<glyph glyph-name="Scircumflex" unicode="&#x15c;" horiz-adv-x="600" d="M570 202 C570 451 187 380 187 486 C187 526 221 553 282 553 C331 553 383 541 429 515 C441 508 453 505 465 505 C499 505 536 531 536 569 C536 581 532 593 524 603 C487 652 371 677 295 677 C138 677 42 585 42 474 C42 223 426 304 426 186 C426 148 388 112 310 112 C245 112 188 133 143 164 C132 172 118 175 105 175 C71 175 38 147 38 109 C38 97 42 85 49 75 C86 20 206 -12 303 -12 C483 -12 570 80 570 202 L570 202 Z M427 767 C427 773 426 779 422 784 L381 846 C363 873 333 890 301 890 C267 890 236 873 219 846 L179 784 C175 779 173 772 173 766 C173 748 190 734 208 734 C217 734 226 738 233 746 L300 829 L368 746 C374 737 383 733 393 733 C414 733 427 752 427 767 L427 767 Z " />
<glyph glyph-name="scircumflex" unicode="&#x15d;" horiz-adv-x="477" d="M446 143 C446 338 160 278 160 350 C160 377 190 398 236 398 C275 398 314 387 345 369 C352 365 361 363 369 363 C395 363 419 384 419 411 C419 420 416 429 411 436 C384 475 298 495 235 495 C108 495 37 424 37 343 C37 153 324 218 324 138 C324 108 298 86 243 86 C201 86 151 103 113 125 C105 130 96 132 87 132 C60 132 34 109 34 79 C34 69 37 60 43 52 C73 9 174 -12 237 -12 C371 -12 446 55 446 143 L446 143 Z M365 583 C365 589 364 595 360 600 L319 662 C301 689 271 706 239 706 C205 706 174 689 157 662 L117 600 C113 595 111 588 111 582 C111 564 128 550 146 550 C155 550 164 554 171 562 L238 645 L306 562 C312 553 321 549 331 549 C352 549 365 568 365 583 L365 583 Z " />
<glyph glyph-name="Scedilla" unicode="&#x15e;" horiz-adv-x="600" d="M570 202 C570 451 187 380 187 486 C187 526 221 553 282 553 C331 553 383 541 429 515 C441 508 453 505 465 505 C499 505 536 531 536 569 C536 581 532 593 524 603 C487 652 371 677 295 677 C138 677 42 585 42 474 C42 223 426 304 426 186 C426 148 388 112 310 112 C245 112 188 133 143 164 C132 172 118 175 105 175 C71 175 38 147 38 109 C38 97 42 86 48 76 C80 28 177 -3 255 -10 L239 -53 C238 -57 237 -60 237 -64 C237 -79 250 -95 270 -95 C286 -95 294 -83 310 -83 C329 -83 339 -93 339 -109 C339 -131 314 -142 287 -142 C268 -142 245 -136 224 -125 C220 -123 216 -122 212 -122 C197 -122 184 -134 184 -150 C184 -181 244 -196 291 -196 C351 -196 402 -164 402 -111 C402 -69 372 -41 335 -41 C322 -41 309 -45 299 -51 L315 -12 C487 -8 570 82 570 202 L570 202 Z " />
<glyph glyph-name="scedilla" unicode="&#x15f;" horiz-adv-x="477" d="M446 143 C446 338 160 278 160 350 C160 377 190 398 236 398 C275 398 314 387 345 369 C352 365 361 363 369 363 C395 363 419 384 419 411 C419 420 416 429 411 436 C384 475 298 495 235 495 C108 495 37 424 37 343 C37 153 324 218 324 138 C324 108 298 86 243 86 C201 86 151 103 113 125 C105 130 96 132 87 132 C60 132 34 109 34 79 C34 70 37 61 42 53 C67 16 145 -5 200 -10 L184 -53 C183 -57 182 -60 182 -64 C182 -79 195 -95 215 -95 C231 -95 239 -83 255 -83 C274 -83 284 -93 284 -109 C284 -131 259 -142 232 -142 C213 -142 190 -136 169 -125 C165 -123 161 -122 157 -122 C142 -122 129 -134 129 -150 C129 -181 189 -196 236 -196 C296 -196 347 -164 347 -111 C347 -69 317 -41 280 -41 C267 -41 254 -45 244 -51 L260 -11 C379 -4 446 60 446 143 L446 143 Z " />
<glyph glyph-name="Scaron" unicode="&#x160;" horiz-adv-x="600" d="M570 202 C570 451 187 380 187 486 C187 526 221 553 282 553 C331 553 383 541 429 515 C441 508 453 505 465 505 C499 505 536 531 536 569 C536 581 532 593 524 603 C487 652 371 677 295 677 C138 677 42 585 42 474 C42 223 426 304 426 186 C426 148 388 112 310 112 C245 112 188 133 143 164 C132 172 118 175 105 175 C71 175 38 147 38 109 C38 97 42 85 49 75 C86 20 206 -12 303 -12 C483 -12 570 80 570 202 L570 202 Z M422 839 C422 858 405 872 387 872 C378 872 369 868 363 860 L295 777 L228 860 C221 868 211 872 202 872 C181 872 168 854 168 839 C168 833 170 827 174 822 L214 760 C231 733 262 716 294 716 C328 716 358 733 376 760 L417 822 C421 827 422 833 422 839 L422 839 Z " />
<glyph glyph-name="scaron" unicode="&#x161;" horiz-adv-x="477" d="M446 143 C446 338 160 278 160 350 C160 377 190 398 236 398 C275 398 314 387 345 369 C352 365 361 363 369 363 C395 363 419 384 419 411 C419 420 416 429 411 436 C384 475 298 495 235 495 C108 495 37 424 37 343 C37 153 324 218 324 138 C324 108 298 86 243 86 C201 86 151 103 113 125 C105 130 96 132 87 132 C60 132 34 109 34 79 C34 69 37 60 43 52 C73 9 174 -12 237 -12 C371 -12 446 55 446 143 L446 143 Z M366 672 C366 691 349 705 331 705 C322 705 313 701 307 693 L239 610 L172 693 C165 701 155 705 146 705 C125 705 112 687 112 672 C112 666 114 660 118 655 L158 593 C175 566 206 549 238 549 C272 549 302 566 320 593 L361 655 C365 660 366 666 366 672 L366 672 Z " />
<glyph glyph-name="Tcommaaccent" unicode="&#x162;" horiz-adv-x="582" d="M563 604 C563 639 535 667 502 667 L81 667 C47 667 19 639 19 606 C19 570 47 542 81 542 L220 542 L220 65 C220 26 252 -6 291 -6 C331 -6 363 26 363 65 L363 542 L502 542 C535 542 563 570 563 604 L563 604 Z M362 -138 C362 -86 328 -57 291 -57 C257 -57 230 -85 230 -120 C230 -153 253 -176 283 -176 C289 -176 296 -175 298 -174 C292 -202 263 -227 251 -244 C248 -249 246 -253 246 -257 C246 -264 249 -269 253 -274 L254 -275 C259 -279 265 -282 272 -282 C281 -282 289 -279 295 -274 C337 -238 362 -190 362 -138 L362 -138 Z " />
<glyph glyph-name="tcommaaccent" unicode="&#x163;" horiz-adv-x="338" d="M327 46 C327 77 307 101 271 101 C268 101 263 101 260 101 C240 101 216 116 216 154 L216 372 L266 372 C295 372 320 397 320 427 C320 458 295 483 266 483 L216 483 L216 558 C216 593 188 621 153 621 C116 621 88 593 88 558 L88 483 L57 483 C27 483 2 458 2 429 C2 397 27 372 57 372 L88 372 L88 120 C88 34 136 -12 225 -12 C308 -12 327 14 327 46 L327 46 Z M240 -138 C240 -86 206 -57 169 -57 C135 -57 108 -85 108 -120 C108 -153 131 -176 161 -176 C167 -176 174 -175 176 -174 C170 -202 141 -227 129 -244 C126 -249 124 -253 124 -257 C124 -264 127 -269 131 -274 L132 -275 C137 -279 143 -282 150 -282 C159 -282 167 -279 173 -274 C215 -238 240 -190 240 -138 L240 -138 Z " />
<glyph glyph-name="Tcaron" unicode="&#x164;" horiz-adv-x="582" d="M563 604 C563 639 535 667 502 667 L81 667 C47 667 19 639 19 606 C19 570 47 542 81 542 L220 542 L220 65 C220 26 252 -6 291 -6 C331 -6 363 26 363 65 L363 542 L502 542 C535 542 563 570 563 604 L563 604 Z M420 839 C420 858 403 872 385 872 C376 872 367 868 361 860 L293 777 L226 860 C219 868 209 872 200 872 C179 872 166 854 166 839 C166 833 168 827 172 822 L212 760 C229 733 260 716 292 716 C326 716 356 733 374 760 L415 822 C419 827 420 833 420 839 L420 839 Z " />
<glyph glyph-name="tcaron" unicode="&#x165;" horiz-adv-x="380" d="M327 46 C327 77 307 101 271 101 C268 101 263 101 260 101 C240 101 216 116 216 154 L216 372 L266 372 C295 372 320 397 320 427 C320 458 295 483 266 483 L216 483 L216 558 C216 593 188 621 153 621 C116 621 88 593 88 558 L88 483 L57 483 C27 483 2 458 2 429 C2 397 27 372 57 372 L88 372 L88 120 C88 34 136 -12 225 -12 C308 -12 327 14 327 46 L327 46 Z M402 683 C402 735 368 764 331 764 C297 764 270 736 270 701 C270 668 293 645 323 645 C329 645 336 646 338 647 C332 619 303 594 291 577 C288 572 286 568 286 564 C286 557 289 552 293 547 L294 546 C299 542 305 539 312 539 C321 539 329 542 335 547 C377 583 402 631 402 683 L402 683 Z " />
<glyph glyph-name="Tbar" unicode="&#x166;" horiz-adv-x="582" d="M482 345 C482 374 458 398 429 398 L363 398 L363 542 L502 542 C535 542 563 570 563 604 C563 639 535 667 502 667 L81 667 C47 667 19 639 19 606 C19 570 47 542 81 542 L220 542 L220 398 L155 398 C126 398 102 374 102 345 C102 314 126 290 155 290 L220 290 L220 65 C220 26 252 -6 291 -6 C331 -6 363 26 363 65 L363 290 L429 290 C458 290 482 314 482 345 L482 345 Z " />
<glyph glyph-name="tbar" unicode="&#x167;" horiz-adv-x="338" d="M303 243 C303 272 279 296 250 296 L216 296 L216 372 L266 372 C295 372 320 397 320 427 C320 458 295 483 266 483 L216 483 L216 558 C216 593 188 621 153 621 C116 621 88 593 88 558 L88 483 L57 483 C27 483 2 458 2 429 C2 397 27 372 57 372 L88 372 L88 296 L55 296 C26 296 2 272 2 243 C2 212 26 188 55 188 L88 188 L88 120 C88 34 136 -12 225 -12 C308 -12 327 14 327 46 C327 77 307 101 271 101 L260 101 C240 101 216 116 216 154 L216 188 L250 188 C279 188 303 212 303 243 L303 243 Z " />
<glyph glyph-name="Utilde" unicode="&#x168;" horiz-adv-x="733" d="M668 267 L668 602 C668 641 636 673 597 673 C555 673 523 641 523 602 L523 271 C523 178 470 114 367 114 C264 114 210 178 210 271 L210 602 C210 641 178 673 139 673 C98 673 66 641 66 602 L66 266 C66 102 164 -12 367 -12 C570 -12 668 101 668 267 L668 267 Z M528 846 C528 863 517 878 499 878 C481 878 464 864 460 846 C454 821 442 811 427 811 C389 811 377 878 311 878 C227 878 205 802 205 770 C205 753 216 738 233 738 C252 738 269 752 273 770 C279 796 291 806 306 806 C344 806 355 738 423 738 C507 738 528 814 528 846 L528 846 Z " />
<glyph glyph-name="utilde" unicode="&#x169;" horiz-adv-x="579" d="M516 57 L516 427 C516 461 488 489 454 489 C417 489 389 461 389 427 L389 156 C367 128 328 101 279 101 C225 101 190 123 190 190 L190 427 C190 461 162 489 128 489 C91 489 63 461 63 427 L63 140 C63 46 113 -12 219 -12 C298 -12 356 24 389 61 L389 57 C389 22 417 -6 452 -6 C488 -6 516 22 516 57 L516 57 Z M451 662 C451 679 440 694 422 694 C404 694 387 680 383 662 C377 637 365 627 350 627 C312 627 300 694 234 694 C150 694 128 618 128 586 C128 569 139 554 156 554 C175 554 192 568 196 586 C202 612 214 622 229 622 C267 622 278 554 346 554 C430 554 451 630 451 662 L451 662 Z " />
<glyph glyph-name="Umacron" unicode="&#x16a;" horiz-adv-x="733" d="M668 267 L668 602 C668 641 636 673 597 673 C555 673 523 641 523 602 L523 271 C523 178 470 114 367 114 C264 114 210 178 210 271 L210 602 C210 641 178 673 139 673 C98 673 66 641 66 602 L66 266 C66 102 164 -12 367 -12 C570 -12 668 101 668 267 L668 267 Z M550 766 C550 785 534 801 515 801 L222 801 C203 801 187 785 187 766 C187 745 203 729 222 729 L515 729 C534 729 550 745 550 766 L550 766 Z " />
<glyph glyph-name="umacron" unicode="&#x16b;" horiz-adv-x="579" d="M516 57 L516 427 C516 461 488 489 454 489 C417 489 389 461 389 427 L389 156 C367 128 328 101 279 101 C225 101 190 123 190 190 L190 427 C190 461 162 489 128 489 C91 489 63 461 63 427 L63 140 C63 46 113 -12 219 -12 C298 -12 356 24 389 61 L389 57 C389 22 417 -6 452 -6 C488 -6 516 22 516 57 L516 57 Z M470 599 C470 618 454 634 435 634 L142 634 C123 634 107 618 107 599 C107 578 123 562 142 562 L435 562 C454 562 470 578 470 599 L470 599 Z " />
<glyph glyph-name="Ubreve" unicode="&#x16c;" horiz-adv-x="733" d="M668 267 L668 602 C668 641 636 673 597 673 C555 673 523 641 523 602 L523 271 C523 178 470 114 367 114 C264 114 210 178 210 271 L210 602 C210 641 178 673 139 673 C98 673 66 641 66 602 L66 266 C66 102 164 -12 367 -12 C570 -12 668 101 668 267 L668 267 Z M527 798 C527 818 509 835 490 835 C480 835 469 831 461 824 C436 801 403 788 366 788 C327 788 295 801 270 823 C261 830 251 834 241 834 C222 834 205 817 205 798 C205 790 208 782 214 776 C254 738 307 715 366 715 C425 715 478 738 518 776 C524 782 527 790 527 798 L527 798 Z " />
<glyph glyph-name="ubreve" unicode="&#x16d;" horiz-adv-x="579" d="M516 57 L516 427 C516 461 488 489 454 489 C417 489 389 461 389 427 L389 156 C367 128 328 101 279 101 C225 101 190 123 190 190 L190 427 C190 461 162 489 128 489 C91 489 63 461 63 427 L63 140 C63 46 113 -12 219 -12 C298 -12 356 24 389 61 L389 57 C389 22 417 -6 452 -6 C488 -6 516 22 516 57 L516 57 Z M450 614 C450 634 432 651 413 651 C403 651 392 647 384 640 C359 617 326 604 289 604 C250 604 218 617 193 639 C184 646 174 650 164 650 C145 650 128 633 128 614 C128 606 131 598 137 592 C177 554 230 531 289 531 C348 531 401 554 441 592 C447 598 450 606 450 614 L450 614 Z " />
<glyph glyph-name="Uring" unicode="&#x16e;" horiz-adv-x="733" d="M668 267 L668 602 C668 641 636 673 597 673 C555 673 523 641 523 602 L523 271 C523 178 470 114 367 114 C264 114 210 178 210 271 L210 602 C210 641 178 673 139 673 C98 673 66 641 66 602 L66 266 C66 102 164 -12 367 -12 C570 -12 668 101 668 267 L668 267 Z M473 803 C473 860 427 909 369 909 C312 909 264 860 264 803 C264 745 312 698 369 698 C427 698 473 745 473 803 L473 803 Z M415 803 C415 778 395 756 369 756 C344 756 322 778 322 803 C322 829 344 850 369 850 C395 850 415 829 415 803 L415 803 Z " />
<glyph glyph-name="uring" unicode="&#x16f;" horiz-adv-x="579" d="M516 57 L516 427 C516 461 488 489 454 489 C417 489 389 461 389 427 L389 156 C367 128 328 101 279 101 C225 101 190 123 190 190 L190 427 C190 461 162 489 128 489 C91 489 63 461 63 427 L63 140 C63 46 113 -12 219 -12 C298 -12 356 24 389 61 L389 57 C389 22 417 -6 452 -6 C488 -6 516 22 516 57 L516 57 Z M394 636 C394 693 348 742 290 742 C233 742 185 693 185 636 C185 578 233 531 290 531 C348 531 394 578 394 636 L394 636 Z M336 636 C336 611 316 589 290 589 C265 589 243 611 243 636 C243 662 265 683 290 683 C316 683 336 662 336 636 L336 636 Z " />
<glyph glyph-name="Uhungarumlaut" unicode="&#x170;" horiz-adv-x="733" d="M668 267 L668 602 C668 641 636 673 597 673 C555 673 523 641 523 602 L523 271 C523 178 470 114 367 114 C264 114 210 178 210 271 L210 602 C210 641 178 673 139 673 C98 673 66 641 66 602 L66 266 C66 102 164 -12 367 -12 C570 -12 668 101 668 267 L668 267 Z M398 833 C398 852 383 872 359 872 C345 872 332 865 325 853 L271 764 C268 759 267 754 267 749 C267 732 282 717 300 717 C310 717 319 721 325 729 L391 811 C396 817 398 825 398 833 L398 833 Z M547 833 C547 852 532 872 508 872 C494 872 481 865 474 853 L420 764 C417 759 415 753 415 748 C415 728 433 717 449 717 C459 717 468 721 475 729 L540 811 C545 817 547 825 547 833 L547 833 Z " />
<glyph glyph-name="uhungarumlaut" unicode="&#x171;" horiz-adv-x="579" d="M516 57 L516 427 C516 461 488 489 454 489 C417 489 389 461 389 427 L389 156 C367 128 328 101 279 101 C225 101 190 123 190 190 L190 427 C190 461 162 489 128 489 C91 489 63 461 63 427 L63 140 C63 46 113 -12 219 -12 C298 -12 356 24 389 61 L389 57 C389 22 417 -6 452 -6 C488 -6 516 22 516 57 L516 57 Z M318 666 C318 685 303 705 279 705 C265 705 252 698 245 686 L191 597 C188 592 187 587 187 582 C187 565 202 550 220 550 C230 550 239 554 245 562 L311 644 C316 650 318 658 318 666 L318 666 Z M467 666 C467 685 452 705 428 705 C414 705 401 698 394 686 L340 597 C337 592 335 586 335 581 C335 561 353 550 369 550 C379 550 388 554 395 562 L460 644 C465 650 467 658 467 666 L467 666 Z " />
<glyph glyph-name="Uogonek" unicode="&#x172;" horiz-adv-x="733" d="M668 267 L668 602 C668 641 636 673 597 673 C555 673 523 641 523 602 L523 271 C523 178 470 114 367 114 C264 114 210 178 210 271 L210 602 C210 641 178 673 139 673 C98 673 66 641 66 602 L66 266 C66 102 164 -12 367 -12 C351 -36 339 -64 339 -96 C339 -160 386 -186 439 -186 C474 -186 526 -164 526 -133 C526 -118 514 -107 497 -107 C491 -107 485 -109 480 -112 C467 -120 456 -133 439 -133 C420 -133 402 -121 402 -90 C402 -55 424 -24 472 0 C604 33 668 132 668 267 L668 267 Z " />
<glyph glyph-name="uogonek" unicode="&#x173;" horiz-adv-x="579" d="M540 -133 C540 -119 528 -107 512 -107 C488 -107 477 -133 453 -133 C434 -133 416 -121 416 -90 C416 -15 516 -8 516 57 L516 427 C516 461 488 489 454 489 C417 489 389 461 389 427 L389 156 C367 128 328 101 279 101 C225 101 190 123 190 190 L190 427 C190 461 162 489 128 489 C91 489 63 461 63 427 L63 140 C63 46 113 -12 219 -12 C298 -12 356 24 389 61 L389 57 C389 38 397 21 410 9 C373 -18 353 -54 353 -96 C353 -160 400 -186 453 -186 C488 -186 540 -164 540 -133 L540 -133 Z " />
<glyph glyph-name="Wcircumflex" unicode="&#x174;" horiz-adv-x="918" d="M897 605 C897 644 866 679 821 679 C785 679 753 655 745 620 L641 185 L527 621 C519 651 492 673 461 673 C427 673 399 651 391 621 L277 185 L171 621 C162 656 131 679 97 679 C52 679 21 643 21 605 C21 599 22 592 24 586 L174 64 C186 23 224 -6 267 -6 L269 -6 C310 -6 349 23 359 64 L459 458 L560 64 C570 23 607 -6 651 -6 L653 -6 C695 -6 733 23 745 64 L894 585 C896 591 897 598 897 605 L897 605 Z M586 767 C586 773 585 779 581 784 L540 846 C522 873 492 890 460 890 C426 890 395 873 378 846 L338 784 C334 779 332 772 332 766 C332 748 349 734 367 734 C376 734 385 738 392 746 L459 829 L527 746 C533 737 542 733 552 733 C573 733 586 752 586 767 L586 767 Z " />
<glyph glyph-name="wcircumflex" unicode="&#x175;" horiz-adv-x="769" d="M750 428 C750 460 724 489 687 489 C659 489 633 471 626 444 L547 158 L456 438 C446 468 417 489 386 489 C352 489 323 468 313 438 L222 158 L143 444 C136 471 110 489 83 489 C45 489 19 459 19 428 C19 422 20 416 22 410 L130 56 C141 20 176 -6 214 -6 L216 -6 C254 -6 289 20 300 56 L385 329 L470 56 C481 19 515 -6 554 -6 L556 -6 C593 -6 628 20 639 56 L747 410 C749 416 750 422 750 428 L750 428 Z M511 583 C511 589 510 595 506 600 L465 662 C447 689 417 706 385 706 C351 706 320 689 303 662 L263 600 C259 595 257 588 257 582 C257 564 274 550 292 550 C301 550 310 554 317 562 L384 645 L452 562 C458 553 467 549 477 549 C498 549 511 568 511 583 L511 583 Z " />
<glyph glyph-name="Ycircumflex" unicode="&#x176;" horiz-adv-x="645" d="M597 607 C597 640 570 672 529 672 C505 672 483 660 470 639 L323 399 L173 640 C160 661 137 672 115 672 C75 672 47 639 47 607 C47 595 50 583 57 573 L252 273 L252 64 C252 26 284 -6 322 -6 C362 -6 394 26 394 64 L394 273 L587 572 C594 583 597 595 597 607 L597 607 Z M449 767 C449 773 448 779 444 784 L403 846 C385 873 355 890 323 890 C289 890 258 873 241 846 L201 784 C197 779 195 772 195 766 C195 748 212 734 230 734 C239 734 248 738 255 746 L322 829 L390 746 C396 737 405 733 415 733 C436 733 449 752 449 767 L449 767 Z " />
<glyph glyph-name="ycircumflex" unicode="&#x177;" horiz-adv-x="513" d="M491 427 C491 458 467 489 429 489 C402 489 377 472 368 447 L256 147 L144 447 C134 473 110 489 85 489 C46 489 21 457 21 426 C21 419 22 412 25 405 L190 -7 L172 -48 C163 -68 145 -78 124 -82 C119 -83 113 -83 108 -83 C72 -83 48 -109 48 -139 C48 -174 82 -196 126 -196 C197 -196 258 -163 292 -79 L487 404 C490 411 491 419 491 427 L491 427 Z M383 583 C383 589 382 595 378 600 L337 662 C319 689 289 706 257 706 C223 706 192 689 175 662 L135 600 C131 595 129 588 129 582 C129 564 146 550 164 550 C173 550 182 554 189 562 L256 645 L324 562 C330 553 339 549 349 549 C370 549 383 568 383 583 L383 583 Z " />
<glyph glyph-name="Ydieresis" unicode="&#x178;" horiz-adv-x="645" d="M597 607 C597 640 570 672 529 672 C505 672 483 660 470 639 L323 399 L173 640 C160 661 137 672 115 672 C75 672 47 639 47 607 C47 595 50 583 57 573 L252 273 L252 64 C252 26 284 -6 322 -6 C362 -6 394 26 394 64 L394 273 L587 572 C594 583 597 595 597 607 L597 607 Z M285 778 C285 815 255 845 218 845 C180 845 150 815 150 778 C150 740 180 710 218 710 C255 710 285 740 285 778 L285 778 Z M497 778 C497 815 466 845 429 845 C392 845 361 815 361 778 C361 740 392 710 429 710 C466 710 497 740 497 778 L497 778 Z " />
<glyph glyph-name="Zacute" unicode="&#x179;" horiz-adv-x="592" d="M556 64 C556 97 528 125 495 125 L228 125 L531 537 C542 552 548 571 548 589 C548 634 513 667 475 667 L98 667 C64 667 36 639 36 606 C36 570 64 542 98 542 L357 542 L51 127 C41 113 36 97 36 80 C36 34 74 0 114 0 L495 0 C528 0 556 28 556 64 L556 64 Z M413 834 C413 856 393 873 373 873 C363 873 353 869 346 861 L263 772 C257 766 254 758 254 750 C254 731 271 717 287 717 C295 717 302 720 308 725 L401 807 C409 814 413 824 413 834 L413 834 Z " />
<glyph glyph-name="zacute" unicode="&#x17a;" horiz-adv-x="479" d="M442 57 C442 86 417 111 388 111 L211 111 L424 381 C433 392 437 406 437 421 C437 457 406 483 376 483 L91 483 C61 483 36 458 36 429 C36 397 61 372 91 372 L260 372 L50 105 C41 93 36 79 36 65 C36 28 66 0 99 0 L388 0 C417 0 442 25 442 57 L442 57 Z M371 667 C371 689 351 706 331 706 C321 706 311 702 304 694 L221 605 C215 599 212 591 212 583 C212 564 229 550 245 550 C253 550 260 553 266 558 L359 640 C367 647 371 657 371 667 L371 667 Z " />
<glyph glyph-name="Zdotaccent" unicode="&#x17b;" horiz-adv-x="592" d="M556 64 C556 97 528 125 495 125 L228 125 L531 537 C542 552 548 571 548 589 C548 634 513 667 475 667 L98 667 C64 667 36 639 36 606 C36 570 64 542 98 542 L357 542 L51 127 C41 113 36 97 36 80 C36 34 74 0 114 0 L495 0 C528 0 556 28 556 64 L556 64 Z M358 778 C358 815 327 846 291 846 C253 846 223 815 223 778 C223 740 253 710 291 710 C327 710 358 740 358 778 L358 778 Z " />
<glyph glyph-name="zdotaccent" unicode="&#x17c;" horiz-adv-x="479" d="M442 57 C442 86 417 111 388 111 L211 111 L424 381 C433 392 437 406 437 421 C437 457 406 483 376 483 L91 483 C61 483 36 458 36 429 C36 397 61 372 91 372 L260 372 L50 105 C41 93 36 79 36 65 C36 28 66 0 99 0 L388 0 C417 0 442 25 442 57 L442 57 Z M305 611 C305 648 274 679 238 679 C200 679 170 648 170 611 C170 573 200 543 238 543 C274 543 305 573 305 611 L305 611 Z " />
<glyph glyph-name="Zcaron" unicode="&#x17d;" horiz-adv-x="592" d="M556 64 C556 97 528 125 495 125 L228 125 L531 537 C542 552 548 571 548 589 C548 634 513 667 475 667 L98 667 C64 667 36 639 36 606 C36 570 64 542 98 542 L357 542 L51 127 C41 113 36 97 36 80 C36 34 74 0 114 0 L495 0 C528 0 556 28 556 64 L556 64 Z M422 839 C422 858 405 872 387 872 C378 872 369 868 363 860 L295 777 L228 860 C221 868 211 872 202 872 C181 872 168 854 168 839 C168 833 170 827 174 822 L214 760 C231 733 262 716 294 716 C328 716 358 733 376 760 L417 822 C421 827 422 833 422 839 L422 839 Z " />
<glyph glyph-name="zcaron" unicode="&#x17e;" horiz-adv-x="479" d="M442 57 C442 86 417 111 388 111 L211 111 L424 381 C433 392 437 406 437 421 C437 457 406 483 376 483 L91 483 C61 483 36 458 36 429 C36 397 61 372 91 372 L260 372 L50 105 C41 93 36 79 36 65 C36 28 66 0 99 0 L388 0 C417 0 442 25 442 57 L442 57 Z M364 672 C364 691 347 705 329 705 C320 705 311 701 305 693 L237 610 L170 693 C163 701 153 705 144 705 C123 705 110 687 110 672 C110 666 112 660 116 655 L156 593 C173 566 204 549 236 549 C270 549 300 566 318 593 L359 655 C363 660 364 666 364 672 L364 672 Z " />
<glyph glyph-name="florin" unicode="&#x192;" horiz-adv-x="454" d="M460 609 C460 665 404 677 355 677 C258 677 178 612 157 516 L120 350 L91 350 C61 350 36 325 36 295 C36 263 61 238 91 238 L96 238 L26 -82 C25 -87 24 -91 24 -96 C24 -133 55 -167 95 -167 C128 -167 157 -145 164 -113 L241 238 L330 238 C360 238 385 263 385 293 C385 325 360 350 330 350 L266 350 L296 485 C305 527 336 551 371 551 C382 551 394 547 404 547 C445 547 460 584 460 609 L460 609 Z " />
<glyph glyph-name="AEacute" unicode="&#x1fc;" horiz-adv-x="968" d="M932 64 C932 97 904 125 871 125 L597 125 L597 276 L864 276 C897 276 925 304 925 338 C925 373 897 401 864 401 L597 401 L597 542 L871 542 C904 542 932 570 932 604 C932 639 904 667 871 667 L477 667 C429 667 381 641 355 599 L52 100 C45 88 42 76 42 63 C42 27 71 -7 111 -7 C134 -7 156 4 168 25 L219 113 L454 113 L454 80 C454 36 490 0 534 0 L871 0 C904 0 932 28 932 64 L932 64 Z M454 238 L287 238 L454 525 L454 238 Z M619 851 C619 873 599 890 579 890 C569 890 559 886 552 878 L469 789 C463 783 460 775 460 767 C460 748 477 734 493 734 C501 734 508 737 514 742 L607 824 C615 831 619 841 619 851 L619 851 Z " />
<glyph glyph-name="aeacute" unicode="&#x1fd;" horiz-adv-x="870" d="M839 261 C839 290 832 314 826 333 C795 433 718 495 616 495 C525 495 476 458 441 412 C414 465 357 495 272 495 C217 495 105 475 76 426 C71 418 69 410 69 401 C69 372 93 352 116 352 C124 352 133 355 140 359 C177 382 217 391 257 391 C326 391 372 359 372 311 L372 246 C335 284 273 304 207 304 C113 304 32 252 32 146 C32 38 128 -12 234 -12 C320 -12 395 25 435 76 C479 13 543 -12 621 -12 C665 -12 760 4 787 46 C791 53 794 61 794 70 C794 99 767 119 741 119 C732 119 722 117 714 113 C687 99 657 92 630 92 C553 92 509 142 500 201 L779 201 C812 201 839 228 839 261 L839 261 Z M718 287 L498 287 C503 335 536 394 608 394 C686 394 716 333 718 287 L718 287 Z M372 169 C372 131 320 88 256 88 C204 88 160 109 160 153 C160 196 204 218 259 218 C304 218 348 202 372 175 L372 169 Z M539 667 C539 689 519 706 499 706 C489 706 479 702 472 694 L389 605 C383 599 380 591 380 583 C380 564 397 550 413 550 C421 550 428 553 434 558 L527 640 C535 647 539 657 539 667 L539 667 Z " />
<glyph glyph-name="Oslashacute" unicode="&#x1fe;" horiz-adv-x="765" d="M731 333 C731 439 690 529 622 591 L636 610 C641 617 644 625 644 632 C644 655 623 671 602 671 C589 671 578 666 570 656 L555 637 C505 663 446 678 382 678 C181 678 34 534 34 333 C34 232 71 145 133 84 L113 58 C108 50 105 42 105 33 C105 11 125 -7 147 -7 C159 -7 170 -1 178 9 L198 35 C250 5 313 -12 382 -12 C584 -12 731 132 731 333 L731 333 Z M585 333 C585 209 505 114 382 114 C342 114 307 124 278 141 L537 480 C568 442 585 391 585 333 L585 333 Z M474 531 L219 196 C194 233 180 280 180 333 C180 458 259 552 382 552 C416 552 447 544 474 531 L474 531 Z M462 851 C462 873 442 890 422 890 C412 890 402 886 395 878 L312 789 C306 783 303 775 303 767 C303 748 320 734 336 734 C344 734 351 737 357 742 L450 824 C458 831 462 841 462 851 L462 851 Z " />
<glyph glyph-name="oslashacute" unicode="&#x1ff;" horiz-adv-x="574" d="M142 28 C181 2 230 -12 287 -12 C447 -12 543 104 543 242 C543 310 519 373 475 419 L493 440 C497 445 500 452 500 459 C500 475 484 488 468 488 C459 488 451 485 446 478 L428 457 C390 481 342 495 287 495 C128 495 32 379 32 242 C32 174 55 113 97 67 L76 42 C71 37 69 30 69 23 C69 7 83 -7 99 -7 C107 -7 115 -4 121 3 L142 28 Z M220 120 L391 321 C404 298 411 271 411 242 C411 166 366 101 287 101 C261 101 238 107 220 120 L220 120 Z M287 382 C311 382 332 376 350 365 L181 166 C170 188 164 214 164 242 C164 317 208 382 287 382 L287 382 Z M366 667 C366 689 346 706 326 706 C316 706 306 702 299 694 L216 605 C210 599 207 591 207 583 C207 564 224 550 240 550 C248 550 255 553 261 558 L354 640 C362 647 366 657 366 667 L366 667 Z " />
<glyph glyph-name="Scommaaccent" unicode="&#x218;" horiz-adv-x="600" d="M570 202 C570 451 187 380 187 486 C187 526 221 553 282 553 C331 553 383 541 429 515 C441 508 453 505 465 505 C499 505 536 531 536 569 C536 581 532 593 524 603 C487 652 371 677 295 677 C138 677 42 585 42 474 C42 223 426 304 426 186 C426 148 388 112 310 112 C245 112 188 133 143 164 C132 172 118 175 105 175 C71 175 38 147 38 109 C38 97 42 85 49 75 C86 20 206 -12 303 -12 C483 -12 570 80 570 202 L570 202 Z M368 -138 C368 -86 334 -57 297 -57 C263 -57 236 -85 236 -120 C236 -153 259 -176 289 -176 C295 -176 302 -175 304 -174 C298 -202 269 -227 257 -244 C254 -249 252 -253 252 -257 C252 -264 255 -269 259 -274 L260 -275 C265 -279 271 -282 278 -282 C287 -282 295 -279 301 -274 C343 -238 368 -190 368 -138 L368 -138 Z " />
<glyph glyph-name="scommaaccent" unicode="&#x219;" horiz-adv-x="477" d="M446 143 C446 338 160 278 160 350 C160 377 190 398 236 398 C275 398 314 387 345 369 C352 365 361 363 369 363 C395 363 419 384 419 411 C419 420 416 429 411 436 C384 475 298 495 235 495 C108 495 37 424 37 343 C37 153 324 218 324 138 C324 108 298 86 243 86 C201 86 151 103 113 125 C105 130 96 132 87 132 C60 132 34 109 34 79 C34 69 37 60 43 52 C73 9 174 -12 237 -12 C371 -12 446 55 446 143 L446 143 Z M314 -138 C314 -86 280 -57 243 -57 C209 -57 182 -85 182 -120 C182 -153 205 -176 235 -176 C241 -176 248 -175 250 -174 C244 -202 215 -227 203 -244 C200 -249 198 -253 198 -257 C198 -264 201 -269 205 -274 L206 -275 C211 -279 217 -282 224 -282 C233 -282 241 -279 247 -274 C289 -238 314 -190 314 -138 L314 -138 Z " />
<glyph glyph-name="uni021A" unicode="&#x21a;" horiz-adv-x="582" d="M563 604 C563 639 535 667 502 667 L81 667 C47 667 19 639 19 606 C19 570 47 542 81 542 L220 542 L220 65 C220 26 252 -6 291 -6 C331 -6 363 26 363 65 L363 542 L502 542 C535 542 563 570 563 604 L563 604 Z M362 -138 C362 -86 328 -57 291 -57 C257 -57 230 -85 230 -120 C230 -153 253 -176 283 -176 C289 -176 296 -175 298 -174 C292 -202 263 -227 251 -244 C248 -249 246 -253 246 -257 C246 -264 249 -269 253 -274 L254 -275 C259 -279 265 -282 272 -282 C281 -282 289 -279 295 -274 C337 -238 362 -190 362 -138 L362 -138 Z " />
<glyph glyph-name="uni021B" unicode="&#x21b;" horiz-adv-x="338" d="M327 46 C327 77 307 101 271 101 C268 101 263 101 260 101 C240 101 216 116 216 154 L216 372 L266 372 C295 372 320 397 320 427 C320 458 295 483 266 483 L216 483 L216 558 C216 593 188 621 153 621 C116 621 88 593 88 558 L88 483 L57 483 C27 483 2 458 2 429 C2 397 27 372 57 372 L88 372 L88 120 C88 34 136 -12 225 -12 C308 -12 327 14 327 46 L327 46 Z M240 -138 C240 -86 206 -57 169 -57 C135 -57 108 -85 108 -120 C108 -153 131 -176 161 -176 C167 -176 174 -175 176 -174 C170 -202 141 -227 129 -244 C126 -249 124 -253 124 -257 C124 -264 127 -269 131 -274 L132 -275 C137 -279 143 -282 150 -282 C159 -282 167 -279 173 -274 C215 -238 240 -190 240 -138 L240 -138 Z " />
<glyph glyph-name="circumflex" unicode="&#x2c6;" horiz-adv-x="300" d="M276 583 C276 589 275 595 271 600 L230 662 C212 689 182 706 150 706 C116 706 85 689 68 662 L28 600 C24 595 22 588 22 582 C22 564 39 550 57 550 C66 550 75 554 82 562 L149 645 L217 562 C223 553 232 549 242 549 C263 549 276 568 276 583 L276 583 Z " />
<glyph glyph-name="caron" unicode="&#x2c7;" horiz-adv-x="300" d="M279 672 C279 691 262 705 244 705 C235 705 226 701 220 693 L152 610 L85 693 C78 701 68 705 59 705 C38 705 25 687 25 672 C25 666 27 660 31 655 L71 593 C88 566 119 549 151 549 C185 549 215 566 233 593 L274 655 C278 660 279 666 279 672 L279 672 Z " />
<glyph glyph-name="breve" unicode="&#x2d8;" horiz-adv-x="351" d="M337 614 C337 634 319 651 300 651 C290 651 279 647 271 640 C246 617 213 604 176 604 C137 604 105 617 80 639 C71 646 61 650 51 650 C32 650 15 633 15 614 C15 606 18 598 24 592 C64 554 117 531 176 531 C235 531 288 554 328 592 C334 598 337 606 337 614 L337 614 Z " />
<glyph glyph-name="dotaccent" unicode="&#x2d9;" horiz-adv-x="174" d="M155 611 C155 648 124 679 88 679 C50 679 20 648 20 611 C20 573 50 543 88 543 C124 543 155 573 155 611 L155 611 Z " />
<glyph glyph-name="ring" unicode="&#x2da;" horiz-adv-x="209" d="M209 636 C209 693 163 742 105 742 C48 742 0 693 0 636 C0 578 48 531 105 531 C163 531 209 578 209 636 L209 636 Z M151 636 C151 611 131 589 105 589 C80 589 58 611 58 636 C58 662 80 683 105 683 C131 683 151 662 151 636 L151 636 Z " />
<glyph glyph-name="ogonek" unicode="&#x2db;" horiz-adv-x="194" d="M187 -133 C187 -119 175 -107 159 -107 C152 -107 147 -109 142 -112 C128 -119 118 -133 100 -133 C81 -133 63 -121 63 -90 C63 -61 78 -35 104 -17 C111 -12 114 -5 114 1 C114 18 99 24 89 24 C81 24 72 21 66 16 C24 -13 0 -51 0 -96 C0 -160 47 -186 100 -186 C135 -186 187 -164 187 -133 L187 -133 Z " />
<glyph glyph-name="tilde" unicode="&#x2dc;" horiz-adv-x="327" d="M325 662 C325 679 314 694 296 694 C278 694 261 680 257 662 C251 637 239 627 224 627 C186 627 174 694 108 694 C24 694 2 618 2 586 C2 569 13 554 30 554 C49 554 66 568 70 586 C76 612 88 622 103 622 C141 622 152 554 220 554 C304 554 325 630 325 662 L325 662 Z " />
<glyph glyph-name="hungarumlaut" unicode="&#x2dd;" horiz-adv-x="338" d="M152 666 C152 685 137 705 113 705 C99 705 86 698 79 686 L25 597 C22 592 21 587 21 582 C21 565 36 550 54 550 C64 550 73 554 79 562 L145 644 C150 650 152 658 152 666 L152 666 Z M301 666 C301 685 286 705 262 705 C248 705 235 698 228 686 L174 597 C171 592 169 586 169 581 C169 561 187 550 203 550 C213 550 222 554 229 562 L294 644 C299 650 301 658 301 666 L301 666 Z " />
<glyph glyph-name="uni0312" unicode="&#x312;" horiz-adv-x="255" d="M65 616 C65 564 99 535 136 535 C170 535 197 563 197 598 C197 631 174 654 144 654 C138 654 131 653 129 652 C135 680 164 705 176 722 C179 727 181 731 181 735 C181 742 178 747 174 752 L173 753 C168 757 162 760 155 760 C146 760 138 757 132 752 C90 716 65 668 65 616 L65 616 Z " />
<glyph glyph-name="uni03A9" unicode="&#x3a9;" horiz-adv-x="765" d="M731 366 C731 556 584 678 382 678 C182 678 34 556 34 366 C34 252 100 173 171 125 L108 125 C74 125 46 97 46 62 C46 28 74 0 108 0 L259 0 C294 0 326 31 326 68 C326 96 316 122 278 145 C220 180 180 254 180 334 C180 440 241 551 382 551 C524 551 585 440 585 334 C585 254 547 181 487 144 C449 121 438 96 438 68 C438 31 471 0 506 0 L659 0 C692 0 720 28 720 62 C720 97 692 125 659 125 L595 125 C666 173 731 252 731 366 L731 366 Z " />
<glyph glyph-name="pi" unicode="&#x3c0;" horiz-adv-x="631" d="M629 427 C629 458 604 483 575 483 L57 483 C27 483 2 458 2 429 C2 397 27 372 57 372 L88 372 L88 57 C88 22 116 -6 151 -6 C188 -6 216 22 216 57 L216 372 L415 372 L415 57 C415 22 443 -6 478 -6 C515 -6 543 22 543 57 L543 372 L575 372 C604 372 629 397 629 427 L629 427 Z " />
<glyph glyph-name="Wgrave" unicode="&#x1e80;" horiz-adv-x="918" d="M897 605 C897 644 866 679 821 679 C785 679 753 655 745 620 L641 185 L527 621 C519 651 492 673 461 673 C427 673 399 651 391 621 L277 185 L171 621 C162 656 131 679 97 679 C52 679 21 643 21 605 C21 599 22 592 24 586 L174 64 C186 23 224 -6 267 -6 L269 -6 C310 -6 349 23 359 64 L459 458 L560 64 C570 23 607 -6 651 -6 L653 -6 C695 -6 733 23 745 64 L894 585 C896 591 897 598 897 605 L897 605 Z M513 767 C513 775 510 783 504 789 L421 878 C413 886 403 890 393 890 C372 890 354 871 354 851 C354 841 358 831 366 824 L459 742 C465 737 472 734 480 734 C498 734 513 750 513 767 L513 767 Z " />
<glyph glyph-name="wgrave" unicode="&#x1e81;" horiz-adv-x="769" d="M750 428 C750 460 724 489 687 489 C659 489 633 471 626 444 L547 158 L456 438 C446 468 417 489 386 489 C352 489 323 468 313 438 L222 158 L143 444 C136 471 110 489 83 489 C45 489 19 459 19 428 C19 422 20 416 22 410 L130 56 C141 20 176 -6 214 -6 L216 -6 C254 -6 289 20 300 56 L385 329 L470 56 C481 19 515 -6 554 -6 L556 -6 C593 -6 628 20 639 56 L747 410 C749 416 750 422 750 428 L750 428 Z M439 583 C439 591 436 599 430 605 L347 694 C339 702 329 706 319 706 C298 706 280 687 280 667 C280 657 284 647 292 640 L385 558 C391 553 398 550 406 550 C424 550 439 566 439 583 L439 583 Z " />
<glyph glyph-name="Wacute" unicode="&#x1e82;" horiz-adv-x="918" d="M897 605 C897 644 866 679 821 679 C785 679 753 655 745 620 L641 185 L527 621 C519 651 492 673 461 673 C427 673 399 651 391 621 L277 185 L171 621 C162 656 131 679 97 679 C52 679 21 643 21 605 C21 599 22 592 24 586 L174 64 C186 23 224 -6 267 -6 L269 -6 C310 -6 349 23 359 64 L459 458 L560 64 C570 23 607 -6 651 -6 L653 -6 C695 -6 733 23 745 64 L894 585 C896 591 897 598 897 605 L897 605 Z M563 851 C563 873 543 890 523 890 C513 890 503 886 496 878 L413 789 C407 783 404 775 404 767 C404 748 421 734 437 734 C445 734 452 737 458 742 L551 824 C559 831 563 841 563 851 L563 851 Z " />
<glyph glyph-name="wacute" unicode="&#x1e83;" horiz-adv-x="769" d="M750 428 C750 460 724 489 687 489 C659 489 633 471 626 444 L547 158 L456 438 C446 468 417 489 386 489 C352 489 323 468 313 438 L222 158 L143 444 C136 471 110 489 83 489 C45 489 19 459 19 428 C19 422 20 416 22 410 L130 56 C141 20 176 -6 214 -6 L216 -6 C254 -6 289 20 300 56 L385 329 L470 56 C481 19 515 -6 554 -6 L556 -6 C593 -6 628 20 639 56 L747 410 C749 416 750 422 750 428 L750 428 Z M489 667 C489 689 469 706 449 706 C439 706 429 702 422 694 L339 605 C333 599 330 591 330 583 C330 564 347 550 363 550 C371 550 378 553 384 558 L477 640 C485 647 489 657 489 667 L489 667 Z " />
<glyph glyph-name="Wdieresis" unicode="&#x1e84;" horiz-adv-x="918" d="M897 605 C897 644 866 679 821 679 C785 679 753 655 745 620 L641 185 L527 621 C519 651 492 673 461 673 C427 673 399 651 391 621 L277 185 L171 621 C162 656 131 679 97 679 C52 679 21 643 21 605 C21 599 22 592 24 586 L174 64 C186 23 224 -6 267 -6 L269 -6 C310 -6 349 23 359 64 L459 458 L560 64 C570 23 607 -6 651 -6 L653 -6 C695 -6 733 23 745 64 L894 585 C896 591 897 598 897 605 L897 605 Z M420 795 C420 832 390 862 353 862 C315 862 285 832 285 795 C285 757 315 727 353 727 C390 727 420 757 420 795 L420 795 Z M632 795 C632 832 601 862 564 862 C527 862 496 832 496 795 C496 757 527 727 564 727 C601 727 632 757 632 795 L632 795 Z " />
<glyph glyph-name="wdieresis" unicode="&#x1e85;" horiz-adv-x="769" d="M750 428 C750 460 724 489 687 489 C659 489 633 471 626 444 L547 158 L456 438 C446 468 417 489 386 489 C352 489 323 468 313 438 L222 158 L143 444 C136 471 110 489 83 489 C45 489 19 459 19 428 C19 422 20 416 22 410 L130 56 C141 20 176 -6 214 -6 L216 -6 C254 -6 289 20 300 56 L385 329 L470 56 C481 19 515 -6 554 -6 L556 -6 C593 -6 628 20 639 56 L747 410 C749 416 750 422 750 428 L750 428 Z M346 611 C346 648 316 678 279 678 C241 678 211 648 211 611 C211 573 241 543 279 543 C316 543 346 573 346 611 L346 611 Z M558 611 C558 648 527 678 490 678 C453 678 422 648 422 611 C422 573 453 543 490 543 C527 543 558 573 558 611 L558 611 Z " />
<glyph glyph-name="Ygrave" unicode="&#x1ef2;" horiz-adv-x="645" d="M597 607 C597 640 570 672 529 672 C505 672 483 660 470 639 L323 399 L173 640 C160 661 137 672 115 672 C75 672 47 639 47 607 C47 595 50 583 57 573 L252 273 L252 64 C252 26 284 -6 322 -6 C362 -6 394 26 394 64 L394 273 L587 572 C594 583 597 595 597 607 L597 607 Z M377 767 C377 775 374 783 368 789 L285 878 C277 886 267 890 257 890 C236 890 218 871 218 851 C218 841 222 831 230 824 L323 742 C329 737 336 734 344 734 C362 734 377 750 377 767 L377 767 Z " />
<glyph glyph-name="ygrave" unicode="&#x1ef3;" horiz-adv-x="513" d="M491 427 C491 458 467 489 429 489 C402 489 377 472 368 447 L256 147 L144 447 C134 473 110 489 85 489 C46 489 21 457 21 426 C21 419 22 412 25 405 L190 -7 L172 -48 C163 -68 145 -78 124 -82 C119 -83 113 -83 108 -83 C72 -83 48 -109 48 -139 C48 -174 82 -196 126 -196 C197 -196 258 -163 292 -79 L487 404 C490 411 491 419 491 427 L491 427 Z M311 583 C311 591 308 599 302 605 L219 694 C211 702 201 706 191 706 C170 706 152 687 152 667 C152 657 156 647 164 640 L257 558 C263 553 270 550 278 550 C296 550 311 566 311 583 L311 583 Z " />
<glyph glyph-name="endash" unicode="&#x2013;" horiz-adv-x="593" d="M569 243 C569 272 545 296 516 296 L77 296 C48 296 24 272 24 243 C24 212 48 188 77 188 L516 188 C545 188 569 212 569 243 L569 243 Z " />
<glyph glyph-name="emdash" unicode="&#x2014;" horiz-adv-x="833" d="M809 243 C809 272 785 296 756 296 L77 296 C48 296 24 272 24 243 C24 212 48 188 77 188 L756 188 C785 188 809 212 809 243 L809 243 Z " />
<glyph glyph-name="quoteleft" unicode="&#x2018;" horiz-adv-x="255" d="M207 470 C207 513 177 542 139 542 C132 542 123 540 120 539 C126 565 148 596 174 617 C180 622 183 630 183 638 C183 652 171 671 147 671 C137 671 127 668 120 661 C70 616 39 556 39 492 C39 427 82 390 129 390 C171 390 207 426 207 470 L207 470 Z " />
<glyph glyph-name="quoteright" unicode="&#x2019;" horiz-adv-x="255" d="M215 575 C215 640 172 677 125 677 C83 677 47 641 47 597 C47 554 77 525 115 525 C122 525 131 527 134 528 C128 502 106 471 80 450 C74 444 71 437 71 429 C71 414 85 396 107 396 C117 396 127 399 134 406 C184 451 215 511 215 575 L215 575 Z " />
<glyph glyph-name="quotesinglbase" unicode="&#x201a;" horiz-adv-x="256" d="M215 49 C215 114 172 151 125 151 C83 151 47 115 47 71 C47 28 77 -1 115 -1 C122 -1 131 1 134 2 C128 -24 106 -55 80 -76 C74 -82 71 -89 71 -97 C71 -112 85 -130 107 -130 C117 -130 127 -127 134 -120 C184 -75 215 -15 215 49 L215 49 Z " />
<glyph glyph-name="quotedblleft" unicode="&#x201c;" horiz-adv-x="459" d="M410 470 C410 513 380 542 342 542 C335 542 326 540 323 539 C329 565 351 596 377 617 C383 622 386 630 386 638 C386 651 373 671 350 671 C340 671 330 668 323 661 C273 616 242 556 242 492 C242 427 285 390 332 390 C374 390 410 426 410 470 L410 470 Z M207 470 C207 513 177 542 139 542 C132 542 123 540 120 539 C126 565 148 596 174 617 C180 622 183 630 183 638 C183 652 171 671 147 671 C137 671 127 668 120 661 C70 616 39 556 39 492 C39 427 82 390 129 390 C171 390 207 426 207 470 L207 470 Z " />
<glyph glyph-name="quotedblright" unicode="&#x201d;" horiz-adv-x="459" d="M419 575 C419 640 376 677 329 677 C287 677 251 641 251 597 C251 554 281 525 319 525 C326 525 335 527 338 528 C332 502 310 471 284 450 C278 444 275 437 275 429 C275 414 287 396 311 396 C320 396 330 399 338 406 C388 451 419 511 419 575 L419 575 Z M216 575 C216 640 173 677 126 677 C84 677 48 641 48 597 C48 554 78 525 116 525 C123 525 132 527 135 528 C129 502 107 471 81 450 C75 444 72 437 72 429 C72 415 84 396 108 396 C117 396 127 399 135 406 C185 451 216 511 216 575 L216 575 Z " />
<glyph glyph-name="quotedblbase" unicode="&#x201e;" horiz-adv-x="459" d="M215 49 C215 114 172 151 125 151 C83 151 47 115 47 71 C47 28 77 -1 115 -1 C122 -1 131 1 134 2 C128 -24 106 -55 80 -76 C74 -82 71 -89 71 -97 C71 -111 83 -130 107 -130 C116 -130 126 -127 134 -120 C184 -75 215 -15 215 49 L215 49 Z M419 49 C419 114 376 151 329 151 C287 151 251 115 251 71 C251 28 281 -1 319 -1 C326 -1 335 1 338 2 C332 -24 310 -55 284 -76 C278 -82 275 -89 275 -97 C275 -111 287 -130 311 -130 C320 -130 330 -127 338 -120 C388 -75 419 -15 419 49 L419 49 Z " />
<glyph glyph-name="dagger" unicode="&#x2020;" horiz-adv-x="277" d="M263 554 C263 570 249 583 233 583 L168 581 L171 650 C172 668 156 683 139 683 C119 683 105 668 106 650 L109 581 L44 583 C28 583 14 570 14 554 C14 536 28 522 44 523 L109 526 L105 354 C105 336 118 321 137 321 C157 321 171 336 171 354 L168 526 L233 523 C249 522 263 536 263 554 L263 554 Z " />
<glyph glyph-name="daggerdbl" unicode="&#x2021;" horiz-adv-x="277" d="M263 304 C263 321 249 336 233 335 L168 332 L168 526 L233 523 C249 522 263 536 263 552 C263 570 249 583 233 583 L168 581 L171 650 C172 668 156 683 139 683 C119 683 104 668 105 650 L108 581 L44 583 C28 583 14 570 14 554 C14 536 28 522 44 523 L108 526 L108 332 L44 335 C28 336 14 321 14 306 C14 288 28 274 44 275 L108 277 L105 207 C104 189 119 174 137 174 C156 174 172 189 171 207 L168 277 L233 275 C249 275 263 288 263 304 L263 304 Z " />
<glyph glyph-name="bullet" unicode="&#x2022;" horiz-adv-x="358" d="M299 242 C299 308 246 361 180 361 C114 361 61 308 61 242 C61 177 114 124 180 124 C246 124 299 177 299 242 L299 242 Z " />
<glyph glyph-name="ellipsis" unicode="&#x2026;" horiz-adv-x="768" d="M208 70 C208 114 171 151 127 151 C83 151 47 114 47 70 C47 27 83 -10 127 -10 C171 -10 208 27 208 70 L208 70 Z M464 70 C464 114 427 151 383 151 C339 151 303 114 303 70 C303 27 339 -10 383 -10 C427 -10 464 27 464 70 L464 70 Z M720 70 C720 114 683 151 639 151 C595 151 559 114 559 70 C559 27 595 -10 639 -10 C683 -10 720 27 720 70 L720 70 Z " />
<glyph glyph-name="perthousand" unicode="&#x2030;" horiz-adv-x="1122" d="M195 677 C93 677 26 603 26 509 C26 416 93 345 195 345 C298 345 365 416 365 509 C365 603 298 677 195 677 L195 677 Z M562 321 C460 321 393 247 393 153 C393 60 460 -12 562 -12 C664 -12 732 60 732 153 C732 247 664 321 562 321 L562 321 Z M562 58 C516 58 483 94 483 153 C483 214 516 250 562 250 C608 250 642 214 642 153 C642 94 608 58 562 58 L562 58 Z M926 58 C880 58 847 94 847 153 C847 214 880 250 926 250 C972 250 1006 214 1006 153 C1006 94 972 58 926 58 L926 58 Z M926 321 C824 321 757 247 757 153 C757 60 824 -12 926 -12 C1028 -12 1096 60 1096 153 C1096 247 1028 321 926 321 L926 321 Z M195 415 C150 415 116 450 116 509 C116 570 150 606 195 606 C241 606 274 570 274 509 C274 450 241 415 195 415 L195 415 Z M605 625 C608 630 610 636 610 641 C610 658 594 673 577 673 C567 673 557 668 551 659 L157 42 C154 37 152 31 152 25 C152 8 167 -6 185 -6 C195 -6 205 -1 211 8 L605 625 Z " />
<glyph glyph-name="guilsinglleft" unicode="&#x2039;" horiz-adv-x="337" d="M257 102 C257 113 254 123 247 131 L147 243 L247 354 C254 362 257 372 257 382 C257 407 235 425 213 425 C202 425 191 421 183 412 L84 302 C69 285 61 263 61 242 C61 221 68 200 83 183 L183 71 C191 62 203 57 214 57 C240 57 257 81 257 102 L257 102 Z " />
<glyph glyph-name="guilsinglright" unicode="&#x203a;" horiz-adv-x="337" d="M276 242 C276 263 268 285 253 302 L154 412 C146 421 135 425 123 425 C98 425 80 403 80 381 C80 371 83 362 90 354 L190 243 L90 131 C82 122 79 112 79 102 C79 77 101 57 123 57 C135 57 146 62 154 71 L254 183 C269 200 276 221 276 242 L276 242 Z " />
<glyph glyph-name="fraction" unicode="&#x2044;" horiz-adv-x="159" d="M308 641 C308 658 292 673 275 673 C265 673 255 668 249 659 L-145 42 C-148 37 -150 31 -150 25 C-150 8 -135 -6 -117 -6 C-107 -6 -97 -1 -91 8 L303 625 C306 630 308 636 308 641 L308 641 Z " />
<glyph glyph-name="Euro" unicode="&#x20ac;" horiz-adv-x="709" d="M412 678 C250 678 117 586 73 442 L52 442 C32 442 15 425 15 406 C15 384 32 367 52 367 L58 367 C57 356 57 344 57 333 C57 322 57 312 58 302 L52 302 C32 302 15 285 15 265 C15 243 32 226 52 226 L72 226 C116 81 249 -12 412 -12 C527 -12 604 38 654 99 C664 110 668 124 668 138 C668 171 640 200 603 200 C583 200 563 192 549 177 C512 136 462 114 412 114 C329 114 261 158 227 226 L442 226 C462 226 479 243 479 263 C479 285 462 302 442 302 L205 302 C204 312 203 322 203 333 C203 344 203 356 205 367 L443 367 C462 367 479 384 479 404 C479 425 462 442 443 442 L228 442 C263 509 330 552 412 552 C462 552 511 528 549 488 C563 473 582 465 601 465 C638 465 669 493 669 529 C669 542 664 557 655 568 C604 629 527 678 412 678 L412 678 Z " />
<glyph glyph-name="trademark" unicode="&#x2122;" horiz-adv-x="454" d="M419 454 L419 651 C419 663 409 673 395 673 C384 673 376 667 372 658 L312 507 L251 659 C247 668 239 673 229 673 C215 673 205 663 205 651 L205 454 C205 447 211 441 219 441 C227 441 233 447 233 454 L233 629 L302 461 C304 456 308 453 312 453 C316 453 320 456 322 461 L391 629 L391 454 C391 447 397 441 405 441 C413 441 419 447 419 454 L419 454 Z M175 654 C175 661 169 667 163 667 L23 667 C17 667 11 661 11 654 C11 647 17 641 23 641 L79 641 L79 454 C79 447 85 441 93 441 C101 441 107 447 107 454 L107 641 L163 641 C169 641 175 647 175 654 L175 654 Z " />
<glyph glyph-name="partialdiff" unicode="&#x2202;" horiz-adv-x="574" d="M543 256 C543 427 439 576 310 666 C296 675 280 681 264 681 C236 681 210 657 210 626 C210 608 218 591 237 579 C315 528 369 456 400 381 C365 436 313 460 246 460 C123 460 32 353 32 224 C32 96 128 -12 287 -12 C447 -12 543 96 543 256 L543 256 Z M411 224 C411 155 366 101 287 101 C208 101 164 155 164 224 C164 293 208 347 287 347 C366 347 411 293 411 224 L411 224 Z " />
<glyph glyph-name="Delta" unicode="&#x2206;" horiz-adv-x="684" d="M663 55 C663 61 661 68 659 75 L458 598 C439 648 387 678 335 673 C288 673 243 643 226 598 L24 75 C21 68 20 61 20 55 C20 26 43 0 75 0 L608 0 C640 0 663 26 663 55 L663 55 Z M488 125 L196 125 L342 525 L488 125 Z " />
<glyph glyph-name="product" unicode="&#x220f;" horiz-adv-x="788" d="M769 604 C769 639 741 667 708 667 L81 667 C47 667 19 639 19 606 C19 570 47 542 81 542 L129 542 L129 -26 C129 -64 161 -96 200 -96 C240 -96 272 -64 272 -26 L272 542 L516 542 L516 -26 C516 -64 548 -96 587 -96 C627 -96 659 -64 659 -26 L659 542 L708 542 C741 542 769 570 769 604 L769 604 Z " />
<glyph glyph-name="summation" unicode="&#x2211;" horiz-adv-x="586" d="M546 -29 C546 7 518 35 485 35 L217 35 L373 233 C387 251 395 273 395 296 C395 318 387 340 373 358 L224 542 L485 542 C518 542 546 570 546 604 C546 639 518 667 485 667 L121 667 C76 667 41 630 41 582 C41 561 48 539 61 523 L248 295 L60 54 C47 37 40 17 40 -4 C40 -54 78 -90 121 -90 L485 -90 C518 -90 546 -62 546 -29 L546 -29 Z " />
<glyph glyph-name="minus" unicode="&#x2212;" horiz-adv-x="511" d="M488 339 C488 360 471 377 450 377 L62 377 C40 377 23 360 23 339 C23 315 40 298 62 298 L450 298 C471 298 488 315 488 339 L488 339 Z " />
<glyph glyph-name="radical" unicode="&#x221a;" horiz-adv-x="682" d="M640 629 C640 653 622 673 596 673 C576 673 561 663 554 645 L364 127 L290 328 C278 360 246 381 213 381 C204 381 195 380 187 377 L82 341 C66 335 56 320 56 304 C56 280 75 264 95 264 C99 264 103 264 107 266 L208 302 L308 31 C316 9 338 -6 361 -6 C386 -6 408 9 416 30 L638 615 C640 620 640 624 640 629 L640 629 Z " />
<glyph glyph-name="infinity" unicode="&#x221e;" horiz-adv-x="690" d="M661 335 C661 420 614 512 494 512 C427 512 373 468 345 412 C317 468 263 512 195 512 C77 512 29 421 29 335 C29 251 77 158 195 158 C262 158 318 201 345 258 C373 202 427 158 494 158 C614 158 661 250 661 335 L661 335 Z M309 335 C291 282 256 236 207 236 C152 236 113 276 113 335 C113 395 152 434 207 434 C256 434 291 388 309 335 L309 335 Z M576 335 C576 275 538 237 484 237 C435 237 399 282 381 335 C399 388 435 434 484 434 C538 434 576 395 576 335 L576 335 Z " />
<glyph glyph-name="integral" unicode="&#x222b;" horiz-adv-x="373" d="M362 726 C362 749 347 768 317 768 L295 768 C215 768 141 707 141 608 L141 60 C141 15 112 -15 78 -15 L57 -15 C26 -15 11 -34 11 -58 C11 -81 26 -100 57 -100 L78 -100 C158 -100 233 -40 233 59 L233 609 C233 654 261 683 295 683 L317 683 C347 683 362 702 362 726 L362 726 Z " />
<glyph glyph-name="approxequal" unicode="&#x2248;" horiz-adv-x="504" d="M479 257 C479 304 400 307 363 307 C252 307 236 256 141 256 C117 256 95 259 74 265 C70 266 67 267 63 267 C43 267 25 251 25 228 C25 181 105 177 141 177 C253 177 269 229 363 229 C387 229 409 226 430 220 C434 219 437 218 441 218 C461 218 479 234 479 257 L479 257 Z M479 440 C479 487 400 490 363 490 C252 490 236 439 141 439 C117 439 95 442 74 448 C70 449 67 450 63 450 C43 450 25 434 25 411 C25 364 105 360 141 360 C253 360 269 412 363 412 C387 412 409 409 430 403 C434 402 437 401 441 401 C461 401 479 417 479 440 L479 440 Z " />
<glyph glyph-name="notequal" unicode="&#x2260;" horiz-adv-x="504" d="M481 239 C481 262 464 279 443 279 L255 279 L326 388 L442 388 C463 388 481 406 481 427 C481 450 463 468 442 468 L376 468 L416 531 C419 536 420 541 420 546 C420 561 407 579 387 579 C377 579 367 574 361 565 L299 468 L62 468 C41 468 23 450 23 429 C23 406 41 388 62 388 L249 388 L179 279 L61 279 C40 279 23 262 23 241 C23 218 40 201 61 201 L129 201 L88 136 C85 131 83 126 83 120 C83 103 99 88 116 88 C127 88 137 93 143 102 L205 201 L443 201 C464 201 481 218 481 239 L481 239 Z " />
<glyph glyph-name="lessequal" unicode="&#x2264;" horiz-adv-x="504" d="M480 173 C480 190 471 205 455 212 L120 354 L455 497 C471 504 480 520 480 536 C480 562 459 579 438 579 C432 579 427 578 422 576 L61 414 C38 404 23 380 23 356 C23 329 38 305 61 295 L422 134 C427 132 432 131 438 131 C458 131 480 147 480 173 L480 173 Z M481 40 C481 61 464 78 443 78 L61 78 C40 78 23 61 23 40 C23 17 40 0 61 0 L443 0 C463 0 482 17 481 40 L481 40 Z " />
<glyph glyph-name="greaterequal" unicode="&#x2265;" horiz-adv-x="504" d="M481 356 C481 380 466 404 443 414 L82 576 C77 578 71 579 66 579 C44 579 22 562 23 536 C23 520 32 504 49 497 L384 354 L49 212 C33 205 24 190 24 173 C24 148 45 131 66 131 C71 131 77 132 82 134 L443 295 C466 305 481 329 481 356 L481 356 Z M481 40 C481 61 464 78 443 78 L60 78 C39 78 22 61 22 40 C22 17 39 0 60 0 L443 0 C464 0 481 17 481 40 L481 40 Z " />
<glyph glyph-name="lozenge" unicode="&#x25ca;" horiz-adv-x="375" d="M345 334 C345 349 341 363 335 380 L202 658 C200 663 194 667 189 667 C181 667 175 663 173 658 L41 380 C33 364 30 348 30 334 C31 319 33 303 41 287 L173 9 C175 4 181 0 187 0 C194 0 200 4 202 9 L335 288 C342 303 345 319 345 334 L345 334 Z M320 334 L188 41 L55 334 L187 626 L320 334 Z " />
<glyph glyph-name="commaaccent" unicode="&#xf6c3;" horiz-adv-x="255" d="M197 -138 C197 -86 163 -57 126 -57 C92 -57 65 -85 65 -120 C65 -153 88 -176 118 -176 C124 -176 131 -175 133 -174 C127 -202 98 -227 86 -244 C83 -249 81 -253 81 -257 C81 -264 84 -269 88 -274 L89 -275 C94 -279 100 -282 107 -282 C116 -282 124 -279 130 -274 C172 -238 197 -190 197 -138 L197 -138 Z " />
<glyph glyph-name="uniF8FF" unicode="&#xf8ff;" horiz-adv-x="667" d="M625 154 C625 215 575 265 514 265 L448 265 L448 402 L514 402 C575 402 625 453 625 514 C625 575 575 625 514 625 C453 625 402 575 402 514 L402 447 L265 447 L265 514 C265 575 215 625 154 625 C93 625 42 575 42 514 C42 453 93 402 154 402 L219 402 L219 265 L153 265 C92 265 42 215 42 154 C42 93 92 42 153 42 C214 42 265 93 265 154 L265 220 L402 220 L402 154 C402 93 453 42 514 42 C575 42 625 93 625 154 L625 154 Z M579 514 C579 477 550 447 514 447 L448 447 L448 514 C448 550 477 580 514 580 C550 580 579 550 579 514 L579 514 Z M402 265 L265 265 L265 402 L402 402 L402 265 Z M579 154 C579 117 550 87 514 87 C477 87 448 117 448 154 L448 220 L514 220 C551 220 579 190 579 154 L579 154 Z M219 447 L154 447 C117 447 87 477 87 514 C87 550 117 580 154 580 C190 580 219 550 219 514 L219 447 Z M219 154 C219 117 189 87 153 87 C116 87 87 117 87 154 C87 190 116 220 152 220 L219 220 L219 154 Z " />
<glyph glyph-name="fi" unicode="&#xfb01;" horiz-adv-x="580" d="M453 686 C412 686 377 653 377 611 C377 569 412 535 453 535 C495 535 529 569 529 611 C529 653 495 686 453 686 L453 686 Z M517 57 L517 427 C517 461 489 489 455 489 C418 489 390 461 390 427 L390 57 C390 22 418 -6 453 -6 C489 -6 517 22 517 57 L517 57 Z M335 626 C335 662 309 677 254 677 C159 677 91 614 91 509 L91 483 L60 483 C30 483 5 458 5 429 C5 397 30 372 60 372 L91 372 L91 57 C91 22 119 -6 154 -6 C191 -6 219 22 219 57 L219 372 L269 372 C298 372 323 397 323 427 C323 458 298 483 269 483 L219 483 L219 509 C219 554 245 577 280 577 C284 577 288 577 291 577 C319 577 335 601 335 626 L335 626 Z " />
<glyph glyph-name="fl" unicode="&#xfb02;" horiz-adv-x="580" d="M517 57 L517 611 C517 645 489 673 455 673 C418 673 390 645 390 611 L390 57 C390 22 418 -6 453 -6 C489 -6 517 22 517 57 L517 57 Z M335 626 C335 662 309 677 254 677 C159 677 91 614 91 509 L91 483 L60 483 C30 483 5 458 5 429 C5 397 30 372 60 372 L91 372 L91 57 C91 22 119 -6 154 -6 C191 -6 219 22 219 57 L219 372 L269 372 C298 372 323 397 323 427 C323 458 298 483 269 483 L219 483 L219 509 C219 554 245 577 280 577 C284 577 288 577 291 577 C319 577 335 601 335 626 L335 626 Z " />
</font>
</svg>
